%TF.GenerationSoftware,KiCad,Pcbnew,(6.0.6-0)*%
%TF.CreationDate,2022-07-06T00:09:10-04:00*%
%TF.ProjectId,PS2VGA Plug PCB,50533256-4741-4205-906c-756720504342,rev?*%
%TF.SameCoordinates,Original*%
%TF.FileFunction,Copper,L2,Bot*%
%TF.FilePolarity,Positive*%
%FSLAX46Y46*%
G04 Gerber Fmt 4.6, Leading zero omitted, Abs format (unit mm)*
G04 Created by KiCad (PCBNEW (6.0.6-0)) date 2022-07-06 00:09:10*
%MOMM*%
%LPD*%
G01*
G04 APERTURE LIST*
G04 Aperture macros list*
%AMRoundRect*
0 Rectangle with rounded corners*
0 $1 Rounding radius*
0 $2 $3 $4 $5 $6 $7 $8 $9 X,Y pos of 4 corners*
0 Add a 4 corners polygon primitive as box body*
4,1,4,$2,$3,$4,$5,$6,$7,$8,$9,$2,$3,0*
0 Add four circle primitives for the rounded corners*
1,1,$1+$1,$2,$3*
1,1,$1+$1,$4,$5*
1,1,$1+$1,$6,$7*
1,1,$1+$1,$8,$9*
0 Add four rect primitives between the rounded corners*
20,1,$1+$1,$2,$3,$4,$5,0*
20,1,$1+$1,$4,$5,$6,$7,0*
20,1,$1+$1,$6,$7,$8,$9,0*
20,1,$1+$1,$8,$9,$2,$3,0*%
G04 Aperture macros list end*
%TA.AperFunction,ComponentPad*%
%ADD10O,1.508000X3.016000*%
%TD*%
%TA.AperFunction,ComponentPad*%
%ADD11O,3.500000X1.800000*%
%TD*%
%TA.AperFunction,ComponentPad*%
%ADD12O,2.000000X3.500000*%
%TD*%
%TA.AperFunction,ComponentPad*%
%ADD13C,1.524000*%
%TD*%
%TA.AperFunction,SMDPad,CuDef*%
%ADD14RoundRect,0.225000X0.250000X-0.225000X0.250000X0.225000X-0.250000X0.225000X-0.250000X-0.225000X0*%
%TD*%
%TA.AperFunction,ComponentPad*%
%ADD15R,1.000000X1.500000*%
%TD*%
%TA.AperFunction,ComponentPad*%
%ADD16RoundRect,0.250000X0.250000X0.500000X-0.250000X0.500000X-0.250000X-0.500000X0.250000X-0.500000X0*%
%TD*%
%TA.AperFunction,Conductor*%
%ADD17C,0.250000*%
%TD*%
G04 APERTURE END LIST*
D10*
%TO.P,J1,1,Sleeve/GND*%
%TO.N,GND*%
X141980000Y-105950000D03*
%TO.P,J1,2,Tip/L_Jack*%
%TO.N,Audio L*%
X144380000Y-103950000D03*
%TO.P,J1,3,Ring/R_Jack*%
%TO.N,Audio R*%
X149880000Y-103950000D03*
%TO.P,J1,4,Tip/L_VGA*%
%TO.N,Net-(C15-Pad1)*%
X153580000Y-105950000D03*
%TO.P,J1,5,Ring/R_VGA*%
%TO.N,Net-(C14-Pad1)*%
X148080000Y-105950000D03*
%TD*%
D11*
%TO.P,P2,1,Signal*%
%TO.N,CVBS*%
X153590000Y-95238393D03*
D12*
%TO.P,P2,2,GND*%
%TO.N,GND*%
X148690000Y-95238393D03*
%TD*%
D13*
%TO.P,P3,1,Red*%
%TO.N,Red*%
X159010000Y-118370000D03*
%TO.P,P3,2,Green*%
%TO.N,Green*%
X159010000Y-108210000D03*
%TO.P,P3,3,Blue*%
%TO.N,Blue*%
X159010000Y-105670000D03*
%TO.P,P3,4,Luma*%
%TO.N,Luma*%
X159010000Y-103130000D03*
%TO.P,P3,5,CVBS*%
%TO.N,CVBS*%
X159010000Y-100590000D03*
%TO.P,P3,6,Audio_L_Decoupled*%
%TO.N,Audio L Decoupled*%
X159010000Y-98050000D03*
%TO.P,P3,7,Audio_R_Decoupled*%
%TO.N,Audio R Decoupled*%
X159010000Y-95510000D03*
%TO.P,P3,8,+5V*%
%TO.N,+5V*%
X159010000Y-92970000D03*
%TO.P,P3,9,GND*%
%TO.N,GND*%
X159010000Y-115830000D03*
%TO.P,P3,10,GND*%
X159010000Y-113290000D03*
%TD*%
D14*
%TO.P,C15,1*%
%TO.N,Net-(C15-Pad1)*%
X155390000Y-103705000D03*
%TO.P,C15,2*%
%TO.N,Audio L Decoupled*%
X155390000Y-102155000D03*
%TD*%
%TO.P,C14,1*%
%TO.N,Net-(C14-Pad1)*%
X151870000Y-103705000D03*
%TO.P,C14,2*%
%TO.N,Audio R Decoupled*%
X151870000Y-102155000D03*
%TD*%
D15*
%TO.P,P1,1,Green*%
%TO.N,Green*%
X157040000Y-111540000D03*
D16*
%TO.P,P1,2,Red*%
%TO.N,Red*%
X155940000Y-114240000D03*
%TO.P,P1,3,+5V*%
%TO.N,+5V*%
X154650000Y-111540000D03*
%TO.P,P1,4,Blue*%
%TO.N,Blue*%
X153550000Y-114240000D03*
%TO.P,P1,5,RGBYC_GND*%
%TO.N,GND*%
X152260000Y-111540000D03*
%TO.P,P1,6,Chroma*%
%TO.N,unconnected-(P1-Pad6)*%
X151160000Y-114240000D03*
%TO.P,P1,7,CVBS*%
%TO.N,CVBS*%
X149870000Y-111540000D03*
%TO.P,P1,8,Luma*%
%TO.N,Luma*%
X148770000Y-114240000D03*
%TO.P,P1,9,Audio_R*%
%TO.N,Audio R*%
X147480000Y-111540000D03*
%TO.P,P1,10,CVBS_GND*%
%TO.N,GND*%
X146380000Y-114240000D03*
%TO.P,P1,11,Audio_L*%
%TO.N,Audio L*%
X145090000Y-111540000D03*
%TO.P,P1,12,Audio_GND*%
%TO.N,GND*%
X143990000Y-114240000D03*
%TD*%
D17*
%TO.N,Net-(C14-Pad1)*%
X148080000Y-105950000D02*
X148400000Y-106270000D01*
X148400000Y-106270000D02*
X150590000Y-106270000D01*
X151870000Y-104990000D02*
X151870000Y-103700000D01*
X150590000Y-106270000D02*
X151870000Y-104990000D01*
%TO.N,Audio R Decoupled*%
X152365000Y-102155000D02*
X159010000Y-95510000D01*
X151870000Y-102155000D02*
X152365000Y-102155000D01*
%TO.N,Net-(C15-Pad1)*%
X155390000Y-104140000D02*
X155390000Y-103700000D01*
X153580000Y-105950000D02*
X155390000Y-104140000D01*
%TO.N,Audio L Decoupled*%
X155390000Y-102155000D02*
X155390000Y-101670000D01*
X155390000Y-101670000D02*
X159010000Y-98050000D01*
%TO.N,+5V*%
X146318649Y-103951351D02*
X148920000Y-101350000D01*
X148920000Y-101350000D02*
X150610000Y-101350000D01*
X158990000Y-92970000D02*
X159010000Y-92970000D01*
X153300000Y-112890000D02*
X146780000Y-112890000D01*
X146318649Y-112428649D02*
X146318649Y-103951351D01*
X154650000Y-111540000D02*
X153300000Y-112890000D01*
X150610000Y-101350000D02*
X158990000Y-92970000D01*
X146780000Y-112890000D02*
X146318649Y-112428649D01*
%TO.N,CVBS*%
X154580000Y-108970000D02*
X157300000Y-106250000D01*
X157300000Y-102300000D02*
X159010000Y-100590000D01*
X152210000Y-108970000D02*
X154580000Y-108970000D01*
X149870000Y-111540000D02*
X149870000Y-111310000D01*
X157300000Y-106250000D02*
X157300000Y-102300000D01*
X149870000Y-111310000D02*
X152210000Y-108970000D01*
%TD*%
%TA.AperFunction,Conductor*%
%TO.N,GND*%
G36*
X159500504Y-90391262D02*
G01*
X159509713Y-90393379D01*
X159518390Y-90391415D01*
X159527287Y-90391431D01*
X159527286Y-90392227D01*
X159535226Y-90391736D01*
X159666283Y-90404644D01*
X159681472Y-90407666D01*
X159824290Y-90450989D01*
X159838598Y-90456915D01*
X159970234Y-90527276D01*
X159983111Y-90535880D01*
X160098484Y-90630565D01*
X160109435Y-90641516D01*
X160204120Y-90756889D01*
X160212724Y-90769766D01*
X160283085Y-90901402D01*
X160289011Y-90915710D01*
X160332334Y-91058529D01*
X160335356Y-91073718D01*
X160348249Y-91204625D01*
X160348629Y-91212504D01*
X160348614Y-91221045D01*
X160346621Y-91229713D01*
X160348584Y-91238388D01*
X160348584Y-91238390D01*
X160348801Y-91239347D01*
X160350749Y-91256782D01*
X160350749Y-120032794D01*
X160348740Y-120050498D01*
X160346621Y-120059713D01*
X160348585Y-120068390D01*
X160348569Y-120077287D01*
X160347773Y-120077286D01*
X160348264Y-120085226D01*
X160335356Y-120216283D01*
X160332334Y-120231472D01*
X160289011Y-120374290D01*
X160283085Y-120388598D01*
X160212724Y-120520234D01*
X160204120Y-120533111D01*
X160109435Y-120648484D01*
X160098484Y-120659435D01*
X159983111Y-120754120D01*
X159970234Y-120762724D01*
X159838598Y-120833085D01*
X159824290Y-120839011D01*
X159681471Y-120882334D01*
X159666282Y-120885356D01*
X159535375Y-120898249D01*
X159527496Y-120898629D01*
X159518955Y-120898614D01*
X159510287Y-120896621D01*
X159501612Y-120898584D01*
X159501610Y-120898584D01*
X159500653Y-120898801D01*
X159483218Y-120900749D01*
X141517206Y-120900749D01*
X141499502Y-120898740D01*
X141490287Y-120896621D01*
X141481610Y-120898585D01*
X141472713Y-120898569D01*
X141472714Y-120897773D01*
X141464774Y-120898264D01*
X141333717Y-120885356D01*
X141318528Y-120882334D01*
X141175710Y-120839011D01*
X141161402Y-120833085D01*
X141029766Y-120762724D01*
X141016889Y-120754120D01*
X140901516Y-120659435D01*
X140890565Y-120648484D01*
X140795880Y-120533111D01*
X140787276Y-120520234D01*
X140716915Y-120388598D01*
X140710989Y-120374290D01*
X140667666Y-120231472D01*
X140664644Y-120216284D01*
X140651776Y-120085645D01*
X140651916Y-120068852D01*
X140652368Y-120064930D01*
X140653378Y-120060575D01*
X140653379Y-120060000D01*
X140652386Y-120055645D01*
X140652385Y-120055640D01*
X140651229Y-120050573D01*
X140649251Y-120033005D01*
X140649251Y-118356496D01*
X158042937Y-118356496D01*
X158058732Y-118544590D01*
X158059794Y-118548294D01*
X158059795Y-118548299D01*
X158109696Y-118722324D01*
X158110760Y-118726034D01*
X158197040Y-118893917D01*
X158314285Y-119041844D01*
X158458030Y-119164180D01*
X158622800Y-119256267D01*
X158626462Y-119257457D01*
X158626467Y-119257459D01*
X158742481Y-119295153D01*
X158802317Y-119314595D01*
X158806156Y-119315053D01*
X158806157Y-119315053D01*
X158985903Y-119336487D01*
X158985904Y-119336487D01*
X158989745Y-119336945D01*
X159177945Y-119322464D01*
X159359748Y-119271703D01*
X159528229Y-119186598D01*
X159676970Y-119070388D01*
X159704216Y-119038823D01*
X159797783Y-118930426D01*
X159797787Y-118930421D01*
X159800307Y-118927501D01*
X159802213Y-118924145D01*
X159802217Y-118924140D01*
X159891633Y-118766738D01*
X159893542Y-118763378D01*
X159909989Y-118713938D01*
X159951902Y-118587944D01*
X159951903Y-118587939D01*
X159953123Y-118584272D01*
X159976780Y-118397005D01*
X159977157Y-118370000D01*
X159958738Y-118182145D01*
X159904181Y-118001445D01*
X159815566Y-117834783D01*
X159696266Y-117688508D01*
X159550827Y-117568191D01*
X159533696Y-117558928D01*
X159388184Y-117480250D01*
X159388182Y-117480249D01*
X159384788Y-117478414D01*
X159204474Y-117422597D01*
X159016752Y-117402867D01*
X159012906Y-117403217D01*
X159012905Y-117403217D01*
X158966714Y-117407421D01*
X158828773Y-117419974D01*
X158825066Y-117421065D01*
X158651406Y-117472176D01*
X158651403Y-117472177D01*
X158647697Y-117473268D01*
X158644270Y-117475060D01*
X158644269Y-117475060D01*
X158617369Y-117489123D01*
X158480420Y-117560718D01*
X158333316Y-117678993D01*
X158211986Y-117823588D01*
X158121052Y-117988996D01*
X158063978Y-118168917D01*
X158042937Y-118356496D01*
X140649251Y-118356496D01*
X140649251Y-116700919D01*
X158498128Y-116700919D01*
X158498635Y-116702812D01*
X158500870Y-116704832D01*
X158599519Y-116759965D01*
X158606553Y-116763039D01*
X158787962Y-116821981D01*
X158795475Y-116823633D01*
X158984861Y-116846216D01*
X158992562Y-116846377D01*
X159182731Y-116831744D01*
X159190300Y-116830410D01*
X159374020Y-116779114D01*
X159381181Y-116776336D01*
X159515980Y-116708245D01*
X159523752Y-116699969D01*
X159523811Y-116698913D01*
X159521502Y-116695055D01*
X159019851Y-116193404D01*
X159009557Y-116188604D01*
X159003263Y-116190290D01*
X158502928Y-116690625D01*
X158498128Y-116700919D01*
X140649251Y-116700919D01*
X140649251Y-115819648D01*
X157993525Y-115819648D01*
X158009486Y-116009724D01*
X158010872Y-116017278D01*
X158063448Y-116200631D01*
X158066280Y-116207783D01*
X158132010Y-116335681D01*
X158140341Y-116343396D01*
X158141549Y-116343455D01*
X158145186Y-116341261D01*
X158646596Y-115839851D01*
X158650983Y-115830443D01*
X159368604Y-115830443D01*
X159370290Y-115836737D01*
X159870507Y-116336954D01*
X159880801Y-116341754D01*
X159882838Y-116341209D01*
X159884700Y-116339162D01*
X159937074Y-116246967D01*
X159940202Y-116239942D01*
X160000407Y-116058956D01*
X160002110Y-116051463D01*
X160026224Y-115860588D01*
X160026532Y-115856178D01*
X160026866Y-115832214D01*
X160026681Y-115827800D01*
X160007907Y-115636328D01*
X160006413Y-115628784D01*
X159951286Y-115446195D01*
X159948353Y-115439078D01*
X159887590Y-115324800D01*
X159879152Y-115317203D01*
X159877644Y-115317150D01*
X159874438Y-115319115D01*
X159373404Y-115820149D01*
X159368604Y-115830443D01*
X158650983Y-115830443D01*
X158651396Y-115829557D01*
X158649710Y-115823263D01*
X158149220Y-115322773D01*
X158138926Y-115317973D01*
X158137180Y-115318441D01*
X158134999Y-115320871D01*
X158077197Y-115426013D01*
X158074165Y-115433087D01*
X158016493Y-115614894D01*
X158014895Y-115622410D01*
X157993632Y-115811968D01*
X157993525Y-115819648D01*
X140649251Y-115819648D01*
X140649251Y-114785202D01*
X143240000Y-114785202D01*
X143240230Y-114789449D01*
X143246107Y-114843550D01*
X143248380Y-114853108D01*
X143294941Y-114977310D01*
X143300294Y-114987087D01*
X143379437Y-115092687D01*
X143387313Y-115100563D01*
X143492913Y-115179706D01*
X143502690Y-115185059D01*
X143626892Y-115231620D01*
X143636450Y-115233893D01*
X143690551Y-115239770D01*
X143694798Y-115240000D01*
X143726070Y-115240000D01*
X143736741Y-115236116D01*
X143740000Y-115230472D01*
X143740000Y-115226070D01*
X144240000Y-115226070D01*
X144243884Y-115236741D01*
X144249528Y-115240000D01*
X144285202Y-115240000D01*
X144289449Y-115239770D01*
X144343550Y-115233893D01*
X144353108Y-115231620D01*
X144477310Y-115185059D01*
X144487087Y-115179706D01*
X144592687Y-115100563D01*
X144600563Y-115092687D01*
X144679706Y-114987087D01*
X144685059Y-114977310D01*
X144731620Y-114853108D01*
X144733893Y-114843550D01*
X144739770Y-114789449D01*
X144740000Y-114785202D01*
X145630000Y-114785202D01*
X145630230Y-114789449D01*
X145636107Y-114843550D01*
X145638380Y-114853108D01*
X145684941Y-114977310D01*
X145690294Y-114987087D01*
X145769437Y-115092687D01*
X145777313Y-115100563D01*
X145882913Y-115179706D01*
X145892690Y-115185059D01*
X146016892Y-115231620D01*
X146026450Y-115233893D01*
X146080551Y-115239770D01*
X146084798Y-115240000D01*
X146116070Y-115240000D01*
X146126741Y-115236116D01*
X146130000Y-115230472D01*
X146130000Y-115226070D01*
X146630000Y-115226070D01*
X146633884Y-115236741D01*
X146639528Y-115240000D01*
X146675202Y-115240000D01*
X146679449Y-115239770D01*
X146733550Y-115233893D01*
X146743108Y-115231620D01*
X146867310Y-115185059D01*
X146877087Y-115179706D01*
X146982687Y-115100563D01*
X146990563Y-115092687D01*
X147069706Y-114987087D01*
X147075059Y-114977310D01*
X147121620Y-114853108D01*
X147123893Y-114843550D01*
X147129770Y-114789449D01*
X147130000Y-114785202D01*
X147130000Y-114503930D01*
X147126116Y-114493259D01*
X147120472Y-114490000D01*
X146643930Y-114490000D01*
X146633259Y-114493884D01*
X146630000Y-114499528D01*
X146630000Y-115226070D01*
X146130000Y-115226070D01*
X146130000Y-114503930D01*
X146126116Y-114493259D01*
X146120472Y-114490000D01*
X145643930Y-114490000D01*
X145633259Y-114493884D01*
X145630000Y-114499528D01*
X145630000Y-114785202D01*
X144740000Y-114785202D01*
X144740000Y-114503930D01*
X144736116Y-114493259D01*
X144730472Y-114490000D01*
X144253930Y-114490000D01*
X144243259Y-114493884D01*
X144240000Y-114499528D01*
X144240000Y-115226070D01*
X143740000Y-115226070D01*
X143740000Y-114503930D01*
X143736116Y-114493259D01*
X143730472Y-114490000D01*
X143253930Y-114490000D01*
X143243259Y-114493884D01*
X143240000Y-114499528D01*
X143240000Y-114785202D01*
X140649251Y-114785202D01*
X140649251Y-113976070D01*
X143240000Y-113976070D01*
X143243884Y-113986741D01*
X143249528Y-113990000D01*
X143726070Y-113990000D01*
X143736741Y-113986116D01*
X143740000Y-113980472D01*
X143740000Y-113976070D01*
X144240000Y-113976070D01*
X144243884Y-113986741D01*
X144249528Y-113990000D01*
X144726070Y-113990000D01*
X144736741Y-113986116D01*
X144740000Y-113980472D01*
X144740000Y-113976070D01*
X145630000Y-113976070D01*
X145633884Y-113986741D01*
X145639528Y-113990000D01*
X146116070Y-113990000D01*
X146126741Y-113986116D01*
X146130000Y-113980472D01*
X146130000Y-113253930D01*
X146126116Y-113243259D01*
X146120472Y-113240000D01*
X146084798Y-113240000D01*
X146080551Y-113240230D01*
X146026450Y-113246107D01*
X146016892Y-113248380D01*
X145892690Y-113294941D01*
X145882913Y-113300294D01*
X145777313Y-113379437D01*
X145769437Y-113387313D01*
X145690294Y-113492913D01*
X145684941Y-113502690D01*
X145638380Y-113626892D01*
X145636107Y-113636450D01*
X145630230Y-113690551D01*
X145630000Y-113694798D01*
X145630000Y-113976070D01*
X144740000Y-113976070D01*
X144740000Y-113694798D01*
X144739770Y-113690551D01*
X144733893Y-113636450D01*
X144731620Y-113626892D01*
X144685059Y-113502690D01*
X144679706Y-113492913D01*
X144600563Y-113387313D01*
X144592687Y-113379437D01*
X144487087Y-113300294D01*
X144477310Y-113294941D01*
X144353108Y-113248380D01*
X144343550Y-113246107D01*
X144289449Y-113240230D01*
X144285202Y-113240000D01*
X144253930Y-113240000D01*
X144243259Y-113243884D01*
X144240000Y-113249528D01*
X144240000Y-113976070D01*
X143740000Y-113976070D01*
X143740000Y-113253930D01*
X143736116Y-113243259D01*
X143730472Y-113240000D01*
X143694798Y-113240000D01*
X143690551Y-113240230D01*
X143636450Y-113246107D01*
X143626892Y-113248380D01*
X143502690Y-113294941D01*
X143492913Y-113300294D01*
X143387313Y-113379437D01*
X143379437Y-113387313D01*
X143300294Y-113492913D01*
X143294941Y-113502690D01*
X143248380Y-113626892D01*
X143246107Y-113636450D01*
X143240230Y-113690551D01*
X143240000Y-113694798D01*
X143240000Y-113976070D01*
X140649251Y-113976070D01*
X140649251Y-112093834D01*
X144389500Y-112093834D01*
X144392481Y-112125369D01*
X144437366Y-112253184D01*
X144440871Y-112257930D01*
X144440872Y-112257931D01*
X144476275Y-112305862D01*
X144517850Y-112362150D01*
X144522594Y-112365654D01*
X144621723Y-112438872D01*
X144626816Y-112442634D01*
X144632383Y-112444589D01*
X144632385Y-112444590D01*
X144669023Y-112457456D01*
X144754631Y-112487519D01*
X144786166Y-112490500D01*
X145393834Y-112490500D01*
X145425369Y-112487519D01*
X145510977Y-112457456D01*
X145989385Y-112457456D01*
X145997014Y-112485924D01*
X145999672Y-112495844D01*
X146001162Y-112502567D01*
X146008061Y-112541694D01*
X146011517Y-112547680D01*
X146013881Y-112554175D01*
X146013824Y-112554196D01*
X146014329Y-112555416D01*
X146014384Y-112555391D01*
X146017306Y-112561658D01*
X146019095Y-112568333D01*
X146041896Y-112600895D01*
X146045572Y-112606665D01*
X146065455Y-112641104D01*
X146095909Y-112666658D01*
X146100979Y-112671305D01*
X146537340Y-113107666D01*
X146541997Y-113112747D01*
X146567545Y-113143194D01*
X146592016Y-113157322D01*
X146626751Y-113198717D01*
X146626751Y-113232803D01*
X146630899Y-113233166D01*
X146630000Y-113243443D01*
X146630000Y-113976070D01*
X146633884Y-113986741D01*
X146639528Y-113990000D01*
X147116070Y-113990000D01*
X147126741Y-113986116D01*
X147130000Y-113980472D01*
X147130000Y-113694798D01*
X147129770Y-113690551D01*
X147123893Y-113636450D01*
X147121620Y-113626892D01*
X147075059Y-113502690D01*
X147069706Y-113492913D01*
X146990563Y-113387313D01*
X146982687Y-113379437D01*
X146953705Y-113357716D01*
X146924154Y-113312472D01*
X146930600Y-113258819D01*
X146970025Y-113221861D01*
X147001083Y-113215500D01*
X148231882Y-113215500D01*
X148282662Y-113233982D01*
X148309682Y-113280782D01*
X148300298Y-113334000D01*
X148278819Y-113358045D01*
X148197850Y-113417850D01*
X148194346Y-113422594D01*
X148123172Y-113518956D01*
X148117366Y-113526816D01*
X148072481Y-113654631D01*
X148069500Y-113686166D01*
X148069500Y-114793834D01*
X148072481Y-114825369D01*
X148117366Y-114953184D01*
X148120871Y-114957930D01*
X148120872Y-114957931D01*
X148135186Y-114977310D01*
X148197850Y-115062150D01*
X148202594Y-115065654D01*
X148239194Y-115092687D01*
X148306816Y-115142634D01*
X148312383Y-115144589D01*
X148312385Y-115144590D01*
X148370840Y-115165118D01*
X148434631Y-115187519D01*
X148466166Y-115190500D01*
X149073834Y-115190500D01*
X149105369Y-115187519D01*
X149169160Y-115165118D01*
X149227615Y-115144590D01*
X149227617Y-115144589D01*
X149233184Y-115142634D01*
X149300807Y-115092687D01*
X149337406Y-115065654D01*
X149342150Y-115062150D01*
X149404814Y-114977310D01*
X149419128Y-114957931D01*
X149419129Y-114957930D01*
X149422634Y-114953184D01*
X149467519Y-114825369D01*
X149470500Y-114793834D01*
X149470500Y-113686166D01*
X149467519Y-113654631D01*
X149422634Y-113526816D01*
X149416829Y-113518956D01*
X149345654Y-113422594D01*
X149342150Y-113417850D01*
X149261182Y-113358046D01*
X149231317Y-113313009D01*
X149237387Y-113259312D01*
X149276554Y-113222080D01*
X149308118Y-113215500D01*
X150621882Y-113215500D01*
X150672662Y-113233982D01*
X150699682Y-113280782D01*
X150690298Y-113334000D01*
X150668819Y-113358045D01*
X150587850Y-113417850D01*
X150584346Y-113422594D01*
X150513172Y-113518956D01*
X150507366Y-113526816D01*
X150462481Y-113654631D01*
X150459500Y-113686166D01*
X150459500Y-114793834D01*
X150462481Y-114825369D01*
X150507366Y-114953184D01*
X150510871Y-114957930D01*
X150510872Y-114957931D01*
X150525186Y-114977310D01*
X150587850Y-115062150D01*
X150592594Y-115065654D01*
X150629194Y-115092687D01*
X150696816Y-115142634D01*
X150702383Y-115144589D01*
X150702385Y-115144590D01*
X150760840Y-115165118D01*
X150824631Y-115187519D01*
X150856166Y-115190500D01*
X151463834Y-115190500D01*
X151495369Y-115187519D01*
X151559160Y-115165118D01*
X151617615Y-115144590D01*
X151617617Y-115144589D01*
X151623184Y-115142634D01*
X151690807Y-115092687D01*
X151727406Y-115065654D01*
X151732150Y-115062150D01*
X151794814Y-114977310D01*
X151809128Y-114957931D01*
X151809129Y-114957930D01*
X151812634Y-114953184D01*
X151857519Y-114825369D01*
X151860500Y-114793834D01*
X151860500Y-113686166D01*
X151857519Y-113654631D01*
X151812634Y-113526816D01*
X151806829Y-113518956D01*
X151735654Y-113422594D01*
X151732150Y-113417850D01*
X151651182Y-113358046D01*
X151621317Y-113313009D01*
X151627387Y-113259312D01*
X151666554Y-113222080D01*
X151698118Y-113215500D01*
X153011882Y-113215500D01*
X153062662Y-113233982D01*
X153089682Y-113280782D01*
X153080298Y-113334000D01*
X153058819Y-113358045D01*
X152977850Y-113417850D01*
X152974346Y-113422594D01*
X152903172Y-113518956D01*
X152897366Y-113526816D01*
X152852481Y-113654631D01*
X152849500Y-113686166D01*
X152849500Y-114793834D01*
X152852481Y-114825369D01*
X152897366Y-114953184D01*
X152900871Y-114957930D01*
X152900872Y-114957931D01*
X152915186Y-114977310D01*
X152977850Y-115062150D01*
X152982594Y-115065654D01*
X153019194Y-115092687D01*
X153086816Y-115142634D01*
X153092383Y-115144589D01*
X153092385Y-115144590D01*
X153150840Y-115165118D01*
X153214631Y-115187519D01*
X153246166Y-115190500D01*
X153853834Y-115190500D01*
X153885369Y-115187519D01*
X153949160Y-115165118D01*
X154007615Y-115144590D01*
X154007617Y-115144589D01*
X154013184Y-115142634D01*
X154080807Y-115092687D01*
X154117406Y-115065654D01*
X154122150Y-115062150D01*
X154184814Y-114977310D01*
X154199128Y-114957931D01*
X154199129Y-114957930D01*
X154202634Y-114953184D01*
X154247519Y-114825369D01*
X154250500Y-114793834D01*
X155239500Y-114793834D01*
X155242481Y-114825369D01*
X155287366Y-114953184D01*
X155290871Y-114957930D01*
X155290872Y-114957931D01*
X155305186Y-114977310D01*
X155367850Y-115062150D01*
X155372594Y-115065654D01*
X155409194Y-115092687D01*
X155476816Y-115142634D01*
X155482383Y-115144589D01*
X155482385Y-115144590D01*
X155540840Y-115165118D01*
X155604631Y-115187519D01*
X155636166Y-115190500D01*
X156243834Y-115190500D01*
X156275369Y-115187519D01*
X156339160Y-115165118D01*
X156397615Y-115144590D01*
X156397617Y-115144589D01*
X156403184Y-115142634D01*
X156470807Y-115092687D01*
X156507406Y-115065654D01*
X156512150Y-115062150D01*
X156574814Y-114977310D01*
X156586144Y-114961971D01*
X158496866Y-114961971D01*
X158498948Y-114965395D01*
X159000149Y-115466596D01*
X159010443Y-115471396D01*
X159016737Y-115469710D01*
X159517419Y-114969028D01*
X159522219Y-114958734D01*
X159521790Y-114957132D01*
X159519169Y-114954797D01*
X159407459Y-114894396D01*
X159400377Y-114891419D01*
X159218170Y-114835017D01*
X159210629Y-114833469D01*
X159020942Y-114813532D01*
X159013252Y-114813478D01*
X158823302Y-114830765D01*
X158815746Y-114832206D01*
X158632773Y-114886058D01*
X158625636Y-114888942D01*
X158504578Y-114952229D01*
X158496923Y-114960613D01*
X158496866Y-114961971D01*
X156586144Y-114961971D01*
X156589128Y-114957931D01*
X156589129Y-114957930D01*
X156592634Y-114953184D01*
X156637519Y-114825369D01*
X156640500Y-114793834D01*
X156640500Y-114160919D01*
X158498128Y-114160919D01*
X158498635Y-114162812D01*
X158500870Y-114164832D01*
X158599519Y-114219965D01*
X158606553Y-114223039D01*
X158787962Y-114281981D01*
X158795475Y-114283633D01*
X158984861Y-114306216D01*
X158992562Y-114306377D01*
X159182731Y-114291744D01*
X159190300Y-114290410D01*
X159374020Y-114239114D01*
X159381181Y-114236336D01*
X159515980Y-114168245D01*
X159523752Y-114159969D01*
X159523811Y-114158913D01*
X159521502Y-114155055D01*
X159019851Y-113653404D01*
X159009557Y-113648604D01*
X159003263Y-113650290D01*
X158502928Y-114150625D01*
X158498128Y-114160919D01*
X156640500Y-114160919D01*
X156640500Y-113686166D01*
X156637519Y-113654631D01*
X156592634Y-113526816D01*
X156586829Y-113518956D01*
X156515654Y-113422594D01*
X156512150Y-113417850D01*
X156507406Y-113414346D01*
X156407931Y-113340872D01*
X156407930Y-113340871D01*
X156403184Y-113337366D01*
X156397617Y-113335411D01*
X156397615Y-113335410D01*
X156333825Y-113313009D01*
X156275369Y-113292481D01*
X156243834Y-113289500D01*
X155636166Y-113289500D01*
X155604631Y-113292481D01*
X155546175Y-113313009D01*
X155482385Y-113335410D01*
X155482383Y-113335411D01*
X155476816Y-113337366D01*
X155472070Y-113340871D01*
X155472069Y-113340872D01*
X155372594Y-113414346D01*
X155367850Y-113417850D01*
X155364346Y-113422594D01*
X155293172Y-113518956D01*
X155287366Y-113526816D01*
X155242481Y-113654631D01*
X155239500Y-113686166D01*
X155239500Y-114793834D01*
X154250500Y-114793834D01*
X154250500Y-113686166D01*
X154247519Y-113654631D01*
X154202634Y-113526816D01*
X154196829Y-113518956D01*
X154125654Y-113422594D01*
X154122150Y-113417850D01*
X154117406Y-113414346D01*
X154017931Y-113340872D01*
X154017930Y-113340871D01*
X154013184Y-113337366D01*
X154007617Y-113335411D01*
X154007615Y-113335410D01*
X153943825Y-113313009D01*
X153885369Y-113292481D01*
X153853834Y-113289500D01*
X153553277Y-113289500D01*
X153526208Y-113279648D01*
X157993525Y-113279648D01*
X158009486Y-113469724D01*
X158010872Y-113477278D01*
X158063448Y-113660631D01*
X158066280Y-113667783D01*
X158132010Y-113795681D01*
X158140341Y-113803396D01*
X158141549Y-113803455D01*
X158145186Y-113801261D01*
X158646596Y-113299851D01*
X158650983Y-113290443D01*
X159368604Y-113290443D01*
X159370290Y-113296737D01*
X159870507Y-113796954D01*
X159880801Y-113801754D01*
X159882838Y-113801209D01*
X159884700Y-113799162D01*
X159937074Y-113706967D01*
X159940202Y-113699942D01*
X160000407Y-113518956D01*
X160002110Y-113511463D01*
X160026224Y-113320588D01*
X160026532Y-113316178D01*
X160026866Y-113292214D01*
X160026681Y-113287800D01*
X160007907Y-113096328D01*
X160006413Y-113088784D01*
X159951286Y-112906195D01*
X159948353Y-112899078D01*
X159887590Y-112784800D01*
X159879152Y-112777203D01*
X159877644Y-112777150D01*
X159874438Y-112779115D01*
X159373404Y-113280149D01*
X159368604Y-113290443D01*
X158650983Y-113290443D01*
X158651396Y-113289557D01*
X158649710Y-113283263D01*
X158149220Y-112782773D01*
X158138926Y-112777973D01*
X158137180Y-112778441D01*
X158134999Y-112780871D01*
X158077197Y-112886013D01*
X158074165Y-112893087D01*
X158016493Y-113074894D01*
X158014895Y-113082410D01*
X157993632Y-113271968D01*
X157993525Y-113279648D01*
X153526208Y-113279648D01*
X153502497Y-113271018D01*
X153475477Y-113224218D01*
X153484861Y-113171000D01*
X153502497Y-113149982D01*
X153506466Y-113146652D01*
X153512455Y-113143194D01*
X153538000Y-113112751D01*
X153542655Y-113107671D01*
X154167123Y-112483204D01*
X154216099Y-112460366D01*
X154249158Y-112464527D01*
X154314631Y-112487519D01*
X154346166Y-112490500D01*
X154953834Y-112490500D01*
X154985369Y-112487519D01*
X155070977Y-112457456D01*
X155107615Y-112444590D01*
X155107617Y-112444589D01*
X155113184Y-112442634D01*
X155118278Y-112438872D01*
X155217406Y-112365654D01*
X155222150Y-112362150D01*
X155260855Y-112309748D01*
X156339500Y-112309748D01*
X156351133Y-112368231D01*
X156355454Y-112374698D01*
X156355455Y-112374700D01*
X156389329Y-112425395D01*
X156395448Y-112434552D01*
X156401913Y-112438872D01*
X156455300Y-112474545D01*
X156455302Y-112474546D01*
X156461769Y-112478867D01*
X156482694Y-112483029D01*
X156516440Y-112489742D01*
X156516443Y-112489742D01*
X156520252Y-112490500D01*
X157559748Y-112490500D01*
X157563557Y-112489742D01*
X157563560Y-112489742D01*
X157597306Y-112483029D01*
X157618231Y-112478867D01*
X157624698Y-112474546D01*
X157624700Y-112474545D01*
X157678087Y-112438872D01*
X157684552Y-112434552D01*
X157690671Y-112425395D01*
X157692959Y-112421971D01*
X158496866Y-112421971D01*
X158498948Y-112425395D01*
X159000149Y-112926596D01*
X159010443Y-112931396D01*
X159016737Y-112929710D01*
X159517419Y-112429028D01*
X159522219Y-112418734D01*
X159521790Y-112417132D01*
X159519169Y-112414797D01*
X159407459Y-112354396D01*
X159400377Y-112351419D01*
X159218170Y-112295017D01*
X159210629Y-112293469D01*
X159020942Y-112273532D01*
X159013252Y-112273478D01*
X158823302Y-112290765D01*
X158815746Y-112292206D01*
X158632773Y-112346058D01*
X158625636Y-112348942D01*
X158504578Y-112412229D01*
X158496923Y-112420613D01*
X158496866Y-112421971D01*
X157692959Y-112421971D01*
X157724545Y-112374700D01*
X157724546Y-112374698D01*
X157728867Y-112368231D01*
X157740500Y-112309748D01*
X157740500Y-110790862D01*
X158255497Y-110790862D01*
X158256275Y-110795390D01*
X158283638Y-110954631D01*
X158285134Y-110963340D01*
X158286931Y-110967562D01*
X158286932Y-110967567D01*
X158295638Y-110988027D01*
X158353654Y-111124373D01*
X158356372Y-111128067D01*
X158356373Y-111128068D01*
X158454661Y-111261626D01*
X158454664Y-111261629D01*
X158457383Y-111265324D01*
X158460880Y-111268295D01*
X158460882Y-111268297D01*
X158482592Y-111286741D01*
X158590755Y-111378632D01*
X158594842Y-111380719D01*
X158742530Y-111456133D01*
X158742533Y-111456134D01*
X158746616Y-111458219D01*
X158833976Y-111479596D01*
X158913184Y-111498978D01*
X158913188Y-111498979D01*
X158916606Y-111499815D01*
X158927648Y-111500500D01*
X159053822Y-111500500D01*
X159056084Y-111500236D01*
X159056089Y-111500236D01*
X159179268Y-111485875D01*
X159179271Y-111485874D01*
X159183828Y-111485343D01*
X159188143Y-111483777D01*
X159188146Y-111483776D01*
X159344018Y-111427197D01*
X159344021Y-111427195D01*
X159348331Y-111425631D01*
X159494685Y-111329677D01*
X159497840Y-111326346D01*
X159497843Y-111326344D01*
X159611885Y-111205958D01*
X159615040Y-111202628D01*
X159702939Y-111051298D01*
X159720051Y-110994798D01*
X159752337Y-110888199D01*
X159752337Y-110888197D01*
X159753667Y-110883807D01*
X159764503Y-110709138D01*
X159760753Y-110687313D01*
X159735644Y-110541186D01*
X159735643Y-110541184D01*
X159734866Y-110536660D01*
X159733069Y-110532438D01*
X159733068Y-110532433D01*
X159668142Y-110379848D01*
X159666346Y-110375627D01*
X159611677Y-110301340D01*
X159565339Y-110238374D01*
X159565336Y-110238371D01*
X159562617Y-110234676D01*
X159429245Y-110121368D01*
X159342129Y-110076884D01*
X159277470Y-110043867D01*
X159277467Y-110043866D01*
X159273384Y-110041781D01*
X159186024Y-110020404D01*
X159106816Y-110001022D01*
X159106812Y-110001021D01*
X159103394Y-110000185D01*
X159092352Y-109999500D01*
X158966178Y-109999500D01*
X158963916Y-109999764D01*
X158963911Y-109999764D01*
X158840732Y-110014125D01*
X158840729Y-110014126D01*
X158836172Y-110014657D01*
X158831857Y-110016223D01*
X158831854Y-110016224D01*
X158675982Y-110072803D01*
X158675979Y-110072805D01*
X158671669Y-110074369D01*
X158525315Y-110170323D01*
X158522160Y-110173654D01*
X158522157Y-110173656D01*
X158467169Y-110231703D01*
X158404960Y-110297372D01*
X158317061Y-110448702D01*
X158315729Y-110453100D01*
X158272770Y-110594941D01*
X158266333Y-110616193D01*
X158255497Y-110790862D01*
X157740500Y-110790862D01*
X157740500Y-110770252D01*
X157728867Y-110711769D01*
X157724546Y-110705302D01*
X157724545Y-110705300D01*
X157688872Y-110651913D01*
X157684552Y-110645448D01*
X157672457Y-110637366D01*
X157624700Y-110605455D01*
X157624698Y-110605454D01*
X157618231Y-110601133D01*
X157587102Y-110594941D01*
X157563560Y-110590258D01*
X157563557Y-110590258D01*
X157559748Y-110589500D01*
X156520252Y-110589500D01*
X156516443Y-110590258D01*
X156516440Y-110590258D01*
X156492898Y-110594941D01*
X156461769Y-110601133D01*
X156455302Y-110605454D01*
X156455300Y-110605455D01*
X156407543Y-110637366D01*
X156395448Y-110645448D01*
X156391128Y-110651913D01*
X156355455Y-110705300D01*
X156355454Y-110705302D01*
X156351133Y-110711769D01*
X156339500Y-110770252D01*
X156339500Y-112309748D01*
X155260855Y-112309748D01*
X155263725Y-112305862D01*
X155299128Y-112257931D01*
X155299129Y-112257930D01*
X155302634Y-112253184D01*
X155347519Y-112125369D01*
X155350500Y-112093834D01*
X155350500Y-110986166D01*
X155347519Y-110954631D01*
X155302634Y-110826816D01*
X155222150Y-110717850D01*
X155204225Y-110704610D01*
X155117931Y-110640872D01*
X155117930Y-110640871D01*
X155113184Y-110637366D01*
X155107617Y-110635411D01*
X155107615Y-110635410D01*
X155040385Y-110611801D01*
X154985369Y-110592481D01*
X154953834Y-110589500D01*
X154346166Y-110589500D01*
X154314631Y-110592481D01*
X154259615Y-110611801D01*
X154192385Y-110635410D01*
X154192383Y-110635411D01*
X154186816Y-110637366D01*
X154182070Y-110640871D01*
X154182069Y-110640872D01*
X154095775Y-110704610D01*
X154077850Y-110717850D01*
X153997366Y-110826816D01*
X153952481Y-110954631D01*
X153949500Y-110986166D01*
X153949500Y-111747451D01*
X153931018Y-111798231D01*
X153926361Y-111803312D01*
X153188313Y-112541361D01*
X153139337Y-112564199D01*
X153132452Y-112564500D01*
X152881083Y-112564500D01*
X152830303Y-112546018D01*
X152803283Y-112499218D01*
X152812667Y-112446000D01*
X152833705Y-112422284D01*
X152862687Y-112400563D01*
X152870563Y-112392687D01*
X152949706Y-112287087D01*
X152955059Y-112277310D01*
X153001620Y-112153108D01*
X153003893Y-112143550D01*
X153009770Y-112089449D01*
X153010000Y-112085202D01*
X153010000Y-111803930D01*
X153006116Y-111793259D01*
X153000472Y-111790000D01*
X151523930Y-111790000D01*
X151513259Y-111793884D01*
X151510000Y-111799528D01*
X151510000Y-112085202D01*
X151510230Y-112089449D01*
X151516107Y-112143550D01*
X151518380Y-112153108D01*
X151564941Y-112277310D01*
X151570294Y-112287087D01*
X151649437Y-112392687D01*
X151657313Y-112400563D01*
X151686295Y-112422284D01*
X151715846Y-112467528D01*
X151709400Y-112521181D01*
X151669975Y-112558139D01*
X151638917Y-112564500D01*
X150408118Y-112564500D01*
X150357338Y-112546018D01*
X150330318Y-112499218D01*
X150339702Y-112446000D01*
X150361182Y-112421954D01*
X150367711Y-112417132D01*
X150442150Y-112362150D01*
X150483725Y-112305862D01*
X150519128Y-112257931D01*
X150519129Y-112257930D01*
X150522634Y-112253184D01*
X150567519Y-112125369D01*
X150570500Y-112093834D01*
X150570500Y-111276070D01*
X151510000Y-111276070D01*
X151513884Y-111286741D01*
X151519528Y-111290000D01*
X151996070Y-111290000D01*
X152006741Y-111286116D01*
X152010000Y-111280472D01*
X152010000Y-111276070D01*
X152510000Y-111276070D01*
X152513884Y-111286741D01*
X152519528Y-111290000D01*
X152996070Y-111290000D01*
X153006741Y-111286116D01*
X153010000Y-111280472D01*
X153010000Y-110994798D01*
X153009770Y-110990551D01*
X153003893Y-110936450D01*
X153001620Y-110926892D01*
X152955059Y-110802690D01*
X152949706Y-110792913D01*
X152870563Y-110687313D01*
X152862687Y-110679437D01*
X152757087Y-110600294D01*
X152747310Y-110594941D01*
X152623108Y-110548380D01*
X152613550Y-110546107D01*
X152559449Y-110540230D01*
X152555202Y-110540000D01*
X152523930Y-110540000D01*
X152513259Y-110543884D01*
X152510000Y-110549528D01*
X152510000Y-111276070D01*
X152010000Y-111276070D01*
X152010000Y-110553930D01*
X152006116Y-110543259D01*
X152000472Y-110540000D01*
X151964798Y-110540000D01*
X151960551Y-110540230D01*
X151906450Y-110546107D01*
X151896892Y-110548380D01*
X151772690Y-110594941D01*
X151762913Y-110600294D01*
X151657313Y-110679437D01*
X151649437Y-110687313D01*
X151570294Y-110792913D01*
X151564941Y-110802690D01*
X151518380Y-110926892D01*
X151516107Y-110936450D01*
X151510230Y-110990551D01*
X151510000Y-110994798D01*
X151510000Y-111276070D01*
X150570500Y-111276070D01*
X150570500Y-111102548D01*
X150588982Y-111051768D01*
X150593639Y-111046687D01*
X152321687Y-109318639D01*
X152370663Y-109295801D01*
X152377548Y-109295500D01*
X154562340Y-109295500D01*
X154569226Y-109295801D01*
X154601923Y-109298662D01*
X154601925Y-109298662D01*
X154608807Y-109299264D01*
X154615479Y-109297476D01*
X154615480Y-109297476D01*
X154624820Y-109294973D01*
X154647202Y-109288975D01*
X154653918Y-109287487D01*
X154693045Y-109280588D01*
X154699031Y-109277132D01*
X154705526Y-109274768D01*
X154705547Y-109274825D01*
X154706767Y-109274320D01*
X154706742Y-109274265D01*
X154713009Y-109271343D01*
X154719684Y-109269554D01*
X154752246Y-109246753D01*
X154758016Y-109243077D01*
X154792455Y-109223194D01*
X154818009Y-109192740D01*
X154822656Y-109187670D01*
X155813830Y-108196496D01*
X158042937Y-108196496D01*
X158058732Y-108384590D01*
X158059794Y-108388294D01*
X158059795Y-108388299D01*
X158109696Y-108562324D01*
X158110760Y-108566034D01*
X158197040Y-108733917D01*
X158314285Y-108881844D01*
X158458030Y-109004180D01*
X158622800Y-109096267D01*
X158626462Y-109097457D01*
X158626467Y-109097459D01*
X158742481Y-109135153D01*
X158802317Y-109154595D01*
X158806156Y-109155053D01*
X158806157Y-109155053D01*
X158985903Y-109176487D01*
X158985904Y-109176487D01*
X158989745Y-109176945D01*
X159177945Y-109162464D01*
X159359748Y-109111703D01*
X159528229Y-109026598D01*
X159676970Y-108910388D01*
X159704216Y-108878823D01*
X159797783Y-108770426D01*
X159797787Y-108770421D01*
X159800307Y-108767501D01*
X159802213Y-108764145D01*
X159802217Y-108764140D01*
X159891633Y-108606738D01*
X159893542Y-108603378D01*
X159909989Y-108553938D01*
X159951902Y-108427944D01*
X159951903Y-108427939D01*
X159953123Y-108424272D01*
X159976780Y-108237005D01*
X159977157Y-108210000D01*
X159958738Y-108022145D01*
X159904181Y-107841445D01*
X159815566Y-107674783D01*
X159696266Y-107528508D01*
X159615135Y-107461391D01*
X159553801Y-107410651D01*
X159553799Y-107410650D01*
X159550827Y-107408191D01*
X159537974Y-107401241D01*
X159388184Y-107320250D01*
X159388182Y-107320249D01*
X159384788Y-107318414D01*
X159204474Y-107262597D01*
X159016752Y-107242867D01*
X159012906Y-107243217D01*
X159012905Y-107243217D01*
X158966714Y-107247421D01*
X158828773Y-107259974D01*
X158825066Y-107261065D01*
X158651406Y-107312176D01*
X158651403Y-107312177D01*
X158647697Y-107313268D01*
X158644270Y-107315060D01*
X158644269Y-107315060D01*
X158620225Y-107327630D01*
X158480420Y-107400718D01*
X158333316Y-107518993D01*
X158293601Y-107566323D01*
X158221427Y-107652337D01*
X158211986Y-107663588D01*
X158210125Y-107666972D01*
X158210125Y-107666973D01*
X158205831Y-107674783D01*
X158121052Y-107828996D01*
X158063978Y-108008917D01*
X158042937Y-108196496D01*
X155813830Y-108196496D01*
X157517666Y-106492660D01*
X157522747Y-106488003D01*
X157547900Y-106466897D01*
X157553194Y-106462455D01*
X157573077Y-106428016D01*
X157576753Y-106422246D01*
X157599554Y-106389684D01*
X157601343Y-106383009D01*
X157604265Y-106376742D01*
X157604320Y-106376767D01*
X157604825Y-106375547D01*
X157604768Y-106375526D01*
X157607132Y-106369031D01*
X157610588Y-106363045D01*
X157617487Y-106323918D01*
X157618977Y-106317195D01*
X157627476Y-106285480D01*
X157627476Y-106285479D01*
X157629264Y-106278807D01*
X157625801Y-106239226D01*
X157625500Y-106232340D01*
X157625500Y-105656496D01*
X158042937Y-105656496D01*
X158058732Y-105844590D01*
X158059794Y-105848294D01*
X158059795Y-105848299D01*
X158109696Y-106022324D01*
X158110760Y-106026034D01*
X158197040Y-106193917D01*
X158314285Y-106341844D01*
X158458030Y-106464180D01*
X158461404Y-106466066D01*
X158461406Y-106466067D01*
X158535256Y-106507340D01*
X158622800Y-106556267D01*
X158626462Y-106557457D01*
X158626467Y-106557459D01*
X158723472Y-106588977D01*
X158802317Y-106614595D01*
X158806156Y-106615053D01*
X158806157Y-106615053D01*
X158985903Y-106636487D01*
X158985904Y-106636487D01*
X158989745Y-106636945D01*
X159177945Y-106622464D01*
X159359748Y-106571703D01*
X159528229Y-106486598D01*
X159645029Y-106395343D01*
X159673928Y-106372765D01*
X159673930Y-106372763D01*
X159676970Y-106370388D01*
X159761965Y-106271921D01*
X159797783Y-106230426D01*
X159797787Y-106230421D01*
X159800307Y-106227501D01*
X159802213Y-106224145D01*
X159802217Y-106224140D01*
X159891633Y-106066738D01*
X159893542Y-106063378D01*
X159940785Y-105921361D01*
X159951902Y-105887944D01*
X159951903Y-105887939D01*
X159953123Y-105884272D01*
X159953762Y-105879218D01*
X159959381Y-105834735D01*
X159976780Y-105697005D01*
X159977157Y-105670000D01*
X159966992Y-105566323D01*
X159959115Y-105485987D01*
X159959114Y-105485984D01*
X159958738Y-105482145D01*
X159904181Y-105301445D01*
X159866305Y-105230209D01*
X159817377Y-105138189D01*
X159815566Y-105134783D01*
X159696266Y-104988508D01*
X159676734Y-104972350D01*
X159553801Y-104870651D01*
X159553799Y-104870650D01*
X159550827Y-104868191D01*
X159533696Y-104858928D01*
X159388184Y-104780250D01*
X159388182Y-104780249D01*
X159384788Y-104778414D01*
X159204474Y-104722597D01*
X159016752Y-104702867D01*
X159012906Y-104703217D01*
X159012905Y-104703217D01*
X158967689Y-104707332D01*
X158828773Y-104719974D01*
X158825066Y-104721065D01*
X158651406Y-104772176D01*
X158651403Y-104772177D01*
X158647697Y-104773268D01*
X158644270Y-104775060D01*
X158644269Y-104775060D01*
X158617369Y-104789123D01*
X158480420Y-104860718D01*
X158477413Y-104863136D01*
X158477411Y-104863137D01*
X158341578Y-104972350D01*
X158333316Y-104978993D01*
X158330830Y-104981956D01*
X158217709Y-105116768D01*
X158211986Y-105123588D01*
X158210125Y-105126972D01*
X158210125Y-105126973D01*
X158185337Y-105172063D01*
X158121052Y-105288996D01*
X158063978Y-105468917D01*
X158058513Y-105517636D01*
X158043404Y-105652337D01*
X158042937Y-105656496D01*
X157625500Y-105656496D01*
X157625500Y-103116496D01*
X158042937Y-103116496D01*
X158058732Y-103304590D01*
X158059794Y-103308294D01*
X158059795Y-103308299D01*
X158098548Y-103443446D01*
X158110760Y-103486034D01*
X158197040Y-103653917D01*
X158314285Y-103801844D01*
X158458030Y-103924180D01*
X158622800Y-104016267D01*
X158626462Y-104017457D01*
X158626467Y-104017459D01*
X158742481Y-104055153D01*
X158802317Y-104074595D01*
X158806156Y-104075053D01*
X158806157Y-104075053D01*
X158985903Y-104096487D01*
X158985904Y-104096487D01*
X158989745Y-104096945D01*
X159177945Y-104082464D01*
X159359748Y-104031703D01*
X159528229Y-103946598D01*
X159658123Y-103845113D01*
X159673928Y-103832765D01*
X159673930Y-103832763D01*
X159676970Y-103830388D01*
X159726239Y-103773310D01*
X159797783Y-103690426D01*
X159797787Y-103690421D01*
X159800307Y-103687501D01*
X159802213Y-103684145D01*
X159802217Y-103684140D01*
X159891633Y-103526738D01*
X159893542Y-103523378D01*
X159950215Y-103353015D01*
X159951902Y-103347944D01*
X159951903Y-103347939D01*
X159953123Y-103344272D01*
X159976780Y-103157005D01*
X159977157Y-103130000D01*
X159958738Y-102942145D01*
X159913011Y-102790692D01*
X159905297Y-102765141D01*
X159905297Y-102765140D01*
X159904181Y-102761445D01*
X159833058Y-102627680D01*
X159817377Y-102598189D01*
X159815566Y-102594783D01*
X159696266Y-102448508D01*
X159671436Y-102427967D01*
X159553801Y-102330651D01*
X159553799Y-102330650D01*
X159550827Y-102328191D01*
X159533696Y-102318928D01*
X159388184Y-102240250D01*
X159388182Y-102240249D01*
X159384788Y-102238414D01*
X159204474Y-102182597D01*
X159016752Y-102162867D01*
X159012906Y-102163217D01*
X159012905Y-102163217D01*
X158966714Y-102167421D01*
X158828773Y-102179974D01*
X158825066Y-102181065D01*
X158651406Y-102232176D01*
X158651403Y-102232177D01*
X158647697Y-102233268D01*
X158644270Y-102235060D01*
X158644269Y-102235060D01*
X158620162Y-102247663D01*
X158480420Y-102320718D01*
X158477413Y-102323136D01*
X158477411Y-102323137D01*
X158339834Y-102433752D01*
X158333316Y-102438993D01*
X158211986Y-102583588D01*
X158210125Y-102586972D01*
X158210125Y-102586973D01*
X158134722Y-102724130D01*
X158121052Y-102748996D01*
X158063978Y-102928917D01*
X158042937Y-103116496D01*
X157625500Y-103116496D01*
X157625500Y-102467548D01*
X157643982Y-102416768D01*
X157648639Y-102411687D01*
X158559328Y-101500999D01*
X158608304Y-101478161D01*
X158639601Y-101481726D01*
X158802317Y-101534595D01*
X158806156Y-101535053D01*
X158806157Y-101535053D01*
X158985903Y-101556487D01*
X158985904Y-101556487D01*
X158989745Y-101556945D01*
X159177945Y-101542464D01*
X159359748Y-101491703D01*
X159528229Y-101406598D01*
X159676970Y-101290388D01*
X159703951Y-101259130D01*
X159797783Y-101150426D01*
X159797787Y-101150421D01*
X159800307Y-101147501D01*
X159802213Y-101144145D01*
X159802217Y-101144140D01*
X159891633Y-100986738D01*
X159893542Y-100983378D01*
X159909989Y-100933938D01*
X159951902Y-100807944D01*
X159951903Y-100807939D01*
X159953123Y-100804272D01*
X159976780Y-100617005D01*
X159977157Y-100590000D01*
X159963900Y-100454790D01*
X159959115Y-100405987D01*
X159959114Y-100405984D01*
X159958738Y-100402145D01*
X159904181Y-100221445D01*
X159815566Y-100054783D01*
X159696266Y-99908508D01*
X159550827Y-99788191D01*
X159533696Y-99778928D01*
X159388184Y-99700250D01*
X159388182Y-99700249D01*
X159384788Y-99698414D01*
X159204474Y-99642597D01*
X159016752Y-99622867D01*
X159012906Y-99623217D01*
X159012905Y-99623217D01*
X158966714Y-99627421D01*
X158828773Y-99639974D01*
X158825066Y-99641065D01*
X158651406Y-99692176D01*
X158651403Y-99692177D01*
X158647697Y-99693268D01*
X158644270Y-99695060D01*
X158644269Y-99695060D01*
X158617369Y-99709123D01*
X158480420Y-99780718D01*
X158333316Y-99898993D01*
X158211986Y-100043588D01*
X158121052Y-100208996D01*
X158063978Y-100388917D01*
X158063548Y-100392752D01*
X158045356Y-100554935D01*
X158042937Y-100576496D01*
X158058732Y-100764590D01*
X158059794Y-100768294D01*
X158059795Y-100768299D01*
X158109696Y-100942324D01*
X158110760Y-100946034D01*
X158112522Y-100949463D01*
X158112523Y-100949465D01*
X158112562Y-100949540D01*
X158112566Y-100949573D01*
X158113948Y-100953063D01*
X158113052Y-100953418D01*
X158119336Y-101003153D01*
X158098160Y-101041514D01*
X157082334Y-102057340D01*
X157077253Y-102061997D01*
X157046806Y-102087545D01*
X157026923Y-102121984D01*
X157023247Y-102127754D01*
X157000446Y-102160316D01*
X156998657Y-102166991D01*
X156995735Y-102173258D01*
X156995680Y-102173233D01*
X156995175Y-102174453D01*
X156995232Y-102174474D01*
X156992868Y-102180969D01*
X156989412Y-102186955D01*
X156988212Y-102193762D01*
X156982515Y-102226074D01*
X156981025Y-102232798D01*
X156970736Y-102271193D01*
X156971338Y-102278075D01*
X156971338Y-102278077D01*
X156974199Y-102310774D01*
X156974500Y-102317660D01*
X156974500Y-106082452D01*
X156956018Y-106133232D01*
X156951361Y-106138313D01*
X154468313Y-108621361D01*
X154419337Y-108644199D01*
X154412452Y-108644500D01*
X152227660Y-108644500D01*
X152220774Y-108644199D01*
X152188077Y-108641338D01*
X152188075Y-108641338D01*
X152181193Y-108640736D01*
X152174521Y-108642524D01*
X152174520Y-108642524D01*
X152168270Y-108644199D01*
X152142798Y-108651025D01*
X152136082Y-108652513D01*
X152096955Y-108659412D01*
X152090969Y-108662868D01*
X152084474Y-108665232D01*
X152084453Y-108665175D01*
X152083233Y-108665680D01*
X152083258Y-108665735D01*
X152076991Y-108668657D01*
X152070316Y-108670446D01*
X152037754Y-108693247D01*
X152031984Y-108696923D01*
X151997545Y-108716806D01*
X151971991Y-108747260D01*
X151967344Y-108752330D01*
X150153313Y-110566361D01*
X150104337Y-110589199D01*
X150097452Y-110589500D01*
X149566166Y-110589500D01*
X149534631Y-110592481D01*
X149479615Y-110611801D01*
X149412385Y-110635410D01*
X149412383Y-110635411D01*
X149406816Y-110637366D01*
X149402070Y-110640871D01*
X149402069Y-110640872D01*
X149315775Y-110704610D01*
X149297850Y-110717850D01*
X149217366Y-110826816D01*
X149172481Y-110954631D01*
X149169500Y-110986166D01*
X149169500Y-112093834D01*
X149172481Y-112125369D01*
X149217366Y-112253184D01*
X149220871Y-112257930D01*
X149220872Y-112257931D01*
X149256275Y-112305862D01*
X149297850Y-112362150D01*
X149372290Y-112417132D01*
X149378818Y-112421954D01*
X149408683Y-112466991D01*
X149402613Y-112520688D01*
X149363446Y-112557920D01*
X149331882Y-112564500D01*
X148018118Y-112564500D01*
X147967338Y-112546018D01*
X147940318Y-112499218D01*
X147949702Y-112446000D01*
X147971182Y-112421954D01*
X147977711Y-112417132D01*
X148052150Y-112362150D01*
X148093725Y-112305862D01*
X148129128Y-112257931D01*
X148129129Y-112257930D01*
X148132634Y-112253184D01*
X148177519Y-112125369D01*
X148180500Y-112093834D01*
X148180500Y-110986166D01*
X148177519Y-110954631D01*
X148132634Y-110826816D01*
X148052150Y-110717850D01*
X148034225Y-110704610D01*
X147947931Y-110640872D01*
X147947930Y-110640871D01*
X147943184Y-110637366D01*
X147937617Y-110635411D01*
X147937615Y-110635410D01*
X147870385Y-110611801D01*
X147815369Y-110592481D01*
X147783834Y-110589500D01*
X147176166Y-110589500D01*
X147144631Y-110592481D01*
X147089615Y-110611801D01*
X147022385Y-110635410D01*
X147022383Y-110635411D01*
X147016816Y-110637366D01*
X147012070Y-110640871D01*
X147012069Y-110640872D01*
X146925775Y-110704610D01*
X146907850Y-110717850D01*
X146827366Y-110826816D01*
X146807353Y-110883807D01*
X146797687Y-110911331D01*
X146763423Y-110953118D01*
X146710314Y-110963105D01*
X146663212Y-110936619D01*
X146644149Y-110885155D01*
X146644149Y-106752456D01*
X147125500Y-106752456D01*
X147125701Y-106754431D01*
X147125701Y-106754439D01*
X147130765Y-106804287D01*
X147140174Y-106896919D01*
X147141369Y-106900733D01*
X147141370Y-106900737D01*
X147170628Y-106994100D01*
X147198161Y-107081957D01*
X147292171Y-107251555D01*
X147418364Y-107398786D01*
X147421529Y-107401241D01*
X147502618Y-107464140D01*
X147571584Y-107517636D01*
X147575179Y-107519405D01*
X147741978Y-107601481D01*
X147741982Y-107601482D01*
X147745572Y-107603249D01*
X147839397Y-107627689D01*
X147929347Y-107651119D01*
X147929350Y-107651120D01*
X147933222Y-107652128D01*
X148030045Y-107657202D01*
X148122871Y-107662068D01*
X148122876Y-107662068D01*
X148126868Y-107662277D01*
X148318599Y-107633280D01*
X148500583Y-107566323D01*
X148503987Y-107564213D01*
X148503990Y-107564211D01*
X148661988Y-107466248D01*
X148661992Y-107466245D01*
X148665387Y-107464140D01*
X148806278Y-107330906D01*
X148817374Y-107315060D01*
X148856190Y-107259624D01*
X148917501Y-107172063D01*
X148994512Y-106994100D01*
X149034166Y-106804287D01*
X149034324Y-106801270D01*
X149034325Y-106801263D01*
X149034446Y-106798937D01*
X149034500Y-106797914D01*
X149034500Y-106752456D01*
X152625500Y-106752456D01*
X152625701Y-106754431D01*
X152625701Y-106754439D01*
X152630765Y-106804287D01*
X152640174Y-106896919D01*
X152641369Y-106900733D01*
X152641370Y-106900737D01*
X152670628Y-106994100D01*
X152698161Y-107081957D01*
X152792171Y-107251555D01*
X152918364Y-107398786D01*
X152921529Y-107401241D01*
X153002618Y-107464140D01*
X153071584Y-107517636D01*
X153075179Y-107519405D01*
X153241978Y-107601481D01*
X153241982Y-107601482D01*
X153245572Y-107603249D01*
X153339397Y-107627689D01*
X153429347Y-107651119D01*
X153429350Y-107651120D01*
X153433222Y-107652128D01*
X153530045Y-107657202D01*
X153622871Y-107662068D01*
X153622876Y-107662068D01*
X153626868Y-107662277D01*
X153818599Y-107633280D01*
X154000583Y-107566323D01*
X154003987Y-107564213D01*
X154003990Y-107564211D01*
X154161988Y-107466248D01*
X154161992Y-107466245D01*
X154165387Y-107464140D01*
X154306278Y-107330906D01*
X154317374Y-107315060D01*
X154356190Y-107259624D01*
X154417501Y-107172063D01*
X154494512Y-106994100D01*
X154534166Y-106804287D01*
X154534324Y-106801270D01*
X154534325Y-106801263D01*
X154534446Y-106798937D01*
X154534500Y-106797914D01*
X154534500Y-105488548D01*
X154552982Y-105437768D01*
X154557639Y-105432687D01*
X155607666Y-104382660D01*
X155612747Y-104378004D01*
X155617539Y-104373983D01*
X155667297Y-104355872D01*
X155667287Y-104355744D01*
X155667748Y-104355708D01*
X155668319Y-104355500D01*
X155673488Y-104355500D01*
X155723472Y-104347583D01*
X155766985Y-104340692D01*
X155766987Y-104340691D01*
X155773126Y-104339719D01*
X155835370Y-104308004D01*
X155887680Y-104281351D01*
X155887681Y-104281350D01*
X155893220Y-104278528D01*
X155988528Y-104183220D01*
X155991352Y-104177679D01*
X156039866Y-104082464D01*
X156049719Y-104063126D01*
X156065500Y-103963488D01*
X156065500Y-103446512D01*
X156049719Y-103346874D01*
X155988528Y-103226780D01*
X155893220Y-103131472D01*
X155886014Y-103127800D01*
X155778664Y-103073103D01*
X155778665Y-103073103D01*
X155773126Y-103070281D01*
X155766987Y-103069309D01*
X155766985Y-103069308D01*
X155723472Y-103062417D01*
X155673488Y-103054500D01*
X155106512Y-103054500D01*
X155056528Y-103062417D01*
X155013015Y-103069308D01*
X155013013Y-103069309D01*
X155006874Y-103070281D01*
X155001335Y-103073103D01*
X155001336Y-103073103D01*
X154893987Y-103127800D01*
X154886780Y-103131472D01*
X154791472Y-103226780D01*
X154730281Y-103346874D01*
X154714500Y-103446512D01*
X154714500Y-103963488D01*
X154730281Y-104063126D01*
X154791472Y-104183220D01*
X154792992Y-104184740D01*
X154807374Y-104234897D01*
X154784427Y-104285247D01*
X154452799Y-104616875D01*
X154403823Y-104639713D01*
X154351625Y-104625727D01*
X154336956Y-104612425D01*
X154299817Y-104569094D01*
X154241636Y-104501214D01*
X154192019Y-104462727D01*
X154091580Y-104384818D01*
X154091578Y-104384817D01*
X154088416Y-104382364D01*
X154071384Y-104373983D01*
X153918022Y-104298519D01*
X153918018Y-104298518D01*
X153914428Y-104296751D01*
X153820603Y-104272312D01*
X153730653Y-104248881D01*
X153730650Y-104248880D01*
X153726778Y-104247872D01*
X153629955Y-104242797D01*
X153537129Y-104237932D01*
X153537124Y-104237932D01*
X153533132Y-104237723D01*
X153341401Y-104266720D01*
X153159417Y-104333677D01*
X153156013Y-104335787D01*
X153156010Y-104335789D01*
X152998012Y-104433752D01*
X152998008Y-104433755D01*
X152994613Y-104435860D01*
X152853722Y-104569094D01*
X152742499Y-104727937D01*
X152740913Y-104731603D01*
X152740912Y-104731604D01*
X152680742Y-104870651D01*
X152665488Y-104905900D01*
X152625834Y-105095713D01*
X152625676Y-105098730D01*
X152625675Y-105098737D01*
X152625606Y-105100068D01*
X152625500Y-105102086D01*
X152625500Y-106752456D01*
X149034500Y-106752456D01*
X149034500Y-106674500D01*
X149052982Y-106623720D01*
X149099782Y-106596700D01*
X149113500Y-106595500D01*
X150572340Y-106595500D01*
X150579226Y-106595801D01*
X150611923Y-106598662D01*
X150611925Y-106598662D01*
X150618807Y-106599264D01*
X150625479Y-106597476D01*
X150625480Y-106597476D01*
X150634820Y-106594973D01*
X150657202Y-106588975D01*
X150663918Y-106587487D01*
X150703045Y-106580588D01*
X150709031Y-106577132D01*
X150715526Y-106574768D01*
X150715547Y-106574825D01*
X150716767Y-106574320D01*
X150716742Y-106574265D01*
X150723009Y-106571343D01*
X150729684Y-106569554D01*
X150762246Y-106546753D01*
X150768016Y-106543077D01*
X150802455Y-106523194D01*
X150828005Y-106492746D01*
X150832660Y-106487667D01*
X152087672Y-105232655D01*
X152092753Y-105227998D01*
X152117899Y-105206898D01*
X152123194Y-105202455D01*
X152143065Y-105168038D01*
X152146766Y-105162229D01*
X152169554Y-105129684D01*
X152171343Y-105123009D01*
X152174265Y-105116743D01*
X152174319Y-105116768D01*
X152174826Y-105115544D01*
X152174769Y-105115523D01*
X152177132Y-105109032D01*
X152180588Y-105103045D01*
X152182265Y-105093538D01*
X152187489Y-105063909D01*
X152188981Y-105057181D01*
X152199263Y-105018807D01*
X152197423Y-104997768D01*
X152195801Y-104979235D01*
X152195500Y-104972350D01*
X152195500Y-104414817D01*
X152213982Y-104364037D01*
X152249089Y-104340358D01*
X152253126Y-104339719D01*
X152258665Y-104336897D01*
X152367680Y-104281351D01*
X152367681Y-104281350D01*
X152373220Y-104278528D01*
X152468528Y-104183220D01*
X152471352Y-104177679D01*
X152519866Y-104082464D01*
X152529719Y-104063126D01*
X152545500Y-103963488D01*
X152545500Y-103446512D01*
X152529719Y-103346874D01*
X152468528Y-103226780D01*
X152373220Y-103131472D01*
X152366014Y-103127800D01*
X152258664Y-103073103D01*
X152258665Y-103073103D01*
X152253126Y-103070281D01*
X152246987Y-103069309D01*
X152246985Y-103069308D01*
X152203472Y-103062417D01*
X152153488Y-103054500D01*
X151586512Y-103054500D01*
X151536528Y-103062417D01*
X151493015Y-103069308D01*
X151493013Y-103069309D01*
X151486874Y-103070281D01*
X151481335Y-103073103D01*
X151481336Y-103073103D01*
X151373987Y-103127800D01*
X151366780Y-103131472D01*
X151271472Y-103226780D01*
X151210281Y-103346874D01*
X151194500Y-103446512D01*
X151194500Y-103963488D01*
X151210281Y-104063126D01*
X151220134Y-104082464D01*
X151268649Y-104177679D01*
X151271472Y-104183220D01*
X151366780Y-104278528D01*
X151372319Y-104281350D01*
X151372320Y-104281351D01*
X151481336Y-104336897D01*
X151486874Y-104339719D01*
X151490740Y-104340331D01*
X151532495Y-104372952D01*
X151544500Y-104414817D01*
X151544500Y-104822451D01*
X151526018Y-104873231D01*
X151521361Y-104878312D01*
X150478313Y-105921361D01*
X150429337Y-105944199D01*
X150422452Y-105944500D01*
X149113500Y-105944500D01*
X149062720Y-105926018D01*
X149035700Y-105879218D01*
X149034500Y-105865500D01*
X149034500Y-105397833D01*
X149052982Y-105347053D01*
X149099782Y-105320033D01*
X149153000Y-105329417D01*
X149173480Y-105346420D01*
X149218364Y-105398786D01*
X149221529Y-105401241D01*
X149321065Y-105478449D01*
X149371584Y-105517636D01*
X149375179Y-105519405D01*
X149541978Y-105601481D01*
X149541982Y-105601482D01*
X149545572Y-105603249D01*
X149639397Y-105627689D01*
X149729347Y-105651119D01*
X149729350Y-105651120D01*
X149733222Y-105652128D01*
X149830045Y-105657202D01*
X149922871Y-105662068D01*
X149922876Y-105662068D01*
X149926868Y-105662277D01*
X150118599Y-105633280D01*
X150300583Y-105566323D01*
X150303987Y-105564213D01*
X150303990Y-105564211D01*
X150461988Y-105466248D01*
X150461992Y-105466245D01*
X150465387Y-105464140D01*
X150606278Y-105330906D01*
X150717501Y-105172063D01*
X150719088Y-105168396D01*
X150792925Y-104997768D01*
X150792926Y-104997766D01*
X150794512Y-104994100D01*
X150823535Y-104855173D01*
X150833547Y-104807251D01*
X150833547Y-104807248D01*
X150834166Y-104804287D01*
X150834324Y-104801270D01*
X150834325Y-104801263D01*
X150834446Y-104798937D01*
X150834500Y-104797914D01*
X150834500Y-103147544D01*
X150833315Y-103135870D01*
X150820230Y-103007060D01*
X150819826Y-103003081D01*
X150797787Y-102932752D01*
X150763036Y-102821863D01*
X150761839Y-102818043D01*
X150667829Y-102648445D01*
X150541636Y-102501214D01*
X150465241Y-102441956D01*
X150428541Y-102413488D01*
X151194500Y-102413488D01*
X151198156Y-102436572D01*
X151208006Y-102498759D01*
X151210281Y-102513126D01*
X151271472Y-102633220D01*
X151366780Y-102728528D01*
X151486874Y-102789719D01*
X151493013Y-102790691D01*
X151493015Y-102790692D01*
X151536528Y-102797583D01*
X151586512Y-102805500D01*
X152153488Y-102805500D01*
X152203472Y-102797583D01*
X152246985Y-102790692D01*
X152246987Y-102790691D01*
X152253126Y-102789719D01*
X152373220Y-102728528D01*
X152468528Y-102633220D01*
X152529719Y-102513126D01*
X152537312Y-102465185D01*
X152563510Y-102417921D01*
X152566747Y-102415612D01*
X152569278Y-102413488D01*
X154714500Y-102413488D01*
X154718156Y-102436572D01*
X154728006Y-102498759D01*
X154730281Y-102513126D01*
X154791472Y-102633220D01*
X154886780Y-102728528D01*
X155006874Y-102789719D01*
X155013013Y-102790691D01*
X155013015Y-102790692D01*
X155056528Y-102797583D01*
X155106512Y-102805500D01*
X155673488Y-102805500D01*
X155723472Y-102797583D01*
X155766985Y-102790692D01*
X155766987Y-102790691D01*
X155773126Y-102789719D01*
X155893220Y-102728528D01*
X155988528Y-102633220D01*
X156049719Y-102513126D01*
X156051995Y-102498759D01*
X156061844Y-102436572D01*
X156065500Y-102413488D01*
X156065500Y-101896512D01*
X156049719Y-101796874D01*
X155988528Y-101676780D01*
X155971898Y-101660150D01*
X155949060Y-101611174D01*
X155963046Y-101558976D01*
X155971898Y-101548428D01*
X158559327Y-98960999D01*
X158608303Y-98938161D01*
X158639600Y-98941726D01*
X158698918Y-98960999D01*
X158802317Y-98994595D01*
X158806156Y-98995053D01*
X158806157Y-98995053D01*
X158985903Y-99016487D01*
X158985904Y-99016487D01*
X158989745Y-99016945D01*
X159177945Y-99002464D01*
X159359748Y-98951703D01*
X159528229Y-98866598D01*
X159676970Y-98750388D01*
X159703951Y-98719130D01*
X159797783Y-98610426D01*
X159797787Y-98610421D01*
X159800307Y-98607501D01*
X159802213Y-98604145D01*
X159802217Y-98604140D01*
X159883691Y-98460718D01*
X159893542Y-98443378D01*
X159910675Y-98391876D01*
X159951902Y-98267944D01*
X159951903Y-98267939D01*
X159953123Y-98264272D01*
X159976780Y-98077005D01*
X159977157Y-98050000D01*
X159958738Y-97862145D01*
X159904181Y-97681445D01*
X159815566Y-97514783D01*
X159696266Y-97368508D01*
X159550827Y-97248191D01*
X159533696Y-97238928D01*
X159388184Y-97160250D01*
X159388182Y-97160249D01*
X159384788Y-97158414D01*
X159204474Y-97102597D01*
X159016752Y-97082867D01*
X159012906Y-97083217D01*
X159012905Y-97083217D01*
X158979677Y-97086241D01*
X158828773Y-97099974D01*
X158825066Y-97101065D01*
X158651406Y-97152176D01*
X158651403Y-97152177D01*
X158647697Y-97153268D01*
X158644270Y-97155060D01*
X158644269Y-97155060D01*
X158617369Y-97169123D01*
X158480420Y-97240718D01*
X158333316Y-97358993D01*
X158211986Y-97503588D01*
X158121052Y-97668996D01*
X158063978Y-97848917D01*
X158042937Y-98036496D01*
X158058732Y-98224590D01*
X158059794Y-98228294D01*
X158059795Y-98228299D01*
X158108712Y-98398891D01*
X158110760Y-98406034D01*
X158112522Y-98409463D01*
X158112523Y-98409465D01*
X158112562Y-98409540D01*
X158112566Y-98409573D01*
X158113948Y-98413063D01*
X158113052Y-98413418D01*
X158119336Y-98463153D01*
X158098160Y-98501514D01*
X155172334Y-101427340D01*
X155167253Y-101431997D01*
X155136806Y-101457545D01*
X155128856Y-101471314D01*
X155087461Y-101506048D01*
X155072801Y-101509839D01*
X155051562Y-101513203D01*
X155006874Y-101520281D01*
X154886780Y-101581472D01*
X154791472Y-101676780D01*
X154730281Y-101796874D01*
X154714500Y-101896512D01*
X154714500Y-102413488D01*
X152569278Y-102413488D01*
X152571469Y-102411650D01*
X152577455Y-102408194D01*
X152603009Y-102377740D01*
X152607656Y-102372670D01*
X158559327Y-96420999D01*
X158608303Y-96398161D01*
X158639600Y-96401726D01*
X158698918Y-96420999D01*
X158802317Y-96454595D01*
X158806156Y-96455053D01*
X158806157Y-96455053D01*
X158985903Y-96476487D01*
X158985904Y-96476487D01*
X158989745Y-96476945D01*
X159177945Y-96462464D01*
X159359748Y-96411703D01*
X159528229Y-96326598D01*
X159663024Y-96221284D01*
X159673928Y-96212765D01*
X159673930Y-96212763D01*
X159676970Y-96210388D01*
X159746566Y-96129761D01*
X159797783Y-96070426D01*
X159797787Y-96070421D01*
X159800307Y-96067501D01*
X159802213Y-96064145D01*
X159802217Y-96064140D01*
X159891633Y-95906738D01*
X159893542Y-95903378D01*
X159932571Y-95786054D01*
X159951902Y-95727944D01*
X159951903Y-95727939D01*
X159953123Y-95724272D01*
X159976780Y-95537005D01*
X159977157Y-95510000D01*
X159965799Y-95394160D01*
X159959115Y-95325987D01*
X159959114Y-95325984D01*
X159958738Y-95322145D01*
X159904181Y-95141445D01*
X159815566Y-94974783D01*
X159696266Y-94828508D01*
X159550827Y-94708191D01*
X159533696Y-94698928D01*
X159388184Y-94620250D01*
X159388182Y-94620249D01*
X159384788Y-94618414D01*
X159204474Y-94562597D01*
X159016752Y-94542867D01*
X159012906Y-94543217D01*
X159012905Y-94543217D01*
X158966714Y-94547421D01*
X158828773Y-94559974D01*
X158825066Y-94561065D01*
X158651406Y-94612176D01*
X158651403Y-94612177D01*
X158647697Y-94613268D01*
X158644270Y-94615060D01*
X158644269Y-94615060D01*
X158617369Y-94629123D01*
X158480420Y-94700718D01*
X158333316Y-94818993D01*
X158330830Y-94821956D01*
X158283405Y-94878475D01*
X158211986Y-94963588D01*
X158210125Y-94966972D01*
X158210125Y-94966973D01*
X158200141Y-94985134D01*
X158121052Y-95128996D01*
X158063978Y-95308917D01*
X158042937Y-95496496D01*
X158058732Y-95684590D01*
X158059794Y-95688294D01*
X158059795Y-95688299D01*
X158087826Y-95786054D01*
X158110760Y-95866034D01*
X158112522Y-95869463D01*
X158112523Y-95869465D01*
X158112562Y-95869540D01*
X158112566Y-95869573D01*
X158113948Y-95873063D01*
X158113052Y-95873418D01*
X158119336Y-95923153D01*
X158098160Y-95961514D01*
X152481038Y-101578636D01*
X152432062Y-101601474D01*
X152378738Y-101586685D01*
X152377622Y-101585874D01*
X152373220Y-101581472D01*
X152253126Y-101520281D01*
X152246987Y-101519309D01*
X152246985Y-101519308D01*
X152203472Y-101512417D01*
X152153488Y-101504500D01*
X151586512Y-101504500D01*
X151536528Y-101512417D01*
X151493015Y-101519308D01*
X151493013Y-101519309D01*
X151486874Y-101520281D01*
X151366780Y-101581472D01*
X151271472Y-101676780D01*
X151210281Y-101796874D01*
X151194500Y-101896512D01*
X151194500Y-102413488D01*
X150428541Y-102413488D01*
X150391580Y-102384818D01*
X150391578Y-102384817D01*
X150388416Y-102382364D01*
X150368715Y-102372670D01*
X150218022Y-102298519D01*
X150218018Y-102298518D01*
X150214428Y-102296751D01*
X150116309Y-102271193D01*
X150030653Y-102248881D01*
X150030650Y-102248880D01*
X150026778Y-102247872D01*
X149929955Y-102242797D01*
X149837129Y-102237932D01*
X149837124Y-102237932D01*
X149833132Y-102237723D01*
X149641401Y-102266720D01*
X149459417Y-102333677D01*
X149456013Y-102335787D01*
X149456010Y-102335789D01*
X149298012Y-102433752D01*
X149298008Y-102433755D01*
X149294613Y-102435860D01*
X149153722Y-102569094D01*
X149042499Y-102727937D01*
X149040913Y-102731603D01*
X149040912Y-102731604D01*
X149008935Y-102805500D01*
X148965488Y-102905900D01*
X148925834Y-103095713D01*
X148925676Y-103098730D01*
X148925675Y-103098737D01*
X148925606Y-103100068D01*
X148925500Y-103102086D01*
X148925500Y-104502167D01*
X148907018Y-104552947D01*
X148860218Y-104579967D01*
X148807000Y-104570583D01*
X148786520Y-104553580D01*
X148741636Y-104501214D01*
X148692019Y-104462727D01*
X148591580Y-104384818D01*
X148591578Y-104384817D01*
X148588416Y-104382364D01*
X148571384Y-104373983D01*
X148418022Y-104298519D01*
X148418018Y-104298518D01*
X148414428Y-104296751D01*
X148320603Y-104272312D01*
X148230653Y-104248881D01*
X148230650Y-104248880D01*
X148226778Y-104247872D01*
X148129955Y-104242797D01*
X148037129Y-104237932D01*
X148037124Y-104237932D01*
X148033132Y-104237723D01*
X147841401Y-104266720D01*
X147659417Y-104333677D01*
X147656013Y-104335787D01*
X147656010Y-104335789D01*
X147498012Y-104433752D01*
X147498008Y-104433755D01*
X147494613Y-104435860D01*
X147353722Y-104569094D01*
X147242499Y-104727937D01*
X147240913Y-104731603D01*
X147240912Y-104731604D01*
X147180742Y-104870651D01*
X147165488Y-104905900D01*
X147125834Y-105095713D01*
X147125676Y-105098730D01*
X147125675Y-105098737D01*
X147125606Y-105100068D01*
X147125500Y-105102086D01*
X147125500Y-106752456D01*
X146644149Y-106752456D01*
X146644149Y-104118899D01*
X146662631Y-104068119D01*
X146667288Y-104063038D01*
X149031687Y-101698639D01*
X149080663Y-101675801D01*
X149087548Y-101675500D01*
X150592340Y-101675500D01*
X150599226Y-101675801D01*
X150631923Y-101678662D01*
X150631925Y-101678662D01*
X150638807Y-101679264D01*
X150645479Y-101677476D01*
X150645480Y-101677476D01*
X150664489Y-101672382D01*
X150677202Y-101668975D01*
X150683918Y-101667487D01*
X150723045Y-101660588D01*
X150729031Y-101657132D01*
X150735526Y-101654768D01*
X150735547Y-101654825D01*
X150736767Y-101654320D01*
X150736742Y-101654265D01*
X150743009Y-101651343D01*
X150749684Y-101649554D01*
X150782246Y-101626753D01*
X150788016Y-101623077D01*
X150822455Y-101603194D01*
X150848009Y-101572740D01*
X150852656Y-101567670D01*
X158544232Y-93876094D01*
X158593208Y-93853256D01*
X158624505Y-93856821D01*
X158802317Y-93914595D01*
X158806156Y-93915053D01*
X158806157Y-93915053D01*
X158985903Y-93936487D01*
X158985904Y-93936487D01*
X158989745Y-93936945D01*
X159177945Y-93922464D01*
X159359748Y-93871703D01*
X159528229Y-93786598D01*
X159676970Y-93670388D01*
X159766079Y-93567155D01*
X159797783Y-93530426D01*
X159797787Y-93530421D01*
X159800307Y-93527501D01*
X159802213Y-93524145D01*
X159802217Y-93524140D01*
X159880027Y-93387168D01*
X159893542Y-93363378D01*
X159927790Y-93260425D01*
X159951902Y-93187944D01*
X159951903Y-93187939D01*
X159953123Y-93184272D01*
X159976780Y-92997005D01*
X159977157Y-92970000D01*
X159958738Y-92782145D01*
X159904181Y-92601445D01*
X159815566Y-92434783D01*
X159696266Y-92288508D01*
X159550827Y-92168191D01*
X159533696Y-92158928D01*
X159388184Y-92080250D01*
X159388182Y-92080249D01*
X159384788Y-92078414D01*
X159204474Y-92022597D01*
X159016752Y-92002867D01*
X159012906Y-92003217D01*
X159012905Y-92003217D01*
X158990039Y-92005298D01*
X158828773Y-92019974D01*
X158825066Y-92021065D01*
X158651406Y-92072176D01*
X158651403Y-92072177D01*
X158647697Y-92073268D01*
X158644270Y-92075060D01*
X158644269Y-92075060D01*
X158632304Y-92081315D01*
X158480420Y-92160718D01*
X158333316Y-92278993D01*
X158211986Y-92423588D01*
X158121052Y-92588996D01*
X158063978Y-92768917D01*
X158042937Y-92956496D01*
X158058732Y-93144590D01*
X158059794Y-93148294D01*
X158059795Y-93148299D01*
X158109695Y-93322322D01*
X158109697Y-93322327D01*
X158110760Y-93326034D01*
X158109885Y-93326285D01*
X158111293Y-93376553D01*
X158092191Y-93407483D01*
X150498313Y-101001361D01*
X150449337Y-101024199D01*
X150442452Y-101024500D01*
X148937660Y-101024500D01*
X148930774Y-101024199D01*
X148898077Y-101021338D01*
X148898075Y-101021338D01*
X148891193Y-101020736D01*
X148884521Y-101022524D01*
X148884520Y-101022524D01*
X148878270Y-101024199D01*
X148852798Y-101031025D01*
X148846082Y-101032513D01*
X148806955Y-101039412D01*
X148800969Y-101042868D01*
X148794474Y-101045232D01*
X148794453Y-101045175D01*
X148793233Y-101045680D01*
X148793258Y-101045735D01*
X148786991Y-101048657D01*
X148780316Y-101050446D01*
X148747754Y-101073247D01*
X148741984Y-101076923D01*
X148707545Y-101096806D01*
X148681991Y-101127260D01*
X148677344Y-101132330D01*
X146100983Y-103708691D01*
X146095902Y-103713348D01*
X146065455Y-103738896D01*
X146045572Y-103773335D01*
X146041896Y-103779105D01*
X146019095Y-103811667D01*
X146017306Y-103818342D01*
X146014384Y-103824609D01*
X146014329Y-103824584D01*
X146013824Y-103825804D01*
X146013881Y-103825825D01*
X146011517Y-103832320D01*
X146008061Y-103838306D01*
X146006861Y-103845113D01*
X146001164Y-103877425D01*
X145999674Y-103884149D01*
X145989385Y-103922544D01*
X145989987Y-103929426D01*
X145989987Y-103929428D01*
X145992848Y-103962125D01*
X145993149Y-103969011D01*
X145993149Y-112410989D01*
X145992848Y-112417875D01*
X145990511Y-112444590D01*
X145989385Y-112457456D01*
X145510977Y-112457456D01*
X145547615Y-112444590D01*
X145547617Y-112444589D01*
X145553184Y-112442634D01*
X145558278Y-112438872D01*
X145657406Y-112365654D01*
X145662150Y-112362150D01*
X145703725Y-112305862D01*
X145739128Y-112257931D01*
X145739129Y-112257930D01*
X145742634Y-112253184D01*
X145787519Y-112125369D01*
X145790500Y-112093834D01*
X145790500Y-110986166D01*
X145787519Y-110954631D01*
X145742634Y-110826816D01*
X145662150Y-110717850D01*
X145644225Y-110704610D01*
X145557931Y-110640872D01*
X145557930Y-110640871D01*
X145553184Y-110637366D01*
X145547617Y-110635411D01*
X145547615Y-110635410D01*
X145480385Y-110611801D01*
X145425369Y-110592481D01*
X145393834Y-110589500D01*
X144786166Y-110589500D01*
X144754631Y-110592481D01*
X144699615Y-110611801D01*
X144632385Y-110635410D01*
X144632383Y-110635411D01*
X144626816Y-110637366D01*
X144622070Y-110640871D01*
X144622069Y-110640872D01*
X144535775Y-110704610D01*
X144517850Y-110717850D01*
X144437366Y-110826816D01*
X144392481Y-110954631D01*
X144389500Y-110986166D01*
X144389500Y-112093834D01*
X140649251Y-112093834D01*
X140649251Y-106752980D01*
X140976000Y-106752980D01*
X140976201Y-106756960D01*
X140991030Y-106902945D01*
X140992630Y-106910741D01*
X141051232Y-107097738D01*
X141054370Y-107105059D01*
X141149376Y-107276456D01*
X141153917Y-107282989D01*
X141281443Y-107431775D01*
X141287216Y-107437273D01*
X141442053Y-107557377D01*
X141448811Y-107561600D01*
X141624635Y-107648116D01*
X141632104Y-107650893D01*
X141716521Y-107672882D01*
X141727825Y-107671813D01*
X141729516Y-107670098D01*
X141730000Y-107667880D01*
X141730000Y-107667690D01*
X142230000Y-107667690D01*
X142233884Y-107678361D01*
X142236043Y-107679607D01*
X142418635Y-107612426D01*
X142425802Y-107608931D01*
X142592343Y-107505671D01*
X142598651Y-107500813D01*
X142741039Y-107366164D01*
X142746238Y-107360141D01*
X142858639Y-107199615D01*
X142862522Y-107192668D01*
X142940349Y-107012818D01*
X142942759Y-107005222D01*
X142983029Y-106812459D01*
X142983809Y-106806462D01*
X142983946Y-106803832D01*
X142984000Y-106801780D01*
X142984000Y-106213930D01*
X142980116Y-106203259D01*
X142974472Y-106200000D01*
X142243930Y-106200000D01*
X142233259Y-106203884D01*
X142230000Y-106209528D01*
X142230000Y-107667690D01*
X141730000Y-107667690D01*
X141730000Y-106213930D01*
X141726116Y-106203259D01*
X141720472Y-106200000D01*
X140989930Y-106200000D01*
X140979259Y-106203884D01*
X140976000Y-106209528D01*
X140976000Y-106752980D01*
X140649251Y-106752980D01*
X140649251Y-105686070D01*
X140976000Y-105686070D01*
X140979884Y-105696741D01*
X140985528Y-105700000D01*
X141716070Y-105700000D01*
X141726741Y-105696116D01*
X141730000Y-105690472D01*
X141730000Y-105686070D01*
X142230000Y-105686070D01*
X142233884Y-105696741D01*
X142239528Y-105700000D01*
X142970070Y-105700000D01*
X142980741Y-105696116D01*
X142984000Y-105690472D01*
X142984000Y-105147020D01*
X142983799Y-105143040D01*
X142968970Y-104997055D01*
X142967370Y-104989259D01*
X142908768Y-104802262D01*
X142905630Y-104794941D01*
X142882080Y-104752456D01*
X143425500Y-104752456D01*
X143425701Y-104754431D01*
X143425701Y-104754439D01*
X143430559Y-104802262D01*
X143440174Y-104896919D01*
X143441369Y-104900733D01*
X143441370Y-104900737D01*
X143478371Y-105018807D01*
X143498161Y-105081957D01*
X143517457Y-105116768D01*
X143581695Y-105232655D01*
X143592171Y-105251555D01*
X143718364Y-105398786D01*
X143721529Y-105401241D01*
X143821065Y-105478449D01*
X143871584Y-105517636D01*
X143875179Y-105519405D01*
X144041978Y-105601481D01*
X144041982Y-105601482D01*
X144045572Y-105603249D01*
X144139397Y-105627689D01*
X144229347Y-105651119D01*
X144229350Y-105651120D01*
X144233222Y-105652128D01*
X144330045Y-105657202D01*
X144422871Y-105662068D01*
X144422876Y-105662068D01*
X144426868Y-105662277D01*
X144618599Y-105633280D01*
X144800583Y-105566323D01*
X144803987Y-105564213D01*
X144803990Y-105564211D01*
X144961988Y-105466248D01*
X144961992Y-105466245D01*
X144965387Y-105464140D01*
X145106278Y-105330906D01*
X145217501Y-105172063D01*
X145219088Y-105168396D01*
X145292925Y-104997768D01*
X145292926Y-104997766D01*
X145294512Y-104994100D01*
X145323535Y-104855173D01*
X145333547Y-104807251D01*
X145333547Y-104807248D01*
X145334166Y-104804287D01*
X145334324Y-104801270D01*
X145334325Y-104801263D01*
X145334446Y-104798937D01*
X145334500Y-104797914D01*
X145334500Y-103147544D01*
X145333315Y-103135870D01*
X145320230Y-103007060D01*
X145319826Y-103003081D01*
X145297787Y-102932752D01*
X145263036Y-102821863D01*
X145261839Y-102818043D01*
X145167829Y-102648445D01*
X145041636Y-102501214D01*
X144965241Y-102441956D01*
X144891580Y-102384818D01*
X144891578Y-102384817D01*
X144888416Y-102382364D01*
X144868715Y-102372670D01*
X144718022Y-102298519D01*
X144718018Y-102298518D01*
X144714428Y-102296751D01*
X144616309Y-102271193D01*
X144530653Y-102248881D01*
X144530650Y-102248880D01*
X144526778Y-102247872D01*
X144429955Y-102242797D01*
X144337129Y-102237932D01*
X144337124Y-102237932D01*
X144333132Y-102237723D01*
X144141401Y-102266720D01*
X143959417Y-102333677D01*
X143956013Y-102335787D01*
X143956010Y-102335789D01*
X143798012Y-102433752D01*
X143798008Y-102433755D01*
X143794613Y-102435860D01*
X143653722Y-102569094D01*
X143542499Y-102727937D01*
X143540913Y-102731603D01*
X143540912Y-102731604D01*
X143508935Y-102805500D01*
X143465488Y-102905900D01*
X143425834Y-103095713D01*
X143425676Y-103098730D01*
X143425675Y-103098737D01*
X143425606Y-103100068D01*
X143425500Y-103102086D01*
X143425500Y-104752456D01*
X142882080Y-104752456D01*
X142810624Y-104623544D01*
X142806083Y-104617011D01*
X142678557Y-104468225D01*
X142672784Y-104462727D01*
X142517947Y-104342623D01*
X142511189Y-104338400D01*
X142335365Y-104251884D01*
X142327896Y-104249107D01*
X142243479Y-104227118D01*
X142232175Y-104228187D01*
X142230484Y-104229902D01*
X142230000Y-104232120D01*
X142230000Y-105686070D01*
X141730000Y-105686070D01*
X141730000Y-104232310D01*
X141726116Y-104221639D01*
X141723957Y-104220393D01*
X141541365Y-104287574D01*
X141534198Y-104291069D01*
X141367657Y-104394329D01*
X141361349Y-104399187D01*
X141218961Y-104533836D01*
X141213762Y-104539859D01*
X141101361Y-104700385D01*
X141097478Y-104707332D01*
X141019651Y-104887182D01*
X141017241Y-104894778D01*
X140976971Y-105087541D01*
X140976191Y-105093538D01*
X140976054Y-105096168D01*
X140976000Y-105098221D01*
X140976000Y-105686070D01*
X140649251Y-105686070D01*
X140649251Y-100419282D01*
X144416000Y-100419282D01*
X144417099Y-100428779D01*
X144418976Y-100445003D01*
X144419500Y-100454083D01*
X144419500Y-100459554D01*
X144420637Y-100464184D01*
X144420707Y-100464762D01*
X144422263Y-100473415D01*
X144425064Y-100497620D01*
X144430265Y-100505272D01*
X144430641Y-100506496D01*
X144431301Y-100507599D01*
X144433508Y-100516584D01*
X144449163Y-100534341D01*
X144449614Y-100534853D01*
X144455694Y-100542691D01*
X144464015Y-100554935D01*
X144464017Y-100554937D01*
X144469391Y-100562844D01*
X144477546Y-100567216D01*
X144478446Y-100568126D01*
X144479539Y-100568796D01*
X144485659Y-100575738D01*
X144494585Y-100579164D01*
X144494586Y-100579165D01*
X144508399Y-100584467D01*
X144517420Y-100588598D01*
X144532491Y-100596679D01*
X144532494Y-100596680D01*
X144538891Y-100600110D01*
X144541978Y-100600500D01*
X144544802Y-100600500D01*
X144551215Y-100600904D01*
X144559282Y-100604000D01*
X144585003Y-100601024D01*
X144594083Y-100600500D01*
X146544802Y-100600500D01*
X146551215Y-100600904D01*
X146559282Y-100604000D01*
X146585003Y-100601024D01*
X146594083Y-100600500D01*
X146599554Y-100600500D01*
X146604184Y-100599363D01*
X146604762Y-100599293D01*
X146613415Y-100597737D01*
X146628124Y-100596035D01*
X146628125Y-100596035D01*
X146637620Y-100594936D01*
X146645272Y-100589735D01*
X146646496Y-100589359D01*
X146647599Y-100588699D01*
X146656584Y-100586492D01*
X146674854Y-100570385D01*
X146682691Y-100564306D01*
X146694935Y-100555985D01*
X146694937Y-100555983D01*
X146702844Y-100550609D01*
X146707216Y-100542454D01*
X146708126Y-100541554D01*
X146708796Y-100540461D01*
X146715738Y-100534341D01*
X146724468Y-100511600D01*
X146728598Y-100502580D01*
X146736679Y-100487509D01*
X146736680Y-100487506D01*
X146740110Y-100481109D01*
X146740500Y-100478022D01*
X146740500Y-100475198D01*
X146740904Y-100468785D01*
X146744000Y-100460718D01*
X146741024Y-100434997D01*
X146740500Y-100425917D01*
X146740500Y-98475198D01*
X146740904Y-98468785D01*
X146744000Y-98460718D01*
X146741024Y-98434997D01*
X146740500Y-98425917D01*
X146740500Y-98420446D01*
X146739363Y-98415816D01*
X146739293Y-98415238D01*
X146737737Y-98406585D01*
X146736035Y-98391876D01*
X146736035Y-98391875D01*
X146734936Y-98382380D01*
X146729735Y-98374728D01*
X146729359Y-98373504D01*
X146728699Y-98372401D01*
X146726492Y-98363416D01*
X146710385Y-98345146D01*
X146704306Y-98337309D01*
X146695985Y-98325065D01*
X146695983Y-98325063D01*
X146690609Y-98317156D01*
X146682454Y-98312784D01*
X146681554Y-98311874D01*
X146680461Y-98311204D01*
X146674341Y-98304262D01*
X146665415Y-98300836D01*
X146665414Y-98300835D01*
X146651601Y-98295533D01*
X146642580Y-98291402D01*
X146627509Y-98283321D01*
X146627506Y-98283320D01*
X146621109Y-98279890D01*
X146618022Y-98279500D01*
X146615198Y-98279500D01*
X146608785Y-98279096D01*
X146600718Y-98276000D01*
X146575853Y-98278877D01*
X146574997Y-98278976D01*
X146565917Y-98279500D01*
X144615198Y-98279500D01*
X144608785Y-98279096D01*
X144600718Y-98276000D01*
X144575853Y-98278877D01*
X144574997Y-98278976D01*
X144565917Y-98279500D01*
X144560446Y-98279500D01*
X144555816Y-98280637D01*
X144555238Y-98280707D01*
X144546585Y-98282263D01*
X144531876Y-98283965D01*
X144531875Y-98283965D01*
X144522380Y-98285064D01*
X144514728Y-98290265D01*
X144513504Y-98290641D01*
X144512401Y-98291301D01*
X144503416Y-98293508D01*
X144496243Y-98299831D01*
X144496244Y-98299831D01*
X144485147Y-98309614D01*
X144477309Y-98315694D01*
X144465065Y-98324015D01*
X144465063Y-98324017D01*
X144457156Y-98329391D01*
X144452784Y-98337546D01*
X144451874Y-98338446D01*
X144451204Y-98339539D01*
X144444262Y-98345659D01*
X144440836Y-98354585D01*
X144440835Y-98354586D01*
X144435533Y-98368399D01*
X144431402Y-98377420D01*
X144423321Y-98392491D01*
X144423320Y-98392494D01*
X144419890Y-98398891D01*
X144419500Y-98401978D01*
X144419500Y-98404802D01*
X144419096Y-98411215D01*
X144416000Y-98419282D01*
X144417099Y-98428779D01*
X144418976Y-98445003D01*
X144419500Y-98454083D01*
X144419500Y-100404802D01*
X144419096Y-100411215D01*
X144416000Y-100419282D01*
X140649251Y-100419282D01*
X140649251Y-96043234D01*
X147440000Y-96043234D01*
X147440157Y-96046763D01*
X147454470Y-96207133D01*
X147455713Y-96214043D01*
X147512735Y-96422479D01*
X147515175Y-96429041D01*
X147608208Y-96624087D01*
X147611778Y-96630125D01*
X147737882Y-96805616D01*
X147742458Y-96810918D01*
X147897643Y-96961303D01*
X147903090Y-96965714D01*
X148082454Y-97086241D01*
X148088597Y-97089618D01*
X148286461Y-97176475D01*
X148293117Y-97178715D01*
X148426456Y-97210726D01*
X148437737Y-97209441D01*
X148439678Y-97207396D01*
X148440000Y-97205848D01*
X148440000Y-97203413D01*
X148940000Y-97203413D01*
X148943884Y-97214084D01*
X148947827Y-97216361D01*
X148954305Y-97214984D01*
X149160854Y-97151441D01*
X149167329Y-97148799D01*
X149359369Y-97049679D01*
X149365279Y-97045928D01*
X149536723Y-96914375D01*
X149541883Y-96909631D01*
X149687318Y-96749799D01*
X149691557Y-96744213D01*
X149806387Y-96561161D01*
X149809574Y-96554906D01*
X149890172Y-96354412D01*
X149892200Y-96347695D01*
X149936149Y-96135471D01*
X149936900Y-96129761D01*
X149939935Y-96077133D01*
X149940000Y-96074877D01*
X149940000Y-95502323D01*
X149936116Y-95491652D01*
X149930472Y-95488393D01*
X148953930Y-95488393D01*
X148943259Y-95492277D01*
X148940000Y-95497921D01*
X148940000Y-97203413D01*
X148440000Y-97203413D01*
X148440000Y-95502323D01*
X148436116Y-95491652D01*
X148430472Y-95488393D01*
X147453930Y-95488393D01*
X147443259Y-95492277D01*
X147440000Y-95497921D01*
X147440000Y-96043234D01*
X140649251Y-96043234D01*
X140649251Y-95184389D01*
X151635814Y-95184389D01*
X151645523Y-95394160D01*
X151694724Y-95598311D01*
X151781640Y-95789474D01*
X151903137Y-95960753D01*
X152054831Y-96105968D01*
X152057991Y-96108008D01*
X152057993Y-96108010D01*
X152100523Y-96135471D01*
X152231246Y-96219878D01*
X152234731Y-96221283D01*
X152234734Y-96221284D01*
X152422524Y-96296966D01*
X152422529Y-96296967D01*
X152426019Y-96298374D01*
X152512030Y-96315171D01*
X152629330Y-96338078D01*
X152629333Y-96338078D01*
X152632122Y-96338623D01*
X152634955Y-96338762D01*
X152634959Y-96338762D01*
X152635571Y-96338792D01*
X152637643Y-96338893D01*
X154492469Y-96338893D01*
X154528952Y-96335412D01*
X154645308Y-96324311D01*
X154645312Y-96324310D01*
X154649046Y-96323954D01*
X154850549Y-96264840D01*
X155037239Y-96168688D01*
X155192457Y-96046763D01*
X155199418Y-96041295D01*
X155199419Y-96041294D01*
X155202379Y-96038969D01*
X155340010Y-95880364D01*
X155392591Y-95789474D01*
X155443285Y-95701846D01*
X155443286Y-95701843D01*
X155445166Y-95698594D01*
X155514053Y-95500219D01*
X155515768Y-95488393D01*
X155543647Y-95296116D01*
X155543647Y-95296114D01*
X155544186Y-95292397D01*
X155539015Y-95180670D01*
X155534651Y-95086375D01*
X155534650Y-95086370D01*
X155534477Y-95082626D01*
X155509308Y-94978189D01*
X155486157Y-94882131D01*
X155485276Y-94878475D01*
X155398360Y-94687312D01*
X155276863Y-94516033D01*
X155125169Y-94370818D01*
X155088321Y-94347025D01*
X154968492Y-94269653D01*
X154948754Y-94256908D01*
X154945269Y-94255503D01*
X154945266Y-94255502D01*
X154757476Y-94179820D01*
X154757471Y-94179819D01*
X154753981Y-94178412D01*
X154667970Y-94161615D01*
X154550670Y-94138708D01*
X154550667Y-94138708D01*
X154547878Y-94138163D01*
X154545045Y-94138024D01*
X154545041Y-94138024D01*
X154544429Y-94137994D01*
X154542357Y-94137893D01*
X152687531Y-94137893D01*
X152651048Y-94141374D01*
X152534692Y-94152475D01*
X152534688Y-94152476D01*
X152530954Y-94152832D01*
X152329451Y-94211946D01*
X152142761Y-94308098D01*
X152139804Y-94310421D01*
X151983051Y-94433552D01*
X151977621Y-94437817D01*
X151839990Y-94596422D01*
X151838111Y-94599670D01*
X151779654Y-94700718D01*
X151734834Y-94778192D01*
X151665947Y-94976567D01*
X151665408Y-94980283D01*
X151665407Y-94980288D01*
X151636353Y-95180670D01*
X151635814Y-95184389D01*
X140649251Y-95184389D01*
X140649251Y-94974463D01*
X147440000Y-94974463D01*
X147443884Y-94985134D01*
X147449528Y-94988393D01*
X148426070Y-94988393D01*
X148436741Y-94984509D01*
X148440000Y-94978865D01*
X148440000Y-94974463D01*
X148940000Y-94974463D01*
X148943884Y-94985134D01*
X148949528Y-94988393D01*
X149926070Y-94988393D01*
X149936741Y-94984509D01*
X149940000Y-94978865D01*
X149940000Y-94433552D01*
X149939843Y-94430023D01*
X149925530Y-94269653D01*
X149924287Y-94262743D01*
X149867265Y-94054307D01*
X149864825Y-94047745D01*
X149771792Y-93852699D01*
X149768222Y-93846661D01*
X149642118Y-93671170D01*
X149637542Y-93665868D01*
X149482357Y-93515483D01*
X149476910Y-93511072D01*
X149297546Y-93390545D01*
X149291403Y-93387168D01*
X149093539Y-93300311D01*
X149086883Y-93298071D01*
X148953544Y-93266060D01*
X148942263Y-93267345D01*
X148940322Y-93269390D01*
X148940000Y-93270938D01*
X148940000Y-94974463D01*
X148440000Y-94974463D01*
X148440000Y-93273373D01*
X148436116Y-93262702D01*
X148432173Y-93260425D01*
X148425695Y-93261802D01*
X148219146Y-93325345D01*
X148212671Y-93327987D01*
X148020631Y-93427107D01*
X148014721Y-93430858D01*
X147843277Y-93562411D01*
X147838117Y-93567155D01*
X147692682Y-93726987D01*
X147688443Y-93732573D01*
X147573613Y-93915625D01*
X147570426Y-93921880D01*
X147489828Y-94122374D01*
X147487800Y-94129091D01*
X147443851Y-94341315D01*
X147443100Y-94347025D01*
X147440065Y-94399653D01*
X147440000Y-94401909D01*
X147440000Y-94974463D01*
X140649251Y-94974463D01*
X140649251Y-91257417D01*
X140651291Y-91239579D01*
X140652368Y-91234931D01*
X140653378Y-91230575D01*
X140653379Y-91230000D01*
X140652385Y-91225644D01*
X140651889Y-91221202D01*
X140652814Y-91221099D01*
X140651755Y-91204574D01*
X140664644Y-91073717D01*
X140667666Y-91058529D01*
X140710989Y-90915710D01*
X140716915Y-90901402D01*
X140787276Y-90769766D01*
X140795880Y-90756889D01*
X140890565Y-90641516D01*
X140901516Y-90630565D01*
X141016889Y-90535880D01*
X141029766Y-90527276D01*
X141161402Y-90456915D01*
X141175710Y-90450989D01*
X141318529Y-90407666D01*
X141333718Y-90404644D01*
X141464625Y-90391751D01*
X141472504Y-90391371D01*
X141481045Y-90391386D01*
X141489713Y-90393379D01*
X141498389Y-90391416D01*
X141498392Y-90391416D01*
X141499301Y-90391210D01*
X141516763Y-90389263D01*
X143426202Y-90390031D01*
X144350533Y-90390403D01*
X144401305Y-90408906D01*
X144428305Y-90455716D01*
X144429500Y-90469403D01*
X144429500Y-91944802D01*
X144429096Y-91951215D01*
X144426000Y-91959282D01*
X144427099Y-91968779D01*
X144428976Y-91985003D01*
X144429500Y-91994083D01*
X144429500Y-91999554D01*
X144430637Y-92004184D01*
X144430707Y-92004762D01*
X144432263Y-92013415D01*
X144433326Y-92022597D01*
X144435064Y-92037620D01*
X144440265Y-92045272D01*
X144440641Y-92046496D01*
X144441301Y-92047599D01*
X144443508Y-92056584D01*
X144457254Y-92072176D01*
X144459614Y-92074853D01*
X144465694Y-92082691D01*
X144474015Y-92094935D01*
X144474017Y-92094937D01*
X144479391Y-92102844D01*
X144487546Y-92107216D01*
X144488446Y-92108126D01*
X144489539Y-92108796D01*
X144495659Y-92115738D01*
X144504585Y-92119164D01*
X144504586Y-92119165D01*
X144518399Y-92124467D01*
X144527420Y-92128598D01*
X144542491Y-92136679D01*
X144542494Y-92136680D01*
X144548891Y-92140110D01*
X144551978Y-92140500D01*
X144554802Y-92140500D01*
X144561215Y-92140904D01*
X144569282Y-92144000D01*
X144595003Y-92141024D01*
X144604083Y-92140500D01*
X146534802Y-92140500D01*
X146541215Y-92140904D01*
X146549282Y-92144000D01*
X146575003Y-92141024D01*
X146584083Y-92140500D01*
X146589554Y-92140500D01*
X146594184Y-92139363D01*
X146594762Y-92139293D01*
X146603415Y-92137737D01*
X146618124Y-92136035D01*
X146618125Y-92136035D01*
X146627620Y-92134936D01*
X146635272Y-92129735D01*
X146636496Y-92129359D01*
X146637599Y-92128699D01*
X146646584Y-92126492D01*
X146664854Y-92110385D01*
X146672691Y-92104306D01*
X146684935Y-92095985D01*
X146684937Y-92095983D01*
X146692844Y-92090609D01*
X146697216Y-92082454D01*
X146698126Y-92081554D01*
X146698796Y-92080461D01*
X146705738Y-92074341D01*
X146714468Y-92051600D01*
X146718598Y-92042580D01*
X146726679Y-92027509D01*
X146726680Y-92027506D01*
X146730110Y-92021109D01*
X146730500Y-92018022D01*
X146730500Y-92015198D01*
X146730904Y-92008785D01*
X146734000Y-92000718D01*
X146731024Y-91974997D01*
X146730500Y-91965917D01*
X146730500Y-90469477D01*
X146748982Y-90418697D01*
X146795782Y-90391677D01*
X146809488Y-90390477D01*
X156137385Y-90389577D01*
X159482799Y-90389254D01*
X159500504Y-90391262D01*
G37*
%TD.AperFunction*%
%TD*%
M02*
