%TF.GenerationSoftware,KiCad,Pcbnew,(6.0.6-0)*%
%TF.CreationDate,2022-07-06T00:09:10-04:00*%
%TF.ProjectId,PS2VGA Plug PCB,50533256-4741-4205-906c-756720504342,rev?*%
%TF.SameCoordinates,Original*%
%TF.FileFunction,Legend,Bot*%
%TF.FilePolarity,Positive*%
%FSLAX46Y46*%
G04 Gerber Fmt 4.6, Leading zero omitted, Abs format (unit mm)*
G04 Created by KiCad (PCBNEW (6.0.6-0)) date 2022-07-06 00:09:10*
%MOMM*%
%LPD*%
G01*
G04 APERTURE LIST*
%ADD10C,0.150000*%
%ADD11C,0.160000*%
%ADD12C,0.120000*%
%ADD13C,0.500000*%
G04 APERTURE END LIST*
D10*
X146000000Y-116850000D02*
X155070000Y-116850000D01*
X146000000Y-120570000D02*
X146000000Y-116850000D01*
X155070000Y-120570000D02*
X146000000Y-120570000D01*
X155070000Y-116850000D02*
X155070000Y-120570000D01*
D11*
X156161428Y-91797380D02*
X156161428Y-90797380D01*
X155780476Y-90797380D01*
X155685238Y-90845000D01*
X155637619Y-90892619D01*
X155590000Y-90987857D01*
X155590000Y-91130714D01*
X155637619Y-91225952D01*
X155685238Y-91273571D01*
X155780476Y-91321190D01*
X156161428Y-91321190D01*
X155209047Y-91749761D02*
X155066190Y-91797380D01*
X154828095Y-91797380D01*
X154732857Y-91749761D01*
X154685238Y-91702142D01*
X154637619Y-91606904D01*
X154637619Y-91511666D01*
X154685238Y-91416428D01*
X154732857Y-91368809D01*
X154828095Y-91321190D01*
X155018571Y-91273571D01*
X155113809Y-91225952D01*
X155161428Y-91178333D01*
X155209047Y-91083095D01*
X155209047Y-90987857D01*
X155161428Y-90892619D01*
X155113809Y-90845000D01*
X155018571Y-90797380D01*
X154780476Y-90797380D01*
X154637619Y-90845000D01*
X154256666Y-90892619D02*
X154209047Y-90845000D01*
X154113809Y-90797380D01*
X153875714Y-90797380D01*
X153780476Y-90845000D01*
X153732857Y-90892619D01*
X153685238Y-90987857D01*
X153685238Y-91083095D01*
X153732857Y-91225952D01*
X154304285Y-91797380D01*
X153685238Y-91797380D01*
X153399523Y-90797380D02*
X153066190Y-91797380D01*
X152732857Y-90797380D01*
X151875714Y-90845000D02*
X151970952Y-90797380D01*
X152113809Y-90797380D01*
X152256666Y-90845000D01*
X152351904Y-90940238D01*
X152399523Y-91035476D01*
X152447142Y-91225952D01*
X152447142Y-91368809D01*
X152399523Y-91559285D01*
X152351904Y-91654523D01*
X152256666Y-91749761D01*
X152113809Y-91797380D01*
X152018571Y-91797380D01*
X151875714Y-91749761D01*
X151828095Y-91702142D01*
X151828095Y-91368809D01*
X152018571Y-91368809D01*
X151447142Y-91511666D02*
X150970952Y-91511666D01*
X151542380Y-91797380D02*
X151209047Y-90797380D01*
X150875714Y-91797380D01*
X156899523Y-93407380D02*
X156899523Y-92407380D01*
X156518571Y-92407380D01*
X156423333Y-92455000D01*
X156375714Y-92502619D01*
X156328095Y-92597857D01*
X156328095Y-92740714D01*
X156375714Y-92835952D01*
X156423333Y-92883571D01*
X156518571Y-92931190D01*
X156899523Y-92931190D01*
X155756666Y-93407380D02*
X155851904Y-93359761D01*
X155899523Y-93264523D01*
X155899523Y-92407380D01*
X154947142Y-92740714D02*
X154947142Y-93407380D01*
X155375714Y-92740714D02*
X155375714Y-93264523D01*
X155328095Y-93359761D01*
X155232857Y-93407380D01*
X155090000Y-93407380D01*
X154994761Y-93359761D01*
X154947142Y-93312142D01*
X154042380Y-92740714D02*
X154042380Y-93550238D01*
X154090000Y-93645476D01*
X154137619Y-93693095D01*
X154232857Y-93740714D01*
X154375714Y-93740714D01*
X154470952Y-93693095D01*
X154042380Y-93359761D02*
X154137619Y-93407380D01*
X154328095Y-93407380D01*
X154423333Y-93359761D01*
X154470952Y-93312142D01*
X154518571Y-93216904D01*
X154518571Y-92931190D01*
X154470952Y-92835952D01*
X154423333Y-92788333D01*
X154328095Y-92740714D01*
X154137619Y-92740714D01*
X154042380Y-92788333D01*
X152804285Y-93407380D02*
X152804285Y-92407380D01*
X152423333Y-92407380D01*
X152328095Y-92455000D01*
X152280476Y-92502619D01*
X152232857Y-92597857D01*
X152232857Y-92740714D01*
X152280476Y-92835952D01*
X152328095Y-92883571D01*
X152423333Y-92931190D01*
X152804285Y-92931190D01*
X151232857Y-93312142D02*
X151280476Y-93359761D01*
X151423333Y-93407380D01*
X151518571Y-93407380D01*
X151661428Y-93359761D01*
X151756666Y-93264523D01*
X151804285Y-93169285D01*
X151851904Y-92978809D01*
X151851904Y-92835952D01*
X151804285Y-92645476D01*
X151756666Y-92550238D01*
X151661428Y-92455000D01*
X151518571Y-92407380D01*
X151423333Y-92407380D01*
X151280476Y-92455000D01*
X151232857Y-92502619D01*
X150470952Y-92883571D02*
X150328095Y-92931190D01*
X150280476Y-92978809D01*
X150232857Y-93074047D01*
X150232857Y-93216904D01*
X150280476Y-93312142D01*
X150328095Y-93359761D01*
X150423333Y-93407380D01*
X150804285Y-93407380D01*
X150804285Y-92407380D01*
X150470952Y-92407380D01*
X150375714Y-92455000D01*
X150328095Y-92502619D01*
X150280476Y-92597857D01*
X150280476Y-92693095D01*
X150328095Y-92788333D01*
X150375714Y-92835952D01*
X150470952Y-92883571D01*
X150804285Y-92883571D01*
D10*
X156631428Y-97577380D02*
X156631428Y-98291666D01*
X156679047Y-98434523D01*
X156774285Y-98529761D01*
X156917142Y-98577380D01*
X157012380Y-98577380D01*
X155774285Y-98529761D02*
X155869523Y-98577380D01*
X156060000Y-98577380D01*
X156155238Y-98529761D01*
X156202857Y-98434523D01*
X156202857Y-98053571D01*
X156155238Y-97958333D01*
X156060000Y-97910714D01*
X155869523Y-97910714D01*
X155774285Y-97958333D01*
X155726666Y-98053571D01*
X155726666Y-98148809D01*
X156202857Y-98244047D01*
X155440952Y-97910714D02*
X155060000Y-97910714D01*
X155298095Y-98577380D02*
X155298095Y-97720238D01*
X155250476Y-97625000D01*
X155155238Y-97577380D01*
X155060000Y-97577380D01*
X154869523Y-97910714D02*
X154488571Y-97910714D01*
X154726666Y-98577380D02*
X154726666Y-97720238D01*
X154679047Y-97625000D01*
X154583809Y-97577380D01*
X154488571Y-97577380D01*
X152821904Y-98482142D02*
X152869523Y-98529761D01*
X153012380Y-98577380D01*
X153107619Y-98577380D01*
X153250476Y-98529761D01*
X153345714Y-98434523D01*
X153393333Y-98339285D01*
X153440952Y-98148809D01*
X153440952Y-98005952D01*
X153393333Y-97815476D01*
X153345714Y-97720238D01*
X153250476Y-97625000D01*
X153107619Y-97577380D01*
X153012380Y-97577380D01*
X152869523Y-97625000D01*
X152821904Y-97672619D01*
X152393333Y-98577380D02*
X152393333Y-97577380D01*
X151964761Y-98577380D02*
X151964761Y-98053571D01*
X152012380Y-97958333D01*
X152107619Y-97910714D01*
X152250476Y-97910714D01*
X152345714Y-97958333D01*
X152393333Y-98005952D01*
X151107619Y-98529761D02*
X151202857Y-98577380D01*
X151393333Y-98577380D01*
X151488571Y-98529761D01*
X151536190Y-98434523D01*
X151536190Y-98053571D01*
X151488571Y-97958333D01*
X151393333Y-97910714D01*
X151202857Y-97910714D01*
X151107619Y-97958333D01*
X151060000Y-98053571D01*
X151060000Y-98148809D01*
X151536190Y-98244047D01*
X150631428Y-97910714D02*
X150631428Y-98577380D01*
X150631428Y-98005952D02*
X150583809Y-97958333D01*
X150488571Y-97910714D01*
X150345714Y-97910714D01*
X150250476Y-97958333D01*
X150202857Y-98053571D01*
X150202857Y-98577380D01*
X155274285Y-99282619D02*
X155226666Y-99235000D01*
X155131428Y-99187380D01*
X154893333Y-99187380D01*
X154798095Y-99235000D01*
X154750476Y-99282619D01*
X154702857Y-99377857D01*
X154702857Y-99473095D01*
X154750476Y-99615952D01*
X155321904Y-100187380D01*
X154702857Y-100187380D01*
X154083809Y-99187380D02*
X153988571Y-99187380D01*
X153893333Y-99235000D01*
X153845714Y-99282619D01*
X153798095Y-99377857D01*
X153750476Y-99568333D01*
X153750476Y-99806428D01*
X153798095Y-99996904D01*
X153845714Y-100092142D01*
X153893333Y-100139761D01*
X153988571Y-100187380D01*
X154083809Y-100187380D01*
X154179047Y-100139761D01*
X154226666Y-100092142D01*
X154274285Y-99996904D01*
X154321904Y-99806428D01*
X154321904Y-99568333D01*
X154274285Y-99377857D01*
X154226666Y-99282619D01*
X154179047Y-99235000D01*
X154083809Y-99187380D01*
X153369523Y-99282619D02*
X153321904Y-99235000D01*
X153226666Y-99187380D01*
X152988571Y-99187380D01*
X152893333Y-99235000D01*
X152845714Y-99282619D01*
X152798095Y-99377857D01*
X152798095Y-99473095D01*
X152845714Y-99615952D01*
X153417142Y-100187380D01*
X152798095Y-100187380D01*
X152417142Y-99282619D02*
X152369523Y-99235000D01*
X152274285Y-99187380D01*
X152036190Y-99187380D01*
X151940952Y-99235000D01*
X151893333Y-99282619D01*
X151845714Y-99377857D01*
X151845714Y-99473095D01*
X151893333Y-99615952D01*
X152464761Y-100187380D01*
X151845714Y-100187380D01*
X154530000Y-118397380D02*
X154530000Y-117397380D01*
X154149047Y-117397380D01*
X154053809Y-117445000D01*
X154006190Y-117492619D01*
X153958571Y-117587857D01*
X153958571Y-117730714D01*
X154006190Y-117825952D01*
X154053809Y-117873571D01*
X154149047Y-117921190D01*
X154530000Y-117921190D01*
X153387142Y-118397380D02*
X153482380Y-118349761D01*
X153530000Y-118254523D01*
X153530000Y-117397380D01*
X152577619Y-118397380D02*
X152577619Y-117873571D01*
X152625238Y-117778333D01*
X152720476Y-117730714D01*
X152910952Y-117730714D01*
X153006190Y-117778333D01*
X152577619Y-118349761D02*
X152672857Y-118397380D01*
X152910952Y-118397380D01*
X153006190Y-118349761D01*
X153053809Y-118254523D01*
X153053809Y-118159285D01*
X153006190Y-118064047D01*
X152910952Y-118016428D01*
X152672857Y-118016428D01*
X152577619Y-117968809D01*
X152196666Y-117730714D02*
X151958571Y-118397380D01*
X151720476Y-117730714D02*
X151958571Y-118397380D01*
X152053809Y-118635476D01*
X152101428Y-118683095D01*
X152196666Y-118730714D01*
X151387142Y-118349761D02*
X151244285Y-118397380D01*
X151006190Y-118397380D01*
X150910952Y-118349761D01*
X150863333Y-118302142D01*
X150815714Y-118206904D01*
X150815714Y-118111666D01*
X150863333Y-118016428D01*
X150910952Y-117968809D01*
X151006190Y-117921190D01*
X151196666Y-117873571D01*
X151291904Y-117825952D01*
X151339523Y-117778333D01*
X151387142Y-117683095D01*
X151387142Y-117587857D01*
X151339523Y-117492619D01*
X151291904Y-117445000D01*
X151196666Y-117397380D01*
X150958571Y-117397380D01*
X150815714Y-117445000D01*
X150530000Y-117730714D02*
X150149047Y-117730714D01*
X150387142Y-117397380D02*
X150387142Y-118254523D01*
X150339523Y-118349761D01*
X150244285Y-118397380D01*
X150149047Y-118397380D01*
X149387142Y-118397380D02*
X149387142Y-117873571D01*
X149434761Y-117778333D01*
X149530000Y-117730714D01*
X149720476Y-117730714D01*
X149815714Y-117778333D01*
X149387142Y-118349761D02*
X149482380Y-118397380D01*
X149720476Y-118397380D01*
X149815714Y-118349761D01*
X149863333Y-118254523D01*
X149863333Y-118159285D01*
X149815714Y-118064047D01*
X149720476Y-118016428D01*
X149482380Y-118016428D01*
X149387142Y-117968809D01*
X149053809Y-117730714D02*
X148672857Y-117730714D01*
X148910952Y-117397380D02*
X148910952Y-118254523D01*
X148863333Y-118349761D01*
X148768095Y-118397380D01*
X148672857Y-118397380D01*
X148339523Y-118397380D02*
X148339523Y-117730714D01*
X148339523Y-117397380D02*
X148387142Y-117445000D01*
X148339523Y-117492619D01*
X148291904Y-117445000D01*
X148339523Y-117397380D01*
X148339523Y-117492619D01*
X147720476Y-118397380D02*
X147815714Y-118349761D01*
X147863333Y-118302142D01*
X147910952Y-118206904D01*
X147910952Y-117921190D01*
X147863333Y-117825952D01*
X147815714Y-117778333D01*
X147720476Y-117730714D01*
X147577619Y-117730714D01*
X147482380Y-117778333D01*
X147434761Y-117825952D01*
X147387142Y-117921190D01*
X147387142Y-118206904D01*
X147434761Y-118302142D01*
X147482380Y-118349761D01*
X147577619Y-118397380D01*
X147720476Y-118397380D01*
X146958571Y-117730714D02*
X146958571Y-118397380D01*
X146958571Y-117825952D02*
X146910952Y-117778333D01*
X146815714Y-117730714D01*
X146672857Y-117730714D01*
X146577619Y-117778333D01*
X146530000Y-117873571D01*
X146530000Y-118397380D01*
X151934761Y-119959761D02*
X151791904Y-120007380D01*
X151553809Y-120007380D01*
X151458571Y-119959761D01*
X151410952Y-119912142D01*
X151363333Y-119816904D01*
X151363333Y-119721666D01*
X151410952Y-119626428D01*
X151458571Y-119578809D01*
X151553809Y-119531190D01*
X151744285Y-119483571D01*
X151839523Y-119435952D01*
X151887142Y-119388333D01*
X151934761Y-119293095D01*
X151934761Y-119197857D01*
X151887142Y-119102619D01*
X151839523Y-119055000D01*
X151744285Y-119007380D01*
X151506190Y-119007380D01*
X151363333Y-119055000D01*
X150934761Y-120007380D02*
X150934761Y-119340714D01*
X150934761Y-119007380D02*
X150982380Y-119055000D01*
X150934761Y-119102619D01*
X150887142Y-119055000D01*
X150934761Y-119007380D01*
X150934761Y-119102619D01*
X150030000Y-120007380D02*
X150030000Y-119007380D01*
X150030000Y-119959761D02*
X150125238Y-120007380D01*
X150315714Y-120007380D01*
X150410952Y-119959761D01*
X150458571Y-119912142D01*
X150506190Y-119816904D01*
X150506190Y-119531190D01*
X150458571Y-119435952D01*
X150410952Y-119388333D01*
X150315714Y-119340714D01*
X150125238Y-119340714D01*
X150030000Y-119388333D01*
X149172857Y-119959761D02*
X149268095Y-120007380D01*
X149458571Y-120007380D01*
X149553809Y-119959761D01*
X149601428Y-119864523D01*
X149601428Y-119483571D01*
X149553809Y-119388333D01*
X149458571Y-119340714D01*
X149268095Y-119340714D01*
X149172857Y-119388333D01*
X149125238Y-119483571D01*
X149125238Y-119578809D01*
X149601428Y-119674047D01*
%TO.C,C15*%
X157177142Y-102287142D02*
X157224761Y-102239523D01*
X157272380Y-102096666D01*
X157272380Y-102001428D01*
X157224761Y-101858571D01*
X157129523Y-101763333D01*
X157034285Y-101715714D01*
X156843809Y-101668095D01*
X156700952Y-101668095D01*
X156510476Y-101715714D01*
X156415238Y-101763333D01*
X156320000Y-101858571D01*
X156272380Y-102001428D01*
X156272380Y-102096666D01*
X156320000Y-102239523D01*
X156367619Y-102287142D01*
X157272380Y-103239523D02*
X157272380Y-102668095D01*
X157272380Y-102953809D02*
X156272380Y-102953809D01*
X156415238Y-102858571D01*
X156510476Y-102763333D01*
X156558095Y-102668095D01*
X156272380Y-104144285D02*
X156272380Y-103668095D01*
X156748571Y-103620476D01*
X156700952Y-103668095D01*
X156653333Y-103763333D01*
X156653333Y-104001428D01*
X156700952Y-104096666D01*
X156748571Y-104144285D01*
X156843809Y-104191904D01*
X157081904Y-104191904D01*
X157177142Y-104144285D01*
X157224761Y-104096666D01*
X157272380Y-104001428D01*
X157272380Y-103763333D01*
X157224761Y-103668095D01*
X157177142Y-103620476D01*
%TO.C,C14*%
X153657142Y-102287142D02*
X153704761Y-102239523D01*
X153752380Y-102096666D01*
X153752380Y-102001428D01*
X153704761Y-101858571D01*
X153609523Y-101763333D01*
X153514285Y-101715714D01*
X153323809Y-101668095D01*
X153180952Y-101668095D01*
X152990476Y-101715714D01*
X152895238Y-101763333D01*
X152800000Y-101858571D01*
X152752380Y-102001428D01*
X152752380Y-102096666D01*
X152800000Y-102239523D01*
X152847619Y-102287142D01*
X153752380Y-103239523D02*
X153752380Y-102668095D01*
X153752380Y-102953809D02*
X152752380Y-102953809D01*
X152895238Y-102858571D01*
X152990476Y-102763333D01*
X153038095Y-102668095D01*
X153085714Y-104096666D02*
X153752380Y-104096666D01*
X152704761Y-103858571D02*
X153419047Y-103620476D01*
X153419047Y-104239523D01*
%TO.C,P1*%
X143168095Y-116422380D02*
X143168095Y-115422380D01*
X142787142Y-115422380D01*
X142691904Y-115470000D01*
X142644285Y-115517619D01*
X142596666Y-115612857D01*
X142596666Y-115755714D01*
X142644285Y-115850952D01*
X142691904Y-115898571D01*
X142787142Y-115946190D01*
X143168095Y-115946190D01*
X141644285Y-116422380D02*
X142215714Y-116422380D01*
X141930000Y-116422380D02*
X141930000Y-115422380D01*
X142025238Y-115565238D01*
X142120476Y-115660476D01*
X142215714Y-115708095D01*
D12*
%TO.C,C15*%
X155900000Y-103070580D02*
X155900000Y-102789420D01*
X154880000Y-103070580D02*
X154880000Y-102789420D01*
%TO.C,C14*%
X151360000Y-103070580D02*
X151360000Y-102789420D01*
X152380000Y-103070580D02*
X152380000Y-102789420D01*
%TO.C,P1*%
X160015000Y-108890000D02*
X141015000Y-108890000D01*
X143990000Y-116600000D02*
X157020000Y-116600000D01*
X143990000Y-116890000D02*
X143990000Y-116640000D01*
X141015000Y-108890000D02*
X141015000Y-116890000D01*
X143990000Y-116890000D02*
X141015000Y-116890000D01*
X160015000Y-116890000D02*
X157020000Y-116890000D01*
X157020000Y-116600000D02*
X157020000Y-116890000D01*
X160015000Y-108890000D02*
X160015000Y-116890000D01*
D13*
X158000000Y-110420000D02*
G75*
G03*
X158000000Y-110420000I0J0D01*
G01*
%TD*%
M02*
