%TF.GenerationSoftware,KiCad,Pcbnew,(6.0.6-0)*%
%TF.CreationDate,2022-07-06T00:09:10-04:00*%
%TF.ProjectId,PS2VGA Plug PCB,50533256-4741-4205-906c-756720504342,rev?*%
%TF.SameCoordinates,Original*%
%TF.FileFunction,Legend,Top*%
%TF.FilePolarity,Positive*%
%FSLAX46Y46*%
G04 Gerber Fmt 4.6, Leading zero omitted, Abs format (unit mm)*
G04 Created by KiCad (PCBNEW (6.0.6-0)) date 2022-07-06 00:09:10*
%MOMM*%
%LPD*%
G01*
G04 APERTURE LIST*
%ADD10C,0.150000*%
%ADD11C,0.300000*%
%ADD12C,0.350000*%
%ADD13C,0.120000*%
G04 APERTURE END LIST*
D10*
X147080000Y-120070000D02*
X147080000Y-117380000D01*
X153990000Y-120070000D02*
X147080000Y-120070000D01*
X153990000Y-117380000D02*
X153990000Y-120070000D01*
X147080000Y-117380000D02*
X153990000Y-117380000D01*
X148192857Y-118192380D02*
X148383333Y-118192380D01*
X148478571Y-118240000D01*
X148573809Y-118335238D01*
X148621428Y-118525714D01*
X148621428Y-118859047D01*
X148573809Y-119049523D01*
X148478571Y-119144761D01*
X148383333Y-119192380D01*
X148192857Y-119192380D01*
X148097619Y-119144761D01*
X148002380Y-119049523D01*
X147954761Y-118859047D01*
X147954761Y-118525714D01*
X148002380Y-118335238D01*
X148097619Y-118240000D01*
X148192857Y-118192380D01*
X149478571Y-118525714D02*
X149478571Y-119192380D01*
X149050000Y-118525714D02*
X149050000Y-119049523D01*
X149097619Y-119144761D01*
X149192857Y-119192380D01*
X149335714Y-119192380D01*
X149430952Y-119144761D01*
X149478571Y-119097142D01*
X149811904Y-118525714D02*
X150192857Y-118525714D01*
X149954761Y-118192380D02*
X149954761Y-119049523D01*
X150002380Y-119144761D01*
X150097619Y-119192380D01*
X150192857Y-119192380D01*
X150478571Y-119144761D02*
X150573809Y-119192380D01*
X150764285Y-119192380D01*
X150859523Y-119144761D01*
X150907142Y-119049523D01*
X150907142Y-119001904D01*
X150859523Y-118906666D01*
X150764285Y-118859047D01*
X150621428Y-118859047D01*
X150526190Y-118811428D01*
X150478571Y-118716190D01*
X150478571Y-118668571D01*
X150526190Y-118573333D01*
X150621428Y-118525714D01*
X150764285Y-118525714D01*
X150859523Y-118573333D01*
X151335714Y-119192380D02*
X151335714Y-118525714D01*
X151335714Y-118192380D02*
X151288095Y-118240000D01*
X151335714Y-118287619D01*
X151383333Y-118240000D01*
X151335714Y-118192380D01*
X151335714Y-118287619D01*
X152240476Y-119192380D02*
X152240476Y-118192380D01*
X152240476Y-119144761D02*
X152145238Y-119192380D01*
X151954761Y-119192380D01*
X151859523Y-119144761D01*
X151811904Y-119097142D01*
X151764285Y-119001904D01*
X151764285Y-118716190D01*
X151811904Y-118620952D01*
X151859523Y-118573333D01*
X151954761Y-118525714D01*
X152145238Y-118525714D01*
X152240476Y-118573333D01*
X153097619Y-119144761D02*
X153002380Y-119192380D01*
X152811904Y-119192380D01*
X152716666Y-119144761D01*
X152669047Y-119049523D01*
X152669047Y-118668571D01*
X152716666Y-118573333D01*
X152811904Y-118525714D01*
X153002380Y-118525714D01*
X153097619Y-118573333D01*
X153145238Y-118668571D01*
X153145238Y-118763809D01*
X152669047Y-118859047D01*
D11*
%TO.C,P2*%
X146849428Y-96384857D02*
X145325428Y-96384857D01*
X145325428Y-95804285D01*
X145398000Y-95659142D01*
X145470571Y-95586571D01*
X145615714Y-95514000D01*
X145833428Y-95514000D01*
X145978571Y-95586571D01*
X146051142Y-95659142D01*
X146123714Y-95804285D01*
X146123714Y-96384857D01*
X145470571Y-94933428D02*
X145398000Y-94860857D01*
X145325428Y-94715714D01*
X145325428Y-94352857D01*
X145398000Y-94207714D01*
X145470571Y-94135142D01*
X145615714Y-94062571D01*
X145760857Y-94062571D01*
X145978571Y-94135142D01*
X146849428Y-95006000D01*
X146849428Y-94062571D01*
D10*
%TO.C,P3*%
X158341904Y-120592380D02*
X158341904Y-119592380D01*
X158722857Y-119592380D01*
X158818095Y-119640000D01*
X158865714Y-119687619D01*
X158913333Y-119782857D01*
X158913333Y-119925714D01*
X158865714Y-120020952D01*
X158818095Y-120068571D01*
X158722857Y-120116190D01*
X158341904Y-120116190D01*
X159246666Y-119592380D02*
X159865714Y-119592380D01*
X159532380Y-119973333D01*
X159675238Y-119973333D01*
X159770476Y-120020952D01*
X159818095Y-120068571D01*
X159865714Y-120163809D01*
X159865714Y-120401904D01*
X159818095Y-120497142D01*
X159770476Y-120544761D01*
X159675238Y-120592380D01*
X159389523Y-120592380D01*
X159294285Y-120544761D01*
X159246666Y-120497142D01*
D12*
%TO.C,J1*%
X141560000Y-107880000D02*
G75*
G03*
X141560000Y-107880000I-150000J0D01*
G01*
D13*
%TO.C,P2*%
X144460000Y-100548393D02*
X155460000Y-100548393D01*
X155460000Y-100548393D02*
X155460000Y-89928393D01*
X155460000Y-89928393D02*
X144460000Y-89928393D01*
X144460000Y-89928393D02*
X144460000Y-100548393D01*
%TD*%
M02*
