M48
; DRILL file {KiCad (6.0.6-0)} date Wednesday, 06 July 2022 at 00:09:12
; FORMAT={-:-/ absolute / inch / decimal}
; #@! TF.CreationDate,2022-07-06T00:09:12-04:00
; #@! TF.GenerationSoftware,Kicad,Pcbnew,(6.0.6-0)
; #@! TF.FileFunction,MixedPlating,1,2
FMAT,2
INCH
; #@! TA.AperFunction,Plated,PTH,ComponentDrill
T1C0.0197
; #@! TA.AperFunction,Plated,PTH,ComponentDrill
T2C0.0315
; #@! TA.AperFunction,Plated,PTH,ComponentDrill
T3C0.0394
; #@! TA.AperFunction,NonPlated,NPTH,ComponentDrill
T4C0.0394
%
G90
G05
T3
X6.2602Y-3.6602
X6.2602Y-3.7602
X6.2602Y-3.8602
X6.2602Y-3.9602
X6.2602Y-4.0602
X6.2602Y-4.1602
X6.2602Y-4.2602
X6.2602Y-4.4602
X6.2602Y-4.5602
X6.2602Y-4.6602
T4
X6.2602Y-4.3602
T1
G00X5.6689Y-4.5075
M15
G01X5.6689Y-4.4878
M16
G05
G00X5.7122Y-4.4012
M15
G01X5.7122Y-4.3815
M16
G05
G00X5.763Y-4.5075
M15
G01X5.763Y-4.4878
M16
G05
G00X5.8063Y-4.4012
M15
G01X5.8063Y-4.3815
M16
G05
G00X5.8571Y-4.5075
M15
G01X5.8571Y-4.4878
M16
G05
G00X5.9004Y-4.4012
M15
G01X5.9004Y-4.3815
M16
G05
G00X5.9512Y-4.5075
M15
G01X5.9512Y-4.4878
M16
G05
G00X5.9945Y-4.4012
M15
G01X5.9945Y-4.3815
M16
G05
G00X6.0453Y-4.5075
M15
G01X6.0453Y-4.4878
M16
G05
G00X6.0886Y-4.4012
M15
G01X6.0886Y-4.3815
M16
G05
G00X6.1394Y-4.5075
M15
G01X6.1394Y-4.4878
M16
G05
G00X6.1827Y-4.4012
M15
G01X6.1827Y-4.3815
M16
G05
T2
G00X6.0134Y-3.7495
M15
G01X6.0803Y-3.7495
M16
G05
T3
G00X5.5898Y-4.1516
M15
G01X5.5898Y-4.1909
M16
G05
G00X5.6843Y-4.0728
M15
G01X5.6843Y-4.1122
M16
G05
G00X5.8299Y-4.1516
M15
G01X5.8299Y-4.1909
M16
G05
G00X5.8539Y-3.7791
M15
G01X5.8539Y-3.72
M16
G05
G00X5.9008Y-4.0728
M15
G01X5.9008Y-4.1122
M16
G05
G00X6.0465Y-4.1516
M15
G01X6.0465Y-4.1909
M16
G05
T0
M30
