G04 #@! TF.GenerationSoftware,KiCad,Pcbnew,(6.0.6-0)*
G04 #@! TF.CreationDate,2022-07-06T00:13:59-04:00*
G04 #@! TF.ProjectId,PS2VGA,50533256-4741-42e6-9b69-6361645f7063,1*
G04 #@! TF.SameCoordinates,Original*
G04 #@! TF.FileFunction,Soldermask,Bot*
G04 #@! TF.FilePolarity,Negative*
%FSLAX46Y46*%
G04 Gerber Fmt 4.6, Leading zero omitted, Abs format (unit mm)*
G04 Created by KiCad (PCBNEW (6.0.6-0)) date 2022-07-06 00:13:59*
%MOMM*%
%LPD*%
G01*
G04 APERTURE LIST*
G04 Aperture macros list*
%AMRoundRect*
0 Rectangle with rounded corners*
0 $1 Rounding radius*
0 $2 $3 $4 $5 $6 $7 $8 $9 X,Y pos of 4 corners*
0 Add a 4 corners polygon primitive as box body*
4,1,4,$2,$3,$4,$5,$6,$7,$8,$9,$2,$3,0*
0 Add four circle primitives for the rounded corners*
1,1,$1+$1,$2,$3*
1,1,$1+$1,$4,$5*
1,1,$1+$1,$6,$7*
1,1,$1+$1,$8,$9*
0 Add four rect primitives between the rounded corners*
20,1,$1+$1,$2,$3,$4,$5,0*
20,1,$1+$1,$4,$5,$6,$7,0*
20,1,$1+$1,$6,$7,$8,$9,0*
20,1,$1+$1,$8,$9,$2,$3,0*%
G04 Aperture macros list end*
%ADD10C,1.200000*%
%ADD11C,1.625600*%
%ADD12RoundRect,0.250800X0.200000X0.275000X-0.200000X0.275000X-0.200000X-0.275000X0.200000X-0.275000X0*%
%ADD13RoundRect,0.275800X-0.225000X-0.250000X0.225000X-0.250000X0.225000X0.250000X-0.225000X0.250000X0*%
%ADD14RoundRect,0.275800X0.225000X0.250000X-0.225000X0.250000X-0.225000X-0.250000X0.225000X-0.250000X0*%
%ADD15RoundRect,0.250800X-0.200000X-0.275000X0.200000X-0.275000X0.200000X0.275000X-0.200000X0.275000X0*%
%ADD16RoundRect,0.050800X-0.850000X-0.850000X0.850000X-0.850000X0.850000X0.850000X-0.850000X0.850000X0*%
%ADD17C,1.801600*%
%ADD18C,4.167600*%
%ADD19RoundRect,0.275800X0.250000X-0.225000X0.250000X0.225000X-0.250000X0.225000X-0.250000X-0.225000X0*%
%ADD20C,1.601600*%
G04 APERTURE END LIST*
D10*
X147590000Y-99110000D03*
D11*
X155210000Y-99110000D03*
X145050000Y-99110000D03*
X142510000Y-99110000D03*
X139970000Y-99110000D03*
X137430000Y-99110000D03*
X134890000Y-99110000D03*
X132350000Y-99110000D03*
X129810000Y-99110000D03*
X152670000Y-99110000D03*
X150130000Y-99110000D03*
D12*
X136195000Y-101830000D03*
X134545000Y-101830000D03*
D13*
X134605000Y-105550000D03*
X136155000Y-105550000D03*
X134595000Y-103690000D03*
X136145000Y-103690000D03*
D12*
X132885000Y-104270000D03*
X131235000Y-104270000D03*
X132305000Y-107840000D03*
X130655000Y-107840000D03*
D13*
X130725000Y-109660000D03*
X132275000Y-109660000D03*
X131285000Y-102540000D03*
X132835000Y-102540000D03*
D14*
X142695000Y-104690000D03*
X141145000Y-104690000D03*
D12*
X137295000Y-107810000D03*
X135645000Y-107810000D03*
X144625000Y-108120000D03*
X142975000Y-108120000D03*
D15*
X141060000Y-102910000D03*
X142710000Y-102910000D03*
D16*
X137950000Y-113395000D03*
D17*
X140240000Y-113395000D03*
X142530000Y-113395000D03*
X144820000Y-113395000D03*
X147110000Y-113395000D03*
X136805000Y-115375000D03*
X139095000Y-115375000D03*
X141385000Y-115375000D03*
X143675000Y-115375000D03*
X145965000Y-115375000D03*
X137950000Y-117355000D03*
X140240000Y-117355000D03*
X142530000Y-117355000D03*
X144820000Y-117355000D03*
X147110000Y-117355000D03*
D18*
X155025000Y-115375000D03*
X130035000Y-115375000D03*
D19*
X134000000Y-109485000D03*
X134000000Y-107935000D03*
D20*
X156890000Y-108620000D03*
X156890000Y-106080000D03*
X156890000Y-103540000D03*
X156890000Y-101000000D03*
X148890000Y-108620000D03*
X148890000Y-106080000D03*
X148890000Y-103540000D03*
X148890000Y-101000000D03*
D13*
X135695000Y-109660000D03*
X137245000Y-109660000D03*
M02*
