G04 #@! TF.GenerationSoftware,KiCad,Pcbnew,(6.0.6-0)*
G04 #@! TF.CreationDate,2022-07-06T00:13:59-04:00*
G04 #@! TF.ProjectId,PS2VGA,50533256-4741-42e6-9b69-6361645f7063,1*
G04 #@! TF.SameCoordinates,Original*
G04 #@! TF.FileFunction,Copper,L2,Bot*
G04 #@! TF.FilePolarity,Positive*
%FSLAX46Y46*%
G04 Gerber Fmt 4.6, Leading zero omitted, Abs format (unit mm)*
G04 Created by KiCad (PCBNEW (6.0.6-0)) date 2022-07-06 00:13:59*
%MOMM*%
%LPD*%
G01*
G04 APERTURE LIST*
G04 Aperture macros list*
%AMRoundRect*
0 Rectangle with rounded corners*
0 $1 Rounding radius*
0 $2 $3 $4 $5 $6 $7 $8 $9 X,Y pos of 4 corners*
0 Add a 4 corners polygon primitive as box body*
4,1,4,$2,$3,$4,$5,$6,$7,$8,$9,$2,$3,0*
0 Add four circle primitives for the rounded corners*
1,1,$1+$1,$2,$3*
1,1,$1+$1,$4,$5*
1,1,$1+$1,$6,$7*
1,1,$1+$1,$8,$9*
0 Add four rect primitives between the rounded corners*
20,1,$1+$1,$2,$3,$4,$5,0*
20,1,$1+$1,$4,$5,$6,$7,0*
20,1,$1+$1,$6,$7,$8,$9,0*
20,1,$1+$1,$8,$9,$2,$3,0*%
G04 Aperture macros list end*
G04 #@! TA.AperFunction,ComponentPad*
%ADD10C,1.524000*%
G04 #@! TD*
G04 #@! TA.AperFunction,SMDPad,CuDef*
%ADD11RoundRect,0.200000X0.200000X0.275000X-0.200000X0.275000X-0.200000X-0.275000X0.200000X-0.275000X0*%
G04 #@! TD*
G04 #@! TA.AperFunction,SMDPad,CuDef*
%ADD12RoundRect,0.225000X-0.225000X-0.250000X0.225000X-0.250000X0.225000X0.250000X-0.225000X0.250000X0*%
G04 #@! TD*
G04 #@! TA.AperFunction,SMDPad,CuDef*
%ADD13RoundRect,0.225000X0.225000X0.250000X-0.225000X0.250000X-0.225000X-0.250000X0.225000X-0.250000X0*%
G04 #@! TD*
G04 #@! TA.AperFunction,SMDPad,CuDef*
%ADD14RoundRect,0.200000X-0.200000X-0.275000X0.200000X-0.275000X0.200000X0.275000X-0.200000X0.275000X0*%
G04 #@! TD*
G04 #@! TA.AperFunction,ComponentPad*
%ADD15R,1.700000X1.700000*%
G04 #@! TD*
G04 #@! TA.AperFunction,ComponentPad*
%ADD16C,1.700000*%
G04 #@! TD*
G04 #@! TA.AperFunction,ComponentPad*
%ADD17C,4.066000*%
G04 #@! TD*
G04 #@! TA.AperFunction,SMDPad,CuDef*
%ADD18RoundRect,0.225000X0.250000X-0.225000X0.250000X0.225000X-0.250000X0.225000X-0.250000X-0.225000X0*%
G04 #@! TD*
G04 #@! TA.AperFunction,ComponentPad*
%ADD19C,1.500000*%
G04 #@! TD*
G04 #@! TA.AperFunction,ViaPad*
%ADD20C,0.700000*%
G04 #@! TD*
G04 #@! TA.AperFunction,Conductor*
%ADD21C,0.250000*%
G04 #@! TD*
G04 APERTURE END LIST*
D10*
X155210000Y-99110000D03*
X145050000Y-99110000D03*
X142510000Y-99110000D03*
X139970000Y-99110000D03*
X137430000Y-99110000D03*
X134890000Y-99110000D03*
X132350000Y-99110000D03*
X129810000Y-99110000D03*
X152670000Y-99110000D03*
X150130000Y-99110000D03*
D11*
X136195000Y-101830000D03*
X134545000Y-101830000D03*
D12*
X134605000Y-105550000D03*
X136155000Y-105550000D03*
X134595000Y-103690000D03*
X136145000Y-103690000D03*
D11*
X132885000Y-104270000D03*
X131235000Y-104270000D03*
X132305000Y-107840000D03*
X130655000Y-107840000D03*
D12*
X130725000Y-109660000D03*
X132275000Y-109660000D03*
X131285000Y-102540000D03*
X132835000Y-102540000D03*
D13*
X142695000Y-104690000D03*
X141145000Y-104690000D03*
D11*
X137295000Y-107810000D03*
X135645000Y-107810000D03*
X144625000Y-108120000D03*
X142975000Y-108120000D03*
D14*
X141060000Y-102910000D03*
X142710000Y-102910000D03*
D15*
X137950000Y-113395000D03*
D16*
X140240000Y-113395000D03*
X142530000Y-113395000D03*
X144820000Y-113395000D03*
X147110000Y-113395000D03*
X136805000Y-115375000D03*
X139095000Y-115375000D03*
X141385000Y-115375000D03*
X143675000Y-115375000D03*
X145965000Y-115375000D03*
X137950000Y-117355000D03*
X140240000Y-117355000D03*
X142530000Y-117355000D03*
X144820000Y-117355000D03*
X147110000Y-117355000D03*
D17*
X155025000Y-115375000D03*
X130035000Y-115375000D03*
D18*
X134000000Y-109485000D03*
X134000000Y-107935000D03*
D19*
X156890000Y-108620000D03*
X156890000Y-106080000D03*
X156890000Y-103540000D03*
X156890000Y-101000000D03*
X148890000Y-108620000D03*
X148890000Y-106080000D03*
X148890000Y-103540000D03*
X148890000Y-101000000D03*
D12*
X135695000Y-109660000D03*
X137245000Y-109660000D03*
D20*
X141070000Y-102480000D03*
X147020000Y-106530000D03*
X129630000Y-111100000D03*
X141290000Y-100390000D03*
X129630000Y-106570000D03*
X129930000Y-102550000D03*
X136590000Y-104130000D03*
X131080000Y-108680000D03*
X137230000Y-109910000D03*
X144760000Y-108250000D03*
X142810000Y-108120000D03*
X138980000Y-107660000D03*
X139000000Y-103640000D03*
X141080000Y-108200000D03*
X142730000Y-102480000D03*
D21*
X141910000Y-109430000D02*
X137950000Y-113390000D01*
X145580000Y-109430000D02*
X141910000Y-109430000D01*
X147670000Y-107340000D02*
X145580000Y-109430000D01*
X150560000Y-106430000D02*
X149650000Y-107340000D01*
X150560000Y-102670000D02*
X150560000Y-106430000D01*
X148900000Y-101010000D02*
X150560000Y-102670000D01*
X149650000Y-107340000D02*
X147670000Y-107340000D01*
X142710000Y-101450000D02*
X136560000Y-101450000D01*
X136560000Y-101450000D02*
X136200000Y-101810000D01*
X145050000Y-99110000D02*
X142710000Y-101450000D01*
X149930000Y-110520000D02*
X143110000Y-110520000D01*
X156900000Y-103550000D02*
X149930000Y-110520000D01*
X143110000Y-110520000D02*
X140240000Y-113390000D01*
X156900000Y-106090000D02*
X151420000Y-111570000D01*
X142530000Y-113380000D02*
X142530000Y-113390000D01*
X151420000Y-111570000D02*
X144340000Y-111570000D01*
X144340000Y-111570000D02*
X142530000Y-113380000D01*
X147020000Y-106530000D02*
X140490000Y-106530000D01*
X140490000Y-106530000D02*
X139940000Y-105980000D01*
X139940000Y-105980000D02*
X139940000Y-104030000D01*
X139940000Y-104030000D02*
X141060000Y-102910000D01*
X136155000Y-105470000D02*
X136155000Y-105245000D01*
X134545000Y-101810000D02*
X134545000Y-105415000D01*
X134545000Y-105415000D02*
X134580000Y-105450000D01*
X143685489Y-118524511D02*
X143685489Y-115375489D01*
X140960000Y-100720000D02*
X131420000Y-100720000D01*
X128910000Y-105850000D02*
X129630000Y-106570000D01*
X133460000Y-113200000D02*
X133460000Y-118300000D01*
X132270000Y-112010000D02*
X133460000Y-113200000D01*
X130540000Y-112010000D02*
X132270000Y-112010000D01*
X142490000Y-119720000D02*
X143685489Y-118524511D01*
X128910000Y-100010000D02*
X128910000Y-105850000D01*
X129810000Y-99110000D02*
X128910000Y-100010000D01*
X143685489Y-115375489D02*
X143680000Y-115370000D01*
X141290000Y-100390000D02*
X140960000Y-100720000D01*
X134880000Y-119720000D02*
X142490000Y-119720000D01*
X129630000Y-111100000D02*
X130540000Y-112010000D01*
X131420000Y-100720000D02*
X129810000Y-99110000D01*
X129630000Y-106570000D02*
X129630000Y-111100000D01*
X133460000Y-118300000D02*
X134880000Y-119720000D01*
X129930000Y-102550000D02*
X129950000Y-102530000D01*
X131285000Y-102540000D02*
X131285000Y-104225000D01*
X129950000Y-102530000D02*
X131290000Y-102530000D01*
X131285000Y-104225000D02*
X131250000Y-104260000D01*
X136590000Y-104130000D02*
X136150000Y-103690000D01*
X136150000Y-103690000D02*
X136145000Y-103690000D01*
X135505000Y-109470000D02*
X133990000Y-109470000D01*
X135695000Y-109660000D02*
X135505000Y-109470000D01*
X135645000Y-107810000D02*
X135645000Y-109605000D01*
X135645000Y-109605000D02*
X135690000Y-109650000D01*
X130720000Y-109040000D02*
X130720000Y-109660000D01*
X130655000Y-108255000D02*
X131080000Y-108680000D01*
X130655000Y-107840000D02*
X130655000Y-108255000D01*
X131080000Y-108680000D02*
X130720000Y-109040000D01*
X139000000Y-107640000D02*
X139000000Y-103640000D01*
X138830000Y-107810000D02*
X137300000Y-107810000D01*
X138980000Y-107660000D02*
X139000000Y-107640000D01*
X138980000Y-107660000D02*
X138830000Y-107810000D01*
X141080000Y-108220000D02*
X137540000Y-111760000D01*
X136320000Y-111760000D02*
X134610000Y-113470000D01*
X137540000Y-111760000D02*
X136320000Y-111760000D01*
X140950000Y-118930000D02*
X142530000Y-117350000D01*
X141080000Y-108200000D02*
X141080000Y-108220000D01*
X136240000Y-118930000D02*
X140950000Y-118930000D01*
X134610000Y-117300000D02*
X136240000Y-118930000D01*
X134610000Y-113470000D02*
X134610000Y-117300000D01*
X142710000Y-104680000D02*
X142700000Y-104690000D01*
X142710000Y-102910000D02*
X142710000Y-104680000D01*
G04 #@! TA.AperFunction,Conductor*
G36*
X147454222Y-97808538D02*
G01*
X147479753Y-97848616D01*
X147488480Y-97881196D01*
X147527831Y-98028100D01*
X147529287Y-98031223D01*
X147529288Y-98031226D01*
X147602543Y-98188359D01*
X147613657Y-98212200D01*
X147624590Y-98227818D01*
X147629755Y-98235196D01*
X147643735Y-98287395D01*
X147620890Y-98336368D01*
X147571911Y-98359200D01*
X147565036Y-98359500D01*
X147546178Y-98359500D01*
X147543916Y-98359764D01*
X147543911Y-98359764D01*
X147420732Y-98374125D01*
X147420729Y-98374126D01*
X147416172Y-98374657D01*
X147411857Y-98376223D01*
X147411854Y-98376224D01*
X147255982Y-98432803D01*
X147255979Y-98432805D01*
X147251669Y-98434369D01*
X147105315Y-98530323D01*
X147102160Y-98533654D01*
X147102157Y-98533656D01*
X147069276Y-98568366D01*
X146984960Y-98657372D01*
X146897061Y-98808702D01*
X146846333Y-98976193D01*
X146835497Y-99150862D01*
X146836275Y-99155390D01*
X146860656Y-99297278D01*
X146865134Y-99323340D01*
X146866931Y-99327562D01*
X146866932Y-99327567D01*
X146900689Y-99406900D01*
X146933654Y-99484373D01*
X146936372Y-99488067D01*
X146936373Y-99488068D01*
X147034661Y-99621626D01*
X147034664Y-99621629D01*
X147037383Y-99625324D01*
X147170755Y-99738632D01*
X147174842Y-99740719D01*
X147322530Y-99816133D01*
X147322533Y-99816134D01*
X147326616Y-99818219D01*
X147413976Y-99839596D01*
X147493184Y-99858978D01*
X147493188Y-99858979D01*
X147496606Y-99859815D01*
X147507648Y-99860500D01*
X147633822Y-99860500D01*
X147636084Y-99860236D01*
X147636089Y-99860236D01*
X147759268Y-99845875D01*
X147759271Y-99845874D01*
X147763828Y-99845343D01*
X147768143Y-99843777D01*
X147768146Y-99843776D01*
X147924018Y-99787197D01*
X147924021Y-99787195D01*
X147928331Y-99785631D01*
X148074685Y-99689677D01*
X148077840Y-99686346D01*
X148077843Y-99686344D01*
X148191885Y-99565958D01*
X148195040Y-99562628D01*
X148215754Y-99526967D01*
X148280631Y-99415271D01*
X148282939Y-99411298D01*
X148333667Y-99243807D01*
X148344503Y-99069138D01*
X148317709Y-98913206D01*
X148315644Y-98901186D01*
X148315643Y-98901184D01*
X148314866Y-98896660D01*
X148313069Y-98892438D01*
X148313068Y-98892433D01*
X148307435Y-98879197D01*
X148304558Y-98825235D01*
X148337041Y-98782048D01*
X148389684Y-98769844D01*
X148400587Y-98771959D01*
X148420392Y-98777270D01*
X148423829Y-98777571D01*
X148423832Y-98777572D01*
X148619303Y-98794716D01*
X148619306Y-98794716D01*
X148622738Y-98795017D01*
X148825093Y-98777361D01*
X148940027Y-98746596D01*
X149017970Y-98725733D01*
X149017975Y-98725731D01*
X149021308Y-98724839D01*
X149056710Y-98708343D01*
X149110542Y-98703647D01*
X149154800Y-98734654D01*
X149168773Y-98786856D01*
X149165377Y-98803837D01*
X149136493Y-98894894D01*
X149134895Y-98902410D01*
X149113632Y-99091968D01*
X149113525Y-99099648D01*
X149129486Y-99289724D01*
X149130872Y-99297278D01*
X149183448Y-99480631D01*
X149186280Y-99487783D01*
X149252010Y-99615681D01*
X149260341Y-99623396D01*
X149261549Y-99623455D01*
X149265186Y-99621261D01*
X149776004Y-99110443D01*
X150488604Y-99110443D01*
X150490290Y-99116737D01*
X150990507Y-99616954D01*
X151000801Y-99621754D01*
X151002838Y-99621209D01*
X151004700Y-99619162D01*
X151057074Y-99526967D01*
X151060202Y-99519942D01*
X151120407Y-99338956D01*
X151122110Y-99331463D01*
X151146224Y-99140588D01*
X151146532Y-99136178D01*
X151146866Y-99112214D01*
X151146681Y-99107800D01*
X151145882Y-99099648D01*
X151653525Y-99099648D01*
X151669486Y-99289724D01*
X151670872Y-99297278D01*
X151723448Y-99480631D01*
X151726280Y-99487783D01*
X151792010Y-99615681D01*
X151800341Y-99623396D01*
X151801549Y-99623455D01*
X151805186Y-99621261D01*
X152306596Y-99119851D01*
X152310983Y-99110443D01*
X153028604Y-99110443D01*
X153030290Y-99116737D01*
X153530507Y-99616954D01*
X153540801Y-99621754D01*
X153542838Y-99621209D01*
X153544700Y-99619162D01*
X153597074Y-99526967D01*
X153600202Y-99519942D01*
X153660407Y-99338956D01*
X153662110Y-99331463D01*
X153686224Y-99140588D01*
X153686532Y-99136178D01*
X153686866Y-99112214D01*
X153686773Y-99110000D01*
X154282419Y-99110000D01*
X154302689Y-99302855D01*
X154362613Y-99487281D01*
X154459571Y-99655218D01*
X154462340Y-99658293D01*
X154586555Y-99796249D01*
X154586558Y-99796252D01*
X154589327Y-99799327D01*
X154746209Y-99913309D01*
X154749993Y-99914994D01*
X154749997Y-99914996D01*
X154919579Y-99990498D01*
X154919581Y-99990499D01*
X154923362Y-99992182D01*
X154927408Y-99993042D01*
X154927411Y-99993043D01*
X155108998Y-100031641D01*
X155109002Y-100031641D01*
X155113041Y-100032500D01*
X155306959Y-100032500D01*
X155310998Y-100031641D01*
X155311002Y-100031641D01*
X155492589Y-99993043D01*
X155492592Y-99993042D01*
X155496638Y-99992182D01*
X155500419Y-99990499D01*
X155500421Y-99990498D01*
X155670003Y-99914996D01*
X155670007Y-99914994D01*
X155673791Y-99913309D01*
X155830673Y-99799327D01*
X155833442Y-99796252D01*
X155833445Y-99796249D01*
X155957660Y-99658293D01*
X155960429Y-99655218D01*
X156057387Y-99487281D01*
X156117311Y-99302855D01*
X156137581Y-99110000D01*
X156117311Y-98917145D01*
X156057387Y-98732719D01*
X155960429Y-98564782D01*
X155878654Y-98473961D01*
X155833445Y-98423751D01*
X155833442Y-98423748D01*
X155830673Y-98420673D01*
X155673791Y-98306691D01*
X155670007Y-98305006D01*
X155670003Y-98305004D01*
X155500421Y-98229502D01*
X155500419Y-98229501D01*
X155496638Y-98227818D01*
X155492592Y-98226958D01*
X155492589Y-98226957D01*
X155311002Y-98188359D01*
X155310998Y-98188359D01*
X155306959Y-98187500D01*
X155113041Y-98187500D01*
X155109002Y-98188359D01*
X155108998Y-98188359D01*
X154927411Y-98226957D01*
X154927408Y-98226958D01*
X154923362Y-98227818D01*
X154919581Y-98229501D01*
X154919579Y-98229502D01*
X154749998Y-98305004D01*
X154749994Y-98305006D01*
X154746210Y-98306691D01*
X154742856Y-98309128D01*
X154742854Y-98309129D01*
X154673161Y-98359764D01*
X154589327Y-98420673D01*
X154586558Y-98423748D01*
X154586555Y-98423751D01*
X154541346Y-98473961D01*
X154459571Y-98564782D01*
X154362613Y-98732719D01*
X154302689Y-98917145D01*
X154282419Y-99110000D01*
X153686773Y-99110000D01*
X153686681Y-99107800D01*
X153667907Y-98916328D01*
X153666413Y-98908784D01*
X153611286Y-98726195D01*
X153608353Y-98719078D01*
X153547590Y-98604800D01*
X153539152Y-98597203D01*
X153537644Y-98597150D01*
X153534438Y-98599115D01*
X153033404Y-99100149D01*
X153028604Y-99110443D01*
X152310983Y-99110443D01*
X152311396Y-99109557D01*
X152309710Y-99103263D01*
X151809220Y-98602773D01*
X151798926Y-98597973D01*
X151797180Y-98598441D01*
X151794999Y-98600871D01*
X151737197Y-98706013D01*
X151734165Y-98713087D01*
X151676493Y-98894894D01*
X151674895Y-98902410D01*
X151653632Y-99091968D01*
X151653525Y-99099648D01*
X151145882Y-99099648D01*
X151127907Y-98916328D01*
X151126413Y-98908784D01*
X151071286Y-98726195D01*
X151068353Y-98719078D01*
X151007590Y-98604800D01*
X150999152Y-98597203D01*
X150997644Y-98597150D01*
X150994438Y-98599115D01*
X150493404Y-99100149D01*
X150488604Y-99110443D01*
X149776004Y-99110443D01*
X150637419Y-98249028D01*
X150640710Y-98241971D01*
X152156866Y-98241971D01*
X152158948Y-98245395D01*
X152660149Y-98746596D01*
X152670443Y-98751396D01*
X152676737Y-98749710D01*
X153177419Y-98249028D01*
X153182219Y-98238734D01*
X153181790Y-98237132D01*
X153179169Y-98234797D01*
X153067459Y-98174396D01*
X153060377Y-98171419D01*
X152878170Y-98115017D01*
X152870629Y-98113469D01*
X152680942Y-98093532D01*
X152673252Y-98093478D01*
X152483302Y-98110765D01*
X152475746Y-98112206D01*
X152292773Y-98166058D01*
X152285636Y-98168942D01*
X152164578Y-98232229D01*
X152156923Y-98240613D01*
X152156866Y-98241971D01*
X150640710Y-98241971D01*
X150642219Y-98238734D01*
X150641790Y-98237132D01*
X150639169Y-98234797D01*
X150527459Y-98174396D01*
X150520377Y-98171419D01*
X150338170Y-98115017D01*
X150330629Y-98113469D01*
X150140942Y-98093532D01*
X150133252Y-98093478D01*
X149943302Y-98110765D01*
X149935746Y-98112206D01*
X149805999Y-98150393D01*
X149752067Y-98147000D01*
X149712933Y-98109733D01*
X149706909Y-98056031D01*
X149712108Y-98041194D01*
X149716530Y-98031719D01*
X149717990Y-98028591D01*
X149766176Y-97849025D01*
X149797188Y-97804770D01*
X149842477Y-97790500D01*
X156922794Y-97790500D01*
X156940498Y-97792509D01*
X156949713Y-97794628D01*
X156958390Y-97792664D01*
X156967287Y-97792680D01*
X156967286Y-97793476D01*
X156975226Y-97792985D01*
X157106039Y-97805869D01*
X157121228Y-97808891D01*
X157263815Y-97852144D01*
X157278123Y-97858070D01*
X157409538Y-97928313D01*
X157422415Y-97936917D01*
X157537601Y-98031448D01*
X157548552Y-98042399D01*
X157643083Y-98157585D01*
X157651687Y-98170462D01*
X157721930Y-98301877D01*
X157727856Y-98316185D01*
X157771109Y-98458773D01*
X157774131Y-98473962D01*
X157787000Y-98604625D01*
X157787380Y-98612504D01*
X157787365Y-98621045D01*
X157785372Y-98629713D01*
X157787335Y-98638388D01*
X157787335Y-98638390D01*
X157787552Y-98639347D01*
X157789500Y-98656782D01*
X157789500Y-100442149D01*
X157771018Y-100492929D01*
X157724218Y-100519949D01*
X157671000Y-100510565D01*
X157642084Y-100481649D01*
X157632738Y-100465461D01*
X157630667Y-100461874D01*
X157606020Y-100434500D01*
X157505373Y-100322721D01*
X157502599Y-100319640D01*
X157347758Y-100207141D01*
X157244080Y-100160980D01*
X157176693Y-100130977D01*
X157176690Y-100130976D01*
X157172910Y-100129293D01*
X157168867Y-100128434D01*
X157168862Y-100128432D01*
X156989741Y-100090359D01*
X156989736Y-100090358D01*
X156985697Y-100089500D01*
X156794303Y-100089500D01*
X156790264Y-100090358D01*
X156790259Y-100090359D01*
X156611135Y-100128433D01*
X156611133Y-100128434D01*
X156607090Y-100129293D01*
X156603313Y-100130975D01*
X156603312Y-100130975D01*
X156436022Y-100205458D01*
X156436019Y-100205460D01*
X156432243Y-100207141D01*
X156277401Y-100319640D01*
X156274627Y-100322721D01*
X156173981Y-100434500D01*
X156149333Y-100461874D01*
X156147262Y-100465461D01*
X156097374Y-100551870D01*
X156053635Y-100627627D01*
X155994491Y-100809654D01*
X155994058Y-100813770D01*
X155994058Y-100813772D01*
X155984962Y-100900314D01*
X155974485Y-101000000D01*
X155974918Y-101004120D01*
X155993980Y-101185481D01*
X155994491Y-101190346D01*
X156053635Y-101372373D01*
X156055704Y-101375956D01*
X156055705Y-101375959D01*
X156101946Y-101456050D01*
X156149333Y-101538126D01*
X156277401Y-101680360D01*
X156432242Y-101792859D01*
X156436031Y-101794546D01*
X156603307Y-101869023D01*
X156603310Y-101869024D01*
X156607090Y-101870707D01*
X156611133Y-101871566D01*
X156611138Y-101871568D01*
X156790259Y-101909641D01*
X156790264Y-101909642D01*
X156794303Y-101910500D01*
X156985697Y-101910500D01*
X156989736Y-101909642D01*
X156989741Y-101909641D01*
X157168862Y-101871568D01*
X157168867Y-101871566D01*
X157172910Y-101870707D01*
X157176690Y-101869024D01*
X157176693Y-101869023D01*
X157343969Y-101794546D01*
X157347758Y-101792859D01*
X157502599Y-101680360D01*
X157630667Y-101538126D01*
X157642084Y-101518351D01*
X157683480Y-101483615D01*
X157737519Y-101483615D01*
X157778916Y-101518351D01*
X157789500Y-101557851D01*
X157789500Y-102982149D01*
X157771018Y-103032929D01*
X157724218Y-103059949D01*
X157671000Y-103050565D01*
X157642084Y-103021649D01*
X157642043Y-103021577D01*
X157630667Y-103001874D01*
X157502599Y-102859640D01*
X157347758Y-102747141D01*
X157281766Y-102717759D01*
X157176693Y-102670977D01*
X157176690Y-102670976D01*
X157172910Y-102669293D01*
X157168867Y-102668434D01*
X157168862Y-102668432D01*
X156989741Y-102630359D01*
X156989736Y-102630358D01*
X156985697Y-102629500D01*
X156794303Y-102629500D01*
X156790264Y-102630358D01*
X156790259Y-102630359D01*
X156611135Y-102668433D01*
X156611133Y-102668434D01*
X156607090Y-102669293D01*
X156603313Y-102670975D01*
X156603312Y-102670975D01*
X156436022Y-102745458D01*
X156436019Y-102745460D01*
X156432243Y-102747141D01*
X156277401Y-102859640D01*
X156149333Y-103001874D01*
X156147262Y-103005461D01*
X156056504Y-103162658D01*
X156053635Y-103167627D01*
X155994491Y-103349654D01*
X155994058Y-103353770D01*
X155994058Y-103353772D01*
X155980359Y-103484114D01*
X155974485Y-103540000D01*
X155974918Y-103544120D01*
X155991559Y-103702445D01*
X155994491Y-103730346D01*
X156053635Y-103912373D01*
X156055701Y-103915951D01*
X156056599Y-103917969D01*
X156060364Y-103971877D01*
X156040287Y-104005955D01*
X149834881Y-110211361D01*
X149785905Y-110234199D01*
X149779020Y-110234500D01*
X143161474Y-110234500D01*
X143156745Y-110234153D01*
X143152429Y-110232671D01*
X143105202Y-110234444D01*
X143102238Y-110234500D01*
X143083448Y-110234500D01*
X143079871Y-110235166D01*
X143077828Y-110235355D01*
X143073531Y-110235633D01*
X143053437Y-110236387D01*
X143053435Y-110236387D01*
X143046147Y-110236661D01*
X143034558Y-110241640D01*
X143017845Y-110246717D01*
X143012616Y-110247691D01*
X143012612Y-110247692D01*
X143005441Y-110249028D01*
X142988833Y-110259265D01*
X142982955Y-110262888D01*
X142972690Y-110268220D01*
X142948426Y-110278645D01*
X142943785Y-110282457D01*
X142938394Y-110287848D01*
X142923986Y-110299237D01*
X142921114Y-110301007D01*
X142921111Y-110301010D01*
X142914902Y-110304837D01*
X142910486Y-110310645D01*
X142897500Y-110327722D01*
X142890477Y-110335765D01*
X140761969Y-112464273D01*
X140712993Y-112487111D01*
X140668534Y-112477904D01*
X140636875Y-112460786D01*
X140636873Y-112460785D01*
X140633479Y-112458950D01*
X140444172Y-112400350D01*
X140247089Y-112379636D01*
X140243243Y-112379986D01*
X140243242Y-112379986D01*
X140196948Y-112384199D01*
X140049735Y-112397596D01*
X140046028Y-112398687D01*
X139863338Y-112452456D01*
X139863335Y-112452457D01*
X139859629Y-112453548D01*
X139856202Y-112455340D01*
X139856201Y-112455340D01*
X139845826Y-112460764D01*
X139684010Y-112545359D01*
X139681003Y-112547777D01*
X139681001Y-112547778D01*
X139617693Y-112598679D01*
X139529570Y-112669532D01*
X139518677Y-112682514D01*
X139405962Y-112816843D01*
X139402189Y-112821339D01*
X139400327Y-112824727D01*
X139400325Y-112824729D01*
X139310841Y-112987500D01*
X139306720Y-112994996D01*
X139246800Y-113183889D01*
X139224710Y-113380823D01*
X139241292Y-113578297D01*
X139295915Y-113768790D01*
X139386498Y-113945045D01*
X139509590Y-114100348D01*
X139660504Y-114228786D01*
X139663878Y-114230672D01*
X139663880Y-114230673D01*
X139702615Y-114252321D01*
X139833490Y-114325465D01*
X139837152Y-114326655D01*
X139837157Y-114326657D01*
X139939736Y-114359986D01*
X140021960Y-114386702D01*
X140025797Y-114387160D01*
X140025799Y-114387160D01*
X140214892Y-114409708D01*
X140214895Y-114409708D01*
X140218735Y-114410166D01*
X140416320Y-114394963D01*
X140421872Y-114393413D01*
X140489904Y-114374418D01*
X140607190Y-114341671D01*
X140735128Y-114277045D01*
X140780619Y-114254066D01*
X140780621Y-114254065D01*
X140784073Y-114252321D01*
X140917941Y-114147732D01*
X140937190Y-114132693D01*
X140937192Y-114132691D01*
X140940232Y-114130316D01*
X140970661Y-114095064D01*
X141067196Y-113983228D01*
X141067200Y-113983223D01*
X141069720Y-113980303D01*
X141071626Y-113976947D01*
X141071630Y-113976942D01*
X141165695Y-113811356D01*
X141167604Y-113807996D01*
X141173423Y-113790504D01*
X141228935Y-113623630D01*
X141228936Y-113623625D01*
X141230156Y-113619958D01*
X141234400Y-113586367D01*
X141237926Y-113558449D01*
X141254993Y-113423351D01*
X141255389Y-113395000D01*
X141236051Y-113197777D01*
X141227440Y-113169254D01*
X141187328Y-113036396D01*
X141178774Y-113008065D01*
X141161567Y-112975703D01*
X141153078Y-112959737D01*
X141145557Y-112906223D01*
X141166970Y-112866788D01*
X143205119Y-110828639D01*
X143254095Y-110805801D01*
X143260980Y-110805500D01*
X149878526Y-110805500D01*
X149883255Y-110805847D01*
X149887571Y-110807329D01*
X149934799Y-110805556D01*
X149937762Y-110805500D01*
X149956552Y-110805500D01*
X149960129Y-110804834D01*
X149962172Y-110804645D01*
X149966469Y-110804367D01*
X149986563Y-110803613D01*
X149986565Y-110803613D01*
X149993853Y-110803339D01*
X150005442Y-110798360D01*
X150022155Y-110793283D01*
X150027384Y-110792309D01*
X150027388Y-110792308D01*
X150034559Y-110790972D01*
X150057045Y-110777112D01*
X150067310Y-110771780D01*
X150069094Y-110771014D01*
X150091574Y-110761355D01*
X150096215Y-110757543D01*
X150101606Y-110752152D01*
X150116014Y-110740763D01*
X150118886Y-110738993D01*
X150118889Y-110738990D01*
X150125098Y-110735163D01*
X150142500Y-110712278D01*
X150149523Y-110704235D01*
X156455194Y-104398564D01*
X156504170Y-104375726D01*
X156543184Y-104382254D01*
X156607090Y-104410707D01*
X156611133Y-104411566D01*
X156611138Y-104411568D01*
X156790259Y-104449641D01*
X156790264Y-104449642D01*
X156794303Y-104450500D01*
X156985697Y-104450500D01*
X156989736Y-104449642D01*
X156989741Y-104449641D01*
X157168862Y-104411568D01*
X157168867Y-104411566D01*
X157172910Y-104410707D01*
X157176690Y-104409024D01*
X157176693Y-104409023D01*
X157343969Y-104334546D01*
X157347758Y-104332859D01*
X157502599Y-104220360D01*
X157569904Y-104145610D01*
X157627894Y-104081206D01*
X157627895Y-104081205D01*
X157630667Y-104078126D01*
X157642084Y-104058351D01*
X157683480Y-104023615D01*
X157737519Y-104023615D01*
X157778916Y-104058351D01*
X157789500Y-104097851D01*
X157789500Y-105522149D01*
X157771018Y-105572929D01*
X157724218Y-105599949D01*
X157671000Y-105590565D01*
X157642084Y-105561649D01*
X157632738Y-105545461D01*
X157630667Y-105541874D01*
X157502599Y-105399640D01*
X157347758Y-105287141D01*
X157294584Y-105263466D01*
X157176693Y-105210977D01*
X157176690Y-105210976D01*
X157172910Y-105209293D01*
X157168867Y-105208434D01*
X157168862Y-105208432D01*
X156989741Y-105170359D01*
X156989736Y-105170358D01*
X156985697Y-105169500D01*
X156794303Y-105169500D01*
X156790264Y-105170358D01*
X156790259Y-105170359D01*
X156611135Y-105208433D01*
X156611133Y-105208434D01*
X156607090Y-105209293D01*
X156603313Y-105210975D01*
X156603312Y-105210975D01*
X156436022Y-105285458D01*
X156436019Y-105285460D01*
X156432243Y-105287141D01*
X156428895Y-105289573D01*
X156428894Y-105289574D01*
X156379446Y-105325500D01*
X156277401Y-105399640D01*
X156149333Y-105541874D01*
X156053635Y-105707627D01*
X155994491Y-105889654D01*
X155994058Y-105893770D01*
X155994058Y-105893772D01*
X155976075Y-106064874D01*
X155974485Y-106080000D01*
X155974918Y-106084120D01*
X155989343Y-106221361D01*
X155994491Y-106270346D01*
X156053635Y-106452373D01*
X156055701Y-106455951D01*
X156056599Y-106457969D01*
X156060364Y-106511877D01*
X156040287Y-106545955D01*
X151324881Y-111261361D01*
X151275905Y-111284199D01*
X151269020Y-111284500D01*
X144391481Y-111284500D01*
X144386747Y-111284152D01*
X144382429Y-111282670D01*
X144336951Y-111284378D01*
X144335186Y-111284444D01*
X144332222Y-111284500D01*
X144313448Y-111284500D01*
X144309874Y-111285166D01*
X144307843Y-111285353D01*
X144303548Y-111285632D01*
X144299066Y-111285800D01*
X144283434Y-111286387D01*
X144283432Y-111286387D01*
X144276147Y-111286661D01*
X144264554Y-111291641D01*
X144247846Y-111296718D01*
X144235441Y-111299028D01*
X144212964Y-111312883D01*
X144202695Y-111318217D01*
X144178426Y-111328644D01*
X144173786Y-111332456D01*
X144168394Y-111337848D01*
X144153986Y-111349237D01*
X144151114Y-111351007D01*
X144151111Y-111351010D01*
X144144902Y-111354837D01*
X144140486Y-111360645D01*
X144127500Y-111377722D01*
X144120477Y-111385765D01*
X143045478Y-112460764D01*
X142996502Y-112483602D01*
X142952046Y-112474396D01*
X142923479Y-112458950D01*
X142734172Y-112400350D01*
X142537089Y-112379636D01*
X142533243Y-112379986D01*
X142533242Y-112379986D01*
X142486948Y-112384199D01*
X142339735Y-112397596D01*
X142336028Y-112398687D01*
X142153338Y-112452456D01*
X142153335Y-112452457D01*
X142149629Y-112453548D01*
X142146202Y-112455340D01*
X142146201Y-112455340D01*
X142135826Y-112460764D01*
X141974010Y-112545359D01*
X141971003Y-112547777D01*
X141971001Y-112547778D01*
X141907693Y-112598679D01*
X141819570Y-112669532D01*
X141808677Y-112682514D01*
X141695962Y-112816843D01*
X141692189Y-112821339D01*
X141690327Y-112824727D01*
X141690325Y-112824729D01*
X141600841Y-112987500D01*
X141596720Y-112994996D01*
X141536800Y-113183889D01*
X141514710Y-113380823D01*
X141531292Y-113578297D01*
X141585915Y-113768790D01*
X141676498Y-113945045D01*
X141799590Y-114100348D01*
X141950504Y-114228786D01*
X141953878Y-114230672D01*
X141953880Y-114230673D01*
X141992615Y-114252321D01*
X142123490Y-114325465D01*
X142127152Y-114326655D01*
X142127157Y-114326657D01*
X142229736Y-114359986D01*
X142311960Y-114386702D01*
X142315797Y-114387160D01*
X142315799Y-114387160D01*
X142504892Y-114409708D01*
X142504895Y-114409708D01*
X142508735Y-114410166D01*
X142706320Y-114394963D01*
X142711872Y-114393413D01*
X142779904Y-114374418D01*
X142897190Y-114341671D01*
X143025128Y-114277045D01*
X143070619Y-114254066D01*
X143070621Y-114254065D01*
X143074073Y-114252321D01*
X143207941Y-114147732D01*
X143227190Y-114132693D01*
X143227192Y-114132691D01*
X143230232Y-114130316D01*
X143260661Y-114095064D01*
X143357196Y-113983228D01*
X143357200Y-113983223D01*
X143359720Y-113980303D01*
X143361626Y-113976947D01*
X143361630Y-113976942D01*
X143455695Y-113811356D01*
X143457604Y-113807996D01*
X143463423Y-113790504D01*
X143518935Y-113623630D01*
X143518936Y-113623625D01*
X143520156Y-113619958D01*
X143524400Y-113586367D01*
X143527926Y-113558449D01*
X143544993Y-113423351D01*
X143545389Y-113395000D01*
X143543999Y-113380823D01*
X143804710Y-113380823D01*
X143821292Y-113578297D01*
X143875915Y-113768790D01*
X143966498Y-113945045D01*
X144089590Y-114100348D01*
X144240504Y-114228786D01*
X144243878Y-114230672D01*
X144243880Y-114230673D01*
X144282615Y-114252321D01*
X144413490Y-114325465D01*
X144417152Y-114326655D01*
X144417157Y-114326657D01*
X144519736Y-114359986D01*
X144601960Y-114386702D01*
X144605797Y-114387160D01*
X144605799Y-114387160D01*
X144794892Y-114409708D01*
X144794895Y-114409708D01*
X144798735Y-114410166D01*
X144996320Y-114394963D01*
X145001872Y-114393413D01*
X145069904Y-114374418D01*
X145187190Y-114341671D01*
X145315128Y-114277045D01*
X145360619Y-114254066D01*
X145360621Y-114254065D01*
X145364073Y-114252321D01*
X145497941Y-114147732D01*
X145517190Y-114132693D01*
X145517192Y-114132691D01*
X145520232Y-114130316D01*
X145550661Y-114095064D01*
X145647196Y-113983228D01*
X145647200Y-113983223D01*
X145649720Y-113980303D01*
X145651626Y-113976947D01*
X145651630Y-113976942D01*
X145745695Y-113811356D01*
X145747604Y-113807996D01*
X145753423Y-113790504D01*
X145808935Y-113623630D01*
X145808936Y-113623625D01*
X145810156Y-113619958D01*
X145814400Y-113586367D01*
X145817926Y-113558449D01*
X145834993Y-113423351D01*
X145835389Y-113395000D01*
X145832908Y-113369698D01*
X146005903Y-113369698D01*
X146018651Y-113564201D01*
X146019780Y-113571328D01*
X146067759Y-113760243D01*
X146070172Y-113767057D01*
X146151774Y-113944068D01*
X146155377Y-113950308D01*
X146166287Y-113965746D01*
X146175617Y-113972218D01*
X146179595Y-113971852D01*
X146746596Y-113404851D01*
X146750983Y-113395443D01*
X147468604Y-113395443D01*
X147470290Y-113401737D01*
X148035287Y-113966734D01*
X148045581Y-113971534D01*
X148047491Y-113971023D01*
X148049493Y-113968808D01*
X148117436Y-113847488D01*
X148120371Y-113840896D01*
X148183025Y-113656321D01*
X148184710Y-113649304D01*
X148212864Y-113455127D01*
X148213260Y-113450486D01*
X148214652Y-113397327D01*
X148214500Y-113392685D01*
X148196545Y-113197288D01*
X148195230Y-113190195D01*
X148142321Y-113002592D01*
X148139736Y-112995858D01*
X148053698Y-112821389D01*
X148045990Y-112816336D01*
X148041710Y-112816843D01*
X147473404Y-113385149D01*
X147468604Y-113395443D01*
X146750983Y-113395443D01*
X146751396Y-113394557D01*
X146749710Y-113388263D01*
X146183455Y-112822008D01*
X146173161Y-112817208D01*
X146171797Y-112817573D01*
X146169208Y-112820512D01*
X146091066Y-112969037D01*
X146088304Y-112975703D01*
X146030502Y-113161857D01*
X146029002Y-113168919D01*
X146006092Y-113362481D01*
X146005903Y-113369698D01*
X145832908Y-113369698D01*
X145816051Y-113197777D01*
X145807440Y-113169254D01*
X145767328Y-113036396D01*
X145758774Y-113008065D01*
X145756963Y-113004659D01*
X145756961Y-113004654D01*
X145667551Y-112836500D01*
X145665739Y-112833092D01*
X145658919Y-112824729D01*
X145542930Y-112682514D01*
X145540490Y-112679522D01*
X145528415Y-112669532D01*
X145390773Y-112555665D01*
X145390772Y-112555664D01*
X145387798Y-112553204D01*
X145369979Y-112543569D01*
X145293840Y-112502401D01*
X145219532Y-112462223D01*
X146533890Y-112462223D01*
X146533923Y-112464759D01*
X146535040Y-112466487D01*
X147100149Y-113031596D01*
X147110443Y-113036396D01*
X147116737Y-113034710D01*
X147680911Y-112470536D01*
X147685711Y-112460242D01*
X147684909Y-112457250D01*
X147684111Y-112456488D01*
X147614590Y-112412625D01*
X147608167Y-112409353D01*
X147427121Y-112337122D01*
X147420200Y-112335072D01*
X147229024Y-112297045D01*
X147221854Y-112296292D01*
X147026952Y-112293739D01*
X147019752Y-112294306D01*
X146827653Y-112327315D01*
X146820675Y-112329185D01*
X146637805Y-112396649D01*
X146631298Y-112399753D01*
X146541076Y-112453429D01*
X146533890Y-112462223D01*
X145219532Y-112462223D01*
X145213479Y-112458950D01*
X145024172Y-112400350D01*
X144827089Y-112379636D01*
X144823243Y-112379986D01*
X144823242Y-112379986D01*
X144776948Y-112384199D01*
X144629735Y-112397596D01*
X144626028Y-112398687D01*
X144443338Y-112452456D01*
X144443335Y-112452457D01*
X144439629Y-112453548D01*
X144436202Y-112455340D01*
X144436201Y-112455340D01*
X144425826Y-112460764D01*
X144264010Y-112545359D01*
X144261003Y-112547777D01*
X144261001Y-112547778D01*
X144197693Y-112598679D01*
X144109570Y-112669532D01*
X144098677Y-112682514D01*
X143985962Y-112816843D01*
X143982189Y-112821339D01*
X143980327Y-112824727D01*
X143980325Y-112824729D01*
X143890841Y-112987500D01*
X143886720Y-112994996D01*
X143826800Y-113183889D01*
X143804710Y-113380823D01*
X143543999Y-113380823D01*
X143526051Y-113197777D01*
X143517440Y-113169254D01*
X143477328Y-113036396D01*
X143468774Y-113008065D01*
X143439606Y-112953207D01*
X143432085Y-112899697D01*
X143453498Y-112860260D01*
X144435119Y-111878639D01*
X144484095Y-111855801D01*
X144490980Y-111855500D01*
X151368526Y-111855500D01*
X151373255Y-111855847D01*
X151377571Y-111857329D01*
X151424799Y-111855556D01*
X151427762Y-111855500D01*
X151446552Y-111855500D01*
X151450129Y-111854834D01*
X151452172Y-111854645D01*
X151456469Y-111854367D01*
X151476563Y-111853613D01*
X151476565Y-111853613D01*
X151483853Y-111853339D01*
X151495442Y-111848360D01*
X151512155Y-111843283D01*
X151517384Y-111842309D01*
X151517388Y-111842308D01*
X151524559Y-111840972D01*
X151547045Y-111827112D01*
X151557310Y-111821780D01*
X151559094Y-111821014D01*
X151581574Y-111811355D01*
X151586215Y-111807543D01*
X151591606Y-111802152D01*
X151606014Y-111790763D01*
X151608886Y-111788993D01*
X151608889Y-111788990D01*
X151615098Y-111785163D01*
X151632500Y-111762278D01*
X151639523Y-111754235D01*
X156455194Y-106938564D01*
X156504170Y-106915726D01*
X156543184Y-106922254D01*
X156607090Y-106950707D01*
X156611133Y-106951566D01*
X156611138Y-106951568D01*
X156790259Y-106989641D01*
X156790264Y-106989642D01*
X156794303Y-106990500D01*
X156985697Y-106990500D01*
X156989736Y-106989642D01*
X156989741Y-106989641D01*
X157168862Y-106951568D01*
X157168867Y-106951566D01*
X157172910Y-106950707D01*
X157176690Y-106949024D01*
X157176693Y-106949023D01*
X157343969Y-106874546D01*
X157347758Y-106872859D01*
X157502599Y-106760360D01*
X157590106Y-106663174D01*
X157627894Y-106621206D01*
X157627895Y-106621205D01*
X157630667Y-106618126D01*
X157642084Y-106598351D01*
X157683480Y-106563615D01*
X157737519Y-106563615D01*
X157778916Y-106598351D01*
X157789500Y-106637851D01*
X157789500Y-108062149D01*
X157771018Y-108112929D01*
X157724218Y-108139949D01*
X157671000Y-108130565D01*
X157642084Y-108101649D01*
X157640860Y-108099528D01*
X157630667Y-108081874D01*
X157610757Y-108059761D01*
X157522453Y-107961690D01*
X157502599Y-107939640D01*
X157347758Y-107827141D01*
X157324543Y-107816805D01*
X157176693Y-107750977D01*
X157176690Y-107750976D01*
X157172910Y-107749293D01*
X157168867Y-107748434D01*
X157168862Y-107748432D01*
X156989741Y-107710359D01*
X156989736Y-107710358D01*
X156985697Y-107709500D01*
X156794303Y-107709500D01*
X156790264Y-107710358D01*
X156790259Y-107710359D01*
X156611135Y-107748433D01*
X156611133Y-107748434D01*
X156607090Y-107749293D01*
X156603313Y-107750975D01*
X156603312Y-107750975D01*
X156436022Y-107825458D01*
X156436019Y-107825460D01*
X156432243Y-107827141D01*
X156428895Y-107829573D01*
X156428894Y-107829574D01*
X156418892Y-107836841D01*
X156277401Y-107939640D01*
X156257547Y-107961690D01*
X156169244Y-108059761D01*
X156149333Y-108081874D01*
X156147262Y-108085461D01*
X156066388Y-108225539D01*
X156053635Y-108247627D01*
X155994491Y-108429654D01*
X155994058Y-108433770D01*
X155994058Y-108433772D01*
X155976612Y-108599761D01*
X155974485Y-108620000D01*
X155974918Y-108624120D01*
X155991121Y-108778278D01*
X155994491Y-108810346D01*
X156053635Y-108992373D01*
X156055704Y-108995956D01*
X156055705Y-108995959D01*
X156142555Y-109146387D01*
X156149333Y-109158126D01*
X156152105Y-109161205D01*
X156152106Y-109161206D01*
X156224835Y-109241979D01*
X156277401Y-109300360D01*
X156432242Y-109412859D01*
X156436031Y-109414546D01*
X156603307Y-109489023D01*
X156603310Y-109489024D01*
X156607090Y-109490707D01*
X156611133Y-109491566D01*
X156611138Y-109491568D01*
X156790259Y-109529641D01*
X156790264Y-109529642D01*
X156794303Y-109530500D01*
X156985697Y-109530500D01*
X156989736Y-109529642D01*
X156989741Y-109529641D01*
X157168862Y-109491568D01*
X157168867Y-109491566D01*
X157172910Y-109490707D01*
X157176690Y-109489024D01*
X157176693Y-109489023D01*
X157343969Y-109414546D01*
X157347758Y-109412859D01*
X157502599Y-109300360D01*
X157555165Y-109241979D01*
X157627894Y-109161206D01*
X157627895Y-109161205D01*
X157630667Y-109158126D01*
X157642084Y-109138351D01*
X157683480Y-109103615D01*
X157737519Y-109103615D01*
X157778916Y-109138351D01*
X157789500Y-109177851D01*
X157789500Y-110172670D01*
X157771018Y-110223450D01*
X157724218Y-110250470D01*
X157716062Y-110251473D01*
X157677987Y-110254158D01*
X157675468Y-110254671D01*
X157675467Y-110254671D01*
X157414130Y-110307881D01*
X157414125Y-110307882D01*
X157411617Y-110308393D01*
X157405071Y-110310645D01*
X157157007Y-110395981D01*
X157157003Y-110395983D01*
X157154566Y-110396821D01*
X156911205Y-110517941D01*
X156909068Y-110519379D01*
X156909066Y-110519380D01*
X156687811Y-110668251D01*
X156687807Y-110668254D01*
X156685670Y-110669692D01*
X156683739Y-110671395D01*
X156483729Y-110847789D01*
X156483725Y-110847793D01*
X156481794Y-110849496D01*
X156303044Y-111054296D01*
X156152457Y-111280610D01*
X156151321Y-111282922D01*
X156151320Y-111282924D01*
X156136602Y-111312883D01*
X156032594Y-111524593D01*
X155999303Y-111623012D01*
X155951445Y-111764498D01*
X155945492Y-111782096D01*
X155892632Y-112048743D01*
X155874911Y-112320000D01*
X155892632Y-112591257D01*
X155945492Y-112857904D01*
X155946316Y-112860339D01*
X155946317Y-112860344D01*
X155949700Y-112870344D01*
X156032594Y-113115407D01*
X156055414Y-113161857D01*
X156067013Y-113185467D01*
X156072816Y-113239193D01*
X156042726Y-113284080D01*
X155990823Y-113299124D01*
X155961168Y-113291154D01*
X155902870Y-113262405D01*
X155898085Y-113260423D01*
X155619612Y-113165894D01*
X155614606Y-113164553D01*
X155326168Y-113107179D01*
X155321051Y-113106505D01*
X155027578Y-113087270D01*
X155022422Y-113087270D01*
X154728949Y-113106505D01*
X154723832Y-113107179D01*
X154435394Y-113164553D01*
X154430388Y-113165894D01*
X154151915Y-113260423D01*
X154147136Y-113262403D01*
X153883371Y-113392477D01*
X153878898Y-113395059D01*
X153634368Y-113558449D01*
X153630270Y-113561594D01*
X153606048Y-113582836D01*
X153600586Y-113592793D01*
X153601639Y-113598085D01*
X155025000Y-115021447D01*
X156798128Y-116794574D01*
X156808422Y-116799374D01*
X156813633Y-116797978D01*
X156838406Y-116769730D01*
X156841551Y-116765632D01*
X157004941Y-116521102D01*
X157007523Y-116516629D01*
X157137597Y-116252864D01*
X157139577Y-116248085D01*
X157234106Y-115969612D01*
X157235447Y-115964606D01*
X157292821Y-115676168D01*
X157293495Y-115671051D01*
X157312730Y-115377578D01*
X157312730Y-115372422D01*
X157293495Y-115078949D01*
X157292821Y-115073832D01*
X157235447Y-114785394D01*
X157234106Y-114780388D01*
X157139577Y-114501915D01*
X157137597Y-114497136D01*
X157068150Y-114356310D01*
X157062267Y-114302592D01*
X157092290Y-114257660D01*
X157144170Y-114242538D01*
X157164702Y-114246666D01*
X157226581Y-114267953D01*
X157411617Y-114331607D01*
X157414125Y-114332118D01*
X157414130Y-114332119D01*
X157656632Y-114381494D01*
X157677987Y-114385842D01*
X157716057Y-114388526D01*
X157765411Y-114410534D01*
X157789072Y-114459117D01*
X157789500Y-114467330D01*
X157789500Y-119392794D01*
X157787491Y-119410498D01*
X157785372Y-119419713D01*
X157787336Y-119428390D01*
X157787320Y-119437287D01*
X157786524Y-119437286D01*
X157787015Y-119445226D01*
X157774131Y-119576039D01*
X157771109Y-119591228D01*
X157727856Y-119733815D01*
X157721930Y-119748123D01*
X157651687Y-119879538D01*
X157643083Y-119892415D01*
X157548552Y-120007601D01*
X157537601Y-120018552D01*
X157422415Y-120113083D01*
X157409538Y-120121687D01*
X157278123Y-120191930D01*
X157263815Y-120197856D01*
X157121227Y-120241109D01*
X157106038Y-120244131D01*
X156975375Y-120257000D01*
X156967496Y-120257380D01*
X156958955Y-120257365D01*
X156950287Y-120255372D01*
X156941612Y-120257335D01*
X156941610Y-120257335D01*
X156940653Y-120257552D01*
X156923218Y-120259500D01*
X128157206Y-120259500D01*
X128139502Y-120257491D01*
X128130287Y-120255372D01*
X128121610Y-120257336D01*
X128112713Y-120257320D01*
X128112714Y-120256524D01*
X128104774Y-120257015D01*
X127973961Y-120244131D01*
X127958772Y-120241109D01*
X127816185Y-120197856D01*
X127801877Y-120191930D01*
X127670462Y-120121687D01*
X127657585Y-120113083D01*
X127542399Y-120018552D01*
X127531448Y-120007601D01*
X127436917Y-119892415D01*
X127428313Y-119879538D01*
X127358070Y-119748123D01*
X127352144Y-119733815D01*
X127308891Y-119591228D01*
X127305869Y-119576040D01*
X127293025Y-119445645D01*
X127293165Y-119428852D01*
X127293617Y-119424930D01*
X127294627Y-119420575D01*
X127294628Y-119420000D01*
X127293635Y-119415645D01*
X127293634Y-119415640D01*
X127292478Y-119410573D01*
X127290500Y-119393005D01*
X127290500Y-117158422D01*
X128610626Y-117158422D01*
X128612022Y-117163633D01*
X128640270Y-117188406D01*
X128644368Y-117191551D01*
X128888898Y-117354941D01*
X128893370Y-117357523D01*
X129157136Y-117487597D01*
X129161915Y-117489577D01*
X129440388Y-117584106D01*
X129445394Y-117585447D01*
X129733832Y-117642821D01*
X129738949Y-117643495D01*
X130032422Y-117662730D01*
X130037578Y-117662730D01*
X130331051Y-117643495D01*
X130336168Y-117642821D01*
X130624606Y-117585447D01*
X130629612Y-117584106D01*
X130908085Y-117489577D01*
X130912864Y-117487597D01*
X131176630Y-117357523D01*
X131181102Y-117354941D01*
X131425632Y-117191551D01*
X131429730Y-117188406D01*
X131453952Y-117167164D01*
X131459414Y-117157207D01*
X131458361Y-117151915D01*
X130044851Y-115738404D01*
X130034557Y-115733604D01*
X130028263Y-115735290D01*
X128615426Y-117148128D01*
X128610626Y-117158422D01*
X127290500Y-117158422D01*
X127290500Y-114477330D01*
X127308982Y-114426550D01*
X127355782Y-114399530D01*
X127363938Y-114398527D01*
X127402013Y-114395842D01*
X127404533Y-114395329D01*
X127665870Y-114342119D01*
X127665875Y-114342118D01*
X127668383Y-114341607D01*
X127739558Y-114317122D01*
X127885273Y-114266995D01*
X127939304Y-114267953D01*
X127980078Y-114303418D01*
X127988516Y-114356794D01*
X127981825Y-114376639D01*
X127922403Y-114497136D01*
X127920423Y-114501915D01*
X127825894Y-114780388D01*
X127824553Y-114785394D01*
X127767179Y-115073832D01*
X127766505Y-115078949D01*
X127747270Y-115372422D01*
X127747270Y-115377578D01*
X127766505Y-115671051D01*
X127767179Y-115676168D01*
X127824553Y-115964606D01*
X127825894Y-115969612D01*
X127920423Y-116248085D01*
X127922403Y-116252864D01*
X128052477Y-116516629D01*
X128055059Y-116521102D01*
X128218449Y-116765632D01*
X128221594Y-116769730D01*
X128242836Y-116793952D01*
X128252793Y-116799414D01*
X128258085Y-116798361D01*
X129681004Y-115375443D01*
X130393604Y-115375443D01*
X130395290Y-115381737D01*
X131808128Y-116794574D01*
X131818422Y-116799374D01*
X131823633Y-116797978D01*
X131848406Y-116769730D01*
X131851551Y-116765632D01*
X132014941Y-116521102D01*
X132017523Y-116516629D01*
X132147597Y-116252864D01*
X132149577Y-116248085D01*
X132244106Y-115969612D01*
X132245447Y-115964606D01*
X132302821Y-115676168D01*
X132303495Y-115671051D01*
X132322730Y-115377578D01*
X132322730Y-115372422D01*
X132303495Y-115078949D01*
X132302821Y-115073832D01*
X132245447Y-114785394D01*
X132244106Y-114780388D01*
X132149577Y-114501915D01*
X132147597Y-114497136D01*
X132017523Y-114233371D01*
X132014941Y-114228898D01*
X131851551Y-113984368D01*
X131848406Y-113980270D01*
X131827164Y-113956048D01*
X131817207Y-113950586D01*
X131811915Y-113951639D01*
X130398404Y-115365149D01*
X130393604Y-115375443D01*
X129681004Y-115375443D01*
X130035000Y-115021447D01*
X131454574Y-113601872D01*
X131459374Y-113591578D01*
X131457978Y-113586367D01*
X131429730Y-113561594D01*
X131425632Y-113558449D01*
X131181102Y-113395059D01*
X131176630Y-113392477D01*
X130912864Y-113262403D01*
X130908085Y-113260423D01*
X130629612Y-113165894D01*
X130624606Y-113164553D01*
X130336168Y-113107179D01*
X130331051Y-113106505D01*
X130037578Y-113087270D01*
X130032422Y-113087270D01*
X129738949Y-113106505D01*
X129733832Y-113107179D01*
X129445394Y-113164553D01*
X129440388Y-113165894D01*
X129161915Y-113260423D01*
X129157136Y-113262402D01*
X129131711Y-113274941D01*
X129077993Y-113280824D01*
X129033061Y-113250802D01*
X129017939Y-113198922D01*
X129025865Y-113169254D01*
X129027516Y-113165894D01*
X129047406Y-113125407D01*
X129095149Y-112984263D01*
X129133683Y-112870344D01*
X129133684Y-112870339D01*
X129134508Y-112867904D01*
X129187368Y-112601257D01*
X129205089Y-112330000D01*
X129187368Y-112058743D01*
X129134508Y-111792096D01*
X129133459Y-111788993D01*
X129073485Y-111611692D01*
X129047406Y-111534593D01*
X128946228Y-111328644D01*
X128928680Y-111292924D01*
X128928679Y-111292922D01*
X128927543Y-111290610D01*
X128798702Y-111096978D01*
X128778384Y-111066442D01*
X128778383Y-111066441D01*
X128776956Y-111064296D01*
X128598206Y-110859496D01*
X128596275Y-110857793D01*
X128596271Y-110857789D01*
X128396261Y-110681395D01*
X128394330Y-110679692D01*
X128392193Y-110678254D01*
X128392189Y-110678251D01*
X128170934Y-110529380D01*
X128170932Y-110529379D01*
X128168795Y-110527941D01*
X127925434Y-110406821D01*
X127922997Y-110405983D01*
X127922993Y-110405981D01*
X127670813Y-110319229D01*
X127670814Y-110319229D01*
X127668383Y-110318393D01*
X127665875Y-110317882D01*
X127665870Y-110317881D01*
X127404533Y-110264671D01*
X127404532Y-110264671D01*
X127402013Y-110264158D01*
X127363943Y-110261474D01*
X127314589Y-110239466D01*
X127290928Y-110190883D01*
X127290500Y-110182670D01*
X127290500Y-99995812D01*
X128619902Y-99995812D01*
X128620886Y-100003042D01*
X128620886Y-100003043D01*
X128623778Y-100024291D01*
X128624500Y-100034945D01*
X128624500Y-105798526D01*
X128624153Y-105803255D01*
X128622671Y-105807571D01*
X128623995Y-105842836D01*
X128624444Y-105854798D01*
X128624500Y-105857762D01*
X128624500Y-105876552D01*
X128625166Y-105880129D01*
X128625355Y-105882172D01*
X128625633Y-105886469D01*
X128626071Y-105898126D01*
X128626661Y-105913853D01*
X128631640Y-105925442D01*
X128636717Y-105942155D01*
X128637691Y-105947384D01*
X128637692Y-105947388D01*
X128639028Y-105954559D01*
X128642855Y-105960767D01*
X128652888Y-105977045D01*
X128658220Y-105987310D01*
X128668645Y-106011574D01*
X128672457Y-106016215D01*
X128677848Y-106021606D01*
X128689237Y-106036014D01*
X128691007Y-106038886D01*
X128691010Y-106038889D01*
X128694837Y-106045098D01*
X128708431Y-106055435D01*
X128717722Y-106062500D01*
X128725765Y-106069523D01*
X129100151Y-106443909D01*
X129122989Y-106492885D01*
X129122350Y-106511919D01*
X129114288Y-106563699D01*
X129116361Y-106579550D01*
X129131865Y-106698110D01*
X129133249Y-106708695D01*
X129192143Y-106842542D01*
X129195765Y-106846851D01*
X129252612Y-106914479D01*
X129286236Y-106954479D01*
X129309200Y-106969765D01*
X129309275Y-106969815D01*
X129341305Y-107013339D01*
X129344500Y-107035578D01*
X129344500Y-110632901D01*
X129326018Y-110683681D01*
X129307656Y-110699713D01*
X129300980Y-110703926D01*
X129295732Y-110707237D01*
X129292011Y-110711450D01*
X129292010Y-110711451D01*
X129261839Y-110745613D01*
X129198932Y-110816841D01*
X129136786Y-110949209D01*
X129114288Y-111093699D01*
X129115018Y-111099280D01*
X129122616Y-111157380D01*
X129133249Y-111238695D01*
X129192143Y-111372542D01*
X129286236Y-111484479D01*
X129407964Y-111565508D01*
X129413338Y-111567187D01*
X129490575Y-111591318D01*
X129547541Y-111609116D01*
X129635369Y-111610725D01*
X129688124Y-111611692D01*
X129693747Y-111611795D01*
X129695596Y-111611291D01*
X129746773Y-111623012D01*
X129759723Y-111633481D01*
X130301718Y-112175476D01*
X130304822Y-112179071D01*
X130306826Y-112183171D01*
X130312173Y-112188131D01*
X130341495Y-112215331D01*
X130343630Y-112217388D01*
X130356896Y-112230654D01*
X130359902Y-112232716D01*
X130361459Y-112234010D01*
X130364694Y-112236851D01*
X130384800Y-112255502D01*
X130391576Y-112258205D01*
X130391577Y-112258206D01*
X130396517Y-112260177D01*
X130411926Y-112268405D01*
X130416310Y-112271412D01*
X130422328Y-112275540D01*
X130429424Y-112277224D01*
X130429426Y-112277225D01*
X130448023Y-112281638D01*
X130459055Y-112285127D01*
X130483586Y-112294914D01*
X130489563Y-112295500D01*
X130497192Y-112295500D01*
X130515434Y-112297635D01*
X130525812Y-112300098D01*
X130533042Y-112299114D01*
X130533043Y-112299114D01*
X130554291Y-112296222D01*
X130564945Y-112295500D01*
X132119020Y-112295500D01*
X132169800Y-112313982D01*
X132174881Y-112318639D01*
X133151361Y-113295119D01*
X133174199Y-113344095D01*
X133174500Y-113350980D01*
X133174500Y-118248526D01*
X133174153Y-118253255D01*
X133172671Y-118257571D01*
X133173619Y-118282828D01*
X133174444Y-118304798D01*
X133174500Y-118307762D01*
X133174500Y-118326552D01*
X133175166Y-118330129D01*
X133175355Y-118332172D01*
X133175633Y-118336469D01*
X133176661Y-118363853D01*
X133181640Y-118375442D01*
X133186717Y-118392155D01*
X133187691Y-118397384D01*
X133187692Y-118397388D01*
X133189028Y-118404559D01*
X133192855Y-118410767D01*
X133202888Y-118427045D01*
X133208220Y-118437310D01*
X133218645Y-118461574D01*
X133222457Y-118466215D01*
X133227848Y-118471606D01*
X133239237Y-118486014D01*
X133241007Y-118488886D01*
X133241010Y-118488889D01*
X133244837Y-118495098D01*
X133265782Y-118511025D01*
X133267722Y-118512500D01*
X133275765Y-118519523D01*
X134641718Y-119885476D01*
X134644822Y-119889071D01*
X134646826Y-119893171D01*
X134652173Y-119898131D01*
X134681495Y-119925331D01*
X134683630Y-119927388D01*
X134696896Y-119940654D01*
X134699902Y-119942716D01*
X134701459Y-119944010D01*
X134704694Y-119946851D01*
X134724800Y-119965502D01*
X134731576Y-119968205D01*
X134731577Y-119968206D01*
X134736517Y-119970177D01*
X134751926Y-119978405D01*
X134756310Y-119981412D01*
X134762328Y-119985540D01*
X134769424Y-119987224D01*
X134769426Y-119987225D01*
X134788023Y-119991638D01*
X134799054Y-119995127D01*
X134812422Y-120000460D01*
X134823586Y-120004914D01*
X134829563Y-120005500D01*
X134837192Y-120005500D01*
X134855434Y-120007635D01*
X134865812Y-120010098D01*
X134873042Y-120009114D01*
X134873043Y-120009114D01*
X134894291Y-120006222D01*
X134904945Y-120005500D01*
X142438526Y-120005500D01*
X142443255Y-120005847D01*
X142447571Y-120007329D01*
X142494799Y-120005556D01*
X142497762Y-120005500D01*
X142516552Y-120005500D01*
X142520129Y-120004834D01*
X142522172Y-120004645D01*
X142526469Y-120004367D01*
X142546563Y-120003613D01*
X142546565Y-120003613D01*
X142553853Y-120003339D01*
X142565442Y-119998360D01*
X142582155Y-119993283D01*
X142587384Y-119992309D01*
X142587388Y-119992308D01*
X142594559Y-119990972D01*
X142617045Y-119977112D01*
X142627310Y-119971780D01*
X142641922Y-119965502D01*
X142651574Y-119961355D01*
X142656215Y-119957543D01*
X142661606Y-119952152D01*
X142676014Y-119940763D01*
X142678886Y-119938993D01*
X142678889Y-119938990D01*
X142685098Y-119935163D01*
X142702500Y-119912278D01*
X142709523Y-119904235D01*
X143850965Y-118762793D01*
X143854560Y-118759689D01*
X143858660Y-118757685D01*
X143890820Y-118723016D01*
X143892877Y-118720881D01*
X143906143Y-118707615D01*
X143908205Y-118704609D01*
X143909499Y-118703052D01*
X143912341Y-118699816D01*
X143926029Y-118685060D01*
X143930991Y-118679711D01*
X143935664Y-118667998D01*
X143943893Y-118652586D01*
X143951030Y-118642183D01*
X143957128Y-118616487D01*
X143960615Y-118605459D01*
X143970403Y-118580925D01*
X143970989Y-118574948D01*
X143970989Y-118567323D01*
X143973124Y-118549082D01*
X143973903Y-118545799D01*
X143975588Y-118538699D01*
X143971711Y-118510213D01*
X143970989Y-118499559D01*
X143970989Y-118130382D01*
X143989471Y-118079602D01*
X144036271Y-118052582D01*
X144089489Y-118061966D01*
X144101189Y-118070220D01*
X144240504Y-118188786D01*
X144413490Y-118285465D01*
X144417152Y-118286655D01*
X144417157Y-118286657D01*
X144528732Y-118322909D01*
X144601960Y-118346702D01*
X144605797Y-118347160D01*
X144605799Y-118347160D01*
X144794892Y-118369708D01*
X144794895Y-118369708D01*
X144798735Y-118370166D01*
X144996320Y-118354963D01*
X145187190Y-118301671D01*
X145308130Y-118240580D01*
X145360619Y-118214066D01*
X145360621Y-118214065D01*
X145364073Y-118212321D01*
X145520232Y-118090316D01*
X145565202Y-118038218D01*
X145647196Y-117943228D01*
X145647200Y-117943223D01*
X145649720Y-117940303D01*
X145651626Y-117936947D01*
X145651630Y-117936942D01*
X145745695Y-117771356D01*
X145747604Y-117767996D01*
X145759503Y-117732226D01*
X145808935Y-117583630D01*
X145808936Y-117583625D01*
X145810156Y-117579958D01*
X145834993Y-117383351D01*
X145835389Y-117355000D01*
X145833999Y-117340823D01*
X146094710Y-117340823D01*
X146095900Y-117355000D01*
X146109716Y-117519523D01*
X146111292Y-117538297D01*
X146165915Y-117728790D01*
X146256498Y-117905045D01*
X146379590Y-118060348D01*
X146530504Y-118188786D01*
X146703490Y-118285465D01*
X146707152Y-118286655D01*
X146707157Y-118286657D01*
X146818732Y-118322909D01*
X146891960Y-118346702D01*
X146895797Y-118347160D01*
X146895799Y-118347160D01*
X147084892Y-118369708D01*
X147084895Y-118369708D01*
X147088735Y-118370166D01*
X147286320Y-118354963D01*
X147477190Y-118301671D01*
X147598130Y-118240580D01*
X147650619Y-118214066D01*
X147650621Y-118214065D01*
X147654073Y-118212321D01*
X147810232Y-118090316D01*
X147855202Y-118038218D01*
X147937196Y-117943228D01*
X147937200Y-117943223D01*
X147939720Y-117940303D01*
X147941626Y-117936947D01*
X147941630Y-117936942D01*
X148035695Y-117771356D01*
X148037604Y-117767996D01*
X148049503Y-117732226D01*
X148098935Y-117583630D01*
X148098936Y-117583625D01*
X148100156Y-117579958D01*
X148124993Y-117383351D01*
X148125389Y-117355000D01*
X148106114Y-117158422D01*
X153600626Y-117158422D01*
X153602022Y-117163633D01*
X153630270Y-117188406D01*
X153634368Y-117191551D01*
X153878898Y-117354941D01*
X153883370Y-117357523D01*
X154147136Y-117487597D01*
X154151915Y-117489577D01*
X154430388Y-117584106D01*
X154435394Y-117585447D01*
X154723832Y-117642821D01*
X154728949Y-117643495D01*
X155022422Y-117662730D01*
X155027578Y-117662730D01*
X155321051Y-117643495D01*
X155326168Y-117642821D01*
X155614606Y-117585447D01*
X155619612Y-117584106D01*
X155898085Y-117489577D01*
X155902864Y-117487597D01*
X156166630Y-117357523D01*
X156171102Y-117354941D01*
X156415632Y-117191551D01*
X156419730Y-117188406D01*
X156443952Y-117167164D01*
X156449414Y-117157207D01*
X156448361Y-117151915D01*
X155034851Y-115738404D01*
X155024557Y-115733604D01*
X155018263Y-115735290D01*
X153605426Y-117148128D01*
X153600626Y-117158422D01*
X148106114Y-117158422D01*
X148106051Y-117157777D01*
X148048774Y-116968065D01*
X148046963Y-116964660D01*
X148046961Y-116964654D01*
X147957551Y-116796500D01*
X147955739Y-116793092D01*
X147948919Y-116784729D01*
X147832930Y-116642514D01*
X147832929Y-116642513D01*
X147830490Y-116639522D01*
X147824152Y-116634278D01*
X147680773Y-116515665D01*
X147680772Y-116515664D01*
X147677798Y-116513204D01*
X147659979Y-116503569D01*
X147557252Y-116448025D01*
X147503479Y-116418950D01*
X147314172Y-116360350D01*
X147117089Y-116339636D01*
X147113243Y-116339986D01*
X147113242Y-116339986D01*
X147071036Y-116343827D01*
X146919735Y-116357596D01*
X146916028Y-116358687D01*
X146733338Y-116412456D01*
X146733335Y-116412457D01*
X146729629Y-116413548D01*
X146554010Y-116505359D01*
X146551003Y-116507777D01*
X146551001Y-116507778D01*
X146474207Y-116569522D01*
X146399570Y-116629532D01*
X146272189Y-116781339D01*
X146270327Y-116784727D01*
X146270325Y-116784729D01*
X146262831Y-116798361D01*
X146176720Y-116954996D01*
X146116800Y-117143889D01*
X146094710Y-117340823D01*
X145833999Y-117340823D01*
X145816051Y-117157777D01*
X145758774Y-116968065D01*
X145756963Y-116964660D01*
X145756961Y-116964654D01*
X145667551Y-116796500D01*
X145665739Y-116793092D01*
X145658919Y-116784729D01*
X145542930Y-116642514D01*
X145542929Y-116642513D01*
X145540490Y-116639522D01*
X145534152Y-116634278D01*
X145390773Y-116515665D01*
X145390772Y-116515664D01*
X145387798Y-116513204D01*
X145369979Y-116503569D01*
X145267252Y-116448025D01*
X145213479Y-116418950D01*
X145024172Y-116360350D01*
X144827089Y-116339636D01*
X144823243Y-116339986D01*
X144823242Y-116339986D01*
X144781036Y-116343827D01*
X144629735Y-116357596D01*
X144626028Y-116358687D01*
X144443338Y-116412456D01*
X144443335Y-116412457D01*
X144439629Y-116413548D01*
X144264010Y-116505359D01*
X144261003Y-116507777D01*
X144261001Y-116507778D01*
X144186790Y-116567445D01*
X144109570Y-116629532D01*
X144107088Y-116632490D01*
X144105262Y-116634278D01*
X144056049Y-116656601D01*
X144004001Y-116642069D01*
X143973471Y-116597480D01*
X143970989Y-116577834D01*
X143970989Y-116401515D01*
X143989471Y-116350735D01*
X144028745Y-116325425D01*
X144038473Y-116322709D01*
X144038475Y-116322708D01*
X144042190Y-116321671D01*
X144064960Y-116310169D01*
X145388878Y-116310169D01*
X145389823Y-116313698D01*
X145389934Y-116313807D01*
X145434863Y-116343827D01*
X145441204Y-116347270D01*
X145620297Y-116424214D01*
X145627161Y-116426444D01*
X145817274Y-116469463D01*
X145824425Y-116470404D01*
X146019191Y-116478057D01*
X146026408Y-116477678D01*
X146219304Y-116449710D01*
X146226321Y-116448025D01*
X146410896Y-116385371D01*
X146417488Y-116382436D01*
X146534432Y-116316944D01*
X146541844Y-116308342D01*
X146541870Y-116306364D01*
X146540282Y-116303835D01*
X145974851Y-115738404D01*
X145964557Y-115733604D01*
X145958263Y-115735290D01*
X145393678Y-116299875D01*
X145388878Y-116310169D01*
X144064960Y-116310169D01*
X144187866Y-116248085D01*
X144215619Y-116234066D01*
X144215621Y-116234065D01*
X144219073Y-116232321D01*
X144375232Y-116110316D01*
X144496685Y-115969612D01*
X144502196Y-115963228D01*
X144502200Y-115963223D01*
X144504720Y-115960303D01*
X144506626Y-115956947D01*
X144506630Y-115956942D01*
X144600695Y-115791356D01*
X144602604Y-115787996D01*
X144603824Y-115784329D01*
X144663935Y-115603630D01*
X144663936Y-115603625D01*
X144665156Y-115599958D01*
X144689993Y-115403351D01*
X144690389Y-115375000D01*
X144687908Y-115349698D01*
X144860903Y-115349698D01*
X144873651Y-115544201D01*
X144874780Y-115551328D01*
X144922759Y-115740243D01*
X144925172Y-115747057D01*
X145006774Y-115924068D01*
X145010377Y-115930308D01*
X145021287Y-115945746D01*
X145030617Y-115952218D01*
X145034595Y-115951852D01*
X145601596Y-115384851D01*
X145605983Y-115375443D01*
X146323604Y-115375443D01*
X146325290Y-115381737D01*
X146890287Y-115946734D01*
X146900581Y-115951534D01*
X146902491Y-115951023D01*
X146904493Y-115948808D01*
X146972436Y-115827488D01*
X146975371Y-115820896D01*
X147038025Y-115636321D01*
X147039710Y-115629304D01*
X147067864Y-115435127D01*
X147068260Y-115430486D01*
X147069645Y-115377578D01*
X152737270Y-115377578D01*
X152756505Y-115671051D01*
X152757179Y-115676168D01*
X152814553Y-115964606D01*
X152815894Y-115969612D01*
X152910423Y-116248085D01*
X152912403Y-116252864D01*
X153042477Y-116516629D01*
X153045059Y-116521102D01*
X153208449Y-116765632D01*
X153211594Y-116769730D01*
X153232836Y-116793952D01*
X153242793Y-116799414D01*
X153248085Y-116798361D01*
X154661596Y-115384851D01*
X154666396Y-115374557D01*
X154664710Y-115368263D01*
X153251872Y-113955426D01*
X153241578Y-113950626D01*
X153236367Y-113952022D01*
X153211594Y-113980270D01*
X153208449Y-113984368D01*
X153045059Y-114228898D01*
X153042477Y-114233371D01*
X152912403Y-114497136D01*
X152910423Y-114501915D01*
X152815894Y-114780388D01*
X152814553Y-114785394D01*
X152757179Y-115073832D01*
X152756505Y-115078949D01*
X152737270Y-115372422D01*
X152737270Y-115377578D01*
X147069645Y-115377578D01*
X147069652Y-115377327D01*
X147069500Y-115372685D01*
X147051545Y-115177288D01*
X147050230Y-115170195D01*
X146997321Y-114982592D01*
X146994736Y-114975858D01*
X146908698Y-114801389D01*
X146900990Y-114796336D01*
X146896710Y-114796843D01*
X146328404Y-115365149D01*
X146323604Y-115375443D01*
X145605983Y-115375443D01*
X145606396Y-115374557D01*
X145604710Y-115368263D01*
X145038455Y-114802008D01*
X145028161Y-114797208D01*
X145026797Y-114797573D01*
X145024208Y-114800512D01*
X144946066Y-114949037D01*
X144943304Y-114955703D01*
X144885502Y-115141857D01*
X144884002Y-115148919D01*
X144861092Y-115342481D01*
X144860903Y-115349698D01*
X144687908Y-115349698D01*
X144671051Y-115177777D01*
X144613774Y-114988065D01*
X144611963Y-114984660D01*
X144611961Y-114984654D01*
X144522551Y-114816500D01*
X144520739Y-114813092D01*
X144513919Y-114804729D01*
X144397930Y-114662514D01*
X144395490Y-114659522D01*
X144383415Y-114649532D01*
X144245773Y-114535665D01*
X144245772Y-114535664D01*
X144242798Y-114533204D01*
X144224979Y-114523569D01*
X144122252Y-114468025D01*
X144074532Y-114442223D01*
X145388890Y-114442223D01*
X145388923Y-114444759D01*
X145390040Y-114446487D01*
X145955149Y-115011596D01*
X145965443Y-115016396D01*
X145971737Y-115014710D01*
X146535912Y-114450535D01*
X146544270Y-114432611D01*
X146582482Y-114394399D01*
X146636315Y-114389690D01*
X146647053Y-114393413D01*
X146765297Y-114444214D01*
X146772161Y-114446444D01*
X146962274Y-114489463D01*
X146969425Y-114490404D01*
X147164191Y-114498057D01*
X147171408Y-114497678D01*
X147364304Y-114469710D01*
X147371321Y-114468025D01*
X147555896Y-114405371D01*
X147562488Y-114402436D01*
X147679432Y-114336944D01*
X147686844Y-114328342D01*
X147686870Y-114326364D01*
X147685282Y-114323835D01*
X147119851Y-113758404D01*
X147109557Y-113753604D01*
X147103263Y-113755290D01*
X146538678Y-114319875D01*
X146531062Y-114336207D01*
X146492851Y-114374418D01*
X146439017Y-114379128D01*
X146430190Y-114376196D01*
X146282121Y-114317122D01*
X146275200Y-114315072D01*
X146084024Y-114277045D01*
X146076854Y-114276292D01*
X145881952Y-114273739D01*
X145874752Y-114274306D01*
X145682653Y-114307315D01*
X145675675Y-114309185D01*
X145492805Y-114376649D01*
X145486298Y-114379753D01*
X145396076Y-114433429D01*
X145388890Y-114442223D01*
X144074532Y-114442223D01*
X144068479Y-114438950D01*
X143879172Y-114380350D01*
X143682089Y-114359636D01*
X143678243Y-114359986D01*
X143678242Y-114359986D01*
X143670243Y-114360714D01*
X143484735Y-114377596D01*
X143481028Y-114378687D01*
X143298338Y-114432456D01*
X143298335Y-114432457D01*
X143294629Y-114433548D01*
X143291202Y-114435340D01*
X143291201Y-114435340D01*
X143279192Y-114441618D01*
X143119010Y-114525359D01*
X143116003Y-114527777D01*
X143116001Y-114527778D01*
X143106192Y-114535665D01*
X142964570Y-114649532D01*
X142953677Y-114662514D01*
X142840962Y-114796843D01*
X142837189Y-114801339D01*
X142835327Y-114804727D01*
X142835325Y-114804729D01*
X142828854Y-114816500D01*
X142741720Y-114974996D01*
X142681800Y-115163889D01*
X142659710Y-115360823D01*
X142676292Y-115558297D01*
X142730915Y-115748790D01*
X142821498Y-115925045D01*
X142944590Y-116080348D01*
X143095504Y-116208786D01*
X143268490Y-116305465D01*
X143272152Y-116306655D01*
X143272166Y-116306661D01*
X143345401Y-116330456D01*
X143387985Y-116363725D01*
X143399989Y-116405589D01*
X143399989Y-116600968D01*
X143381507Y-116651748D01*
X143334707Y-116678768D01*
X143281489Y-116669384D01*
X143259768Y-116650898D01*
X143252930Y-116642513D01*
X143252927Y-116642510D01*
X143250490Y-116639522D01*
X143244152Y-116634278D01*
X143100773Y-116515665D01*
X143100772Y-116515664D01*
X143097798Y-116513204D01*
X143079979Y-116503569D01*
X142977252Y-116448025D01*
X142923479Y-116418950D01*
X142734172Y-116360350D01*
X142537089Y-116339636D01*
X142533243Y-116339986D01*
X142533242Y-116339986D01*
X142491036Y-116343827D01*
X142339735Y-116357596D01*
X142336028Y-116358687D01*
X142153338Y-116412456D01*
X142153335Y-116412457D01*
X142149629Y-116413548D01*
X141974010Y-116505359D01*
X141971003Y-116507777D01*
X141971001Y-116507778D01*
X141894207Y-116569522D01*
X141819570Y-116629532D01*
X141692189Y-116781339D01*
X141690327Y-116784727D01*
X141690325Y-116784729D01*
X141682831Y-116798361D01*
X141596720Y-116954996D01*
X141536800Y-117143889D01*
X141514710Y-117340823D01*
X141515900Y-117355000D01*
X141529716Y-117519523D01*
X141531292Y-117538297D01*
X141585915Y-117728790D01*
X141587677Y-117732219D01*
X141587680Y-117732226D01*
X141614419Y-117784252D01*
X141621193Y-117837865D01*
X141600017Y-117876225D01*
X140854881Y-118621361D01*
X140805905Y-118644199D01*
X140799020Y-118644500D01*
X136390980Y-118644500D01*
X136340200Y-118626018D01*
X136335119Y-118621361D01*
X135054581Y-117340823D01*
X136934710Y-117340823D01*
X136935900Y-117355000D01*
X136949716Y-117519523D01*
X136951292Y-117538297D01*
X137005915Y-117728790D01*
X137096498Y-117905045D01*
X137219590Y-118060348D01*
X137370504Y-118188786D01*
X137543490Y-118285465D01*
X137547152Y-118286655D01*
X137547157Y-118286657D01*
X137658732Y-118322909D01*
X137731960Y-118346702D01*
X137735797Y-118347160D01*
X137735799Y-118347160D01*
X137924892Y-118369708D01*
X137924895Y-118369708D01*
X137928735Y-118370166D01*
X138126320Y-118354963D01*
X138317190Y-118301671D01*
X138438130Y-118240580D01*
X138490619Y-118214066D01*
X138490621Y-118214065D01*
X138494073Y-118212321D01*
X138650232Y-118090316D01*
X138695202Y-118038218D01*
X138777196Y-117943228D01*
X138777200Y-117943223D01*
X138779720Y-117940303D01*
X138781626Y-117936947D01*
X138781630Y-117936942D01*
X138875695Y-117771356D01*
X138877604Y-117767996D01*
X138889503Y-117732226D01*
X138938935Y-117583630D01*
X138938936Y-117583625D01*
X138940156Y-117579958D01*
X138964993Y-117383351D01*
X138965389Y-117355000D01*
X138963999Y-117340823D01*
X139224710Y-117340823D01*
X139225900Y-117355000D01*
X139239716Y-117519523D01*
X139241292Y-117538297D01*
X139295915Y-117728790D01*
X139386498Y-117905045D01*
X139509590Y-118060348D01*
X139660504Y-118188786D01*
X139833490Y-118285465D01*
X139837152Y-118286655D01*
X139837157Y-118286657D01*
X139948732Y-118322909D01*
X140021960Y-118346702D01*
X140025797Y-118347160D01*
X140025799Y-118347160D01*
X140214892Y-118369708D01*
X140214895Y-118369708D01*
X140218735Y-118370166D01*
X140416320Y-118354963D01*
X140607190Y-118301671D01*
X140728130Y-118240580D01*
X140780619Y-118214066D01*
X140780621Y-118214065D01*
X140784073Y-118212321D01*
X140940232Y-118090316D01*
X140985202Y-118038218D01*
X141067196Y-117943228D01*
X141067200Y-117943223D01*
X141069720Y-117940303D01*
X141071626Y-117936947D01*
X141071630Y-117936942D01*
X141165695Y-117771356D01*
X141167604Y-117767996D01*
X141179503Y-117732226D01*
X141228935Y-117583630D01*
X141228936Y-117583625D01*
X141230156Y-117579958D01*
X141254993Y-117383351D01*
X141255389Y-117355000D01*
X141236051Y-117157777D01*
X141178774Y-116968065D01*
X141176963Y-116964660D01*
X141176961Y-116964654D01*
X141087551Y-116796500D01*
X141085739Y-116793092D01*
X141078919Y-116784729D01*
X140962930Y-116642514D01*
X140962929Y-116642513D01*
X140960490Y-116639522D01*
X140954152Y-116634278D01*
X140810773Y-116515665D01*
X140810772Y-116515664D01*
X140807798Y-116513204D01*
X140789979Y-116503569D01*
X140687252Y-116448025D01*
X140633479Y-116418950D01*
X140444172Y-116360350D01*
X140247089Y-116339636D01*
X140243243Y-116339986D01*
X140243242Y-116339986D01*
X140201036Y-116343827D01*
X140049735Y-116357596D01*
X140046028Y-116358687D01*
X139863338Y-116412456D01*
X139863335Y-116412457D01*
X139859629Y-116413548D01*
X139684010Y-116505359D01*
X139681003Y-116507777D01*
X139681001Y-116507778D01*
X139604207Y-116569522D01*
X139529570Y-116629532D01*
X139402189Y-116781339D01*
X139400327Y-116784727D01*
X139400325Y-116784729D01*
X139392831Y-116798361D01*
X139306720Y-116954996D01*
X139246800Y-117143889D01*
X139224710Y-117340823D01*
X138963999Y-117340823D01*
X138946051Y-117157777D01*
X138888774Y-116968065D01*
X138886963Y-116964660D01*
X138886961Y-116964654D01*
X138797551Y-116796500D01*
X138795739Y-116793092D01*
X138788919Y-116784729D01*
X138672930Y-116642514D01*
X138672929Y-116642513D01*
X138670490Y-116639522D01*
X138664152Y-116634278D01*
X138520773Y-116515665D01*
X138520772Y-116515664D01*
X138517798Y-116513204D01*
X138499979Y-116503569D01*
X138397252Y-116448025D01*
X138343479Y-116418950D01*
X138154172Y-116360350D01*
X137957089Y-116339636D01*
X137953243Y-116339986D01*
X137953242Y-116339986D01*
X137911036Y-116343827D01*
X137759735Y-116357596D01*
X137756028Y-116358687D01*
X137573338Y-116412456D01*
X137573335Y-116412457D01*
X137569629Y-116413548D01*
X137394010Y-116505359D01*
X137391003Y-116507777D01*
X137391001Y-116507778D01*
X137314207Y-116569522D01*
X137239570Y-116629532D01*
X137112189Y-116781339D01*
X137110327Y-116784727D01*
X137110325Y-116784729D01*
X137102831Y-116798361D01*
X137016720Y-116954996D01*
X136956800Y-117143889D01*
X136934710Y-117340823D01*
X135054581Y-117340823D01*
X134918639Y-117204881D01*
X134895801Y-117155905D01*
X134895500Y-117149020D01*
X134895500Y-116310169D01*
X136228878Y-116310169D01*
X136229823Y-116313698D01*
X136229934Y-116313807D01*
X136274863Y-116343827D01*
X136281204Y-116347270D01*
X136460297Y-116424214D01*
X136467161Y-116426444D01*
X136657274Y-116469463D01*
X136664425Y-116470404D01*
X136859191Y-116478057D01*
X136866408Y-116477678D01*
X137059304Y-116449710D01*
X137066321Y-116448025D01*
X137250896Y-116385371D01*
X137257488Y-116382436D01*
X137374432Y-116316944D01*
X137380270Y-116310169D01*
X138518878Y-116310169D01*
X138519823Y-116313698D01*
X138519934Y-116313807D01*
X138564863Y-116343827D01*
X138571204Y-116347270D01*
X138750297Y-116424214D01*
X138757161Y-116426444D01*
X138947274Y-116469463D01*
X138954425Y-116470404D01*
X139149191Y-116478057D01*
X139156408Y-116477678D01*
X139349304Y-116449710D01*
X139356321Y-116448025D01*
X139540896Y-116385371D01*
X139547488Y-116382436D01*
X139664432Y-116316944D01*
X139670270Y-116310169D01*
X140808878Y-116310169D01*
X140809823Y-116313698D01*
X140809934Y-116313807D01*
X140854863Y-116343827D01*
X140861204Y-116347270D01*
X141040297Y-116424214D01*
X141047161Y-116426444D01*
X141237274Y-116469463D01*
X141244425Y-116470404D01*
X141439191Y-116478057D01*
X141446408Y-116477678D01*
X141639304Y-116449710D01*
X141646321Y-116448025D01*
X141830896Y-116385371D01*
X141837488Y-116382436D01*
X141954432Y-116316944D01*
X141961844Y-116308342D01*
X141961870Y-116306364D01*
X141960282Y-116303835D01*
X141394851Y-115738404D01*
X141384557Y-115733604D01*
X141378263Y-115735290D01*
X140813678Y-116299875D01*
X140808878Y-116310169D01*
X139670270Y-116310169D01*
X139671844Y-116308342D01*
X139671870Y-116306364D01*
X139670282Y-116303835D01*
X139104851Y-115738404D01*
X139094557Y-115733604D01*
X139088263Y-115735290D01*
X138523678Y-116299875D01*
X138518878Y-116310169D01*
X137380270Y-116310169D01*
X137381844Y-116308342D01*
X137381870Y-116306364D01*
X137380282Y-116303835D01*
X136814851Y-115738404D01*
X136804557Y-115733604D01*
X136798263Y-115735290D01*
X136233678Y-116299875D01*
X136228878Y-116310169D01*
X134895500Y-116310169D01*
X134895500Y-115349698D01*
X135700903Y-115349698D01*
X135713651Y-115544201D01*
X135714780Y-115551328D01*
X135762759Y-115740243D01*
X135765172Y-115747057D01*
X135846774Y-115924068D01*
X135850377Y-115930308D01*
X135861287Y-115945746D01*
X135870617Y-115952218D01*
X135874595Y-115951852D01*
X136441596Y-115384851D01*
X136445983Y-115375443D01*
X137163604Y-115375443D01*
X137165290Y-115381737D01*
X137730287Y-115946734D01*
X137740581Y-115951534D01*
X137742491Y-115951023D01*
X137744493Y-115948808D01*
X137812436Y-115827488D01*
X137815371Y-115820896D01*
X137877153Y-115638891D01*
X137910977Y-115596747D01*
X137963978Y-115586204D01*
X138011355Y-115612197D01*
X138028529Y-115644839D01*
X138052759Y-115740243D01*
X138055172Y-115747057D01*
X138136774Y-115924068D01*
X138140377Y-115930308D01*
X138151287Y-115945746D01*
X138160617Y-115952218D01*
X138164595Y-115951852D01*
X138731596Y-115384851D01*
X138735983Y-115375443D01*
X139453604Y-115375443D01*
X139455290Y-115381737D01*
X140020287Y-115946734D01*
X140030581Y-115951534D01*
X140032491Y-115951023D01*
X140034493Y-115948808D01*
X140102436Y-115827488D01*
X140105371Y-115820896D01*
X140167153Y-115638891D01*
X140200977Y-115596747D01*
X140253978Y-115586204D01*
X140301355Y-115612197D01*
X140318529Y-115644839D01*
X140342759Y-115740243D01*
X140345172Y-115747057D01*
X140426774Y-115924068D01*
X140430377Y-115930308D01*
X140441287Y-115945746D01*
X140450617Y-115952218D01*
X140454595Y-115951852D01*
X141021596Y-115384851D01*
X141025983Y-115375443D01*
X141743604Y-115375443D01*
X141745290Y-115381737D01*
X142310287Y-115946734D01*
X142320581Y-115951534D01*
X142322491Y-115951023D01*
X142324493Y-115948808D01*
X142392436Y-115827488D01*
X142395371Y-115820896D01*
X142458025Y-115636321D01*
X142459710Y-115629304D01*
X142487864Y-115435127D01*
X142488260Y-115430486D01*
X142489652Y-115377327D01*
X142489500Y-115372685D01*
X142471545Y-115177288D01*
X142470230Y-115170195D01*
X142417321Y-114982592D01*
X142414736Y-114975858D01*
X142328698Y-114801389D01*
X142320990Y-114796336D01*
X142316710Y-114796843D01*
X141748404Y-115365149D01*
X141743604Y-115375443D01*
X141025983Y-115375443D01*
X141026396Y-115374557D01*
X141024710Y-115368263D01*
X140458455Y-114802008D01*
X140448161Y-114797208D01*
X140446797Y-114797573D01*
X140444208Y-114800512D01*
X140366066Y-114949037D01*
X140363304Y-114955702D01*
X140314756Y-115112056D01*
X140282046Y-115155071D01*
X140229340Y-115166997D01*
X140181298Y-115142254D01*
X140163275Y-115110073D01*
X140127321Y-114982592D01*
X140124736Y-114975858D01*
X140038698Y-114801389D01*
X140030990Y-114796336D01*
X140026710Y-114796843D01*
X139458404Y-115365149D01*
X139453604Y-115375443D01*
X138735983Y-115375443D01*
X138736396Y-115374557D01*
X138734710Y-115368263D01*
X138168455Y-114802008D01*
X138158161Y-114797208D01*
X138156797Y-114797573D01*
X138154208Y-114800512D01*
X138076066Y-114949037D01*
X138073304Y-114955702D01*
X138024756Y-115112056D01*
X137992046Y-115155071D01*
X137939340Y-115166997D01*
X137891298Y-115142254D01*
X137873275Y-115110073D01*
X137837321Y-114982592D01*
X137834736Y-114975858D01*
X137748698Y-114801389D01*
X137740990Y-114796336D01*
X137736710Y-114796843D01*
X137168404Y-115365149D01*
X137163604Y-115375443D01*
X136445983Y-115375443D01*
X136446396Y-115374557D01*
X136444710Y-115368263D01*
X135878455Y-114802008D01*
X135868161Y-114797208D01*
X135866797Y-114797573D01*
X135864208Y-114800512D01*
X135786066Y-114949037D01*
X135783304Y-114955703D01*
X135725502Y-115141857D01*
X135724002Y-115148919D01*
X135701092Y-115342481D01*
X135700903Y-115349698D01*
X134895500Y-115349698D01*
X134895500Y-114442223D01*
X136228890Y-114442223D01*
X136228923Y-114444759D01*
X136230040Y-114446487D01*
X136795149Y-115011596D01*
X136805443Y-115016396D01*
X136811737Y-115014710D01*
X137385762Y-114440685D01*
X137385916Y-114440839D01*
X137413852Y-114412902D01*
X137447240Y-114405500D01*
X138450544Y-114405500D01*
X138501324Y-114423982D01*
X138516892Y-114441618D01*
X138520037Y-114446484D01*
X139085149Y-115011596D01*
X139095443Y-115016396D01*
X139101737Y-115014710D01*
X139665911Y-114450536D01*
X139669787Y-114442223D01*
X140808890Y-114442223D01*
X140808923Y-114444759D01*
X140810040Y-114446487D01*
X141375149Y-115011596D01*
X141385443Y-115016396D01*
X141391737Y-115014710D01*
X141955911Y-114450536D01*
X141960711Y-114440242D01*
X141959909Y-114437250D01*
X141959111Y-114436488D01*
X141889590Y-114392625D01*
X141883167Y-114389353D01*
X141702121Y-114317122D01*
X141695200Y-114315072D01*
X141504024Y-114277045D01*
X141496854Y-114276292D01*
X141301952Y-114273739D01*
X141294752Y-114274306D01*
X141102653Y-114307315D01*
X141095675Y-114309185D01*
X140912805Y-114376649D01*
X140906298Y-114379753D01*
X140816076Y-114433429D01*
X140808890Y-114442223D01*
X139669787Y-114442223D01*
X139670711Y-114440242D01*
X139669909Y-114437250D01*
X139669111Y-114436488D01*
X139599590Y-114392625D01*
X139593167Y-114389353D01*
X139412121Y-114317122D01*
X139405200Y-114315072D01*
X139214024Y-114277045D01*
X139206854Y-114276292D01*
X139038466Y-114274087D01*
X138987932Y-114254942D01*
X138961527Y-114207793D01*
X138960500Y-114195094D01*
X138960500Y-112815980D01*
X138978982Y-112765200D01*
X138983639Y-112760119D01*
X142005119Y-109738639D01*
X142054095Y-109715801D01*
X142060980Y-109715500D01*
X145528526Y-109715500D01*
X145533255Y-109715847D01*
X145537571Y-109717329D01*
X145584799Y-109715556D01*
X145587762Y-109715500D01*
X145606552Y-109715500D01*
X145610129Y-109714834D01*
X145612172Y-109714645D01*
X145616469Y-109714367D01*
X145636563Y-109713613D01*
X145636565Y-109713613D01*
X145643853Y-109713339D01*
X145655442Y-109708360D01*
X145672155Y-109703283D01*
X145677384Y-109702309D01*
X145677388Y-109702308D01*
X145684559Y-109700972D01*
X145707045Y-109687112D01*
X145717310Y-109681780D01*
X145719094Y-109681014D01*
X145741574Y-109671355D01*
X145746215Y-109667543D01*
X145751606Y-109662152D01*
X145766014Y-109650763D01*
X145768886Y-109648993D01*
X145768889Y-109648990D01*
X145775098Y-109645163D01*
X145792500Y-109622278D01*
X145799523Y-109614235D01*
X147765119Y-107648639D01*
X147814095Y-107625801D01*
X147820980Y-107625500D01*
X148513468Y-107625500D01*
X148564248Y-107643982D01*
X148591268Y-107690782D01*
X148581884Y-107744000D01*
X148545601Y-107776670D01*
X148436022Y-107825458D01*
X148436019Y-107825460D01*
X148432243Y-107827141D01*
X148428895Y-107829573D01*
X148428894Y-107829574D01*
X148418892Y-107836841D01*
X148277401Y-107939640D01*
X148257547Y-107961690D01*
X148169244Y-108059761D01*
X148149333Y-108081874D01*
X148147262Y-108085461D01*
X148066388Y-108225539D01*
X148053635Y-108247627D01*
X147994491Y-108429654D01*
X147994058Y-108433770D01*
X147994058Y-108433772D01*
X147976612Y-108599761D01*
X147974485Y-108620000D01*
X147974918Y-108624120D01*
X147991121Y-108778278D01*
X147994491Y-108810346D01*
X148053635Y-108992373D01*
X148055704Y-108995956D01*
X148055705Y-108995959D01*
X148142555Y-109146387D01*
X148149333Y-109158126D01*
X148152105Y-109161205D01*
X148152106Y-109161206D01*
X148224835Y-109241979D01*
X148277401Y-109300360D01*
X148432242Y-109412859D01*
X148436031Y-109414546D01*
X148603307Y-109489023D01*
X148603310Y-109489024D01*
X148607090Y-109490707D01*
X148611133Y-109491566D01*
X148611138Y-109491568D01*
X148790259Y-109529641D01*
X148790264Y-109529642D01*
X148794303Y-109530500D01*
X148985697Y-109530500D01*
X148989736Y-109529642D01*
X148989741Y-109529641D01*
X149168862Y-109491568D01*
X149168867Y-109491566D01*
X149172910Y-109490707D01*
X149176690Y-109489024D01*
X149176693Y-109489023D01*
X149343969Y-109414546D01*
X149347758Y-109412859D01*
X149502599Y-109300360D01*
X149555165Y-109241979D01*
X149627894Y-109161206D01*
X149627895Y-109161205D01*
X149630667Y-109158126D01*
X149637445Y-109146387D01*
X149724295Y-108995959D01*
X149724296Y-108995956D01*
X149726365Y-108992373D01*
X149785509Y-108810346D01*
X149788880Y-108778278D01*
X149805082Y-108624120D01*
X149805515Y-108620000D01*
X149803388Y-108599761D01*
X149785942Y-108433772D01*
X149785942Y-108433770D01*
X149785509Y-108429654D01*
X149726365Y-108247627D01*
X149713613Y-108225539D01*
X149632738Y-108085461D01*
X149630667Y-108081874D01*
X149610757Y-108059761D01*
X149522453Y-107961690D01*
X149502599Y-107939640D01*
X149347758Y-107827141D01*
X149234399Y-107776670D01*
X149195526Y-107739131D01*
X149189878Y-107685388D01*
X149220096Y-107640588D01*
X149266531Y-107625500D01*
X149598526Y-107625500D01*
X149603255Y-107625847D01*
X149607571Y-107627329D01*
X149654799Y-107625556D01*
X149657762Y-107625500D01*
X149676552Y-107625500D01*
X149680129Y-107624834D01*
X149682172Y-107624645D01*
X149686469Y-107624367D01*
X149706563Y-107623613D01*
X149706565Y-107623613D01*
X149713853Y-107623339D01*
X149725442Y-107618360D01*
X149742155Y-107613283D01*
X149747384Y-107612309D01*
X149747388Y-107612308D01*
X149754559Y-107610972D01*
X149777045Y-107597112D01*
X149787310Y-107591780D01*
X149799038Y-107586741D01*
X149811574Y-107581355D01*
X149816215Y-107577543D01*
X149821606Y-107572152D01*
X149836014Y-107560763D01*
X149838886Y-107558993D01*
X149838889Y-107558990D01*
X149845098Y-107555163D01*
X149862500Y-107532278D01*
X149869523Y-107524235D01*
X150725476Y-106668282D01*
X150729071Y-106665178D01*
X150733171Y-106663174D01*
X150765331Y-106628505D01*
X150767388Y-106626370D01*
X150780654Y-106613104D01*
X150782716Y-106610098D01*
X150784010Y-106608541D01*
X150786852Y-106605305D01*
X150800540Y-106590549D01*
X150805502Y-106585200D01*
X150810177Y-106573483D01*
X150818405Y-106558074D01*
X150821412Y-106553690D01*
X150821413Y-106553689D01*
X150825540Y-106547672D01*
X150831638Y-106521977D01*
X150835127Y-106510946D01*
X150842846Y-106491598D01*
X150842846Y-106491597D01*
X150844914Y-106486414D01*
X150845500Y-106480437D01*
X150845500Y-106472808D01*
X150847635Y-106454567D01*
X150848413Y-106451288D01*
X150850098Y-106444188D01*
X150846222Y-106415709D01*
X150845500Y-106405055D01*
X150845500Y-102721481D01*
X150845848Y-102716747D01*
X150847330Y-102712429D01*
X150845556Y-102665186D01*
X150845500Y-102662222D01*
X150845500Y-102643448D01*
X150844834Y-102639874D01*
X150844647Y-102637843D01*
X150844368Y-102633545D01*
X150843613Y-102613434D01*
X150843613Y-102613432D01*
X150843339Y-102606147D01*
X150838359Y-102594554D01*
X150833282Y-102577846D01*
X150830972Y-102565441D01*
X150817117Y-102542964D01*
X150811782Y-102532694D01*
X150810876Y-102530585D01*
X150801356Y-102508426D01*
X150797544Y-102503786D01*
X150792152Y-102498394D01*
X150780763Y-102483986D01*
X150778993Y-102481114D01*
X150778990Y-102481111D01*
X150775163Y-102474902D01*
X150752279Y-102457500D01*
X150744235Y-102450477D01*
X149745825Y-101452067D01*
X149722987Y-101403091D01*
X149726553Y-101371794D01*
X149785509Y-101190346D01*
X149786021Y-101185481D01*
X149805082Y-101004120D01*
X149805515Y-101000000D01*
X149795038Y-100900314D01*
X149785942Y-100813772D01*
X149785942Y-100813770D01*
X149785509Y-100809654D01*
X149726365Y-100627627D01*
X149682627Y-100551870D01*
X149632738Y-100465461D01*
X149630667Y-100461874D01*
X149606020Y-100434500D01*
X149505373Y-100322721D01*
X149502599Y-100319640D01*
X149347758Y-100207141D01*
X149244080Y-100160980D01*
X149176693Y-100130977D01*
X149176690Y-100130976D01*
X149172910Y-100129293D01*
X149168867Y-100128434D01*
X149168862Y-100128432D01*
X148989741Y-100090359D01*
X148989736Y-100090358D01*
X148985697Y-100089500D01*
X148794303Y-100089500D01*
X148790264Y-100090358D01*
X148790259Y-100090359D01*
X148611135Y-100128433D01*
X148611133Y-100128434D01*
X148607090Y-100129293D01*
X148603313Y-100130975D01*
X148603312Y-100130975D01*
X148436022Y-100205458D01*
X148436019Y-100205460D01*
X148432243Y-100207141D01*
X148277401Y-100319640D01*
X148274627Y-100322721D01*
X148173981Y-100434500D01*
X148149333Y-100461874D01*
X148147262Y-100465461D01*
X148097374Y-100551870D01*
X148053635Y-100627627D01*
X147994491Y-100809654D01*
X147994058Y-100813770D01*
X147994058Y-100813772D01*
X147984962Y-100900314D01*
X147974485Y-101000000D01*
X147974918Y-101004120D01*
X147993980Y-101185481D01*
X147994491Y-101190346D01*
X148053635Y-101372373D01*
X148055704Y-101375956D01*
X148055705Y-101375959D01*
X148101946Y-101456050D01*
X148149333Y-101538126D01*
X148277401Y-101680360D01*
X148432242Y-101792859D01*
X148436031Y-101794546D01*
X148603307Y-101869023D01*
X148603310Y-101869024D01*
X148607090Y-101870707D01*
X148611133Y-101871566D01*
X148611138Y-101871568D01*
X148790259Y-101909641D01*
X148790264Y-101909642D01*
X148794303Y-101910500D01*
X148985697Y-101910500D01*
X148989736Y-101909642D01*
X148989741Y-101909641D01*
X149168865Y-101871567D01*
X149168867Y-101871566D01*
X149172910Y-101870707D01*
X149181021Y-101867096D01*
X149250651Y-101836094D01*
X149304559Y-101832324D01*
X149338645Y-101852403D01*
X150251361Y-102765119D01*
X150274199Y-102814095D01*
X150274500Y-102820980D01*
X150274500Y-106279020D01*
X150256018Y-106329800D01*
X150251361Y-106334881D01*
X149554881Y-107031361D01*
X149505905Y-107054199D01*
X149499020Y-107054500D01*
X149311452Y-107054500D01*
X149260672Y-107036018D01*
X149233652Y-106989218D01*
X149243036Y-106936000D01*
X149279318Y-106903331D01*
X149347758Y-106872859D01*
X149502599Y-106760360D01*
X149590106Y-106663174D01*
X149627894Y-106621206D01*
X149627895Y-106621205D01*
X149630667Y-106618126D01*
X149632738Y-106614539D01*
X149724295Y-106455959D01*
X149724296Y-106455956D01*
X149726365Y-106452373D01*
X149785509Y-106270346D01*
X149790658Y-106221361D01*
X149805082Y-106084120D01*
X149805515Y-106080000D01*
X149803925Y-106064874D01*
X149785942Y-105893772D01*
X149785942Y-105893770D01*
X149785509Y-105889654D01*
X149726365Y-105707627D01*
X149630667Y-105541874D01*
X149502599Y-105399640D01*
X149347758Y-105287141D01*
X149294584Y-105263466D01*
X149176693Y-105210977D01*
X149176690Y-105210976D01*
X149172910Y-105209293D01*
X149168867Y-105208434D01*
X149168862Y-105208432D01*
X148989741Y-105170359D01*
X148989736Y-105170358D01*
X148985697Y-105169500D01*
X148794303Y-105169500D01*
X148790264Y-105170358D01*
X148790259Y-105170359D01*
X148611135Y-105208433D01*
X148611133Y-105208434D01*
X148607090Y-105209293D01*
X148603313Y-105210975D01*
X148603312Y-105210975D01*
X148436022Y-105285458D01*
X148436019Y-105285460D01*
X148432243Y-105287141D01*
X148428895Y-105289573D01*
X148428894Y-105289574D01*
X148379446Y-105325500D01*
X148277401Y-105399640D01*
X148149333Y-105541874D01*
X148053635Y-105707627D01*
X147994491Y-105889654D01*
X147994058Y-105893770D01*
X147994058Y-105893772D01*
X147976075Y-106064874D01*
X147974485Y-106080000D01*
X147974918Y-106084120D01*
X147989343Y-106221361D01*
X147994491Y-106270346D01*
X148053635Y-106452373D01*
X148055704Y-106455956D01*
X148055705Y-106455959D01*
X148147262Y-106614539D01*
X148149333Y-106618126D01*
X148152105Y-106621205D01*
X148152106Y-106621206D01*
X148189894Y-106663174D01*
X148277401Y-106760360D01*
X148432242Y-106872859D01*
X148500682Y-106903330D01*
X148539553Y-106940869D01*
X148545201Y-106994612D01*
X148514983Y-107039413D01*
X148468548Y-107054500D01*
X147721473Y-107054500D01*
X147716744Y-107054153D01*
X147712428Y-107052671D01*
X147665201Y-107054444D01*
X147662237Y-107054500D01*
X147643448Y-107054500D01*
X147639871Y-107055166D01*
X147637828Y-107055355D01*
X147633531Y-107055633D01*
X147613437Y-107056387D01*
X147613435Y-107056387D01*
X147606147Y-107056661D01*
X147594558Y-107061640D01*
X147577845Y-107066717D01*
X147572616Y-107067691D01*
X147572612Y-107067692D01*
X147565441Y-107069028D01*
X147546354Y-107080793D01*
X147542955Y-107082888D01*
X147532690Y-107088220D01*
X147508426Y-107098645D01*
X147503785Y-107102457D01*
X147498394Y-107107848D01*
X147483986Y-107119237D01*
X147481114Y-107121007D01*
X147481111Y-107121010D01*
X147474902Y-107124837D01*
X147470486Y-107130645D01*
X147457500Y-107147722D01*
X147450477Y-107155765D01*
X145484881Y-109121361D01*
X145435905Y-109144199D01*
X145429020Y-109144500D01*
X141961481Y-109144500D01*
X141956747Y-109144152D01*
X141952429Y-109142670D01*
X141906951Y-109144378D01*
X141905186Y-109144444D01*
X141902222Y-109144500D01*
X141883448Y-109144500D01*
X141879874Y-109145166D01*
X141877843Y-109145353D01*
X141873548Y-109145632D01*
X141869066Y-109145800D01*
X141853434Y-109146387D01*
X141853432Y-109146387D01*
X141846147Y-109146661D01*
X141834554Y-109151641D01*
X141817846Y-109156718D01*
X141805441Y-109159028D01*
X141782964Y-109172883D01*
X141772695Y-109178217D01*
X141748426Y-109188644D01*
X141743786Y-109192456D01*
X141738394Y-109197848D01*
X141723986Y-109209237D01*
X141721114Y-109211007D01*
X141721111Y-109211010D01*
X141714902Y-109214837D01*
X141706167Y-109226324D01*
X141697500Y-109237722D01*
X141690477Y-109245765D01*
X138574881Y-112361361D01*
X138525905Y-112384199D01*
X138519020Y-112384500D01*
X137084194Y-112384500D01*
X137068941Y-112387534D01*
X137045006Y-112392295D01*
X137045005Y-112392295D01*
X137037376Y-112393813D01*
X137030906Y-112398136D01*
X137025880Y-112401494D01*
X136984286Y-112429286D01*
X136979965Y-112435753D01*
X136959430Y-112466487D01*
X136948813Y-112482376D01*
X136939500Y-112529194D01*
X136939500Y-114196547D01*
X136921018Y-114247327D01*
X136874218Y-114274347D01*
X136859466Y-114275540D01*
X136721952Y-114273739D01*
X136714752Y-114274306D01*
X136522653Y-114307315D01*
X136515675Y-114309185D01*
X136332805Y-114376649D01*
X136326298Y-114379753D01*
X136236076Y-114433429D01*
X136228890Y-114442223D01*
X134895500Y-114442223D01*
X134895500Y-113620980D01*
X134913982Y-113570200D01*
X134918639Y-113565119D01*
X136415119Y-112068639D01*
X136464095Y-112045801D01*
X136470980Y-112045500D01*
X137488526Y-112045500D01*
X137493255Y-112045847D01*
X137497571Y-112047329D01*
X137544799Y-112045556D01*
X137547762Y-112045500D01*
X137566552Y-112045500D01*
X137570129Y-112044834D01*
X137572172Y-112044645D01*
X137576469Y-112044367D01*
X137596563Y-112043613D01*
X137596565Y-112043613D01*
X137603853Y-112043339D01*
X137615442Y-112038360D01*
X137632155Y-112033283D01*
X137637384Y-112032309D01*
X137637388Y-112032308D01*
X137644559Y-112030972D01*
X137667045Y-112017112D01*
X137677310Y-112011780D01*
X137679094Y-112011014D01*
X137701574Y-112001355D01*
X137706215Y-111997543D01*
X137711606Y-111992152D01*
X137726014Y-111980763D01*
X137728886Y-111978993D01*
X137728889Y-111978990D01*
X137735098Y-111975163D01*
X137752500Y-111952278D01*
X137759523Y-111944235D01*
X140970953Y-108732805D01*
X141019929Y-108709967D01*
X141028261Y-108709679D01*
X141138120Y-108711692D01*
X141138121Y-108711692D01*
X141143747Y-108711795D01*
X141284829Y-108673332D01*
X141384116Y-108612370D01*
X141404652Y-108599761D01*
X141409445Y-108596818D01*
X141413218Y-108592650D01*
X141413220Y-108592648D01*
X141503799Y-108492577D01*
X141503800Y-108492576D01*
X141507576Y-108488404D01*
X141571335Y-108356805D01*
X141573577Y-108343483D01*
X141595090Y-108215610D01*
X141595090Y-108215607D01*
X141595596Y-108212601D01*
X141595750Y-108200000D01*
X141583391Y-108113699D01*
X142294288Y-108113699D01*
X142297049Y-108134813D01*
X142311802Y-108247627D01*
X142313249Y-108258695D01*
X142372143Y-108392542D01*
X142402536Y-108428699D01*
X142420219Y-108468024D01*
X142424036Y-108493950D01*
X142424930Y-108500026D01*
X142477824Y-108607757D01*
X142482445Y-108612370D01*
X142499329Y-108629225D01*
X142562762Y-108692547D01*
X142670585Y-108745253D01*
X142696775Y-108749074D01*
X142738001Y-108755088D01*
X142738006Y-108755088D01*
X142740828Y-108755500D01*
X143209172Y-108755500D01*
X143280026Y-108745070D01*
X143387757Y-108692176D01*
X143472547Y-108607238D01*
X143525253Y-108499415D01*
X143533178Y-108445088D01*
X143535088Y-108431999D01*
X143535088Y-108431994D01*
X143535500Y-108429172D01*
X144064500Y-108429172D01*
X144074930Y-108500026D01*
X144127824Y-108607757D01*
X144132445Y-108612370D01*
X144149329Y-108629225D01*
X144212762Y-108692547D01*
X144320585Y-108745253D01*
X144346775Y-108749074D01*
X144388001Y-108755088D01*
X144388006Y-108755088D01*
X144390828Y-108755500D01*
X144653912Y-108755500D01*
X144666467Y-108757426D01*
X144666611Y-108756538D01*
X144672172Y-108757439D01*
X144677541Y-108759116D01*
X144736560Y-108760197D01*
X144818120Y-108761692D01*
X144818121Y-108761692D01*
X144823747Y-108761795D01*
X144836632Y-108758282D01*
X144853430Y-108756033D01*
X144853406Y-108755711D01*
X144856287Y-108755500D01*
X144859172Y-108755500D01*
X144930026Y-108745070D01*
X145037757Y-108692176D01*
X145049912Y-108680000D01*
X145066281Y-108663603D01*
X145080855Y-108652092D01*
X145084649Y-108649763D01*
X145084651Y-108649761D01*
X145089445Y-108646818D01*
X145093219Y-108642648D01*
X145093222Y-108642646D01*
X145183799Y-108542577D01*
X145183800Y-108542576D01*
X145187576Y-108538404D01*
X145251335Y-108406805D01*
X145254995Y-108385054D01*
X145275090Y-108265610D01*
X145275090Y-108265607D01*
X145275596Y-108262601D01*
X145275750Y-108250000D01*
X145264338Y-108170314D01*
X145255818Y-108110816D01*
X145255817Y-108110814D01*
X145255020Y-108105246D01*
X145246025Y-108085461D01*
X145194495Y-107972129D01*
X145195765Y-107971551D01*
X145185500Y-107936444D01*
X145185500Y-107810828D01*
X145175070Y-107739974D01*
X145122176Y-107632243D01*
X145113257Y-107623339D01*
X145041857Y-107552064D01*
X145037238Y-107547453D01*
X144929415Y-107494747D01*
X144903225Y-107490926D01*
X144861999Y-107484912D01*
X144861994Y-107484912D01*
X144859172Y-107484500D01*
X144390828Y-107484500D01*
X144319974Y-107494930D01*
X144212243Y-107547824D01*
X144127453Y-107632762D01*
X144074747Y-107740585D01*
X144073862Y-107746653D01*
X144064916Y-107807978D01*
X144064500Y-107810828D01*
X144064500Y-108429172D01*
X143535500Y-108429172D01*
X143535500Y-107810828D01*
X143525070Y-107739974D01*
X143472176Y-107632243D01*
X143463257Y-107623339D01*
X143391857Y-107552064D01*
X143387238Y-107547453D01*
X143279415Y-107494747D01*
X143253225Y-107490926D01*
X143211999Y-107484912D01*
X143211994Y-107484912D01*
X143209172Y-107484500D01*
X142740828Y-107484500D01*
X142669974Y-107494930D01*
X142562243Y-107547824D01*
X142477453Y-107632762D01*
X142424747Y-107740585D01*
X142423862Y-107746650D01*
X142423862Y-107746651D01*
X142420386Y-107770480D01*
X142401426Y-107811372D01*
X142378932Y-107836841D01*
X142316786Y-107969209D01*
X142302522Y-108060816D01*
X142296495Y-108099528D01*
X142294288Y-108113699D01*
X141583391Y-108113699D01*
X141582594Y-108108136D01*
X141575818Y-108060816D01*
X141575817Y-108060814D01*
X141575020Y-108055246D01*
X141569959Y-108044114D01*
X141516827Y-107927257D01*
X141516826Y-107927255D01*
X141514495Y-107922129D01*
X141510820Y-107917864D01*
X141510818Y-107917861D01*
X141422716Y-107815615D01*
X141419041Y-107811350D01*
X141365536Y-107776670D01*
X141301054Y-107734874D01*
X141301051Y-107734872D01*
X141296332Y-107731814D01*
X141221720Y-107709500D01*
X141161621Y-107691526D01*
X141161619Y-107691526D01*
X141156233Y-107689915D01*
X141083711Y-107689472D01*
X141015630Y-107689056D01*
X141015628Y-107689056D01*
X141010005Y-107689022D01*
X140869404Y-107729206D01*
X140745732Y-107807237D01*
X140742011Y-107811450D01*
X140742010Y-107811451D01*
X140652658Y-107912622D01*
X140648932Y-107916841D01*
X140586786Y-108049209D01*
X140574392Y-108128809D01*
X140567699Y-108171795D01*
X140564288Y-108193699D01*
X140573461Y-108263844D01*
X140575231Y-108277378D01*
X140563489Y-108330126D01*
X140552759Y-108343483D01*
X137444881Y-111451361D01*
X137395905Y-111474199D01*
X137389020Y-111474500D01*
X136371473Y-111474500D01*
X136366744Y-111474153D01*
X136362428Y-111472671D01*
X136315201Y-111474444D01*
X136312237Y-111474500D01*
X136293448Y-111474500D01*
X136289871Y-111475166D01*
X136287828Y-111475355D01*
X136283531Y-111475633D01*
X136263437Y-111476387D01*
X136263435Y-111476387D01*
X136256147Y-111476661D01*
X136244558Y-111481640D01*
X136227845Y-111486717D01*
X136222616Y-111487691D01*
X136222612Y-111487692D01*
X136215441Y-111489028D01*
X136196354Y-111500793D01*
X136192955Y-111502888D01*
X136182690Y-111508220D01*
X136158426Y-111518645D01*
X136153785Y-111522457D01*
X136148394Y-111527848D01*
X136133986Y-111539237D01*
X136131114Y-111541007D01*
X136131111Y-111541010D01*
X136124902Y-111544837D01*
X136120486Y-111550645D01*
X136107500Y-111567722D01*
X136100477Y-111575765D01*
X134444524Y-113231718D01*
X134440929Y-113234822D01*
X134436829Y-113236826D01*
X134431869Y-113242173D01*
X134404669Y-113271495D01*
X134402612Y-113273630D01*
X134389346Y-113286896D01*
X134387284Y-113289902D01*
X134385990Y-113291459D01*
X134383149Y-113294694D01*
X134364498Y-113314800D01*
X134361795Y-113321576D01*
X134359825Y-113326513D01*
X134351596Y-113341925D01*
X134344459Y-113352328D01*
X134340337Y-113369698D01*
X134338361Y-113378027D01*
X134334872Y-113389058D01*
X134325086Y-113413586D01*
X134324500Y-113419563D01*
X134324500Y-113427193D01*
X134322365Y-113445432D01*
X134319902Y-113455812D01*
X134320886Y-113463042D01*
X134320886Y-113463043D01*
X134323778Y-113484291D01*
X134324500Y-113494945D01*
X134324500Y-117248526D01*
X134324153Y-117253255D01*
X134322671Y-117257571D01*
X134322945Y-117264862D01*
X134324444Y-117304798D01*
X134324500Y-117307762D01*
X134324500Y-117326552D01*
X134325166Y-117330129D01*
X134325355Y-117332172D01*
X134325633Y-117336469D01*
X134326329Y-117355000D01*
X134326661Y-117363853D01*
X134331640Y-117375442D01*
X134336717Y-117392155D01*
X134337691Y-117397384D01*
X134337692Y-117397388D01*
X134339028Y-117404559D01*
X134342855Y-117410767D01*
X134352888Y-117427045D01*
X134358220Y-117437310D01*
X134368645Y-117461574D01*
X134372457Y-117466215D01*
X134377848Y-117471606D01*
X134389237Y-117486014D01*
X134391007Y-117488886D01*
X134391010Y-117488889D01*
X134394837Y-117495098D01*
X134415782Y-117511025D01*
X134417722Y-117512500D01*
X134425765Y-117519523D01*
X136001718Y-119095476D01*
X136004822Y-119099071D01*
X136006826Y-119103171D01*
X136012173Y-119108131D01*
X136041495Y-119135331D01*
X136043630Y-119137388D01*
X136056896Y-119150654D01*
X136059902Y-119152716D01*
X136061459Y-119154010D01*
X136064694Y-119156851D01*
X136084800Y-119175502D01*
X136091576Y-119178205D01*
X136091577Y-119178206D01*
X136096517Y-119180177D01*
X136111926Y-119188405D01*
X136116310Y-119191412D01*
X136122328Y-119195540D01*
X136129424Y-119197224D01*
X136129426Y-119197225D01*
X136148023Y-119201638D01*
X136159054Y-119205127D01*
X136172422Y-119210460D01*
X136183586Y-119214914D01*
X136189563Y-119215500D01*
X136197192Y-119215500D01*
X136215434Y-119217635D01*
X136225812Y-119220098D01*
X136233042Y-119219114D01*
X136233043Y-119219114D01*
X136254291Y-119216222D01*
X136264945Y-119215500D01*
X140898526Y-119215500D01*
X140903255Y-119215847D01*
X140907571Y-119217329D01*
X140954799Y-119215556D01*
X140957762Y-119215500D01*
X140976552Y-119215500D01*
X140980129Y-119214834D01*
X140982172Y-119214645D01*
X140986469Y-119214367D01*
X141006563Y-119213613D01*
X141006565Y-119213613D01*
X141013853Y-119213339D01*
X141025442Y-119208360D01*
X141042155Y-119203283D01*
X141047384Y-119202309D01*
X141047388Y-119202308D01*
X141054559Y-119200972D01*
X141077045Y-119187112D01*
X141087310Y-119181780D01*
X141101922Y-119175502D01*
X141111574Y-119171355D01*
X141116215Y-119167543D01*
X141121606Y-119162152D01*
X141136014Y-119150763D01*
X141138886Y-119148993D01*
X141138889Y-119148990D01*
X141145098Y-119145163D01*
X141162500Y-119122278D01*
X141169523Y-119114235D01*
X142000930Y-118282828D01*
X142049906Y-118259990D01*
X142095332Y-118269728D01*
X142123490Y-118285465D01*
X142127152Y-118286655D01*
X142127157Y-118286657D01*
X142238732Y-118322909D01*
X142311960Y-118346702D01*
X142315797Y-118347160D01*
X142315799Y-118347160D01*
X142504892Y-118369708D01*
X142504895Y-118369708D01*
X142508735Y-118370166D01*
X142706320Y-118354963D01*
X142897190Y-118301671D01*
X143018130Y-118240580D01*
X143070619Y-118214066D01*
X143070621Y-118214065D01*
X143074073Y-118212321D01*
X143230232Y-118090316D01*
X143253943Y-118062847D01*
X143261187Y-118054455D01*
X143308359Y-118028092D01*
X143361441Y-118038218D01*
X143395595Y-118080096D01*
X143399989Y-118106076D01*
X143399989Y-118373531D01*
X143381507Y-118424311D01*
X143376850Y-118429392D01*
X142394881Y-119411361D01*
X142345905Y-119434199D01*
X142339020Y-119434500D01*
X135030980Y-119434500D01*
X134980200Y-119416018D01*
X134975119Y-119411361D01*
X133768639Y-118204881D01*
X133745801Y-118155905D01*
X133745500Y-118149020D01*
X133745500Y-113251473D01*
X133745847Y-113246744D01*
X133747329Y-113242428D01*
X133745556Y-113195200D01*
X133745500Y-113192237D01*
X133745500Y-113173448D01*
X133744834Y-113169871D01*
X133744645Y-113167828D01*
X133744367Y-113163531D01*
X133743613Y-113143437D01*
X133743613Y-113143435D01*
X133743339Y-113136147D01*
X133738360Y-113124558D01*
X133733283Y-113107845D01*
X133732309Y-113102616D01*
X133732308Y-113102612D01*
X133730972Y-113095441D01*
X133717112Y-113072955D01*
X133711780Y-113062690D01*
X133703555Y-113043547D01*
X133701355Y-113038426D01*
X133697543Y-113033785D01*
X133692152Y-113028394D01*
X133680763Y-113013986D01*
X133678993Y-113011114D01*
X133678990Y-113011111D01*
X133675163Y-113004902D01*
X133652279Y-112987500D01*
X133644235Y-112980477D01*
X132508282Y-111844524D01*
X132505178Y-111840929D01*
X132503174Y-111836829D01*
X132468505Y-111804669D01*
X132466370Y-111802612D01*
X132453104Y-111789346D01*
X132450098Y-111787284D01*
X132448541Y-111785990D01*
X132445305Y-111783148D01*
X132430549Y-111769460D01*
X132425200Y-111764498D01*
X132413487Y-111759825D01*
X132398075Y-111751596D01*
X132387672Y-111744459D01*
X132361973Y-111738361D01*
X132350942Y-111734872D01*
X132326414Y-111725086D01*
X132320437Y-111724500D01*
X132312807Y-111724500D01*
X132294568Y-111722365D01*
X132284188Y-111719902D01*
X132276958Y-111720886D01*
X132276957Y-111720886D01*
X132255709Y-111723778D01*
X132245055Y-111724500D01*
X130690980Y-111724500D01*
X130640200Y-111706018D01*
X130635119Y-111701361D01*
X130160106Y-111226348D01*
X130137268Y-111177372D01*
X130138062Y-111157384D01*
X130145596Y-111112601D01*
X130145750Y-111100000D01*
X130137416Y-111041805D01*
X130125818Y-110960816D01*
X130125817Y-110960814D01*
X130125020Y-110955246D01*
X130080709Y-110857789D01*
X130066827Y-110827257D01*
X130066826Y-110827255D01*
X130064495Y-110822129D01*
X130060820Y-110817864D01*
X130060818Y-110817861D01*
X129972716Y-110715615D01*
X129969041Y-110711350D01*
X129958064Y-110704235D01*
X129951530Y-110699999D01*
X129918972Y-110656870D01*
X129915500Y-110633708D01*
X129915500Y-108149172D01*
X130094500Y-108149172D01*
X130104930Y-108220026D01*
X130157824Y-108327757D01*
X130242762Y-108412547D01*
X130350585Y-108465253D01*
X130376775Y-108469074D01*
X130418001Y-108475088D01*
X130418006Y-108475088D01*
X130420828Y-108475500D01*
X130439020Y-108475500D01*
X130489800Y-108493982D01*
X130494881Y-108498639D01*
X130550151Y-108553909D01*
X130572989Y-108602885D01*
X130572350Y-108621919D01*
X130564288Y-108673699D01*
X130572793Y-108738735D01*
X130561051Y-108791483D01*
X130546790Y-108806790D01*
X130546829Y-108806826D01*
X130514669Y-108841495D01*
X130512612Y-108843630D01*
X130499346Y-108856896D01*
X130497284Y-108859902D01*
X130495990Y-108861459D01*
X130493149Y-108864694D01*
X130474498Y-108884800D01*
X130471795Y-108891576D01*
X130469825Y-108896513D01*
X130461596Y-108911925D01*
X130454459Y-108922328D01*
X130449191Y-108944528D01*
X130448361Y-108948027D01*
X130444872Y-108959058D01*
X130435086Y-108983585D01*
X130434961Y-108983535D01*
X130406482Y-109026273D01*
X130387991Y-109035610D01*
X130387691Y-109035654D01*
X130272489Y-109092216D01*
X130181819Y-109183044D01*
X130125459Y-109298344D01*
X130119307Y-109340517D01*
X130116039Y-109362918D01*
X130114500Y-109373465D01*
X130114501Y-109946534D01*
X130125654Y-110022309D01*
X130128360Y-110027819D01*
X130128360Y-110027821D01*
X130156113Y-110084346D01*
X130182216Y-110137511D01*
X130273044Y-110228181D01*
X130388344Y-110284541D01*
X130426909Y-110290167D01*
X130460638Y-110295088D01*
X130460644Y-110295088D01*
X130463465Y-110295500D01*
X130723861Y-110295500D01*
X130986534Y-110295499D01*
X131062309Y-110284346D01*
X131067819Y-110281640D01*
X131067821Y-110281640D01*
X131139809Y-110246295D01*
X131177511Y-110227784D01*
X131268181Y-110136956D01*
X131324541Y-110021656D01*
X131330693Y-109979483D01*
X131334581Y-109952836D01*
X131575000Y-109952836D01*
X131575230Y-109957082D01*
X131580775Y-110008126D01*
X131583048Y-110017684D01*
X131627096Y-110135183D01*
X131632445Y-110144954D01*
X131707299Y-110244832D01*
X131715168Y-110252701D01*
X131815046Y-110327555D01*
X131824817Y-110332904D01*
X131942316Y-110376952D01*
X131951874Y-110379225D01*
X132002918Y-110384770D01*
X132007164Y-110385000D01*
X132011070Y-110385000D01*
X132021741Y-110381116D01*
X132025000Y-110375472D01*
X132025000Y-110371070D01*
X132525000Y-110371070D01*
X132528884Y-110381741D01*
X132534528Y-110385000D01*
X132542836Y-110385000D01*
X132547082Y-110384770D01*
X132598126Y-110379225D01*
X132607684Y-110376952D01*
X132725183Y-110332904D01*
X132734954Y-110327555D01*
X132834832Y-110252701D01*
X132842701Y-110244832D01*
X132917555Y-110144954D01*
X132922904Y-110135183D01*
X132966952Y-110017684D01*
X132969225Y-110008126D01*
X132974770Y-109957082D01*
X132975000Y-109952836D01*
X132975000Y-109923930D01*
X132971116Y-109913259D01*
X132965472Y-109910000D01*
X132538930Y-109910000D01*
X132528259Y-109913884D01*
X132525000Y-109919528D01*
X132525000Y-110371070D01*
X132025000Y-110371070D01*
X132025000Y-109923930D01*
X132021116Y-109913259D01*
X132015472Y-109910000D01*
X131588930Y-109910000D01*
X131578259Y-109913884D01*
X131575000Y-109919528D01*
X131575000Y-109952836D01*
X131334581Y-109952836D01*
X131335088Y-109949362D01*
X131335088Y-109949356D01*
X131335500Y-109946535D01*
X131335499Y-109396070D01*
X131575000Y-109396070D01*
X131578884Y-109406741D01*
X131584528Y-109410000D01*
X132011070Y-109410000D01*
X132021741Y-109406116D01*
X132025000Y-109400472D01*
X132025000Y-109396070D01*
X132525000Y-109396070D01*
X132528884Y-109406741D01*
X132534528Y-109410000D01*
X132961070Y-109410000D01*
X132971741Y-109406116D01*
X132975000Y-109400472D01*
X132975000Y-109367164D01*
X132974770Y-109362918D01*
X132969225Y-109311874D01*
X132966952Y-109302316D01*
X132937392Y-109223465D01*
X133364500Y-109223465D01*
X133364501Y-109746534D01*
X133375654Y-109822309D01*
X133378360Y-109827819D01*
X133378360Y-109827821D01*
X133413387Y-109899161D01*
X133432216Y-109937511D01*
X133523044Y-110028181D01*
X133638344Y-110084541D01*
X133680517Y-110090693D01*
X133710638Y-110095088D01*
X133710644Y-110095088D01*
X133713465Y-110095500D01*
X133998752Y-110095500D01*
X134286534Y-110095499D01*
X134362309Y-110084346D01*
X134367819Y-110081640D01*
X134367821Y-110081640D01*
X134471649Y-110030662D01*
X134471648Y-110030662D01*
X134477511Y-110027784D01*
X134482977Y-110022309D01*
X134563568Y-109941577D01*
X134568181Y-109936956D01*
X134624541Y-109821656D01*
X134625426Y-109815593D01*
X134626792Y-109811172D01*
X134659445Y-109768114D01*
X134702269Y-109755500D01*
X135005501Y-109755500D01*
X135056281Y-109773982D01*
X135083301Y-109820782D01*
X135084501Y-109834500D01*
X135084501Y-109946534D01*
X135095654Y-110022309D01*
X135098360Y-110027819D01*
X135098360Y-110027821D01*
X135126113Y-110084346D01*
X135152216Y-110137511D01*
X135243044Y-110228181D01*
X135358344Y-110284541D01*
X135396909Y-110290167D01*
X135430638Y-110295088D01*
X135430644Y-110295088D01*
X135433465Y-110295500D01*
X135693861Y-110295500D01*
X135956534Y-110295499D01*
X136032309Y-110284346D01*
X136037819Y-110281640D01*
X136037821Y-110281640D01*
X136109809Y-110246295D01*
X136147511Y-110227784D01*
X136238181Y-110136956D01*
X136294541Y-110021656D01*
X136300693Y-109979483D01*
X136305088Y-109949362D01*
X136305088Y-109949356D01*
X136305500Y-109946535D01*
X136305499Y-109373466D01*
X136305499Y-109373465D01*
X136634500Y-109373465D01*
X136634501Y-109946534D01*
X136645654Y-110022309D01*
X136648360Y-110027819D01*
X136648360Y-110027821D01*
X136676113Y-110084346D01*
X136702216Y-110137511D01*
X136793044Y-110228181D01*
X136820574Y-110241638D01*
X136841613Y-110251922D01*
X136867393Y-110272064D01*
X136878625Y-110285425D01*
X136886236Y-110294479D01*
X137007964Y-110375508D01*
X137013338Y-110377187D01*
X137114206Y-110408701D01*
X137147541Y-110419116D01*
X137197056Y-110420023D01*
X137288120Y-110421692D01*
X137288121Y-110421692D01*
X137293747Y-110421795D01*
X137434829Y-110383332D01*
X137559445Y-110306818D01*
X137567608Y-110297800D01*
X137591360Y-110279902D01*
X137615153Y-110268220D01*
X137697511Y-110227784D01*
X137788181Y-110136956D01*
X137844541Y-110021656D01*
X137850693Y-109979483D01*
X137855088Y-109949362D01*
X137855088Y-109949356D01*
X137855500Y-109946535D01*
X137855499Y-109373466D01*
X137844346Y-109297691D01*
X137816993Y-109241979D01*
X137800917Y-109209237D01*
X137787784Y-109182489D01*
X137753580Y-109148344D01*
X137701577Y-109096432D01*
X137696956Y-109091819D01*
X137581656Y-109035459D01*
X137539483Y-109029307D01*
X137509362Y-109024912D01*
X137509356Y-109024912D01*
X137506535Y-109024500D01*
X137246139Y-109024500D01*
X136983466Y-109024501D01*
X136907691Y-109035654D01*
X136902181Y-109038360D01*
X136902179Y-109038360D01*
X136843238Y-109067299D01*
X136792489Y-109092216D01*
X136701819Y-109183044D01*
X136645459Y-109298344D01*
X136639307Y-109340517D01*
X136636039Y-109362918D01*
X136634500Y-109373465D01*
X136305499Y-109373465D01*
X136294346Y-109297691D01*
X136266993Y-109241979D01*
X136250917Y-109209237D01*
X136237784Y-109182489D01*
X136203580Y-109148344D01*
X136151577Y-109096432D01*
X136146956Y-109091819D01*
X136031656Y-109035459D01*
X136025591Y-109034574D01*
X136025587Y-109034573D01*
X135998096Y-109030562D01*
X135950515Y-109004943D01*
X135930500Y-108952390D01*
X135930500Y-108493878D01*
X135948982Y-108443098D01*
X135974683Y-108422964D01*
X136027878Y-108396846D01*
X136057757Y-108382176D01*
X136142547Y-108297238D01*
X136195253Y-108189415D01*
X136202469Y-108139949D01*
X136205088Y-108121999D01*
X136205088Y-108121994D01*
X136205500Y-108119172D01*
X136734500Y-108119172D01*
X136744930Y-108190026D01*
X136797824Y-108297757D01*
X136882762Y-108382547D01*
X136990585Y-108435253D01*
X137009032Y-108437944D01*
X137058001Y-108445088D01*
X137058006Y-108445088D01*
X137060828Y-108445500D01*
X137529172Y-108445500D01*
X137600026Y-108435070D01*
X137707757Y-108382176D01*
X137792547Y-108297238D01*
X137845253Y-108189415D01*
X137849092Y-108163096D01*
X137874711Y-108115517D01*
X137927265Y-108095500D01*
X138688995Y-108095500D01*
X138732771Y-108108738D01*
X138757964Y-108125508D01*
X138897541Y-108169116D01*
X138947056Y-108170023D01*
X139038120Y-108171692D01*
X139038121Y-108171692D01*
X139043747Y-108171795D01*
X139184829Y-108133332D01*
X139309445Y-108056818D01*
X139313218Y-108052650D01*
X139313220Y-108052648D01*
X139403799Y-107952577D01*
X139403800Y-107952576D01*
X139407576Y-107948404D01*
X139471335Y-107816805D01*
X139475215Y-107793747D01*
X139495090Y-107675610D01*
X139495090Y-107675607D01*
X139495596Y-107672601D01*
X139495750Y-107660000D01*
X139485169Y-107586116D01*
X139475818Y-107520816D01*
X139475817Y-107520814D01*
X139475020Y-107515246D01*
X139472350Y-107509374D01*
X139416827Y-107387257D01*
X139416826Y-107387255D01*
X139414495Y-107382129D01*
X139410820Y-107377864D01*
X139410818Y-107377861D01*
X139322715Y-107275614D01*
X139322716Y-107275614D01*
X139319041Y-107271350D01*
X139314319Y-107268290D01*
X139312566Y-107266760D01*
X139286451Y-107219450D01*
X139285500Y-107207230D01*
X139285500Y-104107998D01*
X139303982Y-104057218D01*
X139323160Y-104040678D01*
X139324648Y-104039765D01*
X139324656Y-104039759D01*
X139329445Y-104036818D01*
X139333218Y-104032650D01*
X139333220Y-104032648D01*
X139348459Y-104015812D01*
X139649902Y-104015812D01*
X139650886Y-104023042D01*
X139650886Y-104023043D01*
X139653778Y-104044291D01*
X139654500Y-104054945D01*
X139654500Y-105928526D01*
X139654153Y-105933255D01*
X139652671Y-105937571D01*
X139653309Y-105954559D01*
X139654444Y-105984798D01*
X139654500Y-105987762D01*
X139654500Y-106006552D01*
X139655166Y-106010129D01*
X139655355Y-106012172D01*
X139655633Y-106016469D01*
X139656367Y-106036014D01*
X139656661Y-106043853D01*
X139661640Y-106055442D01*
X139666717Y-106072155D01*
X139667691Y-106077384D01*
X139667692Y-106077388D01*
X139669028Y-106084559D01*
X139672855Y-106090767D01*
X139682888Y-106107045D01*
X139688220Y-106117310D01*
X139698645Y-106141574D01*
X139702457Y-106146215D01*
X139707848Y-106151606D01*
X139719237Y-106166014D01*
X139721007Y-106168886D01*
X139721010Y-106168889D01*
X139724837Y-106175098D01*
X139738668Y-106185615D01*
X139747722Y-106192500D01*
X139755765Y-106199523D01*
X140251718Y-106695476D01*
X140254822Y-106699071D01*
X140256826Y-106703171D01*
X140262173Y-106708131D01*
X140291495Y-106735331D01*
X140293630Y-106737388D01*
X140306896Y-106750654D01*
X140309902Y-106752716D01*
X140311459Y-106754010D01*
X140314694Y-106756851D01*
X140334800Y-106775502D01*
X140341576Y-106778205D01*
X140341577Y-106778206D01*
X140346517Y-106780177D01*
X140361926Y-106788405D01*
X140366310Y-106791412D01*
X140372328Y-106795540D01*
X140379424Y-106797224D01*
X140379426Y-106797225D01*
X140398023Y-106801638D01*
X140409055Y-106805127D01*
X140433586Y-106814914D01*
X140439563Y-106815500D01*
X140447192Y-106815500D01*
X140465434Y-106817635D01*
X140475812Y-106820098D01*
X140483042Y-106819114D01*
X140483043Y-106819114D01*
X140504291Y-106816222D01*
X140514945Y-106815500D01*
X146556239Y-106815500D01*
X146607019Y-106833982D01*
X146616712Y-106843667D01*
X146676236Y-106914479D01*
X146797964Y-106995508D01*
X146937541Y-107039116D01*
X146987056Y-107040023D01*
X147078120Y-107041692D01*
X147078121Y-107041692D01*
X147083747Y-107041795D01*
X147224829Y-107003332D01*
X147349445Y-106926818D01*
X147353218Y-106922650D01*
X147353220Y-106922648D01*
X147443799Y-106822577D01*
X147443800Y-106822576D01*
X147447576Y-106818404D01*
X147458654Y-106795540D01*
X147508881Y-106691870D01*
X147511335Y-106686805D01*
X147514452Y-106668282D01*
X147535090Y-106545610D01*
X147535090Y-106545607D01*
X147535596Y-106542601D01*
X147535750Y-106530000D01*
X147523421Y-106443909D01*
X147515818Y-106390816D01*
X147515817Y-106390814D01*
X147515020Y-106385246D01*
X147512691Y-106380123D01*
X147456827Y-106257257D01*
X147456826Y-106257255D01*
X147454495Y-106252129D01*
X147450820Y-106247864D01*
X147450818Y-106247861D01*
X147362716Y-106145615D01*
X147359041Y-106141350D01*
X147306115Y-106107045D01*
X147241054Y-106064874D01*
X147241051Y-106064872D01*
X147236332Y-106061814D01*
X147159667Y-106038886D01*
X147101621Y-106021526D01*
X147101619Y-106021526D01*
X147096233Y-106019915D01*
X147023711Y-106019472D01*
X146955630Y-106019056D01*
X146955628Y-106019056D01*
X146950005Y-106019022D01*
X146809404Y-106059206D01*
X146685732Y-106137237D01*
X146614584Y-106217797D01*
X146567117Y-106243622D01*
X146555372Y-106244500D01*
X140640980Y-106244500D01*
X140590200Y-106226018D01*
X140585119Y-106221361D01*
X140248639Y-105884881D01*
X140225801Y-105835905D01*
X140225500Y-105829020D01*
X140225500Y-104982836D01*
X140445000Y-104982836D01*
X140445230Y-104987082D01*
X140450775Y-105038126D01*
X140453048Y-105047684D01*
X140497096Y-105165183D01*
X140502445Y-105174954D01*
X140577299Y-105274832D01*
X140585168Y-105282701D01*
X140685046Y-105357555D01*
X140694817Y-105362904D01*
X140812316Y-105406952D01*
X140821874Y-105409225D01*
X140872918Y-105414770D01*
X140877164Y-105415000D01*
X140881070Y-105415000D01*
X140891741Y-105411116D01*
X140895000Y-105405472D01*
X140895000Y-105401070D01*
X141395000Y-105401070D01*
X141398884Y-105411741D01*
X141404528Y-105415000D01*
X141412836Y-105415000D01*
X141417082Y-105414770D01*
X141468126Y-105409225D01*
X141477684Y-105406952D01*
X141595183Y-105362904D01*
X141604954Y-105357555D01*
X141704832Y-105282701D01*
X141712701Y-105274832D01*
X141787555Y-105174954D01*
X141792904Y-105165183D01*
X141836952Y-105047684D01*
X141839225Y-105038126D01*
X141844770Y-104987082D01*
X141845000Y-104982836D01*
X141845000Y-104953930D01*
X141841116Y-104943259D01*
X141835472Y-104940000D01*
X141408930Y-104940000D01*
X141398259Y-104943884D01*
X141395000Y-104949528D01*
X141395000Y-105401070D01*
X140895000Y-105401070D01*
X140895000Y-104953930D01*
X140891116Y-104943259D01*
X140885472Y-104940000D01*
X140458930Y-104940000D01*
X140448259Y-104943884D01*
X140445000Y-104949528D01*
X140445000Y-104982836D01*
X140225500Y-104982836D01*
X140225500Y-104426070D01*
X140445000Y-104426070D01*
X140448884Y-104436741D01*
X140454528Y-104440000D01*
X140881070Y-104440000D01*
X140891741Y-104436116D01*
X140895000Y-104430472D01*
X140895000Y-104426070D01*
X141395000Y-104426070D01*
X141398884Y-104436741D01*
X141404528Y-104440000D01*
X141831070Y-104440000D01*
X141841741Y-104436116D01*
X141845000Y-104430472D01*
X141845000Y-104403465D01*
X142084500Y-104403465D01*
X142084501Y-104976534D01*
X142095654Y-105052309D01*
X142098360Y-105057819D01*
X142098360Y-105057821D01*
X142133387Y-105129161D01*
X142152216Y-105167511D01*
X142243044Y-105258181D01*
X142358344Y-105314541D01*
X142400517Y-105320693D01*
X142430638Y-105325088D01*
X142430644Y-105325088D01*
X142433465Y-105325500D01*
X142693861Y-105325500D01*
X142956534Y-105325499D01*
X143032309Y-105314346D01*
X143037819Y-105311640D01*
X143037821Y-105311640D01*
X143141649Y-105260662D01*
X143141648Y-105260662D01*
X143147511Y-105257784D01*
X143238181Y-105166956D01*
X143294541Y-105051656D01*
X143302875Y-104994531D01*
X143305088Y-104979362D01*
X143305088Y-104979356D01*
X143305500Y-104976535D01*
X143305499Y-104403466D01*
X143294346Y-104327691D01*
X143290274Y-104319396D01*
X143256613Y-104250839D01*
X143237784Y-104212489D01*
X143146956Y-104121819D01*
X143141090Y-104118952D01*
X143141085Y-104118948D01*
X143039807Y-104069442D01*
X143002302Y-104030537D01*
X142995500Y-103998468D01*
X142995500Y-103593878D01*
X143013982Y-103543098D01*
X143017937Y-103540000D01*
X147974485Y-103540000D01*
X147974918Y-103544120D01*
X147991559Y-103702445D01*
X147994491Y-103730346D01*
X148053635Y-103912373D01*
X148055704Y-103915956D01*
X148055705Y-103915959D01*
X148121857Y-104030537D01*
X148149333Y-104078126D01*
X148152105Y-104081205D01*
X148152106Y-104081206D01*
X148210096Y-104145610D01*
X148277401Y-104220360D01*
X148432242Y-104332859D01*
X148436031Y-104334546D01*
X148603307Y-104409023D01*
X148603310Y-104409024D01*
X148607090Y-104410707D01*
X148611133Y-104411566D01*
X148611138Y-104411568D01*
X148790259Y-104449641D01*
X148790264Y-104449642D01*
X148794303Y-104450500D01*
X148985697Y-104450500D01*
X148989736Y-104449642D01*
X148989741Y-104449641D01*
X149168862Y-104411568D01*
X149168867Y-104411566D01*
X149172910Y-104410707D01*
X149176690Y-104409024D01*
X149176693Y-104409023D01*
X149343969Y-104334546D01*
X149347758Y-104332859D01*
X149502599Y-104220360D01*
X149569904Y-104145610D01*
X149627894Y-104081206D01*
X149627895Y-104081205D01*
X149630667Y-104078126D01*
X149658143Y-104030537D01*
X149724295Y-103915959D01*
X149724296Y-103915956D01*
X149726365Y-103912373D01*
X149785509Y-103730346D01*
X149788442Y-103702445D01*
X149805082Y-103544120D01*
X149805515Y-103540000D01*
X149799641Y-103484114D01*
X149785942Y-103353772D01*
X149785942Y-103353770D01*
X149785509Y-103349654D01*
X149726365Y-103167627D01*
X149723497Y-103162658D01*
X149632738Y-103005461D01*
X149630667Y-103001874D01*
X149502599Y-102859640D01*
X149347758Y-102747141D01*
X149281766Y-102717759D01*
X149176693Y-102670977D01*
X149176690Y-102670976D01*
X149172910Y-102669293D01*
X149168867Y-102668434D01*
X149168862Y-102668432D01*
X148989741Y-102630359D01*
X148989736Y-102630358D01*
X148985697Y-102629500D01*
X148794303Y-102629500D01*
X148790264Y-102630358D01*
X148790259Y-102630359D01*
X148611135Y-102668433D01*
X148611133Y-102668434D01*
X148607090Y-102669293D01*
X148603313Y-102670975D01*
X148603312Y-102670975D01*
X148436022Y-102745458D01*
X148436019Y-102745460D01*
X148432243Y-102747141D01*
X148277401Y-102859640D01*
X148149333Y-103001874D01*
X148147262Y-103005461D01*
X148056504Y-103162658D01*
X148053635Y-103167627D01*
X147994491Y-103349654D01*
X147994058Y-103353770D01*
X147994058Y-103353772D01*
X147980359Y-103484114D01*
X147974485Y-103540000D01*
X143017937Y-103540000D01*
X143039683Y-103522964D01*
X143106571Y-103490123D01*
X143122757Y-103482176D01*
X143207547Y-103397238D01*
X143260253Y-103289415D01*
X143265847Y-103251070D01*
X143270088Y-103221999D01*
X143270088Y-103221994D01*
X143270500Y-103219172D01*
X143270500Y-102600828D01*
X143260070Y-102529974D01*
X143257364Y-102524461D01*
X143253813Y-102517231D01*
X143246773Y-102486042D01*
X143245911Y-102486098D01*
X143245713Y-102483053D01*
X143245750Y-102480000D01*
X143233943Y-102397555D01*
X143225818Y-102340816D01*
X143225817Y-102340814D01*
X143225020Y-102335246D01*
X143219166Y-102322370D01*
X143166827Y-102207257D01*
X143166826Y-102207255D01*
X143164495Y-102202129D01*
X143160820Y-102197864D01*
X143160818Y-102197861D01*
X143072716Y-102095615D01*
X143069041Y-102091350D01*
X142989687Y-102039915D01*
X142951054Y-102014874D01*
X142951051Y-102014872D01*
X142946332Y-102011814D01*
X142876283Y-101990865D01*
X142811621Y-101971526D01*
X142811619Y-101971526D01*
X142806233Y-101969915D01*
X142733711Y-101969472D01*
X142665630Y-101969056D01*
X142665628Y-101969056D01*
X142660005Y-101969022D01*
X142519404Y-102009206D01*
X142470787Y-102039881D01*
X142410911Y-102077660D01*
X142395732Y-102087237D01*
X142392011Y-102091450D01*
X142392010Y-102091451D01*
X142306009Y-102188828D01*
X142298932Y-102196841D01*
X142236786Y-102329209D01*
X142235920Y-102334773D01*
X142227458Y-102389119D01*
X142214638Y-102420574D01*
X142212453Y-102422762D01*
X142159747Y-102530585D01*
X142157941Y-102542964D01*
X142149916Y-102597978D01*
X142149500Y-102600828D01*
X142149500Y-103219172D01*
X142159930Y-103290026D01*
X142212824Y-103397757D01*
X142297762Y-103482547D01*
X142303625Y-103485413D01*
X142303628Y-103485415D01*
X142380193Y-103522841D01*
X142417698Y-103561746D01*
X142424500Y-103593815D01*
X142424500Y-103987710D01*
X142406018Y-104038490D01*
X142368940Y-104063152D01*
X142363765Y-104064760D01*
X142357691Y-104065654D01*
X142242489Y-104122216D01*
X142151819Y-104213044D01*
X142095459Y-104328344D01*
X142090816Y-104360172D01*
X142086039Y-104392918D01*
X142084500Y-104403465D01*
X141845000Y-104403465D01*
X141845000Y-104397164D01*
X141844770Y-104392918D01*
X141839225Y-104341874D01*
X141836952Y-104332316D01*
X141792904Y-104214817D01*
X141787555Y-104205046D01*
X141712701Y-104105168D01*
X141704832Y-104097299D01*
X141604954Y-104022445D01*
X141595183Y-104017096D01*
X141477684Y-103973048D01*
X141468126Y-103970775D01*
X141417082Y-103965230D01*
X141412836Y-103965000D01*
X141408930Y-103965000D01*
X141398259Y-103968884D01*
X141395000Y-103974528D01*
X141395000Y-104426070D01*
X140895000Y-104426070D01*
X140895000Y-103978930D01*
X140891116Y-103968259D01*
X140885472Y-103965000D01*
X140877164Y-103965000D01*
X140872918Y-103965230D01*
X140821874Y-103970775D01*
X140812316Y-103973048D01*
X140694817Y-104017096D01*
X140685046Y-104022445D01*
X140585168Y-104097299D01*
X140577299Y-104105168D01*
X140502445Y-104205046D01*
X140497096Y-104214817D01*
X140453048Y-104332316D01*
X140450775Y-104341874D01*
X140445230Y-104392918D01*
X140445000Y-104397164D01*
X140445000Y-104426070D01*
X140225500Y-104426070D01*
X140225500Y-104180980D01*
X140243982Y-104130200D01*
X140248639Y-104125119D01*
X140805119Y-103568639D01*
X140854095Y-103545801D01*
X140860980Y-103545500D01*
X141294172Y-103545500D01*
X141365026Y-103535070D01*
X141472757Y-103482176D01*
X141557547Y-103397238D01*
X141610253Y-103289415D01*
X141615847Y-103251070D01*
X141620088Y-103221999D01*
X141620088Y-103221994D01*
X141620500Y-103219172D01*
X141620500Y-102600828D01*
X141610070Y-102529974D01*
X141591353Y-102491852D01*
X141584065Y-102468234D01*
X141565818Y-102340816D01*
X141565817Y-102340814D01*
X141565020Y-102335246D01*
X141559166Y-102322370D01*
X141506827Y-102207257D01*
X141506826Y-102207255D01*
X141504495Y-102202129D01*
X141500820Y-102197864D01*
X141500818Y-102197861D01*
X141412716Y-102095615D01*
X141409041Y-102091350D01*
X141329687Y-102039915D01*
X141291054Y-102014874D01*
X141291051Y-102014872D01*
X141286332Y-102011814D01*
X141216283Y-101990865D01*
X141151621Y-101971526D01*
X141151619Y-101971526D01*
X141146233Y-101969915D01*
X141073711Y-101969472D01*
X141005630Y-101969056D01*
X141005628Y-101969056D01*
X141000005Y-101969022D01*
X140859404Y-102009206D01*
X140810787Y-102039881D01*
X140750911Y-102077660D01*
X140735732Y-102087237D01*
X140732011Y-102091450D01*
X140732010Y-102091451D01*
X140646009Y-102188828D01*
X140638932Y-102196841D01*
X140576786Y-102329209D01*
X140575920Y-102334773D01*
X140563948Y-102411658D01*
X140556863Y-102434196D01*
X140522847Y-102503786D01*
X140509747Y-102530585D01*
X140507941Y-102542964D01*
X140499916Y-102597978D01*
X140499500Y-102600828D01*
X140499500Y-103034020D01*
X140481018Y-103084800D01*
X140476361Y-103089881D01*
X139774524Y-103791718D01*
X139770929Y-103794822D01*
X139766829Y-103796826D01*
X139761869Y-103802173D01*
X139734669Y-103831495D01*
X139732612Y-103833630D01*
X139719346Y-103846896D01*
X139717284Y-103849902D01*
X139715990Y-103851459D01*
X139713149Y-103854694D01*
X139694498Y-103874800D01*
X139691795Y-103881576D01*
X139689825Y-103886513D01*
X139681596Y-103901925D01*
X139674459Y-103912328D01*
X139669654Y-103932577D01*
X139668361Y-103938027D01*
X139664872Y-103949058D01*
X139655086Y-103973586D01*
X139654500Y-103979563D01*
X139654500Y-103987193D01*
X139652365Y-104005432D01*
X139649902Y-104015812D01*
X139348459Y-104015812D01*
X139423799Y-103932577D01*
X139423800Y-103932576D01*
X139427576Y-103928404D01*
X139438279Y-103906314D01*
X139488881Y-103801870D01*
X139491335Y-103796805D01*
X139492880Y-103787626D01*
X139515090Y-103655610D01*
X139515090Y-103655607D01*
X139515596Y-103652601D01*
X139515750Y-103640000D01*
X139507416Y-103581805D01*
X139495818Y-103500816D01*
X139495817Y-103500814D01*
X139495020Y-103495246D01*
X139489246Y-103482547D01*
X139436827Y-103367257D01*
X139436826Y-103367255D01*
X139434495Y-103362129D01*
X139430820Y-103357864D01*
X139430818Y-103357861D01*
X139342716Y-103255615D01*
X139339041Y-103251350D01*
X139298812Y-103225275D01*
X139221054Y-103174874D01*
X139221051Y-103174872D01*
X139216332Y-103171814D01*
X139146282Y-103150864D01*
X139081621Y-103131526D01*
X139081619Y-103131526D01*
X139076233Y-103129915D01*
X139003711Y-103129472D01*
X138935630Y-103129056D01*
X138935628Y-103129056D01*
X138930005Y-103129022D01*
X138789404Y-103169206D01*
X138665732Y-103247237D01*
X138662011Y-103251450D01*
X138662010Y-103251451D01*
X138599545Y-103322179D01*
X138568932Y-103356841D01*
X138506786Y-103489209D01*
X138495930Y-103558931D01*
X138490108Y-103596324D01*
X138484288Y-103633699D01*
X138486361Y-103649550D01*
X138497442Y-103734285D01*
X138503249Y-103778695D01*
X138562143Y-103912542D01*
X138565765Y-103916851D01*
X138650030Y-104017096D01*
X138656236Y-104024479D01*
X138679200Y-104039765D01*
X138679275Y-104039815D01*
X138711305Y-104083339D01*
X138714500Y-104105578D01*
X138714500Y-107180282D01*
X138696018Y-107231062D01*
X138677656Y-107247094D01*
X138650489Y-107264235D01*
X138650486Y-107264237D01*
X138645732Y-107267237D01*
X138642011Y-107271450D01*
X138642010Y-107271451D01*
X138574277Y-107348143D01*
X138548932Y-107376841D01*
X138546540Y-107381936D01*
X138500934Y-107479074D01*
X138462622Y-107517185D01*
X138429423Y-107524500D01*
X137927207Y-107524500D01*
X137876427Y-107506018D01*
X137849049Y-107457005D01*
X137848765Y-107455074D01*
X137845070Y-107429974D01*
X137792176Y-107322243D01*
X137707238Y-107237453D01*
X137599415Y-107184747D01*
X137568808Y-107180282D01*
X137531999Y-107174912D01*
X137531994Y-107174912D01*
X137529172Y-107174500D01*
X137060828Y-107174500D01*
X136989974Y-107184930D01*
X136882243Y-107237824D01*
X136877630Y-107242445D01*
X136855878Y-107264235D01*
X136797453Y-107322762D01*
X136744747Y-107430585D01*
X136743862Y-107436653D01*
X136734916Y-107497978D01*
X136734500Y-107500828D01*
X136734500Y-108119172D01*
X136205500Y-108119172D01*
X136205500Y-107500828D01*
X136195070Y-107429974D01*
X136142176Y-107322243D01*
X136057238Y-107237453D01*
X135949415Y-107184747D01*
X135918808Y-107180282D01*
X135881999Y-107174912D01*
X135881994Y-107174912D01*
X135879172Y-107174500D01*
X135410828Y-107174500D01*
X135339974Y-107184930D01*
X135232243Y-107237824D01*
X135227630Y-107242445D01*
X135205878Y-107264235D01*
X135147453Y-107322762D01*
X135094747Y-107430585D01*
X135093862Y-107436653D01*
X135084916Y-107497978D01*
X135084500Y-107500828D01*
X135084500Y-108119172D01*
X135094930Y-108190026D01*
X135147824Y-108297757D01*
X135232762Y-108382547D01*
X135238625Y-108385413D01*
X135238628Y-108385415D01*
X135315193Y-108422841D01*
X135352698Y-108461746D01*
X135359500Y-108493815D01*
X135359500Y-108985545D01*
X135341018Y-109036325D01*
X135315318Y-109056459D01*
X135242489Y-109092216D01*
X135237876Y-109096837D01*
X135173512Y-109161313D01*
X135124556Y-109184193D01*
X135117602Y-109184500D01*
X134691640Y-109184500D01*
X134640860Y-109166018D01*
X134620726Y-109140318D01*
X134611418Y-109121361D01*
X134567784Y-109032489D01*
X134476956Y-108941819D01*
X134361656Y-108885459D01*
X134319483Y-108879307D01*
X134289362Y-108874912D01*
X134289356Y-108874912D01*
X134286535Y-108874500D01*
X134001248Y-108874500D01*
X133713466Y-108874501D01*
X133637691Y-108885654D01*
X133632181Y-108888360D01*
X133632179Y-108888360D01*
X133562996Y-108922328D01*
X133522489Y-108942216D01*
X133431819Y-109033044D01*
X133375459Y-109148344D01*
X133371151Y-109177876D01*
X133365759Y-109214837D01*
X133364500Y-109223465D01*
X132937392Y-109223465D01*
X132922904Y-109184817D01*
X132917555Y-109175046D01*
X132842701Y-109075168D01*
X132834832Y-109067299D01*
X132734954Y-108992445D01*
X132725183Y-108987096D01*
X132607684Y-108943048D01*
X132598126Y-108940775D01*
X132547082Y-108935230D01*
X132542836Y-108935000D01*
X132538930Y-108935000D01*
X132528259Y-108938884D01*
X132525000Y-108944528D01*
X132525000Y-109396070D01*
X132025000Y-109396070D01*
X132025000Y-108948930D01*
X132021116Y-108938259D01*
X132015472Y-108935000D01*
X132007164Y-108935000D01*
X132002918Y-108935230D01*
X131951874Y-108940775D01*
X131942316Y-108943048D01*
X131824817Y-108987096D01*
X131815046Y-108992445D01*
X131715168Y-109067299D01*
X131707299Y-109075168D01*
X131632445Y-109175046D01*
X131627096Y-109184817D01*
X131583048Y-109302316D01*
X131580775Y-109311874D01*
X131575230Y-109362918D01*
X131575000Y-109367164D01*
X131575000Y-109396070D01*
X131335499Y-109396070D01*
X131335499Y-109373466D01*
X131324346Y-109297691D01*
X131292414Y-109232654D01*
X131286625Y-109178926D01*
X131316726Y-109134047D01*
X131321992Y-109130514D01*
X131404652Y-109079761D01*
X131409445Y-109076818D01*
X131413218Y-109072650D01*
X131413220Y-109072648D01*
X131503799Y-108972577D01*
X131503800Y-108972576D01*
X131507576Y-108968404D01*
X131571335Y-108836805D01*
X131575787Y-108810346D01*
X131595090Y-108695610D01*
X131595090Y-108695607D01*
X131595596Y-108692601D01*
X131595750Y-108680000D01*
X131585330Y-108607238D01*
X131575818Y-108540816D01*
X131575817Y-108540814D01*
X131575020Y-108535246D01*
X131561511Y-108505535D01*
X131516827Y-108407257D01*
X131516826Y-108407255D01*
X131514495Y-108402129D01*
X131510820Y-108397864D01*
X131510818Y-108397861D01*
X131422716Y-108295615D01*
X131419041Y-108291350D01*
X131296332Y-108211814D01*
X131271865Y-108204497D01*
X131228509Y-108172240D01*
X131226910Y-108166901D01*
X131655001Y-108166901D01*
X131655176Y-108170626D01*
X131657525Y-108195482D01*
X131659573Y-108204816D01*
X131700856Y-108322374D01*
X131706324Y-108332700D01*
X131779701Y-108432044D01*
X131787956Y-108440299D01*
X131887300Y-108513676D01*
X131897626Y-108519144D01*
X132015185Y-108560427D01*
X132024520Y-108562475D01*
X132043165Y-108564238D01*
X132051741Y-108561116D01*
X132055000Y-108555472D01*
X132055000Y-108551069D01*
X132555000Y-108551069D01*
X132558884Y-108561740D01*
X132563719Y-108564531D01*
X132585482Y-108562475D01*
X132594816Y-108560427D01*
X132712374Y-108519144D01*
X132722700Y-108513676D01*
X132822044Y-108440299D01*
X132830299Y-108432044D01*
X132903676Y-108332700D01*
X132909144Y-108322374D01*
X132950427Y-108204815D01*
X132950861Y-108202836D01*
X133275000Y-108202836D01*
X133275230Y-108207082D01*
X133280775Y-108258126D01*
X133283048Y-108267684D01*
X133327096Y-108385183D01*
X133332445Y-108394954D01*
X133407299Y-108494832D01*
X133415168Y-108502701D01*
X133515046Y-108577555D01*
X133524817Y-108582904D01*
X133642316Y-108626952D01*
X133651874Y-108629225D01*
X133702918Y-108634770D01*
X133707164Y-108635000D01*
X133736070Y-108635000D01*
X133746741Y-108631116D01*
X133750000Y-108625472D01*
X133750000Y-108621070D01*
X134250000Y-108621070D01*
X134253884Y-108631741D01*
X134259528Y-108635000D01*
X134292836Y-108635000D01*
X134297082Y-108634770D01*
X134348126Y-108629225D01*
X134357684Y-108626952D01*
X134475183Y-108582904D01*
X134484954Y-108577555D01*
X134584832Y-108502701D01*
X134592701Y-108494832D01*
X134667555Y-108394954D01*
X134672904Y-108385183D01*
X134716952Y-108267684D01*
X134719225Y-108258126D01*
X134724770Y-108207082D01*
X134725000Y-108202836D01*
X134725000Y-108198930D01*
X134721116Y-108188259D01*
X134715472Y-108185000D01*
X134263930Y-108185000D01*
X134253259Y-108188884D01*
X134250000Y-108194528D01*
X134250000Y-108621070D01*
X133750000Y-108621070D01*
X133750000Y-108198930D01*
X133746116Y-108188259D01*
X133740472Y-108185000D01*
X133288930Y-108185000D01*
X133278259Y-108188884D01*
X133275000Y-108194528D01*
X133275000Y-108202836D01*
X132950861Y-108202836D01*
X132952475Y-108195480D01*
X132954825Y-108170628D01*
X132955000Y-108166910D01*
X132955000Y-108103930D01*
X132951116Y-108093259D01*
X132945472Y-108090000D01*
X132568930Y-108090000D01*
X132558259Y-108093884D01*
X132555000Y-108099528D01*
X132555000Y-108551069D01*
X132055000Y-108551069D01*
X132055000Y-108103930D01*
X132051116Y-108093259D01*
X132045472Y-108090000D01*
X131668931Y-108090000D01*
X131658260Y-108093884D01*
X131655001Y-108099528D01*
X131655001Y-108166901D01*
X131226910Y-108166901D01*
X131215500Y-108128809D01*
X131215500Y-107671070D01*
X133275000Y-107671070D01*
X133278884Y-107681741D01*
X133284528Y-107685000D01*
X133736070Y-107685000D01*
X133746741Y-107681116D01*
X133750000Y-107675472D01*
X133750000Y-107671070D01*
X134250000Y-107671070D01*
X134253884Y-107681741D01*
X134259528Y-107685000D01*
X134711070Y-107685000D01*
X134721741Y-107681116D01*
X134725000Y-107675472D01*
X134725000Y-107667164D01*
X134724770Y-107662918D01*
X134719225Y-107611874D01*
X134716952Y-107602316D01*
X134672904Y-107484817D01*
X134667555Y-107475046D01*
X134592701Y-107375168D01*
X134584832Y-107367299D01*
X134484954Y-107292445D01*
X134475183Y-107287096D01*
X134357684Y-107243048D01*
X134348126Y-107240775D01*
X134297082Y-107235230D01*
X134292836Y-107235000D01*
X134263930Y-107235000D01*
X134253259Y-107238884D01*
X134250000Y-107244528D01*
X134250000Y-107671070D01*
X133750000Y-107671070D01*
X133750000Y-107248930D01*
X133746116Y-107238259D01*
X133740472Y-107235000D01*
X133707164Y-107235000D01*
X133702918Y-107235230D01*
X133651874Y-107240775D01*
X133642316Y-107243048D01*
X133524817Y-107287096D01*
X133515046Y-107292445D01*
X133415168Y-107367299D01*
X133407299Y-107375168D01*
X133332445Y-107475046D01*
X133327096Y-107484817D01*
X133283048Y-107602316D01*
X133280775Y-107611874D01*
X133275230Y-107662918D01*
X133275000Y-107667164D01*
X133275000Y-107671070D01*
X131215500Y-107671070D01*
X131215500Y-107576070D01*
X131655000Y-107576070D01*
X131658884Y-107586741D01*
X131664528Y-107590000D01*
X132041070Y-107590000D01*
X132051741Y-107586116D01*
X132055000Y-107580472D01*
X132055000Y-107576070D01*
X132555000Y-107576070D01*
X132558884Y-107586741D01*
X132564528Y-107590000D01*
X132941069Y-107590000D01*
X132951740Y-107586116D01*
X132954999Y-107580472D01*
X132954999Y-107513099D01*
X132954824Y-107509374D01*
X132952475Y-107484518D01*
X132950427Y-107475184D01*
X132909144Y-107357626D01*
X132903676Y-107347300D01*
X132830299Y-107247956D01*
X132822044Y-107239701D01*
X132722700Y-107166324D01*
X132712374Y-107160856D01*
X132594815Y-107119573D01*
X132585480Y-107117525D01*
X132566835Y-107115762D01*
X132558259Y-107118884D01*
X132555000Y-107124528D01*
X132555000Y-107576070D01*
X132055000Y-107576070D01*
X132055000Y-107128931D01*
X132051116Y-107118260D01*
X132046281Y-107115469D01*
X132024518Y-107117525D01*
X132015184Y-107119573D01*
X131897626Y-107160856D01*
X131887300Y-107166324D01*
X131787956Y-107239701D01*
X131779701Y-107247956D01*
X131706324Y-107347300D01*
X131700856Y-107357626D01*
X131659573Y-107475185D01*
X131657525Y-107484520D01*
X131655175Y-107509372D01*
X131655000Y-107513090D01*
X131655000Y-107576070D01*
X131215500Y-107576070D01*
X131215500Y-107530828D01*
X131205070Y-107459974D01*
X131152176Y-107352243D01*
X131067238Y-107267453D01*
X130959415Y-107214747D01*
X130933225Y-107210926D01*
X130891999Y-107204912D01*
X130891994Y-107204912D01*
X130889172Y-107204500D01*
X130420828Y-107204500D01*
X130349974Y-107214930D01*
X130242243Y-107267824D01*
X130157453Y-107352762D01*
X130104747Y-107460585D01*
X130102617Y-107475184D01*
X130094916Y-107527978D01*
X130094500Y-107530828D01*
X130094500Y-108149172D01*
X129915500Y-108149172D01*
X129915500Y-107037998D01*
X129933982Y-106987218D01*
X129953160Y-106970678D01*
X129954648Y-106969765D01*
X129954656Y-106969759D01*
X129959445Y-106966818D01*
X129963218Y-106962650D01*
X129963220Y-106962648D01*
X130053799Y-106862577D01*
X130053800Y-106862576D01*
X130057576Y-106858404D01*
X130121335Y-106726805D01*
X130125312Y-106703171D01*
X130145090Y-106585610D01*
X130145090Y-106585607D01*
X130145596Y-106582601D01*
X130145672Y-106576369D01*
X130145713Y-106573052D01*
X130145713Y-106573048D01*
X130145750Y-106570000D01*
X130136189Y-106503239D01*
X130125818Y-106430816D01*
X130125817Y-106430814D01*
X130125020Y-106425246D01*
X130104504Y-106380123D01*
X130066827Y-106297257D01*
X130066826Y-106297255D01*
X130064495Y-106292129D01*
X130060820Y-106287864D01*
X130060818Y-106287861D01*
X129972716Y-106185615D01*
X129969041Y-106181350D01*
X129916959Y-106147592D01*
X129851054Y-106104874D01*
X129851051Y-106104872D01*
X129846332Y-106101814D01*
X129759616Y-106075880D01*
X129711621Y-106061526D01*
X129711619Y-106061526D01*
X129706233Y-106059915D01*
X129560005Y-106059022D01*
X129560015Y-106057418D01*
X129514016Y-106047479D01*
X129500243Y-106036485D01*
X129218639Y-105754881D01*
X129195801Y-105705905D01*
X129195500Y-105699020D01*
X129195500Y-102543699D01*
X129414288Y-102543699D01*
X129415018Y-102549280D01*
X129430932Y-102670975D01*
X129433249Y-102688695D01*
X129492143Y-102822542D01*
X129495765Y-102826851D01*
X129558645Y-102901656D01*
X129586236Y-102934479D01*
X129707964Y-103015508D01*
X129713338Y-103017187D01*
X129832770Y-103054501D01*
X129847541Y-103059116D01*
X129893002Y-103059949D01*
X129988120Y-103061692D01*
X129988121Y-103061692D01*
X129993747Y-103061795D01*
X130134829Y-103023332D01*
X130259445Y-102946818D01*
X130263218Y-102942650D01*
X130263220Y-102942648D01*
X130354787Y-102841485D01*
X130402567Y-102816240D01*
X130413357Y-102815500D01*
X130604653Y-102815500D01*
X130655433Y-102833982D01*
X130682811Y-102882995D01*
X130685654Y-102902309D01*
X130742216Y-103017511D01*
X130746837Y-103022124D01*
X130783997Y-103059219D01*
X130833044Y-103108181D01*
X130944492Y-103162658D01*
X130948344Y-103164541D01*
X130947974Y-103165299D01*
X130986887Y-103194810D01*
X130999500Y-103237633D01*
X130999500Y-103566473D01*
X130981018Y-103617253D01*
X130941086Y-103639556D01*
X130941912Y-103642213D01*
X130936045Y-103644036D01*
X130929974Y-103644930D01*
X130822243Y-103697824D01*
X130737453Y-103782762D01*
X130684747Y-103890585D01*
X130682143Y-103908436D01*
X130674916Y-103957978D01*
X130674500Y-103960828D01*
X130674500Y-104579172D01*
X130684930Y-104650026D01*
X130737824Y-104757757D01*
X130822762Y-104842547D01*
X130930585Y-104895253D01*
X130956775Y-104899074D01*
X130998001Y-104905088D01*
X130998006Y-104905088D01*
X131000828Y-104905500D01*
X131469172Y-104905500D01*
X131540026Y-104895070D01*
X131647757Y-104842176D01*
X131664674Y-104825230D01*
X131691467Y-104798390D01*
X131732547Y-104757238D01*
X131785253Y-104649415D01*
X131792370Y-104600628D01*
X131792914Y-104596901D01*
X132235001Y-104596901D01*
X132235176Y-104600626D01*
X132237525Y-104625482D01*
X132239573Y-104634816D01*
X132280856Y-104752374D01*
X132286324Y-104762700D01*
X132359701Y-104862044D01*
X132367956Y-104870299D01*
X132467300Y-104943676D01*
X132477626Y-104949144D01*
X132595185Y-104990427D01*
X132604520Y-104992475D01*
X132623165Y-104994238D01*
X132631741Y-104991116D01*
X132635000Y-104985472D01*
X132635000Y-104981069D01*
X133135000Y-104981069D01*
X133138884Y-104991740D01*
X133143719Y-104994531D01*
X133165482Y-104992475D01*
X133174816Y-104990427D01*
X133292374Y-104949144D01*
X133302700Y-104943676D01*
X133402044Y-104870299D01*
X133410299Y-104862044D01*
X133483676Y-104762700D01*
X133489144Y-104752374D01*
X133530427Y-104634815D01*
X133532475Y-104625480D01*
X133534825Y-104600628D01*
X133535000Y-104596910D01*
X133535000Y-104533930D01*
X133531116Y-104523259D01*
X133525472Y-104520000D01*
X133148930Y-104520000D01*
X133138259Y-104523884D01*
X133135000Y-104529528D01*
X133135000Y-104981069D01*
X132635000Y-104981069D01*
X132635000Y-104533930D01*
X132631116Y-104523259D01*
X132625472Y-104520000D01*
X132248931Y-104520000D01*
X132238260Y-104523884D01*
X132235001Y-104529528D01*
X132235001Y-104596901D01*
X131792914Y-104596901D01*
X131795088Y-104581999D01*
X131795088Y-104581994D01*
X131795500Y-104579172D01*
X131795500Y-104006070D01*
X132235000Y-104006070D01*
X132238884Y-104016741D01*
X132244528Y-104020000D01*
X132621070Y-104020000D01*
X132631741Y-104016116D01*
X132635000Y-104010472D01*
X132635000Y-104006070D01*
X133135000Y-104006070D01*
X133138884Y-104016741D01*
X133144528Y-104020000D01*
X133521069Y-104020000D01*
X133531740Y-104016116D01*
X133534999Y-104010472D01*
X133534999Y-103943099D01*
X133534824Y-103939374D01*
X133532475Y-103914518D01*
X133530427Y-103905184D01*
X133489144Y-103787626D01*
X133483676Y-103777300D01*
X133410299Y-103677956D01*
X133402044Y-103669701D01*
X133302700Y-103596324D01*
X133292374Y-103590856D01*
X133174815Y-103549573D01*
X133165480Y-103547525D01*
X133146835Y-103545762D01*
X133138259Y-103548884D01*
X133135000Y-103554528D01*
X133135000Y-104006070D01*
X132635000Y-104006070D01*
X132635000Y-103558931D01*
X132631116Y-103548260D01*
X132626281Y-103545469D01*
X132604518Y-103547525D01*
X132595184Y-103549573D01*
X132477626Y-103590856D01*
X132467300Y-103596324D01*
X132367956Y-103669701D01*
X132359701Y-103677956D01*
X132286324Y-103777300D01*
X132280856Y-103787626D01*
X132239573Y-103905185D01*
X132237525Y-103914520D01*
X132235175Y-103939372D01*
X132235000Y-103943090D01*
X132235000Y-104006070D01*
X131795500Y-104006070D01*
X131795500Y-103960828D01*
X131785070Y-103889974D01*
X131732176Y-103782243D01*
X131647238Y-103697453D01*
X131614805Y-103681599D01*
X131577302Y-103642696D01*
X131570500Y-103610626D01*
X131570500Y-103403465D01*
X133984500Y-103403465D01*
X133984501Y-103976534D01*
X133995654Y-104052309D01*
X133998360Y-104057819D01*
X133998360Y-104057821D01*
X134009842Y-104081206D01*
X134052216Y-104167511D01*
X134143044Y-104258181D01*
X134215194Y-104293449D01*
X134252698Y-104332353D01*
X134259500Y-104364423D01*
X134259500Y-104880455D01*
X134241018Y-104931235D01*
X134215317Y-104951369D01*
X134152489Y-104982216D01*
X134061819Y-105073044D01*
X134005459Y-105188344D01*
X134002157Y-105210977D01*
X133995271Y-105258181D01*
X133994500Y-105263465D01*
X133994501Y-105836534D01*
X134005654Y-105912309D01*
X134008360Y-105917819D01*
X134008360Y-105917821D01*
X134016066Y-105933516D01*
X134062216Y-106027511D01*
X134153044Y-106118181D01*
X134268344Y-106174541D01*
X134302433Y-106179514D01*
X134340638Y-106185088D01*
X134340644Y-106185088D01*
X134343465Y-106185500D01*
X134603861Y-106185500D01*
X134866534Y-106185499D01*
X134942309Y-106174346D01*
X134947819Y-106171640D01*
X134947821Y-106171640D01*
X135051649Y-106120662D01*
X135051648Y-106120662D01*
X135057511Y-106117784D01*
X135148181Y-106026956D01*
X135204541Y-105911656D01*
X135212836Y-105854798D01*
X135214581Y-105842836D01*
X135455000Y-105842836D01*
X135455230Y-105847082D01*
X135460775Y-105898126D01*
X135463048Y-105907684D01*
X135507096Y-106025183D01*
X135512445Y-106034954D01*
X135587299Y-106134832D01*
X135595168Y-106142701D01*
X135695046Y-106217555D01*
X135704817Y-106222904D01*
X135822316Y-106266952D01*
X135831874Y-106269225D01*
X135882918Y-106274770D01*
X135887164Y-106275000D01*
X135891070Y-106275000D01*
X135901741Y-106271116D01*
X135905000Y-106265472D01*
X135905000Y-106261070D01*
X136405000Y-106261070D01*
X136408884Y-106271741D01*
X136414528Y-106275000D01*
X136422836Y-106275000D01*
X136427082Y-106274770D01*
X136478126Y-106269225D01*
X136487684Y-106266952D01*
X136605183Y-106222904D01*
X136614954Y-106217555D01*
X136714832Y-106142701D01*
X136722701Y-106134832D01*
X136797555Y-106034954D01*
X136802904Y-106025183D01*
X136846952Y-105907684D01*
X136849225Y-105898126D01*
X136854770Y-105847082D01*
X136855000Y-105842836D01*
X136855000Y-105813930D01*
X136851116Y-105803259D01*
X136845472Y-105800000D01*
X136418930Y-105800000D01*
X136408259Y-105803884D01*
X136405000Y-105809528D01*
X136405000Y-106261070D01*
X135905000Y-106261070D01*
X135905000Y-105813930D01*
X135901116Y-105803259D01*
X135895472Y-105800000D01*
X135468930Y-105800000D01*
X135458259Y-105803884D01*
X135455000Y-105809528D01*
X135455000Y-105842836D01*
X135214581Y-105842836D01*
X135215088Y-105839362D01*
X135215088Y-105839356D01*
X135215500Y-105836535D01*
X135215499Y-105286070D01*
X135455000Y-105286070D01*
X135458884Y-105296741D01*
X135464528Y-105300000D01*
X135891070Y-105300000D01*
X135901741Y-105296116D01*
X135905000Y-105290472D01*
X135905000Y-105286070D01*
X136405000Y-105286070D01*
X136408884Y-105296741D01*
X136414528Y-105300000D01*
X136841070Y-105300000D01*
X136851741Y-105296116D01*
X136855000Y-105290472D01*
X136855000Y-105257164D01*
X136854770Y-105252918D01*
X136849225Y-105201874D01*
X136846952Y-105192316D01*
X136802904Y-105074817D01*
X136797555Y-105065046D01*
X136722701Y-104965168D01*
X136714832Y-104957299D01*
X136614954Y-104882445D01*
X136605183Y-104877096D01*
X136487684Y-104833048D01*
X136478126Y-104830775D01*
X136427082Y-104825230D01*
X136422836Y-104825000D01*
X136418930Y-104825000D01*
X136408259Y-104828884D01*
X136405000Y-104834528D01*
X136405000Y-105286070D01*
X135905000Y-105286070D01*
X135905000Y-104838930D01*
X135901116Y-104828259D01*
X135895472Y-104825000D01*
X135887164Y-104825000D01*
X135882918Y-104825230D01*
X135831874Y-104830775D01*
X135822316Y-104833048D01*
X135704817Y-104877096D01*
X135695046Y-104882445D01*
X135595168Y-104957299D01*
X135587299Y-104965168D01*
X135512445Y-105065046D01*
X135507096Y-105074817D01*
X135463048Y-105192316D01*
X135460775Y-105201874D01*
X135455230Y-105252918D01*
X135455000Y-105257164D01*
X135455000Y-105286070D01*
X135215499Y-105286070D01*
X135215499Y-105263466D01*
X135204346Y-105187691D01*
X135198093Y-105174954D01*
X135166613Y-105110839D01*
X135147784Y-105072489D01*
X135056956Y-104981819D01*
X134941656Y-104925459D01*
X134935593Y-104924574D01*
X134935588Y-104924573D01*
X134898095Y-104919103D01*
X134850515Y-104893484D01*
X134830500Y-104840931D01*
X134830500Y-104397554D01*
X134848982Y-104346774D01*
X134897996Y-104319396D01*
X134932309Y-104314346D01*
X134937819Y-104311640D01*
X134937821Y-104311640D01*
X135041649Y-104260662D01*
X135041648Y-104260662D01*
X135047511Y-104257784D01*
X135138181Y-104166956D01*
X135194541Y-104051656D01*
X135203945Y-103987193D01*
X135205088Y-103979362D01*
X135205088Y-103979356D01*
X135205500Y-103976535D01*
X135205499Y-103403466D01*
X135205499Y-103403465D01*
X135534500Y-103403465D01*
X135534501Y-103976534D01*
X135545654Y-104052309D01*
X135548360Y-104057819D01*
X135548360Y-104057821D01*
X135559842Y-104081206D01*
X135602216Y-104167511D01*
X135693044Y-104258181D01*
X135808344Y-104314541D01*
X135850517Y-104320693D01*
X135880638Y-104325088D01*
X135880644Y-104325088D01*
X135883465Y-104325500D01*
X136066695Y-104325500D01*
X136117475Y-104343982D01*
X136139005Y-104372684D01*
X136149875Y-104397389D01*
X136149877Y-104397393D01*
X136152143Y-104402542D01*
X136246236Y-104514479D01*
X136367964Y-104595508D01*
X136507541Y-104639116D01*
X136557056Y-104640023D01*
X136648120Y-104641692D01*
X136648121Y-104641692D01*
X136653747Y-104641795D01*
X136794829Y-104603332D01*
X136919445Y-104526818D01*
X136923218Y-104522650D01*
X136923220Y-104522648D01*
X137013799Y-104422577D01*
X137013800Y-104422576D01*
X137017576Y-104418404D01*
X137081335Y-104286805D01*
X137085669Y-104261048D01*
X137105090Y-104145610D01*
X137105090Y-104145607D01*
X137105596Y-104142601D01*
X137105750Y-104130000D01*
X137097078Y-104069442D01*
X137085818Y-103990816D01*
X137085817Y-103990814D01*
X137085020Y-103985246D01*
X137082345Y-103979362D01*
X137026827Y-103857257D01*
X137026826Y-103857255D01*
X137024495Y-103852129D01*
X137020820Y-103847864D01*
X137020818Y-103847861D01*
X136932716Y-103745615D01*
X136929041Y-103741350D01*
X136861889Y-103697824D01*
X136811054Y-103664874D01*
X136811051Y-103664872D01*
X136806332Y-103661814D01*
X136801262Y-103660298D01*
X136763017Y-103622317D01*
X136755499Y-103588682D01*
X136755499Y-103403466D01*
X136744346Y-103327691D01*
X136710731Y-103259225D01*
X136700128Y-103237630D01*
X136687784Y-103212489D01*
X136596956Y-103121819D01*
X136481656Y-103065459D01*
X136439483Y-103059307D01*
X136409362Y-103054912D01*
X136409356Y-103054912D01*
X136406535Y-103054500D01*
X136146139Y-103054500D01*
X135883466Y-103054501D01*
X135807691Y-103065654D01*
X135802181Y-103068360D01*
X135802179Y-103068360D01*
X135758347Y-103089881D01*
X135692489Y-103122216D01*
X135687876Y-103126837D01*
X135683195Y-103131526D01*
X135601819Y-103213044D01*
X135545459Y-103328344D01*
X135540530Y-103362129D01*
X135535333Y-103397757D01*
X135534500Y-103403465D01*
X135205499Y-103403465D01*
X135194346Y-103327691D01*
X135160731Y-103259225D01*
X135150128Y-103237630D01*
X135137784Y-103212489D01*
X135046956Y-103121819D01*
X134931656Y-103065459D01*
X134925591Y-103064574D01*
X134925587Y-103064573D01*
X134898096Y-103060562D01*
X134850515Y-103034943D01*
X134830500Y-102982390D01*
X134830500Y-102513878D01*
X134848982Y-102463098D01*
X134874683Y-102442964D01*
X134938445Y-102411658D01*
X134957757Y-102402176D01*
X135042547Y-102317238D01*
X135095253Y-102209415D01*
X135102865Y-102157237D01*
X135105088Y-102141999D01*
X135105088Y-102141994D01*
X135105500Y-102139172D01*
X135634500Y-102139172D01*
X135644930Y-102210026D01*
X135697824Y-102317757D01*
X135702445Y-102322370D01*
X135720923Y-102340816D01*
X135782762Y-102402547D01*
X135890585Y-102455253D01*
X135909032Y-102457944D01*
X135958001Y-102465088D01*
X135958006Y-102465088D01*
X135960828Y-102465500D01*
X136429172Y-102465500D01*
X136500026Y-102455070D01*
X136607757Y-102402176D01*
X136692547Y-102317238D01*
X136745253Y-102209415D01*
X136752865Y-102157237D01*
X136755088Y-102141999D01*
X136755088Y-102141994D01*
X136755500Y-102139172D01*
X136755500Y-101814500D01*
X136773982Y-101763720D01*
X136820782Y-101736700D01*
X136834500Y-101735500D01*
X142658526Y-101735500D01*
X142663255Y-101735847D01*
X142667571Y-101737329D01*
X142714799Y-101735556D01*
X142717762Y-101735500D01*
X142736552Y-101735500D01*
X142740129Y-101734834D01*
X142742172Y-101734645D01*
X142746469Y-101734367D01*
X142766563Y-101733613D01*
X142766565Y-101733613D01*
X142773853Y-101733339D01*
X142785442Y-101728360D01*
X142802155Y-101723283D01*
X142807384Y-101722309D01*
X142807388Y-101722308D01*
X142814559Y-101720972D01*
X142837045Y-101707112D01*
X142847310Y-101701780D01*
X142849094Y-101701014D01*
X142871574Y-101691355D01*
X142876215Y-101687543D01*
X142881606Y-101682152D01*
X142896014Y-101670763D01*
X142898886Y-101668993D01*
X142898889Y-101668990D01*
X142905098Y-101665163D01*
X142922500Y-101642278D01*
X142929523Y-101634235D01*
X144592267Y-99971491D01*
X144641243Y-99948653D01*
X144680257Y-99955181D01*
X144763362Y-99992182D01*
X144767408Y-99993042D01*
X144767411Y-99993043D01*
X144948998Y-100031641D01*
X144949002Y-100031641D01*
X144953041Y-100032500D01*
X145146959Y-100032500D01*
X145150998Y-100031641D01*
X145151002Y-100031641D01*
X145332589Y-99993043D01*
X145332592Y-99993042D01*
X145336638Y-99992182D01*
X145340419Y-99990499D01*
X145340421Y-99990498D01*
X145361936Y-99980919D01*
X149618128Y-99980919D01*
X149618635Y-99982812D01*
X149620870Y-99984832D01*
X149719519Y-100039965D01*
X149726553Y-100043039D01*
X149907962Y-100101981D01*
X149915475Y-100103633D01*
X150104861Y-100126216D01*
X150112562Y-100126377D01*
X150302731Y-100111744D01*
X150310300Y-100110410D01*
X150494020Y-100059114D01*
X150501181Y-100056336D01*
X150635980Y-99988245D01*
X150642860Y-99980919D01*
X152158128Y-99980919D01*
X152158635Y-99982812D01*
X152160870Y-99984832D01*
X152259519Y-100039965D01*
X152266553Y-100043039D01*
X152447962Y-100101981D01*
X152455475Y-100103633D01*
X152644861Y-100126216D01*
X152652562Y-100126377D01*
X152842731Y-100111744D01*
X152850300Y-100110410D01*
X153034020Y-100059114D01*
X153041181Y-100056336D01*
X153175980Y-99988245D01*
X153183752Y-99979969D01*
X153183811Y-99978913D01*
X153181502Y-99975055D01*
X152679851Y-99473404D01*
X152669557Y-99468604D01*
X152663263Y-99470290D01*
X152162928Y-99970625D01*
X152158128Y-99980919D01*
X150642860Y-99980919D01*
X150643752Y-99979969D01*
X150643811Y-99978913D01*
X150641502Y-99975055D01*
X150139851Y-99473404D01*
X150129557Y-99468604D01*
X150123263Y-99470290D01*
X149622928Y-99970625D01*
X149618128Y-99980919D01*
X145361936Y-99980919D01*
X145510003Y-99914996D01*
X145510007Y-99914994D01*
X145513791Y-99913309D01*
X145670673Y-99799327D01*
X145673442Y-99796252D01*
X145673445Y-99796249D01*
X145797660Y-99658293D01*
X145800429Y-99655218D01*
X145897387Y-99487281D01*
X145957311Y-99302855D01*
X145977581Y-99110000D01*
X145957311Y-98917145D01*
X145897387Y-98732719D01*
X145800429Y-98564782D01*
X145718654Y-98473961D01*
X145673445Y-98423751D01*
X145673442Y-98423748D01*
X145670673Y-98420673D01*
X145513791Y-98306691D01*
X145510007Y-98305006D01*
X145510003Y-98305004D01*
X145340421Y-98229502D01*
X145340419Y-98229501D01*
X145336638Y-98227818D01*
X145332592Y-98226958D01*
X145332589Y-98226957D01*
X145151002Y-98188359D01*
X145150998Y-98188359D01*
X145146959Y-98187500D01*
X144953041Y-98187500D01*
X144949002Y-98188359D01*
X144948998Y-98188359D01*
X144767411Y-98226957D01*
X144767408Y-98226958D01*
X144763362Y-98227818D01*
X144759581Y-98229501D01*
X144759579Y-98229502D01*
X144589998Y-98305004D01*
X144589994Y-98305006D01*
X144586210Y-98306691D01*
X144582856Y-98309128D01*
X144582854Y-98309129D01*
X144513161Y-98359764D01*
X144429327Y-98420673D01*
X144426558Y-98423748D01*
X144426555Y-98423751D01*
X144381346Y-98473961D01*
X144299571Y-98564782D01*
X144202613Y-98732719D01*
X144142689Y-98917145D01*
X144122419Y-99110000D01*
X144142689Y-99302855D01*
X144179215Y-99415271D01*
X144202613Y-99487281D01*
X144201603Y-99487609D01*
X144205065Y-99537174D01*
X144184988Y-99571254D01*
X142614881Y-101141361D01*
X142565905Y-101164199D01*
X142559020Y-101164500D01*
X140941125Y-101164500D01*
X140933232Y-101161627D01*
X140931186Y-101162886D01*
X140915299Y-101164500D01*
X136611474Y-101164500D01*
X136606745Y-101164153D01*
X136602429Y-101162671D01*
X136595138Y-101162945D01*
X136593162Y-101162653D01*
X136591227Y-101161607D01*
X136581839Y-101163444D01*
X136555202Y-101164444D01*
X136552238Y-101164500D01*
X136533448Y-101164500D01*
X136529871Y-101165166D01*
X136527828Y-101165355D01*
X136523531Y-101165633D01*
X136503437Y-101166387D01*
X136503435Y-101166387D01*
X136496147Y-101166661D01*
X136484558Y-101171640D01*
X136467845Y-101176717D01*
X136462616Y-101177691D01*
X136462612Y-101177692D01*
X136455441Y-101179028D01*
X136449231Y-101182856D01*
X136442428Y-101185481D01*
X136442166Y-101184802D01*
X136407949Y-101194500D01*
X135960828Y-101194500D01*
X135889974Y-101204930D01*
X135782243Y-101257824D01*
X135697453Y-101342762D01*
X135644747Y-101450585D01*
X135643862Y-101456653D01*
X135634916Y-101517978D01*
X135634500Y-101520828D01*
X135634500Y-102139172D01*
X135105500Y-102139172D01*
X135105500Y-101520828D01*
X135095070Y-101449974D01*
X135042176Y-101342243D01*
X134957238Y-101257453D01*
X134849415Y-101204747D01*
X134823225Y-101200926D01*
X134781999Y-101194912D01*
X134781994Y-101194912D01*
X134779172Y-101194500D01*
X134310828Y-101194500D01*
X134239974Y-101204930D01*
X134132243Y-101257824D01*
X134047453Y-101342762D01*
X133994747Y-101450585D01*
X133993862Y-101456653D01*
X133984916Y-101517978D01*
X133984500Y-101520828D01*
X133984500Y-102139172D01*
X133994930Y-102210026D01*
X134047824Y-102317757D01*
X134052445Y-102322370D01*
X134070923Y-102340816D01*
X134132762Y-102402547D01*
X134138625Y-102405413D01*
X134138628Y-102405415D01*
X134215193Y-102442841D01*
X134252698Y-102481746D01*
X134259500Y-102513815D01*
X134259500Y-103015545D01*
X134241018Y-103066325D01*
X134215318Y-103086459D01*
X134142489Y-103122216D01*
X134137876Y-103126837D01*
X134133195Y-103131526D01*
X134051819Y-103213044D01*
X133995459Y-103328344D01*
X133990530Y-103362129D01*
X133985333Y-103397757D01*
X133984500Y-103403465D01*
X131570500Y-103403465D01*
X131570500Y-103237630D01*
X131588982Y-103186850D01*
X131622433Y-103164598D01*
X131622309Y-103164346D01*
X131622930Y-103164041D01*
X131737511Y-103107784D01*
X131828181Y-103016956D01*
X131884541Y-102901656D01*
X131893319Y-102841485D01*
X131894581Y-102832836D01*
X132135000Y-102832836D01*
X132135230Y-102837082D01*
X132140775Y-102888126D01*
X132143048Y-102897684D01*
X132187096Y-103015183D01*
X132192445Y-103024954D01*
X132267299Y-103124832D01*
X132275168Y-103132701D01*
X132375046Y-103207555D01*
X132384817Y-103212904D01*
X132502316Y-103256952D01*
X132511874Y-103259225D01*
X132562918Y-103264770D01*
X132567164Y-103265000D01*
X132571070Y-103265000D01*
X132581741Y-103261116D01*
X132585000Y-103255472D01*
X132585000Y-103251070D01*
X133085000Y-103251070D01*
X133088884Y-103261741D01*
X133094528Y-103265000D01*
X133102836Y-103265000D01*
X133107082Y-103264770D01*
X133158126Y-103259225D01*
X133167684Y-103256952D01*
X133285183Y-103212904D01*
X133294954Y-103207555D01*
X133394832Y-103132701D01*
X133402701Y-103124832D01*
X133477555Y-103024954D01*
X133482904Y-103015183D01*
X133526952Y-102897684D01*
X133529225Y-102888126D01*
X133534770Y-102837082D01*
X133535000Y-102832836D01*
X133535000Y-102803930D01*
X133531116Y-102793259D01*
X133525472Y-102790000D01*
X133098930Y-102790000D01*
X133088259Y-102793884D01*
X133085000Y-102799528D01*
X133085000Y-103251070D01*
X132585000Y-103251070D01*
X132585000Y-102803930D01*
X132581116Y-102793259D01*
X132575472Y-102790000D01*
X132148930Y-102790000D01*
X132138259Y-102793884D01*
X132135000Y-102799528D01*
X132135000Y-102832836D01*
X131894581Y-102832836D01*
X131895088Y-102829362D01*
X131895088Y-102829356D01*
X131895500Y-102826535D01*
X131895499Y-102276070D01*
X132135000Y-102276070D01*
X132138884Y-102286741D01*
X132144528Y-102290000D01*
X132571070Y-102290000D01*
X132581741Y-102286116D01*
X132585000Y-102280472D01*
X132585000Y-102276070D01*
X133085000Y-102276070D01*
X133088884Y-102286741D01*
X133094528Y-102290000D01*
X133521070Y-102290000D01*
X133531741Y-102286116D01*
X133535000Y-102280472D01*
X133535000Y-102247164D01*
X133534770Y-102242918D01*
X133529225Y-102191874D01*
X133526952Y-102182316D01*
X133482904Y-102064817D01*
X133477555Y-102055046D01*
X133402701Y-101955168D01*
X133394832Y-101947299D01*
X133294954Y-101872445D01*
X133285183Y-101867096D01*
X133167684Y-101823048D01*
X133158126Y-101820775D01*
X133107082Y-101815230D01*
X133102836Y-101815000D01*
X133098930Y-101815000D01*
X133088259Y-101818884D01*
X133085000Y-101824528D01*
X133085000Y-102276070D01*
X132585000Y-102276070D01*
X132585000Y-101828930D01*
X132581116Y-101818259D01*
X132575472Y-101815000D01*
X132567164Y-101815000D01*
X132562918Y-101815230D01*
X132511874Y-101820775D01*
X132502316Y-101823048D01*
X132384817Y-101867096D01*
X132375046Y-101872445D01*
X132275168Y-101947299D01*
X132267299Y-101955168D01*
X132192445Y-102055046D01*
X132187096Y-102064817D01*
X132143048Y-102182316D01*
X132140775Y-102191874D01*
X132135230Y-102242918D01*
X132135000Y-102247164D01*
X132135000Y-102276070D01*
X131895499Y-102276070D01*
X131895499Y-102253466D01*
X131884346Y-102177691D01*
X131876373Y-102161451D01*
X131835233Y-102077660D01*
X131827784Y-102062489D01*
X131736956Y-101971819D01*
X131621656Y-101915459D01*
X131579483Y-101909307D01*
X131549362Y-101904912D01*
X131549356Y-101904912D01*
X131546535Y-101904500D01*
X131286139Y-101904500D01*
X131023466Y-101904501D01*
X130947691Y-101915654D01*
X130942181Y-101918360D01*
X130942179Y-101918360D01*
X130883238Y-101947299D01*
X130832489Y-101972216D01*
X130741819Y-102063044D01*
X130685459Y-102178344D01*
X130684574Y-102184407D01*
X130683208Y-102188828D01*
X130650555Y-102231886D01*
X130607731Y-102244500D01*
X130376898Y-102244500D01*
X130326118Y-102226018D01*
X130317051Y-102217068D01*
X130272716Y-102165615D01*
X130269041Y-102161350D01*
X130228812Y-102135275D01*
X130151054Y-102084874D01*
X130151051Y-102084872D01*
X130146332Y-102081814D01*
X130056827Y-102055046D01*
X130011621Y-102041526D01*
X130011619Y-102041526D01*
X130006233Y-102039915D01*
X129933711Y-102039472D01*
X129865630Y-102039056D01*
X129865628Y-102039056D01*
X129860005Y-102039022D01*
X129719404Y-102079206D01*
X129595732Y-102157237D01*
X129592011Y-102161450D01*
X129592010Y-102161451D01*
X129508197Y-102256350D01*
X129498932Y-102266841D01*
X129436786Y-102399209D01*
X129423586Y-102483986D01*
X129415172Y-102538024D01*
X129414288Y-102543699D01*
X129195500Y-102543699D01*
X129195500Y-100160980D01*
X129213982Y-100110200D01*
X129218639Y-100105119D01*
X129352267Y-99971491D01*
X129401243Y-99948653D01*
X129440257Y-99955181D01*
X129523362Y-99992182D01*
X129527408Y-99993042D01*
X129527411Y-99993043D01*
X129708998Y-100031641D01*
X129709002Y-100031641D01*
X129713041Y-100032500D01*
X129906959Y-100032500D01*
X129910998Y-100031641D01*
X129911002Y-100031641D01*
X130092589Y-99993043D01*
X130092592Y-99993042D01*
X130096638Y-99992182D01*
X130179742Y-99955182D01*
X130233647Y-99951412D01*
X130267733Y-99971491D01*
X131181718Y-100885476D01*
X131184822Y-100889071D01*
X131186826Y-100893171D01*
X131192173Y-100898131D01*
X131221495Y-100925331D01*
X131223630Y-100927388D01*
X131236896Y-100940654D01*
X131239902Y-100942716D01*
X131241459Y-100944010D01*
X131244694Y-100946851D01*
X131264800Y-100965502D01*
X131275746Y-100969869D01*
X131276513Y-100970175D01*
X131291925Y-100978404D01*
X131302328Y-100985541D01*
X131325216Y-100990972D01*
X131328027Y-100991639D01*
X131339058Y-100995128D01*
X131363586Y-101004914D01*
X131369563Y-101005500D01*
X131377193Y-101005500D01*
X131395432Y-101007635D01*
X131405812Y-101010098D01*
X131413042Y-101009114D01*
X131413043Y-101009114D01*
X131434291Y-101006222D01*
X131444945Y-101005500D01*
X136578875Y-101005500D01*
X136586768Y-101008373D01*
X136588814Y-101007114D01*
X136604701Y-101005500D01*
X140908526Y-101005500D01*
X140913255Y-101005847D01*
X140917571Y-101007329D01*
X140924862Y-101007055D01*
X140926838Y-101007347D01*
X140928773Y-101008393D01*
X140938161Y-101006556D01*
X140964798Y-101005556D01*
X140967762Y-101005500D01*
X140986552Y-101005500D01*
X140990129Y-101004834D01*
X140992172Y-101004645D01*
X140996469Y-101004367D01*
X141016563Y-101003613D01*
X141016565Y-101003613D01*
X141023853Y-101003339D01*
X141035442Y-100998360D01*
X141052155Y-100993283D01*
X141057384Y-100992309D01*
X141057388Y-100992308D01*
X141064559Y-100990972D01*
X141087045Y-100977112D01*
X141097310Y-100971780D01*
X141111922Y-100965502D01*
X141121574Y-100961355D01*
X141126215Y-100957543D01*
X141131606Y-100952152D01*
X141146014Y-100940763D01*
X141148886Y-100938993D01*
X141148889Y-100938990D01*
X141155098Y-100935163D01*
X141159514Y-100929356D01*
X141164915Y-100924458D01*
X141166085Y-100925748D01*
X141204043Y-100901333D01*
X141222924Y-100899398D01*
X141348120Y-100901692D01*
X141348121Y-100901692D01*
X141353747Y-100901795D01*
X141494829Y-100863332D01*
X141619445Y-100786818D01*
X141623218Y-100782650D01*
X141623220Y-100782648D01*
X141713799Y-100682577D01*
X141713800Y-100682576D01*
X141717576Y-100678404D01*
X141781335Y-100546805D01*
X141785854Y-100519949D01*
X141805090Y-100405610D01*
X141805090Y-100405607D01*
X141805596Y-100402601D01*
X141805750Y-100390000D01*
X141785020Y-100245246D01*
X141767695Y-100207141D01*
X141726827Y-100117257D01*
X141726826Y-100117255D01*
X141724495Y-100112129D01*
X141720820Y-100107864D01*
X141720818Y-100107861D01*
X141632716Y-100005615D01*
X141629041Y-100001350D01*
X141557813Y-99955182D01*
X141511054Y-99924874D01*
X141511051Y-99924872D01*
X141506332Y-99921814D01*
X141387630Y-99886314D01*
X141371621Y-99881526D01*
X141371619Y-99881526D01*
X141366233Y-99879915D01*
X141293711Y-99879472D01*
X141225630Y-99879056D01*
X141225628Y-99879056D01*
X141220005Y-99879022D01*
X141079404Y-99919206D01*
X141024915Y-99953586D01*
X140963744Y-99992182D01*
X140955732Y-99997237D01*
X140952011Y-100001450D01*
X140952010Y-100001451D01*
X140863224Y-100101981D01*
X140858932Y-100106841D01*
X140796786Y-100239209D01*
X140795920Y-100244773D01*
X140776786Y-100367655D01*
X140750711Y-100414987D01*
X140698727Y-100434500D01*
X131570980Y-100434500D01*
X131520200Y-100416018D01*
X131515119Y-100411361D01*
X130675012Y-99571254D01*
X130652174Y-99522278D01*
X130657995Y-99487479D01*
X130657387Y-99487281D01*
X130680785Y-99415271D01*
X130717311Y-99302855D01*
X130737581Y-99110000D01*
X131422419Y-99110000D01*
X131442689Y-99302855D01*
X131502613Y-99487281D01*
X131599571Y-99655218D01*
X131602340Y-99658293D01*
X131726555Y-99796249D01*
X131726558Y-99796252D01*
X131729327Y-99799327D01*
X131886209Y-99913309D01*
X131889993Y-99914994D01*
X131889997Y-99914996D01*
X132059579Y-99990498D01*
X132059581Y-99990499D01*
X132063362Y-99992182D01*
X132067408Y-99993042D01*
X132067411Y-99993043D01*
X132248998Y-100031641D01*
X132249002Y-100031641D01*
X132253041Y-100032500D01*
X132446959Y-100032500D01*
X132450998Y-100031641D01*
X132451002Y-100031641D01*
X132632589Y-99993043D01*
X132632592Y-99993042D01*
X132636638Y-99992182D01*
X132640419Y-99990499D01*
X132640421Y-99990498D01*
X132810003Y-99914996D01*
X132810007Y-99914994D01*
X132813791Y-99913309D01*
X132970673Y-99799327D01*
X132973442Y-99796252D01*
X132973445Y-99796249D01*
X133097660Y-99658293D01*
X133100429Y-99655218D01*
X133197387Y-99487281D01*
X133257311Y-99302855D01*
X133277581Y-99110000D01*
X133962419Y-99110000D01*
X133982689Y-99302855D01*
X134042613Y-99487281D01*
X134139571Y-99655218D01*
X134142340Y-99658293D01*
X134266555Y-99796249D01*
X134266558Y-99796252D01*
X134269327Y-99799327D01*
X134426209Y-99913309D01*
X134429993Y-99914994D01*
X134429997Y-99914996D01*
X134599579Y-99990498D01*
X134599581Y-99990499D01*
X134603362Y-99992182D01*
X134607408Y-99993042D01*
X134607411Y-99993043D01*
X134788998Y-100031641D01*
X134789002Y-100031641D01*
X134793041Y-100032500D01*
X134986959Y-100032500D01*
X134990998Y-100031641D01*
X134991002Y-100031641D01*
X135172589Y-99993043D01*
X135172592Y-99993042D01*
X135176638Y-99992182D01*
X135180419Y-99990499D01*
X135180421Y-99990498D01*
X135350003Y-99914996D01*
X135350007Y-99914994D01*
X135353791Y-99913309D01*
X135510673Y-99799327D01*
X135513442Y-99796252D01*
X135513445Y-99796249D01*
X135637660Y-99658293D01*
X135640429Y-99655218D01*
X135737387Y-99487281D01*
X135797311Y-99302855D01*
X135817581Y-99110000D01*
X136502419Y-99110000D01*
X136522689Y-99302855D01*
X136582613Y-99487281D01*
X136679571Y-99655218D01*
X136682340Y-99658293D01*
X136806555Y-99796249D01*
X136806558Y-99796252D01*
X136809327Y-99799327D01*
X136966209Y-99913309D01*
X136969993Y-99914994D01*
X136969997Y-99914996D01*
X137139579Y-99990498D01*
X137139581Y-99990499D01*
X137143362Y-99992182D01*
X137147408Y-99993042D01*
X137147411Y-99993043D01*
X137328998Y-100031641D01*
X137329002Y-100031641D01*
X137333041Y-100032500D01*
X137526959Y-100032500D01*
X137530998Y-100031641D01*
X137531002Y-100031641D01*
X137712589Y-99993043D01*
X137712592Y-99993042D01*
X137716638Y-99992182D01*
X137720419Y-99990499D01*
X137720421Y-99990498D01*
X137890003Y-99914996D01*
X137890007Y-99914994D01*
X137893791Y-99913309D01*
X138050673Y-99799327D01*
X138053442Y-99796252D01*
X138053445Y-99796249D01*
X138177660Y-99658293D01*
X138180429Y-99655218D01*
X138277387Y-99487281D01*
X138337311Y-99302855D01*
X138357581Y-99110000D01*
X139042419Y-99110000D01*
X139062689Y-99302855D01*
X139122613Y-99487281D01*
X139219571Y-99655218D01*
X139222340Y-99658293D01*
X139346555Y-99796249D01*
X139346558Y-99796252D01*
X139349327Y-99799327D01*
X139506209Y-99913309D01*
X139509993Y-99914994D01*
X139509997Y-99914996D01*
X139679579Y-99990498D01*
X139679581Y-99990499D01*
X139683362Y-99992182D01*
X139687408Y-99993042D01*
X139687411Y-99993043D01*
X139868998Y-100031641D01*
X139869002Y-100031641D01*
X139873041Y-100032500D01*
X140066959Y-100032500D01*
X140070998Y-100031641D01*
X140071002Y-100031641D01*
X140252589Y-99993043D01*
X140252592Y-99993042D01*
X140256638Y-99992182D01*
X140260419Y-99990499D01*
X140260421Y-99990498D01*
X140430003Y-99914996D01*
X140430007Y-99914994D01*
X140433791Y-99913309D01*
X140590673Y-99799327D01*
X140593442Y-99796252D01*
X140593445Y-99796249D01*
X140717660Y-99658293D01*
X140720429Y-99655218D01*
X140817387Y-99487281D01*
X140877311Y-99302855D01*
X140897581Y-99110000D01*
X141582419Y-99110000D01*
X141602689Y-99302855D01*
X141662613Y-99487281D01*
X141759571Y-99655218D01*
X141762340Y-99658293D01*
X141886555Y-99796249D01*
X141886558Y-99796252D01*
X141889327Y-99799327D01*
X142046209Y-99913309D01*
X142049993Y-99914994D01*
X142049997Y-99914996D01*
X142219579Y-99990498D01*
X142219581Y-99990499D01*
X142223362Y-99992182D01*
X142227408Y-99993042D01*
X142227411Y-99993043D01*
X142408998Y-100031641D01*
X142409002Y-100031641D01*
X142413041Y-100032500D01*
X142606959Y-100032500D01*
X142610998Y-100031641D01*
X142611002Y-100031641D01*
X142792589Y-99993043D01*
X142792592Y-99993042D01*
X142796638Y-99992182D01*
X142800419Y-99990499D01*
X142800421Y-99990498D01*
X142970003Y-99914996D01*
X142970007Y-99914994D01*
X142973791Y-99913309D01*
X143130673Y-99799327D01*
X143133442Y-99796252D01*
X143133445Y-99796249D01*
X143257660Y-99658293D01*
X143260429Y-99655218D01*
X143357387Y-99487281D01*
X143417311Y-99302855D01*
X143437581Y-99110000D01*
X143417311Y-98917145D01*
X143357387Y-98732719D01*
X143260429Y-98564782D01*
X143178654Y-98473961D01*
X143133445Y-98423751D01*
X143133442Y-98423748D01*
X143130673Y-98420673D01*
X142973791Y-98306691D01*
X142970007Y-98305006D01*
X142970003Y-98305004D01*
X142800421Y-98229502D01*
X142800419Y-98229501D01*
X142796638Y-98227818D01*
X142792592Y-98226958D01*
X142792589Y-98226957D01*
X142611002Y-98188359D01*
X142610998Y-98188359D01*
X142606959Y-98187500D01*
X142413041Y-98187500D01*
X142409002Y-98188359D01*
X142408998Y-98188359D01*
X142227411Y-98226957D01*
X142227408Y-98226958D01*
X142223362Y-98227818D01*
X142219581Y-98229501D01*
X142219579Y-98229502D01*
X142049998Y-98305004D01*
X142049994Y-98305006D01*
X142046210Y-98306691D01*
X142042856Y-98309128D01*
X142042854Y-98309129D01*
X141973161Y-98359764D01*
X141889327Y-98420673D01*
X141886558Y-98423748D01*
X141886555Y-98423751D01*
X141841346Y-98473961D01*
X141759571Y-98564782D01*
X141662613Y-98732719D01*
X141602689Y-98917145D01*
X141582419Y-99110000D01*
X140897581Y-99110000D01*
X140877311Y-98917145D01*
X140817387Y-98732719D01*
X140720429Y-98564782D01*
X140638654Y-98473961D01*
X140593445Y-98423751D01*
X140593442Y-98423748D01*
X140590673Y-98420673D01*
X140433791Y-98306691D01*
X140430007Y-98305006D01*
X140430003Y-98305004D01*
X140260421Y-98229502D01*
X140260419Y-98229501D01*
X140256638Y-98227818D01*
X140252592Y-98226958D01*
X140252589Y-98226957D01*
X140071002Y-98188359D01*
X140070998Y-98188359D01*
X140066959Y-98187500D01*
X139873041Y-98187500D01*
X139869002Y-98188359D01*
X139868998Y-98188359D01*
X139687411Y-98226957D01*
X139687408Y-98226958D01*
X139683362Y-98227818D01*
X139679581Y-98229501D01*
X139679579Y-98229502D01*
X139509998Y-98305004D01*
X139509994Y-98305006D01*
X139506210Y-98306691D01*
X139502856Y-98309128D01*
X139502854Y-98309129D01*
X139433161Y-98359764D01*
X139349327Y-98420673D01*
X139346558Y-98423748D01*
X139346555Y-98423751D01*
X139301346Y-98473961D01*
X139219571Y-98564782D01*
X139122613Y-98732719D01*
X139062689Y-98917145D01*
X139042419Y-99110000D01*
X138357581Y-99110000D01*
X138337311Y-98917145D01*
X138277387Y-98732719D01*
X138180429Y-98564782D01*
X138098654Y-98473961D01*
X138053445Y-98423751D01*
X138053442Y-98423748D01*
X138050673Y-98420673D01*
X137893791Y-98306691D01*
X137890007Y-98305006D01*
X137890003Y-98305004D01*
X137720421Y-98229502D01*
X137720419Y-98229501D01*
X137716638Y-98227818D01*
X137712592Y-98226958D01*
X137712589Y-98226957D01*
X137531002Y-98188359D01*
X137530998Y-98188359D01*
X137526959Y-98187500D01*
X137333041Y-98187500D01*
X137329002Y-98188359D01*
X137328998Y-98188359D01*
X137147411Y-98226957D01*
X137147408Y-98226958D01*
X137143362Y-98227818D01*
X137139581Y-98229501D01*
X137139579Y-98229502D01*
X136969998Y-98305004D01*
X136969994Y-98305006D01*
X136966210Y-98306691D01*
X136962856Y-98309128D01*
X136962854Y-98309129D01*
X136893161Y-98359764D01*
X136809327Y-98420673D01*
X136806558Y-98423748D01*
X136806555Y-98423751D01*
X136761346Y-98473961D01*
X136679571Y-98564782D01*
X136582613Y-98732719D01*
X136522689Y-98917145D01*
X136502419Y-99110000D01*
X135817581Y-99110000D01*
X135797311Y-98917145D01*
X135737387Y-98732719D01*
X135640429Y-98564782D01*
X135558654Y-98473961D01*
X135513445Y-98423751D01*
X135513442Y-98423748D01*
X135510673Y-98420673D01*
X135353791Y-98306691D01*
X135350007Y-98305006D01*
X135350003Y-98305004D01*
X135180421Y-98229502D01*
X135180419Y-98229501D01*
X135176638Y-98227818D01*
X135172592Y-98226958D01*
X135172589Y-98226957D01*
X134991002Y-98188359D01*
X134990998Y-98188359D01*
X134986959Y-98187500D01*
X134793041Y-98187500D01*
X134789002Y-98188359D01*
X134788998Y-98188359D01*
X134607411Y-98226957D01*
X134607408Y-98226958D01*
X134603362Y-98227818D01*
X134599581Y-98229501D01*
X134599579Y-98229502D01*
X134429998Y-98305004D01*
X134429994Y-98305006D01*
X134426210Y-98306691D01*
X134422856Y-98309128D01*
X134422854Y-98309129D01*
X134353161Y-98359764D01*
X134269327Y-98420673D01*
X134266558Y-98423748D01*
X134266555Y-98423751D01*
X134221346Y-98473961D01*
X134139571Y-98564782D01*
X134042613Y-98732719D01*
X133982689Y-98917145D01*
X133962419Y-99110000D01*
X133277581Y-99110000D01*
X133257311Y-98917145D01*
X133197387Y-98732719D01*
X133100429Y-98564782D01*
X133018654Y-98473961D01*
X132973445Y-98423751D01*
X132973442Y-98423748D01*
X132970673Y-98420673D01*
X132813791Y-98306691D01*
X132810007Y-98305006D01*
X132810003Y-98305004D01*
X132640421Y-98229502D01*
X132640419Y-98229501D01*
X132636638Y-98227818D01*
X132632592Y-98226958D01*
X132632589Y-98226957D01*
X132451002Y-98188359D01*
X132450998Y-98188359D01*
X132446959Y-98187500D01*
X132253041Y-98187500D01*
X132249002Y-98188359D01*
X132248998Y-98188359D01*
X132067411Y-98226957D01*
X132067408Y-98226958D01*
X132063362Y-98227818D01*
X132059581Y-98229501D01*
X132059579Y-98229502D01*
X131889998Y-98305004D01*
X131889994Y-98305006D01*
X131886210Y-98306691D01*
X131882856Y-98309128D01*
X131882854Y-98309129D01*
X131813161Y-98359764D01*
X131729327Y-98420673D01*
X131726558Y-98423748D01*
X131726555Y-98423751D01*
X131681346Y-98473961D01*
X131599571Y-98564782D01*
X131502613Y-98732719D01*
X131442689Y-98917145D01*
X131422419Y-99110000D01*
X130737581Y-99110000D01*
X130717311Y-98917145D01*
X130657387Y-98732719D01*
X130560429Y-98564782D01*
X130478654Y-98473961D01*
X130433445Y-98423751D01*
X130433442Y-98423748D01*
X130430673Y-98420673D01*
X130273791Y-98306691D01*
X130270007Y-98305006D01*
X130270003Y-98305004D01*
X130100421Y-98229502D01*
X130100419Y-98229501D01*
X130096638Y-98227818D01*
X130092592Y-98226958D01*
X130092589Y-98226957D01*
X129911002Y-98188359D01*
X129910998Y-98188359D01*
X129906959Y-98187500D01*
X129713041Y-98187500D01*
X129709002Y-98188359D01*
X129708998Y-98188359D01*
X129527411Y-98226957D01*
X129527408Y-98226958D01*
X129523362Y-98227818D01*
X129519581Y-98229501D01*
X129519579Y-98229502D01*
X129349998Y-98305004D01*
X129349994Y-98305006D01*
X129346210Y-98306691D01*
X129342856Y-98309128D01*
X129342854Y-98309129D01*
X129273161Y-98359764D01*
X129189327Y-98420673D01*
X129186558Y-98423748D01*
X129186555Y-98423751D01*
X129141346Y-98473961D01*
X129059571Y-98564782D01*
X128962613Y-98732719D01*
X128902689Y-98917145D01*
X128882419Y-99110000D01*
X128902689Y-99302855D01*
X128939215Y-99415271D01*
X128962613Y-99487281D01*
X128961603Y-99487609D01*
X128965065Y-99537174D01*
X128944988Y-99571254D01*
X128744524Y-99771718D01*
X128740929Y-99774822D01*
X128736829Y-99776826D01*
X128731869Y-99782173D01*
X128704669Y-99811495D01*
X128702612Y-99813630D01*
X128689346Y-99826896D01*
X128687284Y-99829902D01*
X128685990Y-99831459D01*
X128683149Y-99834694D01*
X128664498Y-99854800D01*
X128661795Y-99861576D01*
X128659825Y-99866513D01*
X128651596Y-99881925D01*
X128644459Y-99892328D01*
X128642775Y-99899426D01*
X128638361Y-99918027D01*
X128634872Y-99929058D01*
X128625086Y-99953586D01*
X128624500Y-99959563D01*
X128624500Y-99967193D01*
X128622365Y-99985432D01*
X128619902Y-99995812D01*
X127290500Y-99995812D01*
X127290500Y-98657417D01*
X127292540Y-98639579D01*
X127293617Y-98634931D01*
X127294627Y-98630575D01*
X127294628Y-98630000D01*
X127293634Y-98625644D01*
X127293138Y-98621202D01*
X127294063Y-98621099D01*
X127293004Y-98604574D01*
X127293182Y-98602773D01*
X127305869Y-98473961D01*
X127308891Y-98458773D01*
X127352144Y-98316185D01*
X127358070Y-98301877D01*
X127428313Y-98170462D01*
X127436917Y-98157585D01*
X127531448Y-98042399D01*
X127542399Y-98031448D01*
X127657585Y-97936917D01*
X127670462Y-97928313D01*
X127801877Y-97858070D01*
X127816185Y-97852144D01*
X127958773Y-97808891D01*
X127973962Y-97805869D01*
X128104625Y-97793000D01*
X128112504Y-97792620D01*
X128121045Y-97792635D01*
X128129713Y-97794628D01*
X128139353Y-97792447D01*
X128156781Y-97790500D01*
X147403441Y-97790057D01*
X147454222Y-97808538D01*
G37*
G04 #@! TD.AperFunction*
M02*
