G04 #@! TF.GenerationSoftware,KiCad,Pcbnew,(6.0.6-0)*
G04 #@! TF.CreationDate,2022-07-06T00:13:59-04:00*
G04 #@! TF.ProjectId,PS2VGA,50533256-4741-42e6-9b69-6361645f7063,1*
G04 #@! TF.SameCoordinates,Original*
G04 #@! TF.FileFunction,Legend,Bot*
G04 #@! TF.FilePolarity,Positive*
%FSLAX46Y46*%
G04 Gerber Fmt 4.6, Leading zero omitted, Abs format (unit mm)*
G04 Created by KiCad (PCBNEW (6.0.6-0)) date 2022-07-06 00:13:59*
%MOMM*%
%LPD*%
G01*
G04 APERTURE LIST*
G04 Aperture macros list*
%AMRoundRect*
0 Rectangle with rounded corners*
0 $1 Rounding radius*
0 $2 $3 $4 $5 $6 $7 $8 $9 X,Y pos of 4 corners*
0 Add a 4 corners polygon primitive as box body*
4,1,4,$2,$3,$4,$5,$6,$7,$8,$9,$2,$3,0*
0 Add four circle primitives for the rounded corners*
1,1,$1+$1,$2,$3*
1,1,$1+$1,$4,$5*
1,1,$1+$1,$6,$7*
1,1,$1+$1,$8,$9*
0 Add four rect primitives between the rounded corners*
20,1,$1+$1,$2,$3,$4,$5,0*
20,1,$1+$1,$4,$5,$6,$7,0*
20,1,$1+$1,$6,$7,$8,$9,0*
20,1,$1+$1,$8,$9,$2,$3,0*%
G04 Aperture macros list end*
%ADD10C,0.127000*%
%ADD11C,0.100000*%
%ADD12C,0.150000*%
%ADD13C,0.200000*%
%ADD14C,0.120000*%
%ADD15C,1.200000*%
%ADD16C,1.625600*%
%ADD17RoundRect,0.250800X0.200000X0.275000X-0.200000X0.275000X-0.200000X-0.275000X0.200000X-0.275000X0*%
%ADD18RoundRect,0.275800X-0.225000X-0.250000X0.225000X-0.250000X0.225000X0.250000X-0.225000X0.250000X0*%
%ADD19RoundRect,0.275800X0.225000X0.250000X-0.225000X0.250000X-0.225000X-0.250000X0.225000X-0.250000X0*%
%ADD20RoundRect,0.250800X-0.200000X-0.275000X0.200000X-0.275000X0.200000X0.275000X-0.200000X0.275000X0*%
%ADD21RoundRect,0.050800X-0.850000X-0.850000X0.850000X-0.850000X0.850000X0.850000X-0.850000X0.850000X0*%
%ADD22C,1.801600*%
%ADD23C,4.167600*%
%ADD24RoundRect,0.275800X0.250000X-0.225000X0.250000X0.225000X-0.250000X0.225000X-0.250000X-0.225000X0*%
%ADD25C,1.601600*%
G04 APERTURE END LIST*
D10*
X129150000Y-112230000D02*
X129150000Y-106470000D01*
X147740000Y-106750000D02*
X133620000Y-106750000D01*
X129160000Y-106470000D02*
X127650000Y-104960000D01*
X147740000Y-106750000D02*
X147740000Y-112230000D01*
X147740000Y-112230000D02*
X129150000Y-112230000D01*
X133620000Y-106750000D02*
X132300000Y-105430000D01*
X132300000Y-105430000D02*
X130200000Y-105430000D01*
X147740000Y-100680000D02*
X127650000Y-100680000D01*
X129150000Y-106470000D02*
X130200000Y-105430000D01*
X127650000Y-104960000D02*
X127650000Y-100680000D01*
X147740000Y-100680000D02*
X147740000Y-106750000D01*
D11*
X146597142Y-104681190D02*
X146597142Y-104181190D01*
X146406666Y-104181190D01*
X146359047Y-104205000D01*
X146335238Y-104228809D01*
X146311428Y-104276428D01*
X146311428Y-104347857D01*
X146335238Y-104395476D01*
X146359047Y-104419285D01*
X146406666Y-104443095D01*
X146597142Y-104443095D01*
X146120952Y-104657380D02*
X146049523Y-104681190D01*
X145930476Y-104681190D01*
X145882857Y-104657380D01*
X145859047Y-104633571D01*
X145835238Y-104585952D01*
X145835238Y-104538333D01*
X145859047Y-104490714D01*
X145882857Y-104466904D01*
X145930476Y-104443095D01*
X146025714Y-104419285D01*
X146073333Y-104395476D01*
X146097142Y-104371666D01*
X146120952Y-104324047D01*
X146120952Y-104276428D01*
X146097142Y-104228809D01*
X146073333Y-104205000D01*
X146025714Y-104181190D01*
X145906666Y-104181190D01*
X145835238Y-104205000D01*
X145644761Y-104228809D02*
X145620952Y-104205000D01*
X145573333Y-104181190D01*
X145454285Y-104181190D01*
X145406666Y-104205000D01*
X145382857Y-104228809D01*
X145359047Y-104276428D01*
X145359047Y-104324047D01*
X145382857Y-104395476D01*
X145668571Y-104681190D01*
X145359047Y-104681190D01*
X144787619Y-104157380D02*
X145216190Y-104800238D01*
X144668571Y-104181190D02*
X144359047Y-104181190D01*
X144525714Y-104371666D01*
X144454285Y-104371666D01*
X144406666Y-104395476D01*
X144382857Y-104419285D01*
X144359047Y-104466904D01*
X144359047Y-104585952D01*
X144382857Y-104633571D01*
X144406666Y-104657380D01*
X144454285Y-104681190D01*
X144597142Y-104681190D01*
X144644761Y-104657380D01*
X144668571Y-104633571D01*
X146668571Y-105152857D02*
X146668571Y-105486190D01*
X146787619Y-104962380D02*
X146906666Y-105319523D01*
X146597142Y-105319523D01*
X146335238Y-105200476D02*
X146382857Y-105176666D01*
X146406666Y-105152857D01*
X146430476Y-105105238D01*
X146430476Y-105081428D01*
X146406666Y-105033809D01*
X146382857Y-105010000D01*
X146335238Y-104986190D01*
X146240000Y-104986190D01*
X146192380Y-105010000D01*
X146168571Y-105033809D01*
X146144761Y-105081428D01*
X146144761Y-105105238D01*
X146168571Y-105152857D01*
X146192380Y-105176666D01*
X146240000Y-105200476D01*
X146335238Y-105200476D01*
X146382857Y-105224285D01*
X146406666Y-105248095D01*
X146430476Y-105295714D01*
X146430476Y-105390952D01*
X146406666Y-105438571D01*
X146382857Y-105462380D01*
X146335238Y-105486190D01*
X146240000Y-105486190D01*
X146192380Y-105462380D01*
X146168571Y-105438571D01*
X146144761Y-105390952D01*
X146144761Y-105295714D01*
X146168571Y-105248095D01*
X146192380Y-105224285D01*
X146240000Y-105200476D01*
X145835238Y-104986190D02*
X145787619Y-104986190D01*
X145740000Y-105010000D01*
X145716190Y-105033809D01*
X145692380Y-105081428D01*
X145668571Y-105176666D01*
X145668571Y-105295714D01*
X145692380Y-105390952D01*
X145716190Y-105438571D01*
X145740000Y-105462380D01*
X145787619Y-105486190D01*
X145835238Y-105486190D01*
X145882857Y-105462380D01*
X145906666Y-105438571D01*
X145930476Y-105390952D01*
X145954285Y-105295714D01*
X145954285Y-105176666D01*
X145930476Y-105081428D01*
X145906666Y-105033809D01*
X145882857Y-105010000D01*
X145835238Y-104986190D01*
X145454285Y-105152857D02*
X145454285Y-105652857D01*
X145454285Y-105176666D02*
X145406666Y-105152857D01*
X145311428Y-105152857D01*
X145263809Y-105176666D01*
X145240000Y-105200476D01*
X145216190Y-105248095D01*
X145216190Y-105390952D01*
X145240000Y-105438571D01*
X145263809Y-105462380D01*
X145311428Y-105486190D01*
X145406666Y-105486190D01*
X145454285Y-105462380D01*
X144549523Y-105486190D02*
X144597142Y-105462380D01*
X144620952Y-105438571D01*
X144644761Y-105390952D01*
X144644761Y-105248095D01*
X144620952Y-105200476D01*
X144597142Y-105176666D01*
X144549523Y-105152857D01*
X144478095Y-105152857D01*
X144430476Y-105176666D01*
X144406666Y-105200476D01*
X144382857Y-105248095D01*
X144382857Y-105390952D01*
X144406666Y-105438571D01*
X144430476Y-105462380D01*
X144478095Y-105486190D01*
X144549523Y-105486190D01*
X144168571Y-105486190D02*
X144168571Y-105152857D01*
X144168571Y-105248095D02*
X144144761Y-105200476D01*
X144120952Y-105176666D01*
X144073333Y-105152857D01*
X144025714Y-105152857D01*
X146240000Y-106291190D02*
X146240000Y-106029285D01*
X146263809Y-105981666D01*
X146311428Y-105957857D01*
X146406666Y-105957857D01*
X146454285Y-105981666D01*
X146240000Y-106267380D02*
X146287619Y-106291190D01*
X146406666Y-106291190D01*
X146454285Y-106267380D01*
X146478095Y-106219761D01*
X146478095Y-106172142D01*
X146454285Y-106124523D01*
X146406666Y-106100714D01*
X146287619Y-106100714D01*
X146240000Y-106076904D01*
X146001904Y-106291190D02*
X146001904Y-105791190D01*
X146001904Y-105981666D02*
X145954285Y-105957857D01*
X145859047Y-105957857D01*
X145811428Y-105981666D01*
X145787619Y-106005476D01*
X145763809Y-106053095D01*
X145763809Y-106195952D01*
X145787619Y-106243571D01*
X145811428Y-106267380D01*
X145859047Y-106291190D01*
X145954285Y-106291190D01*
X146001904Y-106267380D01*
X145478095Y-106291190D02*
X145525714Y-106267380D01*
X145549523Y-106243571D01*
X145573333Y-106195952D01*
X145573333Y-106053095D01*
X145549523Y-106005476D01*
X145525714Y-105981666D01*
X145478095Y-105957857D01*
X145406666Y-105957857D01*
X145359047Y-105981666D01*
X145335238Y-106005476D01*
X145311428Y-106053095D01*
X145311428Y-106195952D01*
X145335238Y-106243571D01*
X145359047Y-106267380D01*
X145406666Y-106291190D01*
X145478095Y-106291190D01*
X145144761Y-105957857D02*
X145025714Y-106291190D01*
X144906666Y-105957857D01*
X144525714Y-106267380D02*
X144573333Y-106291190D01*
X144668571Y-106291190D01*
X144716190Y-106267380D01*
X144740000Y-106219761D01*
X144740000Y-106029285D01*
X144716190Y-105981666D01*
X144668571Y-105957857D01*
X144573333Y-105957857D01*
X144525714Y-105981666D01*
X144501904Y-106029285D01*
X144501904Y-106076904D01*
X144740000Y-106124523D01*
D12*
X151861904Y-115832380D02*
X151528571Y-116832380D01*
X151195238Y-115832380D01*
X150338095Y-115880000D02*
X150433333Y-115832380D01*
X150576190Y-115832380D01*
X150719047Y-115880000D01*
X150814285Y-115975238D01*
X150861904Y-116070476D01*
X150909523Y-116260952D01*
X150909523Y-116403809D01*
X150861904Y-116594285D01*
X150814285Y-116689523D01*
X150719047Y-116784761D01*
X150576190Y-116832380D01*
X150480952Y-116832380D01*
X150338095Y-116784761D01*
X150290476Y-116737142D01*
X150290476Y-116403809D01*
X150480952Y-116403809D01*
X149909523Y-116546666D02*
X149433333Y-116546666D01*
X150004761Y-116832380D02*
X149671428Y-115832380D01*
X149338095Y-116832380D01*
X146720952Y-108842380D02*
X146720952Y-109080476D01*
X146959047Y-108985238D02*
X146720952Y-109080476D01*
X146482857Y-108985238D01*
X146863809Y-109270952D02*
X146720952Y-109080476D01*
X146578095Y-109270952D01*
X145959047Y-108842380D02*
X145959047Y-109080476D01*
X146197142Y-108985238D02*
X145959047Y-109080476D01*
X145720952Y-108985238D01*
X146101904Y-109270952D02*
X145959047Y-109080476D01*
X145816190Y-109270952D01*
D11*
X146992857Y-111711428D02*
X146992857Y-111111428D01*
X146764285Y-111111428D01*
X146707142Y-111140000D01*
X146678571Y-111168571D01*
X146650000Y-111225714D01*
X146650000Y-111311428D01*
X146678571Y-111368571D01*
X146707142Y-111397142D01*
X146764285Y-111425714D01*
X146992857Y-111425714D01*
X146421428Y-111682857D02*
X146335714Y-111711428D01*
X146192857Y-111711428D01*
X146135714Y-111682857D01*
X146107142Y-111654285D01*
X146078571Y-111597142D01*
X146078571Y-111540000D01*
X146107142Y-111482857D01*
X146135714Y-111454285D01*
X146192857Y-111425714D01*
X146307142Y-111397142D01*
X146364285Y-111368571D01*
X146392857Y-111340000D01*
X146421428Y-111282857D01*
X146421428Y-111225714D01*
X146392857Y-111168571D01*
X146364285Y-111140000D01*
X146307142Y-111111428D01*
X146164285Y-111111428D01*
X146078571Y-111140000D01*
X145507142Y-111711428D02*
X145850000Y-111711428D01*
X145678571Y-111711428D02*
X145678571Y-111111428D01*
X145735714Y-111197142D01*
X145792857Y-111254285D01*
X145850000Y-111282857D01*
X144307142Y-111711428D02*
X144335714Y-111711428D01*
X144392857Y-111682857D01*
X144478571Y-111597142D01*
X144621428Y-111425714D01*
X144678571Y-111340000D01*
X144707142Y-111254285D01*
X144707142Y-111197142D01*
X144678571Y-111140000D01*
X144621428Y-111111428D01*
X144592857Y-111111428D01*
X144535714Y-111140000D01*
X144507142Y-111197142D01*
X144507142Y-111225714D01*
X144535714Y-111282857D01*
X144564285Y-111311428D01*
X144735714Y-111425714D01*
X144764285Y-111454285D01*
X144792857Y-111511428D01*
X144792857Y-111597142D01*
X144764285Y-111654285D01*
X144735714Y-111682857D01*
X144678571Y-111711428D01*
X144592857Y-111711428D01*
X144535714Y-111682857D01*
X144507142Y-111654285D01*
X144421428Y-111540000D01*
X144392857Y-111454285D01*
X144392857Y-111397142D01*
X143592857Y-111711428D02*
X143592857Y-111111428D01*
X143364285Y-111111428D01*
X143307142Y-111140000D01*
X143278571Y-111168571D01*
X143250000Y-111225714D01*
X143250000Y-111311428D01*
X143278571Y-111368571D01*
X143307142Y-111397142D01*
X143364285Y-111425714D01*
X143592857Y-111425714D01*
X143021428Y-111682857D02*
X142935714Y-111711428D01*
X142792857Y-111711428D01*
X142735714Y-111682857D01*
X142707142Y-111654285D01*
X142678571Y-111597142D01*
X142678571Y-111540000D01*
X142707142Y-111482857D01*
X142735714Y-111454285D01*
X142792857Y-111425714D01*
X142907142Y-111397142D01*
X142964285Y-111368571D01*
X142992857Y-111340000D01*
X143021428Y-111282857D01*
X143021428Y-111225714D01*
X142992857Y-111168571D01*
X142964285Y-111140000D01*
X142907142Y-111111428D01*
X142764285Y-111111428D01*
X142678571Y-111140000D01*
X142450000Y-111168571D02*
X142421428Y-111140000D01*
X142364285Y-111111428D01*
X142221428Y-111111428D01*
X142164285Y-111140000D01*
X142135714Y-111168571D01*
X142107142Y-111225714D01*
X142107142Y-111282857D01*
X142135714Y-111368571D01*
X142478571Y-111711428D01*
X142107142Y-111711428D01*
X141421428Y-111082857D02*
X141935714Y-111854285D01*
X141278571Y-111111428D02*
X140907142Y-111111428D01*
X141107142Y-111340000D01*
X141021428Y-111340000D01*
X140964285Y-111368571D01*
X140935714Y-111397142D01*
X140907142Y-111454285D01*
X140907142Y-111597142D01*
X140935714Y-111654285D01*
X140964285Y-111682857D01*
X141021428Y-111711428D01*
X141192857Y-111711428D01*
X141250000Y-111682857D01*
X141278571Y-111654285D01*
X140221428Y-111682857D02*
X140135714Y-111711428D01*
X139992857Y-111711428D01*
X139935714Y-111682857D01*
X139907142Y-111654285D01*
X139878571Y-111597142D01*
X139878571Y-111540000D01*
X139907142Y-111482857D01*
X139935714Y-111454285D01*
X139992857Y-111425714D01*
X140107142Y-111397142D01*
X140164285Y-111368571D01*
X140192857Y-111340000D01*
X140221428Y-111282857D01*
X140221428Y-111225714D01*
X140192857Y-111168571D01*
X140164285Y-111140000D01*
X140107142Y-111111428D01*
X139964285Y-111111428D01*
X139878571Y-111140000D01*
X139621428Y-111711428D02*
X139621428Y-111111428D01*
X139478571Y-111111428D01*
X139392857Y-111140000D01*
X139335714Y-111197142D01*
X139307142Y-111254285D01*
X139278571Y-111368571D01*
X139278571Y-111454285D01*
X139307142Y-111568571D01*
X139335714Y-111625714D01*
X139392857Y-111682857D01*
X139478571Y-111711428D01*
X139621428Y-111711428D01*
D13*
X128230000Y-101862380D02*
X128230000Y-102100476D01*
X128468095Y-102005238D02*
X128230000Y-102100476D01*
X127991904Y-102005238D01*
X128372857Y-102290952D02*
X128230000Y-102100476D01*
X128087142Y-102290952D01*
X128330000Y-103612380D02*
X128330000Y-103850476D01*
X128568095Y-103755238D02*
X128330000Y-103850476D01*
X128091904Y-103755238D01*
X128472857Y-104040952D02*
X128330000Y-103850476D01*
X128187142Y-104040952D01*
D11*
X146652857Y-110491428D02*
X146995714Y-110491428D01*
X146824285Y-110491428D02*
X146824285Y-109891428D01*
X146881428Y-109977142D01*
X146938571Y-110034285D01*
X146995714Y-110062857D01*
X146110000Y-109891428D02*
X146395714Y-109891428D01*
X146424285Y-110177142D01*
X146395714Y-110148571D01*
X146338571Y-110120000D01*
X146195714Y-110120000D01*
X146138571Y-110148571D01*
X146110000Y-110177142D01*
X146081428Y-110234285D01*
X146081428Y-110377142D01*
X146110000Y-110434285D01*
X146138571Y-110462857D01*
X146195714Y-110491428D01*
X146338571Y-110491428D01*
X146395714Y-110462857D01*
X146424285Y-110434285D01*
X145824285Y-110491428D02*
X145824285Y-109891428D01*
X145481428Y-110491428D02*
X145738571Y-110148571D01*
X145481428Y-109891428D02*
X145824285Y-110234285D01*
X145224285Y-110491428D02*
X145224285Y-109891428D01*
X145224285Y-110177142D02*
X144881428Y-110177142D01*
X144881428Y-110491428D02*
X144881428Y-109891428D01*
X144652857Y-110091428D02*
X144338571Y-110091428D01*
X144652857Y-110491428D01*
X144338571Y-110491428D01*
X143310000Y-110434285D02*
X143338571Y-110462857D01*
X143424285Y-110491428D01*
X143481428Y-110491428D01*
X143567142Y-110462857D01*
X143624285Y-110405714D01*
X143652857Y-110348571D01*
X143681428Y-110234285D01*
X143681428Y-110148571D01*
X143652857Y-110034285D01*
X143624285Y-109977142D01*
X143567142Y-109920000D01*
X143481428Y-109891428D01*
X143424285Y-109891428D01*
X143338571Y-109920000D01*
X143310000Y-109948571D01*
X143081428Y-110462857D02*
X142995714Y-110491428D01*
X142852857Y-110491428D01*
X142795714Y-110462857D01*
X142767142Y-110434285D01*
X142738571Y-110377142D01*
X142738571Y-110320000D01*
X142767142Y-110262857D01*
X142795714Y-110234285D01*
X142852857Y-110205714D01*
X142967142Y-110177142D01*
X143024285Y-110148571D01*
X143052857Y-110120000D01*
X143081428Y-110062857D01*
X143081428Y-110005714D01*
X143052857Y-109948571D01*
X143024285Y-109920000D01*
X142967142Y-109891428D01*
X142824285Y-109891428D01*
X142738571Y-109920000D01*
X142538571Y-110091428D02*
X142395714Y-110491428D01*
X142252857Y-110091428D02*
X142395714Y-110491428D01*
X142452857Y-110634285D01*
X142481428Y-110662857D01*
X142538571Y-110691428D01*
X142024285Y-110091428D02*
X142024285Y-110491428D01*
X142024285Y-110148571D02*
X141995714Y-110120000D01*
X141938571Y-110091428D01*
X141852857Y-110091428D01*
X141795714Y-110120000D01*
X141767142Y-110177142D01*
X141767142Y-110491428D01*
X141224285Y-110462857D02*
X141281428Y-110491428D01*
X141395714Y-110491428D01*
X141452857Y-110462857D01*
X141481428Y-110434285D01*
X141510000Y-110377142D01*
X141510000Y-110205714D01*
X141481428Y-110148571D01*
X141452857Y-110120000D01*
X141395714Y-110091428D01*
X141281428Y-110091428D01*
X141224285Y-110120000D01*
X146752857Y-101095428D02*
X146381428Y-101095428D01*
X146581428Y-101324000D01*
X146495714Y-101324000D01*
X146438571Y-101352571D01*
X146410000Y-101381142D01*
X146381428Y-101438285D01*
X146381428Y-101581142D01*
X146410000Y-101638285D01*
X146438571Y-101666857D01*
X146495714Y-101695428D01*
X146667142Y-101695428D01*
X146724285Y-101666857D01*
X146752857Y-101638285D01*
X146181428Y-101095428D02*
X145810000Y-101095428D01*
X146010000Y-101324000D01*
X145924285Y-101324000D01*
X145867142Y-101352571D01*
X145838571Y-101381142D01*
X145810000Y-101438285D01*
X145810000Y-101581142D01*
X145838571Y-101638285D01*
X145867142Y-101666857D01*
X145924285Y-101695428D01*
X146095714Y-101695428D01*
X146152857Y-101666857D01*
X146181428Y-101638285D01*
X145552857Y-101695428D02*
X145552857Y-101095428D01*
X145210000Y-101695428D02*
X145467142Y-101352571D01*
X145210000Y-101095428D02*
X145552857Y-101438285D01*
X144952857Y-101695428D02*
X144952857Y-101095428D01*
X144952857Y-101381142D02*
X144610000Y-101381142D01*
X144610000Y-101695428D02*
X144610000Y-101095428D01*
X144381428Y-101295428D02*
X144067142Y-101295428D01*
X144381428Y-101695428D01*
X144067142Y-101695428D01*
X145152857Y-102661428D02*
X145181428Y-102661428D01*
X145238571Y-102632857D01*
X145324285Y-102547142D01*
X145467142Y-102375714D01*
X145524285Y-102290000D01*
X145552857Y-102204285D01*
X145552857Y-102147142D01*
X145524285Y-102090000D01*
X145467142Y-102061428D01*
X145438571Y-102061428D01*
X145381428Y-102090000D01*
X145352857Y-102147142D01*
X145352857Y-102175714D01*
X145381428Y-102232857D01*
X145410000Y-102261428D01*
X145581428Y-102375714D01*
X145610000Y-102404285D01*
X145638571Y-102461428D01*
X145638571Y-102547142D01*
X145610000Y-102604285D01*
X145581428Y-102632857D01*
X145524285Y-102661428D01*
X145438571Y-102661428D01*
X145381428Y-102632857D01*
X145352857Y-102604285D01*
X145267142Y-102490000D01*
X145238571Y-102404285D01*
X145238571Y-102347142D01*
X147424285Y-103598857D02*
X147338571Y-103627428D01*
X147195714Y-103627428D01*
X147138571Y-103598857D01*
X147110000Y-103570285D01*
X147081428Y-103513142D01*
X147081428Y-103456000D01*
X147110000Y-103398857D01*
X147138571Y-103370285D01*
X147195714Y-103341714D01*
X147310000Y-103313142D01*
X147367142Y-103284571D01*
X147395714Y-103256000D01*
X147424285Y-103198857D01*
X147424285Y-103141714D01*
X147395714Y-103084571D01*
X147367142Y-103056000D01*
X147310000Y-103027428D01*
X147167142Y-103027428D01*
X147081428Y-103056000D01*
X146881428Y-103227428D02*
X146767142Y-103627428D01*
X146652857Y-103341714D01*
X146538571Y-103627428D01*
X146424285Y-103227428D01*
X146195714Y-103627428D02*
X146195714Y-103227428D01*
X146195714Y-103027428D02*
X146224285Y-103056000D01*
X146195714Y-103084571D01*
X146167142Y-103056000D01*
X146195714Y-103027428D01*
X146195714Y-103084571D01*
X145995714Y-103227428D02*
X145767142Y-103227428D01*
X145910000Y-103027428D02*
X145910000Y-103541714D01*
X145881428Y-103598857D01*
X145824285Y-103627428D01*
X145767142Y-103627428D01*
X145310000Y-103598857D02*
X145367142Y-103627428D01*
X145481428Y-103627428D01*
X145538571Y-103598857D01*
X145567142Y-103570285D01*
X145595714Y-103513142D01*
X145595714Y-103341714D01*
X145567142Y-103284571D01*
X145538571Y-103256000D01*
X145481428Y-103227428D01*
X145367142Y-103227428D01*
X145310000Y-103256000D01*
X145052857Y-103627428D02*
X145052857Y-103027428D01*
X144795714Y-103627428D02*
X144795714Y-103313142D01*
X144824285Y-103256000D01*
X144881428Y-103227428D01*
X144967142Y-103227428D01*
X145024285Y-103256000D01*
X145052857Y-103284571D01*
X144510000Y-103627428D02*
X144510000Y-103227428D01*
X144510000Y-103027428D02*
X144538571Y-103056000D01*
X144510000Y-103084571D01*
X144481428Y-103056000D01*
X144510000Y-103027428D01*
X144510000Y-103084571D01*
X144224285Y-103227428D02*
X144224285Y-103627428D01*
X144224285Y-103284571D02*
X144195714Y-103256000D01*
X144138571Y-103227428D01*
X144052857Y-103227428D01*
X143995714Y-103256000D01*
X143967142Y-103313142D01*
X143967142Y-103627428D01*
X143424285Y-103227428D02*
X143424285Y-103713142D01*
X143452857Y-103770285D01*
X143481428Y-103798857D01*
X143538571Y-103827428D01*
X143624285Y-103827428D01*
X143681428Y-103798857D01*
X143424285Y-103598857D02*
X143481428Y-103627428D01*
X143595714Y-103627428D01*
X143652857Y-103598857D01*
X143681428Y-103570285D01*
X143710000Y-103513142D01*
X143710000Y-103341714D01*
X143681428Y-103284571D01*
X143652857Y-103256000D01*
X143595714Y-103227428D01*
X143481428Y-103227428D01*
X143424285Y-103256000D01*
D12*
X137946666Y-102342380D02*
X138280000Y-101866190D01*
X138518095Y-102342380D02*
X138518095Y-101342380D01*
X138137142Y-101342380D01*
X138041904Y-101390000D01*
X137994285Y-101437619D01*
X137946666Y-101532857D01*
X137946666Y-101675714D01*
X137994285Y-101770952D01*
X138041904Y-101818571D01*
X138137142Y-101866190D01*
X138518095Y-101866190D01*
X136994285Y-102342380D02*
X137565714Y-102342380D01*
X137280000Y-102342380D02*
X137280000Y-101342380D01*
X137375238Y-101485238D01*
X137470476Y-101580476D01*
X137565714Y-101628095D01*
X137956666Y-105917142D02*
X138004285Y-105964761D01*
X138147142Y-106012380D01*
X138242380Y-106012380D01*
X138385238Y-105964761D01*
X138480476Y-105869523D01*
X138528095Y-105774285D01*
X138575714Y-105583809D01*
X138575714Y-105440952D01*
X138528095Y-105250476D01*
X138480476Y-105155238D01*
X138385238Y-105060000D01*
X138242380Y-105012380D01*
X138147142Y-105012380D01*
X138004285Y-105060000D01*
X137956666Y-105107619D01*
X137051904Y-105012380D02*
X137528095Y-105012380D01*
X137575714Y-105488571D01*
X137528095Y-105440952D01*
X137432857Y-105393333D01*
X137194761Y-105393333D01*
X137099523Y-105440952D01*
X137051904Y-105488571D01*
X137004285Y-105583809D01*
X137004285Y-105821904D01*
X137051904Y-105917142D01*
X137099523Y-105964761D01*
X137194761Y-106012380D01*
X137432857Y-106012380D01*
X137528095Y-105964761D01*
X137575714Y-105917142D01*
X137976666Y-104087142D02*
X138024285Y-104134761D01*
X138167142Y-104182380D01*
X138262380Y-104182380D01*
X138405238Y-104134761D01*
X138500476Y-104039523D01*
X138548095Y-103944285D01*
X138595714Y-103753809D01*
X138595714Y-103610952D01*
X138548095Y-103420476D01*
X138500476Y-103325238D01*
X138405238Y-103230000D01*
X138262380Y-103182380D01*
X138167142Y-103182380D01*
X138024285Y-103230000D01*
X137976666Y-103277619D01*
X137405238Y-103610952D02*
X137500476Y-103563333D01*
X137548095Y-103515714D01*
X137595714Y-103420476D01*
X137595714Y-103372857D01*
X137548095Y-103277619D01*
X137500476Y-103230000D01*
X137405238Y-103182380D01*
X137214761Y-103182380D01*
X137119523Y-103230000D01*
X137071904Y-103277619D01*
X137024285Y-103372857D01*
X137024285Y-103420476D01*
X137071904Y-103515714D01*
X137119523Y-103563333D01*
X137214761Y-103610952D01*
X137405238Y-103610952D01*
X137500476Y-103658571D01*
X137548095Y-103706190D01*
X137595714Y-103801428D01*
X137595714Y-103991904D01*
X137548095Y-104087142D01*
X137500476Y-104134761D01*
X137405238Y-104182380D01*
X137214761Y-104182380D01*
X137119523Y-104134761D01*
X137071904Y-104087142D01*
X137024285Y-103991904D01*
X137024285Y-103801428D01*
X137071904Y-103706190D01*
X137119523Y-103658571D01*
X137214761Y-103610952D01*
X129806666Y-104772380D02*
X130140000Y-104296190D01*
X130378095Y-104772380D02*
X130378095Y-103772380D01*
X129997142Y-103772380D01*
X129901904Y-103820000D01*
X129854285Y-103867619D01*
X129806666Y-103962857D01*
X129806666Y-104105714D01*
X129854285Y-104200952D01*
X129901904Y-104248571D01*
X129997142Y-104296190D01*
X130378095Y-104296190D01*
X129473333Y-103772380D02*
X128854285Y-103772380D01*
X129187619Y-104153333D01*
X129044761Y-104153333D01*
X128949523Y-104200952D01*
X128901904Y-104248571D01*
X128854285Y-104343809D01*
X128854285Y-104581904D01*
X128901904Y-104677142D01*
X128949523Y-104724761D01*
X129044761Y-104772380D01*
X129330476Y-104772380D01*
X129425714Y-104724761D01*
X129473333Y-104677142D01*
X131646666Y-107112380D02*
X131980000Y-106636190D01*
X132218095Y-107112380D02*
X132218095Y-106112380D01*
X131837142Y-106112380D01*
X131741904Y-106160000D01*
X131694285Y-106207619D01*
X131646666Y-106302857D01*
X131646666Y-106445714D01*
X131694285Y-106540952D01*
X131741904Y-106588571D01*
X131837142Y-106636190D01*
X132218095Y-106636190D01*
X130741904Y-106112380D02*
X131218095Y-106112380D01*
X131265714Y-106588571D01*
X131218095Y-106540952D01*
X131122857Y-106493333D01*
X130884761Y-106493333D01*
X130789523Y-106540952D01*
X130741904Y-106588571D01*
X130694285Y-106683809D01*
X130694285Y-106921904D01*
X130741904Y-107017142D01*
X130789523Y-107064761D01*
X130884761Y-107112380D01*
X131122857Y-107112380D01*
X131218095Y-107064761D01*
X131265714Y-107017142D01*
X132142857Y-111367142D02*
X132190476Y-111414761D01*
X132333333Y-111462380D01*
X132428571Y-111462380D01*
X132571428Y-111414761D01*
X132666666Y-111319523D01*
X132714285Y-111224285D01*
X132761904Y-111033809D01*
X132761904Y-110890952D01*
X132714285Y-110700476D01*
X132666666Y-110605238D01*
X132571428Y-110510000D01*
X132428571Y-110462380D01*
X132333333Y-110462380D01*
X132190476Y-110510000D01*
X132142857Y-110557619D01*
X131190476Y-111462380D02*
X131761904Y-111462380D01*
X131476190Y-111462380D02*
X131476190Y-110462380D01*
X131571428Y-110605238D01*
X131666666Y-110700476D01*
X131761904Y-110748095D01*
X130238095Y-111462380D02*
X130809523Y-111462380D01*
X130523809Y-111462380D02*
X130523809Y-110462380D01*
X130619047Y-110605238D01*
X130714285Y-110700476D01*
X130809523Y-110748095D01*
X129766666Y-102957142D02*
X129814285Y-103004761D01*
X129957142Y-103052380D01*
X130052380Y-103052380D01*
X130195238Y-103004761D01*
X130290476Y-102909523D01*
X130338095Y-102814285D01*
X130385714Y-102623809D01*
X130385714Y-102480952D01*
X130338095Y-102290476D01*
X130290476Y-102195238D01*
X130195238Y-102100000D01*
X130052380Y-102052380D01*
X129957142Y-102052380D01*
X129814285Y-102100000D01*
X129766666Y-102147619D01*
X129433333Y-102052380D02*
X128766666Y-102052380D01*
X129195238Y-103052380D01*
X142106666Y-106357142D02*
X142154285Y-106404761D01*
X142297142Y-106452380D01*
X142392380Y-106452380D01*
X142535238Y-106404761D01*
X142630476Y-106309523D01*
X142678095Y-106214285D01*
X142725714Y-106023809D01*
X142725714Y-105880952D01*
X142678095Y-105690476D01*
X142630476Y-105595238D01*
X142535238Y-105500000D01*
X142392380Y-105452380D01*
X142297142Y-105452380D01*
X142154285Y-105500000D01*
X142106666Y-105547619D01*
X141249523Y-105785714D02*
X141249523Y-106452380D01*
X141487619Y-105404761D02*
X141725714Y-106119047D01*
X141106666Y-106119047D01*
X139076666Y-108302380D02*
X139410000Y-107826190D01*
X139648095Y-108302380D02*
X139648095Y-107302380D01*
X139267142Y-107302380D01*
X139171904Y-107350000D01*
X139124285Y-107397619D01*
X139076666Y-107492857D01*
X139076666Y-107635714D01*
X139124285Y-107730952D01*
X139171904Y-107778571D01*
X139267142Y-107826190D01*
X139648095Y-107826190D01*
X138219523Y-107635714D02*
X138219523Y-108302380D01*
X138457619Y-107254761D02*
X138695714Y-107969047D01*
X138076666Y-107969047D01*
X146506666Y-108622380D02*
X146840000Y-108146190D01*
X147078095Y-108622380D02*
X147078095Y-107622380D01*
X146697142Y-107622380D01*
X146601904Y-107670000D01*
X146554285Y-107717619D01*
X146506666Y-107812857D01*
X146506666Y-107955714D01*
X146554285Y-108050952D01*
X146601904Y-108098571D01*
X146697142Y-108146190D01*
X147078095Y-108146190D01*
X145649523Y-107622380D02*
X145840000Y-107622380D01*
X145935238Y-107670000D01*
X145982857Y-107717619D01*
X146078095Y-107860476D01*
X146125714Y-108050952D01*
X146125714Y-108431904D01*
X146078095Y-108527142D01*
X146030476Y-108574761D01*
X145935238Y-108622380D01*
X145744761Y-108622380D01*
X145649523Y-108574761D01*
X145601904Y-108527142D01*
X145554285Y-108431904D01*
X145554285Y-108193809D01*
X145601904Y-108098571D01*
X145649523Y-108050952D01*
X145744761Y-108003333D01*
X145935238Y-108003333D01*
X146030476Y-108050952D01*
X146078095Y-108098571D01*
X146125714Y-108193809D01*
X142066666Y-102062380D02*
X142400000Y-101586190D01*
X142638095Y-102062380D02*
X142638095Y-101062380D01*
X142257142Y-101062380D01*
X142161904Y-101110000D01*
X142114285Y-101157619D01*
X142066666Y-101252857D01*
X142066666Y-101395714D01*
X142114285Y-101490952D01*
X142161904Y-101538571D01*
X142257142Y-101586190D01*
X142638095Y-101586190D01*
X141685714Y-101157619D02*
X141638095Y-101110000D01*
X141542857Y-101062380D01*
X141304761Y-101062380D01*
X141209523Y-101110000D01*
X141161904Y-101157619D01*
X141114285Y-101252857D01*
X141114285Y-101348095D01*
X141161904Y-101490952D01*
X141733333Y-102062380D01*
X141114285Y-102062380D01*
X151338095Y-115212380D02*
X151338095Y-114212380D01*
X150957142Y-114212380D01*
X150861904Y-114260000D01*
X150814285Y-114307619D01*
X150766666Y-114402857D01*
X150766666Y-114545714D01*
X150814285Y-114640952D01*
X150861904Y-114688571D01*
X150957142Y-114736190D01*
X151338095Y-114736190D01*
X150385714Y-114307619D02*
X150338095Y-114260000D01*
X150242857Y-114212380D01*
X150004761Y-114212380D01*
X149909523Y-114260000D01*
X149861904Y-114307619D01*
X149814285Y-114402857D01*
X149814285Y-114498095D01*
X149861904Y-114640952D01*
X150433333Y-115212380D01*
X149814285Y-115212380D01*
X134397142Y-110973333D02*
X134444761Y-110925714D01*
X134492380Y-110782857D01*
X134492380Y-110687619D01*
X134444761Y-110544761D01*
X134349523Y-110449523D01*
X134254285Y-110401904D01*
X134063809Y-110354285D01*
X133920952Y-110354285D01*
X133730476Y-110401904D01*
X133635238Y-110449523D01*
X133540000Y-110544761D01*
X133492380Y-110687619D01*
X133492380Y-110782857D01*
X133540000Y-110925714D01*
X133587619Y-110973333D01*
X134492380Y-111449523D02*
X134492380Y-111640000D01*
X134444761Y-111735238D01*
X134397142Y-111782857D01*
X134254285Y-111878095D01*
X134063809Y-111925714D01*
X133682857Y-111925714D01*
X133587619Y-111878095D01*
X133540000Y-111830476D01*
X133492380Y-111735238D01*
X133492380Y-111544761D01*
X133540000Y-111449523D01*
X133587619Y-111401904D01*
X133682857Y-111354285D01*
X133920952Y-111354285D01*
X134016190Y-111401904D01*
X134063809Y-111449523D01*
X134111428Y-111544761D01*
X134111428Y-111735238D01*
X134063809Y-111830476D01*
X134016190Y-111878095D01*
X133920952Y-111925714D01*
X152455238Y-106063333D02*
X152407619Y-105920476D01*
X152407619Y-105682380D01*
X152455238Y-105587142D01*
X152502857Y-105539523D01*
X152598095Y-105491904D01*
X152693333Y-105491904D01*
X152788571Y-105539523D01*
X152836190Y-105587142D01*
X152883809Y-105682380D01*
X152931428Y-105872857D01*
X152979047Y-105968095D01*
X153026666Y-106015714D01*
X153121904Y-106063333D01*
X153217142Y-106063333D01*
X153312380Y-106015714D01*
X153360000Y-105968095D01*
X153407619Y-105872857D01*
X153407619Y-105634761D01*
X153360000Y-105491904D01*
X153407619Y-105158571D02*
X152407619Y-104920476D01*
X153121904Y-104730000D01*
X152407619Y-104539523D01*
X153407619Y-104301428D01*
X152407619Y-103396666D02*
X152407619Y-103968095D01*
X152407619Y-103682380D02*
X153407619Y-103682380D01*
X153264761Y-103777619D01*
X153169523Y-103872857D01*
X153121904Y-103968095D01*
X155727619Y-107979047D02*
X155727619Y-107788571D01*
X155680000Y-107693333D01*
X155584761Y-107598095D01*
X155394285Y-107550476D01*
X155060952Y-107550476D01*
X154870476Y-107598095D01*
X154775238Y-107693333D01*
X154727619Y-107788571D01*
X154727619Y-107979047D01*
X154775238Y-108074285D01*
X154870476Y-108169523D01*
X155060952Y-108217142D01*
X155394285Y-108217142D01*
X155584761Y-108169523D01*
X155680000Y-108074285D01*
X155727619Y-107979047D01*
X154727619Y-107121904D02*
X155727619Y-107121904D01*
X154727619Y-106550476D01*
X155727619Y-106550476D01*
X140132857Y-110007142D02*
X140180476Y-110054761D01*
X140323333Y-110102380D01*
X140418571Y-110102380D01*
X140561428Y-110054761D01*
X140656666Y-109959523D01*
X140704285Y-109864285D01*
X140751904Y-109673809D01*
X140751904Y-109530952D01*
X140704285Y-109340476D01*
X140656666Y-109245238D01*
X140561428Y-109150000D01*
X140418571Y-109102380D01*
X140323333Y-109102380D01*
X140180476Y-109150000D01*
X140132857Y-109197619D01*
X139180476Y-110102380D02*
X139751904Y-110102380D01*
X139466190Y-110102380D02*
X139466190Y-109102380D01*
X139561428Y-109245238D01*
X139656666Y-109340476D01*
X139751904Y-109388095D01*
X138799523Y-109197619D02*
X138751904Y-109150000D01*
X138656666Y-109102380D01*
X138418571Y-109102380D01*
X138323333Y-109150000D01*
X138275714Y-109197619D01*
X138228095Y-109292857D01*
X138228095Y-109388095D01*
X138275714Y-109530952D01*
X138847142Y-110102380D01*
X138228095Y-110102380D01*
D14*
X135607258Y-102352500D02*
X135132742Y-102352500D01*
X135607258Y-101307500D02*
X135132742Y-101307500D01*
X135239420Y-105040000D02*
X135520580Y-105040000D01*
X135239420Y-106060000D02*
X135520580Y-106060000D01*
X135229420Y-104200000D02*
X135510580Y-104200000D01*
X135229420Y-103180000D02*
X135510580Y-103180000D01*
X132297258Y-104792500D02*
X131822742Y-104792500D01*
X132297258Y-103747500D02*
X131822742Y-103747500D01*
X131717258Y-108362500D02*
X131242742Y-108362500D01*
X131717258Y-107317500D02*
X131242742Y-107317500D01*
X131359420Y-109150000D02*
X131640580Y-109150000D01*
X131359420Y-110170000D02*
X131640580Y-110170000D01*
X131919420Y-103050000D02*
X132200580Y-103050000D01*
X131919420Y-102030000D02*
X132200580Y-102030000D01*
X142060580Y-105200000D02*
X141779420Y-105200000D01*
X142060580Y-104180000D02*
X141779420Y-104180000D01*
X136707258Y-108332500D02*
X136232742Y-108332500D01*
X136707258Y-107287500D02*
X136232742Y-107287500D01*
X144037258Y-108642500D02*
X143562742Y-108642500D01*
X144037258Y-107597500D02*
X143562742Y-107597500D01*
X141647742Y-103432500D02*
X142122258Y-103432500D01*
X141647742Y-102387500D02*
X142122258Y-102387500D01*
X133490000Y-108850580D02*
X133490000Y-108569420D01*
X134510000Y-108850580D02*
X134510000Y-108569420D01*
X151080000Y-107330000D02*
X154300000Y-107330000D01*
X154300000Y-107330000D02*
X153590000Y-106620000D01*
X154300000Y-107330000D02*
X153590000Y-108040000D01*
X136329420Y-109150000D02*
X136610580Y-109150000D01*
X136329420Y-110170000D02*
X136610580Y-110170000D01*
%LPC*%
D15*
X147590000Y-99110000D03*
D16*
X155210000Y-99110000D03*
X145050000Y-99110000D03*
X142510000Y-99110000D03*
X139970000Y-99110000D03*
X137430000Y-99110000D03*
X134890000Y-99110000D03*
X132350000Y-99110000D03*
X129810000Y-99110000D03*
X152670000Y-99110000D03*
X150130000Y-99110000D03*
D17*
X136195000Y-101830000D03*
X134545000Y-101830000D03*
D18*
X134605000Y-105550000D03*
X136155000Y-105550000D03*
X134595000Y-103690000D03*
X136145000Y-103690000D03*
D17*
X132885000Y-104270000D03*
X131235000Y-104270000D03*
X132305000Y-107840000D03*
X130655000Y-107840000D03*
D18*
X130725000Y-109660000D03*
X132275000Y-109660000D03*
X131285000Y-102540000D03*
X132835000Y-102540000D03*
D19*
X142695000Y-104690000D03*
X141145000Y-104690000D03*
D17*
X137295000Y-107810000D03*
X135645000Y-107810000D03*
X144625000Y-108120000D03*
X142975000Y-108120000D03*
D20*
X141060000Y-102910000D03*
X142710000Y-102910000D03*
D21*
X137950000Y-113395000D03*
D22*
X140240000Y-113395000D03*
X142530000Y-113395000D03*
X144820000Y-113395000D03*
X147110000Y-113395000D03*
X136805000Y-115375000D03*
X139095000Y-115375000D03*
X141385000Y-115375000D03*
X143675000Y-115375000D03*
X145965000Y-115375000D03*
X137950000Y-117355000D03*
X140240000Y-117355000D03*
X142530000Y-117355000D03*
X144820000Y-117355000D03*
X147110000Y-117355000D03*
D23*
X155025000Y-115375000D03*
X130035000Y-115375000D03*
D24*
X134000000Y-109485000D03*
X134000000Y-107935000D03*
D25*
X156890000Y-108620000D03*
X156890000Y-106080000D03*
X156890000Y-103540000D03*
X156890000Y-101000000D03*
X148890000Y-108620000D03*
X148890000Y-106080000D03*
X148890000Y-103540000D03*
X148890000Y-101000000D03*
D18*
X135695000Y-109660000D03*
X137245000Y-109660000D03*
M02*
