M48
; DRILL file {KiCad (6.0.6-0)} date Wednesday, 06 July 2022 at 00:14:02
; FORMAT={-:-/ absolute / inch / decimal}
; #@! TF.CreationDate,2022-07-06T00:14:02-04:00
; #@! TF.GenerationSoftware,Kicad,Pcbnew,(6.0.6-0)
; #@! TF.FileFunction,MixedPlating,1,2
FMAT,2
INCH
; #@! TA.AperFunction,Plated,PTH,ViaDrill
T1C0.0118
; #@! TA.AperFunction,Plated,PTH,ComponentDrill
T2C0.0394
; #@! TA.AperFunction,Plated,PTH,ComponentDrill
T3C0.1260
; #@! TA.AperFunction,NonPlated,NPTH,ComponentDrill
T4C0.0394
%
G90
G05
T1
X5.1035Y-4.1957
X5.1035Y-4.374
X5.1154Y-4.0374
X5.1606Y-4.2787
X5.3776Y-4.0996
X5.4028Y-4.3272
X5.4717Y-4.2386
X5.4724Y-4.0803
X5.5539Y-4.0346
X5.5543Y-4.2598
X5.5626Y-3.9524
X5.6193Y-4.0346
X5.6224Y-4.2567
X5.6992Y-4.2618
X5.7882Y-4.1941
T2
X5.1106Y-3.902
X5.2106Y-3.902
X5.3106Y-3.902
X5.386Y-4.5423
X5.4106Y-3.902
X5.4311Y-4.4644
X5.4311Y-4.6203
X5.4762Y-4.5423
X5.5106Y-3.902
X5.5213Y-4.4644
X5.5213Y-4.6203
X5.5663Y-4.5423
X5.6106Y-3.902
X5.6114Y-4.4644
X5.6114Y-4.6203
X5.6565Y-4.5423
X5.7016Y-4.4644
X5.7016Y-4.6203
X5.7106Y-3.902
X5.7467Y-4.5423
X5.7917Y-4.4644
X5.7917Y-4.6203
X5.8618Y-3.9764
X5.8618Y-4.0764
X5.8618Y-4.1764
X5.8618Y-4.2764
X5.9106Y-3.902
X6.0106Y-3.902
X6.1106Y-3.902
X6.1768Y-3.9764
X6.1768Y-4.0764
X6.1768Y-4.1764
X6.1768Y-4.2764
T3
X5.1195Y-4.5423
X6.1033Y-4.5423
T4
X5.8106Y-3.902
T0
M30
